<svg xmlns="http://www.w3.org/2000/svg" xmlns:xlink="http://www.w3.org/1999/xlink" width="500" zoomAndPan="magnify" viewBox="0 0 375 374.999991" height="500" preserveAspectRatio="xMidYMid meet" version="1.0"><defs><g/></defs><g fill="#5564e8" fill-opacity="1"><g transform="translate(0.0000045, 133.198182)"><g><path d="M 12.445312 0 L 19.855469 0 L 19.855469 -11.511719 L 31.835938 -32.628906 L 23.398438 -32.628906 L 19.390625 -25.078125 L 16.175781 -19.15625 L 12.910156 -25.078125 L 8.855469 -32.628906 L 0.417969 -32.628906 L 12.445312 -11.421875 Z M 12.445312 0 "/></g></g></g><g fill="#5564e8" fill-opacity="1"><g transform="translate(32.251032, 133.198182)"><g><path d="M 15.570312 0.652344 C 23.679688 0.652344 29.273438 -4.613281 29.273438 -12.257812 C 29.273438 -19.855469 23.679688 -25.125 15.570312 -25.125 C 7.410156 -25.125 1.816406 -19.855469 1.816406 -12.257812 C 1.816406 -4.613281 7.410156 0.652344 15.570312 0.652344 Z M 8.808594 -12.257812 C 8.808594 -16.269531 11.605469 -19.066406 15.570312 -19.066406 C 19.53125 -19.066406 22.28125 -16.269531 22.28125 -12.257812 C 22.28125 -8.25 19.53125 -5.453125 15.570312 -5.453125 C 11.605469 -5.453125 8.808594 -8.25 8.808594 -12.257812 Z M 8.808594 -12.257812 "/></g></g></g><g fill="#5564e8" fill-opacity="1"><g transform="translate(63.336914, 133.198182)"><g><path d="M 13.285156 0.652344 C 16.5 0.652344 19.390625 -0.464844 21.347656 -2.75 L 22.09375 0 L 27.363281 0 L 27.363281 -24.472656 L 20.277344 -24.472656 L 20.277344 -11.699219 C 20.277344 -7.832031 18.179688 -5.453125 14.960938 -5.453125 C 11.980469 -5.453125 10.160156 -7.550781 10.160156 -11.140625 L 10.160156 -24.472656 L 3.078125 -24.472656 L 3.078125 -10.441406 C 3.078125 -3.636719 6.945312 0.652344 13.285156 0.652344 Z M 13.285156 0.652344 "/></g></g></g><g fill="#5564e8" fill-opacity="1"><g transform="translate(94.236372, 133.198182)"><g/></g></g><g fill="#ffffff" fill-opacity="1"><g transform="translate(105.187498, 133.198182)"><g><path d="M 3.914062 0 L 11.328125 0 L 11.328125 -9.089844 L 16.6875 -9.089844 C 24.566406 -9.089844 29.644531 -13.703125 29.644531 -20.835938 C 29.644531 -28.015625 24.566406 -32.628906 16.6875 -32.628906 L 3.914062 -32.628906 Z M 11.28125 -15.476562 L 11.28125 -26.148438 L 16.082031 -26.148438 C 19.949219 -26.148438 22.09375 -24.191406 22.09375 -20.789062 C 22.09375 -17.386719 19.949219 -15.476562 16.082031 -15.476562 Z M 11.28125 -15.476562 "/></g></g></g><g fill="#ffffff" fill-opacity="1"><g transform="translate(136.180168, 133.198182)"><g><path d="M 3.542969 0 L 10.628906 0 L 10.628906 -10.8125 C 10.628906 -16.082031 13.097656 -18.039062 17.152344 -18.039062 L 19.855469 -18.039062 L 19.855469 -24.472656 L 17.199219 -24.472656 C 13.609375 -24.472656 11.328125 -23.492188 9.742188 -21.207031 L 8.808594 -24.472656 L 3.542969 -24.472656 Z M 3.542969 0 "/></g></g></g><g fill="#ffffff" fill-opacity="1"><g transform="translate(157.618704, 133.198182)"><g><path d="M 15.101562 0.652344 C 21.117188 0.652344 25.871094 -2.425781 28.015625 -7.597656 L 20.835938 -7.597656 C 19.671875 -5.964844 17.574219 -5.035156 15.242188 -5.035156 C 12.027344 -5.035156 9.507812 -6.851562 8.855469 -10.207031 L 28.480469 -10.207031 C 28.898438 -19.15625 23.585938 -25.125 15.195312 -25.125 C 7.273438 -25.125 1.816406 -19.855469 1.816406 -12.257812 C 1.816406 -4.613281 7.226562 0.652344 15.101562 0.652344 Z M 8.902344 -14.683594 C 9.695312 -17.667969 12.121094 -19.484375 15.242188 -19.484375 C 18.503906 -19.484375 20.835938 -17.667969 21.628906 -14.683594 Z M 8.902344 -14.683594 "/></g></g></g><g fill="#ffffff" fill-opacity="1"><g transform="translate(187.865688, 133.198182)"><g><path d="M 12.957031 0.652344 C 19.578125 0.652344 23.585938 -2.238281 23.585938 -6.898438 C 23.585938 -10.90625 20.601562 -13.472656 14.542969 -14.683594 C 10.347656 -15.523438 9.042969 -16.222656 9.042969 -17.710938 C 9.042969 -19.15625 10.347656 -19.996094 12.445312 -19.996094 C 14.824219 -19.996094 16.269531 -18.925781 16.40625 -17.058594 L 23.167969 -17.058594 C 22.839844 -22.234375 19.019531 -25.125 12.492188 -25.125 C 5.917969 -25.125 2.191406 -22.46875 2.191406 -17.710938 C 2.191406 -13.65625 4.988281 -11.234375 11.234375 -10.113281 C 15.007812 -9.460938 16.59375 -8.484375 16.59375 -6.945312 C 16.59375 -5.5 15.289062 -4.613281 13.050781 -4.613281 C 10.441406 -4.613281 8.855469 -5.875 8.808594 -7.878906 L 1.863281 -7.878906 C 1.863281 -2.75 6.246094 0.652344 12.957031 0.652344 Z M 12.957031 0.652344 "/></g></g></g><g fill="#ffffff" fill-opacity="1"><g transform="translate(213.358912, 133.198182)"><g><path d="M 12.957031 0.652344 C 19.578125 0.652344 23.585938 -2.238281 23.585938 -6.898438 C 23.585938 -10.90625 20.601562 -13.472656 14.542969 -14.683594 C 10.347656 -15.523438 9.042969 -16.222656 9.042969 -17.710938 C 9.042969 -19.15625 10.347656 -19.996094 12.445312 -19.996094 C 14.824219 -19.996094 16.269531 -18.925781 16.40625 -17.058594 L 23.167969 -17.058594 C 22.839844 -22.234375 19.019531 -25.125 12.492188 -25.125 C 5.917969 -25.125 2.191406 -22.46875 2.191406 -17.710938 C 2.191406 -13.65625 4.988281 -11.234375 11.234375 -10.113281 C 15.007812 -9.460938 16.59375 -8.484375 16.59375 -6.945312 C 16.59375 -5.5 15.289062 -4.613281 13.050781 -4.613281 C 10.441406 -4.613281 8.855469 -5.875 8.808594 -7.878906 L 1.863281 -7.878906 C 1.863281 -2.75 6.246094 0.652344 12.957031 0.652344 Z M 12.957031 0.652344 "/></g></g></g><g fill="#ffffff" fill-opacity="1"><g transform="translate(238.852136, 133.198182)"><g/></g></g><g fill="#ffffff" fill-opacity="1"><g transform="translate(249.804428, 133.198182)"><g><path d="M 15.335938 0 L 19.808594 0 L 19.808594 -6.152344 L 16.875 -6.152344 C 14.078125 -6.152344 12.773438 -7.503906 12.773438 -10.347656 L 12.773438 -18.691406 L 19.484375 -18.691406 L 19.484375 -24.472656 L 12.773438 -24.472656 L 12.773438 -30.8125 L 7.273438 -30.8125 L 6.851562 -27.640625 C 6.480469 -25.125 5.78125 -24.472656 3.121094 -24.472656 L 0.933594 -24.472656 L 0.933594 -18.691406 L 5.6875 -18.691406 L 5.6875 -9.277344 C 5.6875 -3.308594 9.136719 0 15.335938 0 Z M 15.335938 0 "/></g></g></g><g fill="#ffffff" fill-opacity="1"><g transform="translate(271.569212, 133.198182)"><g><path d="M 3.542969 0 L 10.628906 0 L 10.628906 -12.863281 C 10.628906 -16.734375 12.773438 -19.066406 16.035156 -19.066406 C 19.066406 -19.066406 20.882812 -17.011719 20.882812 -13.425781 L 20.882812 0 L 27.96875 0 L 27.96875 -14.125 C 27.96875 -20.929688 24.144531 -25.125 17.804688 -25.125 C 15.054688 -25.125 12.492188 -24.285156 10.628906 -22.605469 L 10.628906 -34.492188 L 3.542969 -34.492188 Z M 3.542969 0 "/></g></g></g><g fill="#ffffff" fill-opacity="1"><g transform="translate(302.608506, 133.198182)"><g><path d="M 15.101562 0.652344 C 21.117188 0.652344 25.871094 -2.425781 28.015625 -7.597656 L 20.835938 -7.597656 C 19.671875 -5.964844 17.574219 -5.035156 15.242188 -5.035156 C 12.027344 -5.035156 9.507812 -6.851562 8.855469 -10.207031 L 28.480469 -10.207031 C 28.898438 -19.15625 23.585938 -25.125 15.195312 -25.125 C 7.273438 -25.125 1.816406 -19.855469 1.816406 -12.257812 C 1.816406 -4.613281 7.226562 0.652344 15.101562 0.652344 Z M 8.902344 -14.683594 C 9.695312 -17.667969 12.121094 -19.484375 15.242188 -19.484375 C 18.503906 -19.484375 20.835938 -17.667969 21.628906 -14.683594 Z M 8.902344 -14.683594 "/></g></g></g><g fill="#5564e8" fill-opacity="1"><g transform="translate(0.0000045, 198.448177)"><g><path d="M 3.914062 0 L 11.328125 0 L 11.328125 -32.628906 L 3.914062 -32.628906 Z M 3.914062 0 "/></g></g></g><g fill="#5564e8" fill-opacity="1"><g transform="translate(15.240009, 198.448177)"><g><path d="M 3.542969 0 L 10.628906 0 L 10.628906 -12.820312 C 10.628906 -16.6875 12.773438 -19.066406 16.035156 -19.066406 C 19.066406 -19.066406 20.882812 -16.921875 20.882812 -13.332031 L 20.882812 0 L 27.96875 0 L 27.96875 -14.078125 C 27.96875 -20.835938 24.097656 -25.125 17.710938 -25.125 C 14.449219 -25.125 11.511719 -24.003906 9.554688 -21.722656 L 8.808594 -24.472656 L 3.542969 -24.472656 Z M 3.542969 0 "/></g></g></g><g fill="#5564e8" fill-opacity="1"><g transform="translate(46.279291, 198.448177)"><g><path d="M 15.335938 0 L 19.808594 0 L 19.808594 -6.152344 L 16.875 -6.152344 C 14.078125 -6.152344 12.773438 -7.503906 12.773438 -10.347656 L 12.773438 -18.691406 L 19.484375 -18.691406 L 19.484375 -24.472656 L 12.773438 -24.472656 L 12.773438 -30.8125 L 7.273438 -30.8125 L 6.851562 -27.640625 C 6.480469 -25.125 5.78125 -24.472656 3.121094 -24.472656 L 0.933594 -24.472656 L 0.933594 -18.691406 L 5.6875 -18.691406 L 5.6875 -9.277344 C 5.6875 -3.308594 9.136719 0 15.335938 0 Z M 15.335938 0 "/></g></g></g><g fill="#5564e8" fill-opacity="1"><g transform="translate(68.044075, 198.448177)"><g><path d="M 15.101562 0.652344 C 21.117188 0.652344 25.871094 -2.425781 28.015625 -7.597656 L 20.835938 -7.597656 C 19.671875 -5.964844 17.574219 -5.035156 15.242188 -5.035156 C 12.027344 -5.035156 9.507812 -6.851562 8.855469 -10.207031 L 28.480469 -10.207031 C 28.898438 -19.15625 23.585938 -25.125 15.195312 -25.125 C 7.273438 -25.125 1.816406 -19.855469 1.816406 -12.257812 C 1.816406 -4.613281 7.226562 0.652344 15.101562 0.652344 Z M 8.902344 -14.683594 C 9.695312 -17.667969 12.121094 -19.484375 15.242188 -19.484375 C 18.503906 -19.484375 20.835938 -17.667969 21.628906 -14.683594 Z M 8.902344 -14.683594 "/></g></g></g><g fill="#5564e8" fill-opacity="1"><g transform="translate(98.291059, 198.448177)"><g><path d="M 3.542969 0 L 10.628906 0 L 10.628906 -10.8125 C 10.628906 -16.082031 13.097656 -18.039062 17.152344 -18.039062 L 19.855469 -18.039062 L 19.855469 -24.472656 L 17.199219 -24.472656 C 13.609375 -24.472656 11.328125 -23.492188 9.742188 -21.207031 L 8.808594 -24.472656 L 3.542969 -24.472656 Z M 3.542969 0 "/></g></g></g><g fill="#5564e8" fill-opacity="1"><g transform="translate(119.729595, 198.448177)"><g><path d="M 3.542969 0 L 10.628906 0 L 10.628906 -12.820312 C 10.628906 -16.6875 12.773438 -19.066406 16.035156 -19.066406 C 19.066406 -19.066406 20.882812 -16.921875 20.882812 -13.332031 L 20.882812 0 L 27.96875 0 L 27.96875 -14.078125 C 27.96875 -20.835938 24.097656 -25.125 17.710938 -25.125 C 14.449219 -25.125 11.511719 -24.003906 9.554688 -21.722656 L 8.808594 -24.472656 L 3.542969 -24.472656 Z M 3.542969 0 "/></g></g></g><g fill="#5564e8" fill-opacity="1"><g transform="translate(150.768877, 198.448177)"><g><path d="M 12.957031 0.652344 C 19.578125 0.652344 23.585938 -2.238281 23.585938 -6.898438 C 23.585938 -10.90625 20.601562 -13.472656 14.542969 -14.683594 C 10.347656 -15.523438 9.042969 -16.222656 9.042969 -17.710938 C 9.042969 -19.15625 10.347656 -19.996094 12.445312 -19.996094 C 14.824219 -19.996094 16.269531 -18.925781 16.40625 -17.058594 L 23.167969 -17.058594 C 22.839844 -22.234375 19.019531 -25.125 12.492188 -25.125 C 5.917969 -25.125 2.191406 -22.46875 2.191406 -17.710938 C 2.191406 -13.65625 4.988281 -11.234375 11.234375 -10.113281 C 15.007812 -9.460938 16.59375 -8.484375 16.59375 -6.945312 C 16.59375 -5.5 15.289062 -4.613281 13.050781 -4.613281 C 10.441406 -4.613281 8.855469 -5.875 8.808594 -7.878906 L 1.863281 -7.878906 C 1.863281 -2.75 6.246094 0.652344 12.957031 0.652344 Z M 12.957031 0.652344 "/></g></g></g><g fill="#5564e8" fill-opacity="1"><g transform="translate(176.262101, 198.448177)"><g><path d="M 3.542969 0 L 10.628906 0 L 10.628906 -12.863281 C 10.628906 -16.734375 12.773438 -19.066406 16.035156 -19.066406 C 19.066406 -19.066406 20.882812 -17.011719 20.882812 -13.425781 L 20.882812 0 L 27.96875 0 L 27.96875 -14.125 C 27.96875 -20.929688 24.144531 -25.125 17.804688 -25.125 C 15.054688 -25.125 12.492188 -24.285156 10.628906 -22.605469 L 10.628906 -34.492188 L 3.542969 -34.492188 Z M 3.542969 0 "/></g></g></g><g fill="#5564e8" fill-opacity="1"><g transform="translate(207.301383, 198.448177)"><g><path d="M 3.542969 0 L 10.628906 0 L 10.628906 -24.472656 L 3.542969 -24.472656 Z M 2.515625 -32.394531 C 2.515625 -29.785156 4.382812 -27.96875 7.085938 -27.96875 C 9.789062 -27.96875 11.652344 -29.785156 11.652344 -32.394531 C 11.652344 -35.007812 9.789062 -36.824219 7.085938 -36.824219 C 4.382812 -36.824219 2.515625 -35.007812 2.515625 -32.394531 Z M 2.515625 -32.394531 "/></g></g></g><g fill="#5564e8" fill-opacity="1"><g transform="translate(221.469465, 198.448177)"><g><path d="M 18.367188 0.652344 C 25.683594 0.652344 30.859375 -4.660156 30.859375 -12.257812 C 30.859375 -19.765625 25.683594 -25.125 18.367188 -25.125 C 14.824219 -25.125 11.792969 -23.867188 9.601562 -21.675781 L 8.808594 -24.472656 L 3.542969 -24.472656 L 3.542969 9.324219 L 10.628906 9.324219 L 10.628906 -1.910156 C 12.679688 -0.28125 15.335938 0.652344 18.367188 0.652344 Z M 10.347656 -12.257812 C 10.347656 -16.222656 13.144531 -19.066406 17.105469 -19.066406 C 21.117188 -19.066406 23.867188 -16.222656 23.867188 -12.257812 C 23.867188 -8.25 21.117188 -5.453125 17.105469 -5.453125 C 13.144531 -5.453125 10.347656 -8.25 10.347656 -12.257812 Z M 10.347656 -12.257812 "/></g></g></g><g fill="#ffffff" fill-opacity="1"><g transform="translate(254.1328, 198.448177)"><g><path d="M 3.914062 3.960938 L 3.914062 7.503906 C 8.761719 7.179688 11.511719 2.703125 11.511719 -1.726562 C 11.511719 -5.175781 9.648438 -7.925781 6.339844 -7.925781 C 3.683594 -7.925781 1.910156 -6.105469 1.910156 -3.683594 C 1.910156 -1.304688 3.683594 0.464844 6.199219 0.464844 C 6.433594 0.464844 6.710938 0.464844 6.992188 0.417969 C 6.851562 2.332031 5.78125 3.496094 3.914062 3.960938 Z M 3.914062 3.960938 "/></g></g></g><g fill="#ffffff" fill-opacity="1"><g transform="translate(0.0000045, 263.698173)"><g><path d="M 10.953125 0 L 18.273438 0 L 25.683594 -21.117188 L 33.09375 0 L 40.367188 0 L 50.902344 -32.628906 L 43.070312 -32.628906 L 39.945312 -22.699219 L 36.449219 -11.839844 L 32.675781 -22.699219 L 29.179688 -32.628906 L 22.140625 -32.628906 L 18.644531 -22.699219 L 14.914062 -11.980469 L 11.464844 -22.699219 L 8.34375 -32.628906 L 0.464844 -32.628906 Z M 10.953125 0 "/></g></g></g><g fill="#ffffff" fill-opacity="1"><g transform="translate(51.359289, 263.698173)"><g><path d="M 15.101562 0.652344 C 21.117188 0.652344 25.871094 -2.425781 28.015625 -7.597656 L 20.835938 -7.597656 C 19.671875 -5.964844 17.574219 -5.035156 15.242188 -5.035156 C 12.027344 -5.035156 9.507812 -6.851562 8.855469 -10.207031 L 28.480469 -10.207031 C 28.898438 -19.15625 23.585938 -25.125 15.195312 -25.125 C 7.273438 -25.125 1.816406 -19.855469 1.816406 -12.257812 C 1.816406 -4.613281 7.226562 0.652344 15.101562 0.652344 Z M 8.902344 -14.683594 C 9.695312 -17.667969 12.121094 -19.484375 15.242188 -19.484375 C 18.503906 -19.484375 20.835938 -17.667969 21.628906 -14.683594 Z M 8.902344 -14.683594 "/></g></g></g><g fill="#ffffff" fill-opacity="1"><g transform="translate(81.606273, 263.698173)"><g/></g></g><g fill="#ffffff" fill-opacity="1"><g transform="translate(92.558566, 263.698173)"><g><path d="M 3.914062 0 L 16.828125 0 C 27.128906 0 34.027344 -6.574219 34.027344 -16.3125 C 34.027344 -26.011719 27.128906 -32.628906 16.828125 -32.628906 L 3.914062 -32.628906 Z M 11.328125 -6.804688 L 11.328125 -25.824219 L 16.59375 -25.824219 C 22.46875 -25.824219 26.429688 -22.046875 26.429688 -16.3125 C 26.429688 -10.582031 22.46875 -6.804688 16.6875 -6.804688 Z M 11.328125 -6.804688 "/></g></g></g><g fill="#ffffff" fill-opacity="1"><g transform="translate(128.538033, 263.698173)"><g><path d="M 15.570312 0.652344 C 23.679688 0.652344 29.273438 -4.613281 29.273438 -12.257812 C 29.273438 -19.855469 23.679688 -25.125 15.570312 -25.125 C 7.410156 -25.125 1.816406 -19.855469 1.816406 -12.257812 C 1.816406 -4.613281 7.410156 0.652344 15.570312 0.652344 Z M 8.808594 -12.257812 C 8.808594 -16.269531 11.605469 -19.066406 15.570312 -19.066406 C 19.53125 -19.066406 22.28125 -16.269531 22.28125 -12.257812 C 22.28125 -8.25 19.53125 -5.453125 15.570312 -5.453125 C 11.605469 -5.453125 8.808594 -8.25 8.808594 -12.257812 Z M 8.808594 -12.257812 "/></g></g></g><g fill="#ffffff" fill-opacity="1"><g transform="translate(159.623914, 263.698173)"><g/></g></g><g fill="#ffffff" fill-opacity="1"><g transform="translate(170.576207, 263.698173)"><g><path d="M 15.335938 0 L 19.808594 0 L 19.808594 -6.152344 L 16.875 -6.152344 C 14.078125 -6.152344 12.773438 -7.503906 12.773438 -10.347656 L 12.773438 -18.691406 L 19.484375 -18.691406 L 19.484375 -24.472656 L 12.773438 -24.472656 L 12.773438 -30.8125 L 7.273438 -30.8125 L 6.851562 -27.640625 C 6.480469 -25.125 5.78125 -24.472656 3.121094 -24.472656 L 0.933594 -24.472656 L 0.933594 -18.691406 L 5.6875 -18.691406 L 5.6875 -9.277344 C 5.6875 -3.308594 9.136719 0 15.335938 0 Z M 15.335938 0 "/></g></g></g><g fill="#ffffff" fill-opacity="1"><g transform="translate(192.34098, 263.698173)"><g><path d="M 3.542969 0 L 10.628906 0 L 10.628906 -12.863281 C 10.628906 -16.734375 12.773438 -19.066406 16.035156 -19.066406 C 19.066406 -19.066406 20.882812 -17.011719 20.882812 -13.425781 L 20.882812 0 L 27.96875 0 L 27.96875 -14.125 C 27.96875 -20.929688 24.144531 -25.125 17.804688 -25.125 C 15.054688 -25.125 12.492188 -24.285156 10.628906 -22.605469 L 10.628906 -34.492188 L 3.542969 -34.492188 Z M 3.542969 0 "/></g></g></g><g fill="#ffffff" fill-opacity="1"><g transform="translate(223.380262, 263.698173)"><g><path d="M 15.101562 0.652344 C 21.117188 0.652344 25.871094 -2.425781 28.015625 -7.597656 L 20.835938 -7.597656 C 19.671875 -5.964844 17.574219 -5.035156 15.242188 -5.035156 C 12.027344 -5.035156 9.507812 -6.851562 8.855469 -10.207031 L 28.480469 -10.207031 C 28.898438 -19.15625 23.585938 -25.125 15.195312 -25.125 C 7.273438 -25.125 1.816406 -19.855469 1.816406 -12.257812 C 1.816406 -4.613281 7.226562 0.652344 15.101562 0.652344 Z M 8.902344 -14.683594 C 9.695312 -17.667969 12.121094 -19.484375 15.242188 -19.484375 C 18.503906 -19.484375 20.835938 -17.667969 21.628906 -14.683594 Z M 8.902344 -14.683594 "/></g></g></g><g fill="#ffffff" fill-opacity="1"><g transform="translate(253.627246, 263.698173)"><g/></g></g><g fill="#ffffff" fill-opacity="1"><g transform="translate(264.579539, 263.698173)"><g><path d="M 3.914062 0 L 11.328125 0 L 11.328125 -10.160156 L 16.222656 -10.160156 L 22.046875 0 L 30.625 0 L 23.867188 -11.328125 C 27.78125 -13.050781 30.066406 -16.59375 30.066406 -21.394531 C 30.066406 -28.339844 25.3125 -32.628906 17.851562 -32.628906 L 3.914062 -32.628906 Z M 11.234375 -16.40625 L 11.234375 -26.289062 L 16.875 -26.289062 C 20.507812 -26.289062 22.558594 -24.519531 22.558594 -21.347656 C 22.558594 -18.179688 20.507812 -16.40625 16.875 -16.40625 Z M 11.234375 -16.40625 "/></g></g></g><g fill="#ffffff" fill-opacity="1"><g transform="translate(297.389817, 263.698173)"><g><path d="M 15.101562 0.652344 C 21.117188 0.652344 25.871094 -2.425781 28.015625 -7.597656 L 20.835938 -7.597656 C 19.671875 -5.964844 17.574219 -5.035156 15.242188 -5.035156 C 12.027344 -5.035156 9.507812 -6.851562 8.855469 -10.207031 L 28.480469 -10.207031 C 28.898438 -19.15625 23.585938 -25.125 15.195312 -25.125 C 7.273438 -25.125 1.816406 -19.855469 1.816406 -12.257812 C 1.816406 -4.613281 7.226562 0.652344 15.101562 0.652344 Z M 8.902344 -14.683594 C 9.695312 -17.667969 12.121094 -19.484375 15.242188 -19.484375 C 18.503906 -19.484375 20.835938 -17.667969 21.628906 -14.683594 Z M 8.902344 -14.683594 "/></g></g></g><g fill="#ffffff" fill-opacity="1"><g transform="translate(327.636801, 263.698173)"><g><path d="M 12.957031 0.652344 C 19.578125 0.652344 23.585938 -2.238281 23.585938 -6.898438 C 23.585938 -10.90625 20.601562 -13.472656 14.542969 -14.683594 C 10.347656 -15.523438 9.042969 -16.222656 9.042969 -17.710938 C 9.042969 -19.15625 10.347656 -19.996094 12.445312 -19.996094 C 14.824219 -19.996094 16.269531 -18.925781 16.40625 -17.058594 L 23.167969 -17.058594 C 22.839844 -22.234375 19.019531 -25.125 12.492188 -25.125 C 5.917969 -25.125 2.191406 -22.46875 2.191406 -17.710938 C 2.191406 -13.65625 4.988281 -11.234375 11.234375 -10.113281 C 15.007812 -9.460938 16.59375 -8.484375 16.59375 -6.945312 C 16.59375 -5.5 15.289062 -4.613281 13.050781 -4.613281 C 10.441406 -4.613281 8.855469 -5.875 8.808594 -7.878906 L 1.863281 -7.878906 C 1.863281 -2.75 6.246094 0.652344 12.957031 0.652344 Z M 12.957031 0.652344 "/></g></g></g><g fill="#ffffff" fill-opacity="1"><g transform="translate(353.130025, 263.698173)"><g><path d="M 15.335938 0 L 19.808594 0 L 19.808594 -6.152344 L 16.875 -6.152344 C 14.078125 -6.152344 12.773438 -7.503906 12.773438 -10.347656 L 12.773438 -18.691406 L 19.484375 -18.691406 L 19.484375 -24.472656 L 12.773438 -24.472656 L 12.773438 -30.8125 L 7.273438 -30.8125 L 6.851562 -27.640625 C 6.480469 -25.125 5.78125 -24.472656 3.121094 -24.472656 L 0.933594 -24.472656 L 0.933594 -18.691406 L 5.6875 -18.691406 L 5.6875 -9.277344 C 5.6875 -3.308594 9.136719 0 15.335938 0 Z M 15.335938 0 "/></g></g></g></svg>