<svg xmlns="http://www.w3.org/2000/svg" xmlns:xlink="http://www.w3.org/1999/xlink" width="500" zoomAndPan="magnify" viewBox="0 0 375 225" height="300" preserveAspectRatio="xMidYMid meet" version="1.0"><defs><g/></defs><g fill="#ffffff" fill-opacity="1"><g transform="translate(2.784697, 46.471764)"><g><path d="M 0.207031 0 L 4.082031 0 L 5.15625 -2.757812 L 11.496094 -2.757812 L 12.566406 0 L 16.445312 0 L 10.105469 -15.964844 L 6.546875 -15.964844 Z M 6.089844 -5.609375 L 8.324219 -11.449219 L 10.582031 -5.609375 Z M 6.089844 -5.609375 "/></g></g></g><g fill="#ffffff" fill-opacity="1"><g transform="translate(19.432107, 46.471764)"><g/></g></g><g fill="#ffffff" fill-opacity="1"><g transform="translate(24.791203, 46.471764)"><g><path d="M 8.984375 0.320312 C 12.566406 0.320312 15.097656 -2.28125 15.097656 -6 C 15.097656 -9.671875 12.566406 -12.292969 8.984375 -12.292969 C 7.253906 -12.292969 5.769531 -11.675781 4.699219 -10.605469 L 4.3125 -11.972656 L 1.734375 -11.972656 L 1.734375 4.5625 L 5.199219 4.5625 L 5.199219 -0.933594 C 6.203125 -0.136719 7.503906 0.320312 8.984375 0.320312 Z M 5.0625 -6 C 5.0625 -7.9375 6.433594 -9.328125 8.371094 -9.328125 C 10.332031 -9.328125 11.675781 -7.9375 11.675781 -6 C 11.675781 -4.035156 10.332031 -2.667969 8.371094 -2.667969 C 6.433594 -2.667969 5.0625 -4.035156 5.0625 -6 Z M 5.0625 -6 "/></g></g></g><g fill="#ffffff" fill-opacity="1"><g transform="translate(40.777283, 46.471764)"><g><path d="M 1.734375 0 L 5.199219 0 L 5.199219 -16.878906 L 1.734375 -16.878906 Z M 1.734375 0 "/></g></g></g><g fill="#ffffff" fill-opacity="1"><g transform="translate(47.709908, 46.471764)"><g><path d="M 5.726562 0.226562 C 7.503906 0.226562 8.964844 -0.34375 9.988281 -1.390625 L 10.378906 0 L 12.953125 0 L 12.953125 -7.207031 C 12.953125 -10.378906 10.8125 -12.292969 7.230469 -12.292969 C 4.171875 -12.292969 2.167969 -10.832031 1.734375 -8.234375 L 5.0625 -8.234375 C 5.269531 -9.078125 6.136719 -9.648438 7.253906 -9.648438 C 8.621094 -9.648438 9.554688 -8.871094 9.554688 -7.6875 L 9.554688 -7.140625 L 5.222656 -7.140625 C 2.738281 -7.140625 1.140625 -5.703125 1.140625 -3.488281 C 1.140625 -1.1875 2.898438 0.226562 5.726562 0.226562 Z M 4.5625 -3.625 C 4.5625 -4.449219 5.246094 -4.972656 6.292969 -4.972656 L 9.578125 -4.972656 C 9.511719 -3.351562 8.257812 -2.257812 6.523438 -2.257812 C 5.335938 -2.257812 4.5625 -2.804688 4.5625 -3.625 Z M 4.5625 -3.625 "/></g></g></g><g fill="#ffffff" fill-opacity="1"><g transform="translate(62.168075, 46.471764)"><g><path d="M 7.503906 0 L 9.691406 0 L 9.691406 -3.011719 L 8.257812 -3.011719 C 6.886719 -3.011719 6.25 -3.671875 6.25 -5.0625 L 6.25 -9.144531 L 9.535156 -9.144531 L 9.535156 -11.972656 L 6.25 -11.972656 L 6.25 -15.074219 L 3.558594 -15.074219 L 3.351562 -13.523438 C 3.171875 -12.292969 2.828125 -11.972656 1.527344 -11.972656 L 0.457031 -11.972656 L 0.457031 -9.144531 L 2.78125 -9.144531 L 2.78125 -4.539062 C 2.78125 -1.621094 4.46875 0 7.503906 0 Z M 7.503906 0 "/></g></g></g><g fill="#ffffff" fill-opacity="1"><g transform="translate(72.817855, 46.471764)"><g><path d="M 2.917969 -12.933594 L 2.917969 -11.972656 L 0.523438 -11.972656 L 0.523438 -9.144531 L 2.917969 -9.144531 L 2.917969 0 L 6.386719 0 L 6.386719 -9.144531 L 9.898438 -9.144531 L 9.898438 -11.972656 L 6.316406 -11.972656 L 6.316406 -12.75 C 6.316406 -14.003906 6.863281 -14.574219 8.121094 -14.574219 L 10.011719 -14.574219 L 10.011719 -17.3125 L 7.367188 -17.3125 C 4.492188 -17.3125 2.917969 -15.761719 2.917969 -12.933594 Z M 2.917969 -12.933594 "/></g></g></g><g fill="#ffffff" fill-opacity="1"><g transform="translate(83.057158, 46.471764)"><g><path d="M 7.617188 0.320312 C 11.585938 0.320312 14.324219 -2.257812 14.324219 -6 C 14.324219 -9.714844 11.585938 -12.292969 7.617188 -12.292969 C 3.625 -12.292969 0.890625 -9.714844 0.890625 -6 C 0.890625 -2.257812 3.625 0.320312 7.617188 0.320312 Z M 4.3125 -6 C 4.3125 -7.960938 5.679688 -9.328125 7.617188 -9.328125 C 9.554688 -9.328125 10.902344 -7.960938 10.902344 -6 C 10.902344 -4.035156 9.554688 -2.667969 7.617188 -2.667969 C 5.679688 -2.667969 4.3125 -4.035156 4.3125 -6 Z M 4.3125 -6 "/></g></g></g><g fill="#ffffff" fill-opacity="1"><g transform="translate(98.267877, 46.471764)"><g><path d="M 1.734375 0 L 5.199219 0 L 5.199219 -5.292969 C 5.199219 -7.867188 6.410156 -8.828125 8.394531 -8.828125 L 9.714844 -8.828125 L 9.714844 -11.972656 L 8.414062 -11.972656 C 6.660156 -11.972656 5.542969 -11.496094 4.765625 -10.378906 L 4.3125 -11.972656 L 1.734375 -11.972656 Z M 1.734375 0 "/></g></g></g><g fill="#ffffff" fill-opacity="1"><g transform="translate(108.758023, 46.471764)"><g><path d="M 1.734375 0 L 5.199219 0 L 5.199219 -6.476562 C 5.199219 -8.210938 6.15625 -9.328125 7.640625 -9.328125 C 9.078125 -9.328125 9.96875 -8.257812 9.96875 -6.570312 L 9.96875 0 L 13.386719 0 L 13.386719 -6.476562 C 13.386719 -8.210938 14.347656 -9.328125 15.828125 -9.328125 C 17.265625 -9.328125 18.15625 -8.257812 18.15625 -6.570312 L 18.15625 0 L 21.621094 0 L 21.621094 -6.980469 C 21.621094 -10.261719 19.660156 -12.292969 16.605469 -12.292969 C 14.777344 -12.292969 13.273438 -11.585938 12.292969 -10.332031 C 11.449219 -11.609375 10.058594 -12.292969 8.347656 -12.292969 C 6.820312 -12.292969 5.519531 -11.769531 4.652344 -10.742188 L 4.3125 -11.972656 L 1.734375 -11.972656 Z M 1.734375 0 "/></g></g></g><g fill="#ffffff" fill-opacity="1"><g transform="translate(131.881966, 46.471764)"><g/></g></g><g fill="#ffffff" fill-opacity="1"><g transform="translate(137.241062, 46.471764)"><g><path d="M 7.503906 0 L 9.691406 0 L 9.691406 -3.011719 L 8.257812 -3.011719 C 6.886719 -3.011719 6.25 -3.671875 6.25 -5.0625 L 6.25 -9.144531 L 9.535156 -9.144531 L 9.535156 -11.972656 L 6.25 -11.972656 L 6.25 -15.074219 L 3.558594 -15.074219 L 3.351562 -13.523438 C 3.171875 -12.292969 2.828125 -11.972656 1.527344 -11.972656 L 0.457031 -11.972656 L 0.457031 -9.144531 L 2.78125 -9.144531 L 2.78125 -4.539062 C 2.78125 -1.621094 4.46875 0 7.503906 0 Z M 7.503906 0 "/></g></g></g><g fill="#ffffff" fill-opacity="1"><g transform="translate(147.890842, 46.471764)"><g><path d="M 1.734375 0 L 5.199219 0 L 5.199219 -6.292969 C 5.199219 -8.1875 6.25 -9.328125 7.847656 -9.328125 C 9.328125 -9.328125 10.21875 -8.324219 10.21875 -6.570312 L 10.21875 0 L 13.683594 0 L 13.683594 -6.910156 C 13.683594 -10.242188 11.8125 -12.292969 8.710938 -12.292969 C 7.367188 -12.292969 6.113281 -11.882812 5.199219 -11.0625 L 5.199219 -16.878906 L 1.734375 -16.878906 Z M 1.734375 0 "/></g></g></g><g fill="#ffffff" fill-opacity="1"><g transform="translate(163.078753, 46.471764)"><g><path d="M 5.726562 0.226562 C 7.503906 0.226562 8.964844 -0.34375 9.988281 -1.390625 L 10.378906 0 L 12.953125 0 L 12.953125 -7.207031 C 12.953125 -10.378906 10.8125 -12.292969 7.230469 -12.292969 C 4.171875 -12.292969 2.167969 -10.832031 1.734375 -8.234375 L 5.0625 -8.234375 C 5.269531 -9.078125 6.136719 -9.648438 7.253906 -9.648438 C 8.621094 -9.648438 9.554688 -8.871094 9.554688 -7.6875 L 9.554688 -7.140625 L 5.222656 -7.140625 C 2.738281 -7.140625 1.140625 -5.703125 1.140625 -3.488281 C 1.140625 -1.1875 2.898438 0.226562 5.726562 0.226562 Z M 4.5625 -3.625 C 4.5625 -4.449219 5.246094 -4.972656 6.292969 -4.972656 L 9.578125 -4.972656 C 9.511719 -3.351562 8.257812 -2.257812 6.523438 -2.257812 C 5.335938 -2.257812 4.5625 -2.804688 4.5625 -3.625 Z M 4.5625 -3.625 "/></g></g></g><g fill="#ffffff" fill-opacity="1"><g transform="translate(177.53692, 46.471764)"><g><path d="M 7.503906 0 L 9.691406 0 L 9.691406 -3.011719 L 8.257812 -3.011719 C 6.886719 -3.011719 6.25 -3.671875 6.25 -5.0625 L 6.25 -9.144531 L 9.535156 -9.144531 L 9.535156 -11.972656 L 6.25 -11.972656 L 6.25 -15.074219 L 3.558594 -15.074219 L 3.351562 -13.523438 C 3.171875 -12.292969 2.828125 -11.972656 1.527344 -11.972656 L 0.457031 -11.972656 L 0.457031 -9.144531 L 2.78125 -9.144531 L 2.78125 -4.539062 C 2.78125 -1.621094 4.46875 0 7.503906 0 Z M 7.503906 0 "/></g></g></g><g fill="#ffffff" fill-opacity="1"><g transform="translate(188.1867, 46.471764)"><g/></g></g><g fill="#ffffff" fill-opacity="1"><g transform="translate(193.545796, 46.471764)"><g><path d="M 1.734375 0 L 5.199219 0 L 5.199219 -6.476562 C 5.199219 -8.210938 6.15625 -9.328125 7.640625 -9.328125 C 9.078125 -9.328125 9.96875 -8.257812 9.96875 -6.570312 L 9.96875 0 L 13.386719 0 L 13.386719 -6.476562 C 13.386719 -8.210938 14.347656 -9.328125 15.828125 -9.328125 C 17.265625 -9.328125 18.15625 -8.257812 18.15625 -6.570312 L 18.15625 0 L 21.621094 0 L 21.621094 -6.980469 C 21.621094 -10.261719 19.660156 -12.292969 16.605469 -12.292969 C 14.777344 -12.292969 13.273438 -11.585938 12.292969 -10.332031 C 11.449219 -11.609375 10.058594 -12.292969 8.347656 -12.292969 C 6.820312 -12.292969 5.519531 -11.769531 4.652344 -10.742188 L 4.3125 -11.972656 L 1.734375 -11.972656 Z M 1.734375 0 "/></g></g></g><g fill="#ffffff" fill-opacity="1"><g transform="translate(216.669727, 46.471764)"><g><path d="M 5.726562 0.226562 C 7.503906 0.226562 8.964844 -0.34375 9.988281 -1.390625 L 10.378906 0 L 12.953125 0 L 12.953125 -7.207031 C 12.953125 -10.378906 10.8125 -12.292969 7.230469 -12.292969 C 4.171875 -12.292969 2.167969 -10.832031 1.734375 -8.234375 L 5.0625 -8.234375 C 5.269531 -9.078125 6.136719 -9.648438 7.253906 -9.648438 C 8.621094 -9.648438 9.554688 -8.871094 9.554688 -7.6875 L 9.554688 -7.140625 L 5.222656 -7.140625 C 2.738281 -7.140625 1.140625 -5.703125 1.140625 -3.488281 C 1.140625 -1.1875 2.898438 0.226562 5.726562 0.226562 Z M 4.5625 -3.625 C 4.5625 -4.449219 5.246094 -4.972656 6.292969 -4.972656 L 9.578125 -4.972656 C 9.511719 -3.351562 8.257812 -2.257812 6.523438 -2.257812 C 5.335938 -2.257812 4.5625 -2.804688 4.5625 -3.625 Z M 4.5625 -3.625 "/></g></g></g><g fill="#ffffff" fill-opacity="1"><g transform="translate(231.127894, 46.471764)"><g><path d="M 1.734375 0 L 5.199219 0 L 5.199219 -4.5625 L 7.070312 -4.5625 L 9.714844 0 L 13.753906 0 L 10.308594 -5.726562 C 10.949219 -6.292969 11.449219 -7.09375 11.835938 -8.164062 L 13.226562 -11.972656 L 9.488281 -11.972656 L 8.644531 -9.375 C 8.1875 -8.027344 7.550781 -7.664062 6.089844 -7.664062 L 5.199219 -7.664062 L 5.199219 -16.878906 L 1.734375 -16.878906 Z M 1.734375 0 "/></g></g></g><g fill="#ffffff" fill-opacity="1"><g transform="translate(245.472033, 46.471764)"><g><path d="M 7.390625 0.320312 C 10.332031 0.320312 12.65625 -1.1875 13.707031 -3.71875 L 10.195312 -3.71875 C 9.625 -2.917969 8.597656 -2.464844 7.457031 -2.464844 C 5.882812 -2.464844 4.652344 -3.351562 4.332031 -4.996094 L 13.933594 -4.996094 C 14.140625 -9.375 11.539062 -12.292969 7.433594 -12.292969 C 3.558594 -12.292969 0.890625 -9.714844 0.890625 -6 C 0.890625 -2.257812 3.535156 0.320312 7.390625 0.320312 Z M 4.355469 -7.183594 C 4.742188 -8.644531 5.929688 -9.535156 7.457031 -9.535156 C 9.054688 -9.535156 10.195312 -8.644531 10.582031 -7.183594 Z M 4.355469 -7.183594 "/></g></g></g><g fill="#ffffff" fill-opacity="1"><g transform="translate(260.272264, 46.471764)"><g><path d="M 6.339844 0.320312 C 9.578125 0.320312 11.539062 -1.09375 11.539062 -3.375 C 11.539062 -5.335938 10.082031 -6.589844 7.117188 -7.183594 C 5.0625 -7.59375 4.425781 -7.9375 4.425781 -8.667969 C 4.425781 -9.375 5.0625 -9.785156 6.089844 -9.785156 C 7.253906 -9.785156 7.960938 -9.261719 8.027344 -8.347656 L 11.335938 -8.347656 C 11.175781 -10.878906 9.304688 -12.292969 6.113281 -12.292969 C 2.898438 -12.292969 1.070312 -10.992188 1.070312 -8.667969 C 1.070312 -6.683594 2.441406 -5.496094 5.496094 -4.949219 C 7.34375 -4.628906 8.121094 -4.152344 8.121094 -3.398438 C 8.121094 -2.691406 7.480469 -2.257812 6.386719 -2.257812 C 5.109375 -2.257812 4.332031 -2.875 4.3125 -3.855469 L 0.914062 -3.855469 C 0.914062 -1.34375 3.054688 0.320312 6.339844 0.320312 Z M 6.339844 0.320312 "/></g></g></g><g fill="#ffffff" fill-opacity="1"><g transform="translate(272.746415, 46.471764)"><g/></g></g><g fill="#ffffff" fill-opacity="1"><g transform="translate(278.1055, 46.471764)"><g><path d="M 1.734375 0 L 5.199219 0 L 5.199219 -11.972656 L 1.734375 -11.972656 Z M 1.230469 -15.851562 C 1.230469 -14.574219 2.144531 -13.683594 3.464844 -13.683594 C 4.789062 -13.683594 5.703125 -14.574219 5.703125 -15.851562 C 5.703125 -17.128906 4.789062 -18.019531 3.464844 -18.019531 C 2.144531 -18.019531 1.230469 -17.128906 1.230469 -15.851562 Z M 1.230469 -15.851562 "/></g></g></g><g fill="#ffffff" fill-opacity="1"><g transform="translate(285.038125, 46.471764)"><g><path d="M 7.503906 0 L 9.691406 0 L 9.691406 -3.011719 L 8.257812 -3.011719 C 6.886719 -3.011719 6.25 -3.671875 6.25 -5.0625 L 6.25 -9.144531 L 9.535156 -9.144531 L 9.535156 -11.972656 L 6.25 -11.972656 L 6.25 -15.074219 L 3.558594 -15.074219 L 3.351562 -13.523438 C 3.171875 -12.292969 2.828125 -11.972656 1.527344 -11.972656 L 0.457031 -11.972656 L 0.457031 -9.144531 L 2.78125 -9.144531 L 2.78125 -4.539062 C 2.78125 -1.621094 4.46875 0 7.503906 0 Z M 7.503906 0 "/></g></g></g><g fill="#ffffff" fill-opacity="1"><g transform="translate(295.687904, 46.471764)"><g/></g></g><g fill="#ffffff" fill-opacity="1"><g transform="translate(301.047012, 46.471764)"><g><path d="M 7.390625 0.320312 C 10.332031 0.320312 12.65625 -1.1875 13.707031 -3.71875 L 10.195312 -3.71875 C 9.625 -2.917969 8.597656 -2.464844 7.457031 -2.464844 C 5.882812 -2.464844 4.652344 -3.351562 4.332031 -4.996094 L 13.933594 -4.996094 C 14.140625 -9.375 11.539062 -12.292969 7.433594 -12.292969 C 3.558594 -12.292969 0.890625 -9.714844 0.890625 -6 C 0.890625 -2.257812 3.535156 0.320312 7.390625 0.320312 Z M 4.355469 -7.183594 C 4.742188 -8.644531 5.929688 -9.535156 7.457031 -9.535156 C 9.054688 -9.535156 10.195312 -8.644531 10.582031 -7.183594 Z M 4.355469 -7.183594 "/></g></g></g><g fill="#ffffff" fill-opacity="1"><g transform="translate(315.847244, 46.471764)"><g><path d="M 5.726562 0.226562 C 7.503906 0.226562 8.964844 -0.34375 9.988281 -1.390625 L 10.378906 0 L 12.953125 0 L 12.953125 -7.207031 C 12.953125 -10.378906 10.8125 -12.292969 7.230469 -12.292969 C 4.171875 -12.292969 2.167969 -10.832031 1.734375 -8.234375 L 5.0625 -8.234375 C 5.269531 -9.078125 6.136719 -9.648438 7.253906 -9.648438 C 8.621094 -9.648438 9.554688 -8.871094 9.554688 -7.6875 L 9.554688 -7.140625 L 5.222656 -7.140625 C 2.738281 -7.140625 1.140625 -5.703125 1.140625 -3.488281 C 1.140625 -1.1875 2.898438 0.226562 5.726562 0.226562 Z M 4.5625 -3.625 C 4.5625 -4.449219 5.246094 -4.972656 6.292969 -4.972656 L 9.578125 -4.972656 C 9.511719 -3.351562 8.257812 -2.257812 6.523438 -2.257812 C 5.335938 -2.257812 4.5625 -2.804688 4.5625 -3.625 Z M 4.5625 -3.625 "/></g></g></g><g fill="#ffffff" fill-opacity="1"><g transform="translate(330.305411, 46.471764)"><g><path d="M 6.339844 0.320312 C 9.578125 0.320312 11.539062 -1.09375 11.539062 -3.375 C 11.539062 -5.335938 10.082031 -6.589844 7.117188 -7.183594 C 5.0625 -7.59375 4.425781 -7.9375 4.425781 -8.667969 C 4.425781 -9.375 5.0625 -9.785156 6.089844 -9.785156 C 7.253906 -9.785156 7.960938 -9.261719 8.027344 -8.347656 L 11.335938 -8.347656 C 11.175781 -10.878906 9.304688 -12.292969 6.113281 -12.292969 C 2.898438 -12.292969 1.070312 -10.992188 1.070312 -8.667969 C 1.070312 -6.683594 2.441406 -5.496094 5.496094 -4.949219 C 7.34375 -4.628906 8.121094 -4.152344 8.121094 -3.398438 C 8.121094 -2.691406 7.480469 -2.257812 6.386719 -2.257812 C 5.109375 -2.257812 4.332031 -2.875 4.3125 -3.855469 L 0.914062 -3.855469 C 0.914062 -1.34375 3.054688 0.320312 6.339844 0.320312 Z M 6.339844 0.320312 "/></g></g></g><g fill="#ffffff" fill-opacity="1"><g transform="translate(342.779585, 46.471764)"><g><path d="M 1.734375 0 L 5.199219 0 L 5.199219 -11.972656 L 1.734375 -11.972656 Z M 1.230469 -15.851562 C 1.230469 -14.574219 2.144531 -13.683594 3.464844 -13.683594 C 4.789062 -13.683594 5.703125 -14.574219 5.703125 -15.851562 C 5.703125 -17.128906 4.789062 -18.019531 3.464844 -18.019531 C 2.144531 -18.019531 1.230469 -17.128906 1.230469 -15.851562 Z M 1.230469 -15.851562 "/></g></g></g><g fill="#ffffff" fill-opacity="1"><g transform="translate(349.71221, 46.471764)"><g><path d="M 7.390625 0.320312 C 10.332031 0.320312 12.65625 -1.1875 13.707031 -3.71875 L 10.195312 -3.71875 C 9.625 -2.917969 8.597656 -2.464844 7.457031 -2.464844 C 5.882812 -2.464844 4.652344 -3.351562 4.332031 -4.996094 L 13.933594 -4.996094 C 14.140625 -9.375 11.539062 -12.292969 7.433594 -12.292969 C 3.558594 -12.292969 0.890625 -9.714844 0.890625 -6 C 0.890625 -2.257812 3.535156 0.320312 7.390625 0.320312 Z M 4.355469 -7.183594 C 4.742188 -8.644531 5.929688 -9.535156 7.457031 -9.535156 C 9.054688 -9.535156 10.195312 -8.644531 10.582031 -7.183594 Z M 4.355469 -7.183594 "/></g></g></g><g fill="#ffffff" fill-opacity="1"><g transform="translate(364.512441, 46.471764)"><g><path d="M 1.734375 0 L 5.199219 0 L 5.199219 -5.292969 C 5.199219 -7.867188 6.410156 -8.828125 8.394531 -8.828125 L 9.714844 -8.828125 L 9.714844 -11.972656 L 8.414062 -11.972656 C 6.660156 -11.972656 5.542969 -11.496094 4.765625 -10.378906 L 4.3125 -11.972656 L 1.734375 -11.972656 Z M 1.734375 0 "/></g></g></g><g fill="#ffffff" fill-opacity="1"><g transform="translate(118.495629, 77.971763)"><g/></g></g><g fill="#ffffff" fill-opacity="1"><g transform="translate(123.851098, 77.971763)"><g><path d="M 7.503906 0 L 9.691406 0 L 9.691406 -3.011719 L 8.257812 -3.011719 C 6.886719 -3.011719 6.25 -3.671875 6.25 -5.0625 L 6.25 -9.144531 L 9.535156 -9.144531 L 9.535156 -11.972656 L 6.25 -11.972656 L 6.25 -15.074219 L 3.558594 -15.074219 L 3.351562 -13.523438 C 3.171875 -12.292969 2.828125 -11.972656 1.527344 -11.972656 L 0.457031 -11.972656 L 0.457031 -9.144531 L 2.78125 -9.144531 L 2.78125 -4.539062 C 2.78125 -1.621094 4.46875 0 7.503906 0 Z M 7.503906 0 "/></g></g></g><g fill="#ffffff" fill-opacity="1"><g transform="translate(134.500878, 77.971763)"><g><path d="M 7.617188 0.320312 C 11.585938 0.320312 14.324219 -2.257812 14.324219 -6 C 14.324219 -9.714844 11.585938 -12.292969 7.617188 -12.292969 C 3.625 -12.292969 0.890625 -9.714844 0.890625 -6 C 0.890625 -2.257812 3.625 0.320312 7.617188 0.320312 Z M 4.3125 -6 C 4.3125 -7.960938 5.679688 -9.328125 7.617188 -9.328125 C 9.554688 -9.328125 10.902344 -7.960938 10.902344 -6 C 10.902344 -4.035156 9.554688 -2.667969 7.617188 -2.667969 C 5.679688 -2.667969 4.3125 -4.035156 4.3125 -6 Z M 4.3125 -6 "/></g></g></g><g fill="#ffffff" fill-opacity="1"><g transform="translate(149.711597, 77.971763)"><g/></g></g><g fill="#ffffff" fill-opacity="1"><g transform="translate(155.070693, 77.971763)"><g><path d="M 7.433594 0.320312 C 10.8125 0.320312 13.34375 -1.664062 13.980469 -4.8125 L 10.605469 -4.8125 C 10.125 -3.511719 8.941406 -2.667969 7.480469 -2.667969 C 5.609375 -2.667969 4.3125 -4.035156 4.3125 -6 C 4.3125 -7.960938 5.609375 -9.328125 7.480469 -9.328125 C 8.847656 -9.328125 9.96875 -8.597656 10.535156 -7.390625 L 13.867188 -7.390625 C 13.320312 -10.355469 10.765625 -12.292969 7.433594 -12.292969 C 3.605469 -12.292969 0.890625 -9.671875 0.890625 -6 C 0.890625 -2.304688 3.582031 0.320312 7.433594 0.320312 Z M 7.433594 0.320312 "/></g></g></g><g fill="#ffffff" fill-opacity="1"><g transform="translate(169.893733, 77.971763)"><g><path d="M 7.617188 0.320312 C 11.585938 0.320312 14.324219 -2.257812 14.324219 -6 C 14.324219 -9.714844 11.585938 -12.292969 7.617188 -12.292969 C 3.625 -12.292969 0.890625 -9.714844 0.890625 -6 C 0.890625 -2.257812 3.625 0.320312 7.617188 0.320312 Z M 4.3125 -6 C 4.3125 -7.960938 5.679688 -9.328125 7.617188 -9.328125 C 9.554688 -9.328125 10.902344 -7.960938 10.902344 -6 C 10.902344 -4.035156 9.554688 -2.667969 7.617188 -2.667969 C 5.679688 -2.667969 4.3125 -4.035156 4.3125 -6 Z M 4.3125 -6 "/></g></g></g><g fill="#ffffff" fill-opacity="1"><g transform="translate(185.104452, 77.971763)"><g><path d="M 1.734375 0 L 5.199219 0 L 5.199219 -6.273438 C 5.199219 -8.164062 6.25 -9.328125 7.847656 -9.328125 C 9.328125 -9.328125 10.21875 -8.277344 10.21875 -6.523438 L 10.21875 0 L 13.683594 0 L 13.683594 -6.886719 C 13.683594 -10.195312 11.792969 -12.292969 8.667969 -12.292969 C 7.070312 -12.292969 5.632812 -11.746094 4.675781 -10.628906 L 4.3125 -11.972656 L 1.734375 -11.972656 Z M 1.734375 0 "/></g></g></g><g fill="#ffffff" fill-opacity="1"><g transform="translate(200.292363, 77.971763)"><g><path d="M 1.734375 0 L 5.199219 0 L 5.199219 -6.273438 C 5.199219 -8.164062 6.25 -9.328125 7.847656 -9.328125 C 9.328125 -9.328125 10.21875 -8.277344 10.21875 -6.523438 L 10.21875 0 L 13.683594 0 L 13.683594 -6.886719 C 13.683594 -10.195312 11.792969 -12.292969 8.667969 -12.292969 C 7.070312 -12.292969 5.632812 -11.746094 4.675781 -10.628906 L 4.3125 -11.972656 L 1.734375 -11.972656 Z M 1.734375 0 "/></g></g></g><g fill="#ffffff" fill-opacity="1"><g transform="translate(215.480274, 77.971763)"><g><path d="M 7.390625 0.320312 C 10.332031 0.320312 12.65625 -1.1875 13.707031 -3.71875 L 10.195312 -3.71875 C 9.625 -2.917969 8.597656 -2.464844 7.457031 -2.464844 C 5.882812 -2.464844 4.652344 -3.351562 4.332031 -4.996094 L 13.933594 -4.996094 C 14.140625 -9.375 11.539062 -12.292969 7.433594 -12.292969 C 3.558594 -12.292969 0.890625 -9.714844 0.890625 -6 C 0.890625 -2.257812 3.535156 0.320312 7.390625 0.320312 Z M 4.355469 -7.183594 C 4.742188 -8.644531 5.929688 -9.535156 7.457031 -9.535156 C 9.054688 -9.535156 10.195312 -8.644531 10.582031 -7.183594 Z M 4.355469 -7.183594 "/></g></g></g><g fill="#ffffff" fill-opacity="1"><g transform="translate(230.280506, 77.971763)"><g><path d="M 7.433594 0.320312 C 10.8125 0.320312 13.34375 -1.664062 13.980469 -4.8125 L 10.605469 -4.8125 C 10.125 -3.511719 8.941406 -2.667969 7.480469 -2.667969 C 5.609375 -2.667969 4.3125 -4.035156 4.3125 -6 C 4.3125 -7.960938 5.609375 -9.328125 7.480469 -9.328125 C 8.847656 -9.328125 9.96875 -8.597656 10.535156 -7.390625 L 13.867188 -7.390625 C 13.320312 -10.355469 10.765625 -12.292969 7.433594 -12.292969 C 3.605469 -12.292969 0.890625 -9.671875 0.890625 -6 C 0.890625 -2.304688 3.582031 0.320312 7.433594 0.320312 Z M 7.433594 0.320312 "/></g></g></g><g fill="#ffffff" fill-opacity="1"><g transform="translate(245.103545, 77.971763)"><g><path d="M 7.503906 0 L 9.691406 0 L 9.691406 -3.011719 L 8.257812 -3.011719 C 6.886719 -3.011719 6.25 -3.671875 6.25 -5.0625 L 6.25 -9.144531 L 9.535156 -9.144531 L 9.535156 -11.972656 L 6.25 -11.972656 L 6.25 -15.074219 L 3.558594 -15.074219 L 3.351562 -13.523438 C 3.171875 -12.292969 2.828125 -11.972656 1.527344 -11.972656 L 0.457031 -11.972656 L 0.457031 -9.144531 L 2.78125 -9.144531 L 2.78125 -4.539062 C 2.78125 -1.621094 4.46875 0 7.503906 0 Z M 7.503906 0 "/></g></g></g><g fill="#ffffff" fill-opacity="1"><g transform="translate(255.753325, 77.971763)"><g/></g></g><g fill="#5564e8" fill-opacity="1"><g transform="translate(261.101096, 77.971763)"><g><path d="M 6.339844 0.320312 C 9.578125 0.320312 11.539062 -1.09375 11.539062 -3.375 C 11.539062 -5.335938 10.082031 -6.589844 7.117188 -7.183594 C 5.0625 -7.59375 4.425781 -7.9375 4.425781 -8.667969 C 4.425781 -9.375 5.0625 -9.785156 6.089844 -9.785156 C 7.253906 -9.785156 7.960938 -9.261719 8.027344 -8.347656 L 11.335938 -8.347656 C 11.175781 -10.878906 9.304688 -12.292969 6.113281 -12.292969 C 2.898438 -12.292969 1.070312 -10.992188 1.070312 -8.667969 C 1.070312 -6.683594 2.441406 -5.496094 5.496094 -4.949219 C 7.34375 -4.628906 8.121094 -4.152344 8.121094 -3.398438 C 8.121094 -2.691406 7.480469 -2.257812 6.386719 -2.257812 C 5.109375 -2.257812 4.332031 -2.875 4.3125 -3.855469 L 0.914062 -3.855469 C 0.914062 -1.34375 3.054688 0.320312 6.339844 0.320312 Z M 6.339844 0.320312 "/></g></g></g><g fill="#5564e8" fill-opacity="1"><g transform="translate(273.575259, 77.971763)"><g><path d="M 7.503906 0 L 9.691406 0 L 9.691406 -3.011719 L 8.257812 -3.011719 C 6.886719 -3.011719 6.25 -3.671875 6.25 -5.0625 L 6.25 -9.144531 L 9.535156 -9.144531 L 9.535156 -11.972656 L 6.25 -11.972656 L 6.25 -15.074219 L 3.558594 -15.074219 L 3.351562 -13.523438 C 3.171875 -12.292969 2.828125 -11.972656 1.527344 -11.972656 L 0.457031 -11.972656 L 0.457031 -9.144531 L 2.78125 -9.144531 L 2.78125 -4.539062 C 2.78125 -1.621094 4.46875 0 7.503906 0 Z M 7.503906 0 "/></g></g></g><g fill="#5564e8" fill-opacity="1"><g transform="translate(284.225038, 77.971763)"><g><path d="M 6.5 0.320312 C 8.074219 0.320312 9.488281 -0.226562 10.445312 -1.34375 L 10.8125 0 L 13.386719 0 L 13.386719 -11.972656 L 9.921875 -11.972656 L 9.921875 -5.726562 C 9.921875 -3.832031 8.894531 -2.667969 7.320312 -2.667969 C 5.863281 -2.667969 4.972656 -3.695312 4.972656 -5.449219 L 4.972656 -11.972656 L 1.503906 -11.972656 L 1.503906 -5.109375 C 1.503906 -1.777344 3.398438 0.320312 6.5 0.320312 Z M 6.5 0.320312 "/></g></g></g><g fill="#5564e8" fill-opacity="1"><g transform="translate(299.344537, 77.971763)"><g><path d="M 6.980469 0.320312 C 8.710938 0.320312 10.195312 -0.296875 11.265625 -1.367188 L 11.675781 0 L 14.253906 0 L 14.253906 -16.878906 L 10.789062 -16.878906 L 10.789062 -11.039062 C 9.761719 -11.835938 8.460938 -12.292969 6.980469 -12.292969 C 3.421875 -12.292969 0.890625 -9.671875 0.890625 -6 C 0.890625 -2.28125 3.421875 0.320312 6.980469 0.320312 Z M 4.3125 -6 C 4.3125 -7.9375 5.65625 -9.328125 7.617188 -9.328125 C 9.554688 -9.328125 10.902344 -7.9375 10.902344 -6 C 10.902344 -4.035156 9.554688 -2.667969 7.617188 -2.667969 C 5.65625 -2.667969 4.3125 -4.035156 4.3125 -6 Z M 4.3125 -6 "/></g></g></g><g fill="#5564e8" fill-opacity="1"><g transform="translate(315.330617, 77.971763)"><g><path d="M 7.390625 0.320312 C 10.332031 0.320312 12.65625 -1.1875 13.707031 -3.71875 L 10.195312 -3.71875 C 9.625 -2.917969 8.597656 -2.464844 7.457031 -2.464844 C 5.882812 -2.464844 4.652344 -3.351562 4.332031 -4.996094 L 13.933594 -4.996094 C 14.140625 -9.375 11.539062 -12.292969 7.433594 -12.292969 C 3.558594 -12.292969 0.890625 -9.714844 0.890625 -6 C 0.890625 -2.257812 3.535156 0.320312 7.390625 0.320312 Z M 4.355469 -7.183594 C 4.742188 -8.644531 5.929688 -9.535156 7.457031 -9.535156 C 9.054688 -9.535156 10.195312 -8.644531 10.582031 -7.183594 Z M 4.355469 -7.183594 "/></g></g></g><g fill="#5564e8" fill-opacity="1"><g transform="translate(330.130848, 77.971763)"><g><path d="M 1.734375 0 L 5.199219 0 L 5.199219 -6.273438 C 5.199219 -8.164062 6.25 -9.328125 7.847656 -9.328125 C 9.328125 -9.328125 10.21875 -8.277344 10.21875 -6.523438 L 10.21875 0 L 13.683594 0 L 13.683594 -6.886719 C 13.683594 -10.195312 11.792969 -12.292969 8.667969 -12.292969 C 7.070312 -12.292969 5.632812 -11.746094 4.675781 -10.628906 L 4.3125 -11.972656 L 1.734375 -11.972656 Z M 1.734375 0 "/></g></g></g><g fill="#5564e8" fill-opacity="1"><g transform="translate(345.318759, 77.971763)"><g><path d="M 7.503906 0 L 9.691406 0 L 9.691406 -3.011719 L 8.257812 -3.011719 C 6.886719 -3.011719 6.25 -3.671875 6.25 -5.0625 L 6.25 -9.144531 L 9.535156 -9.144531 L 9.535156 -11.972656 L 6.25 -11.972656 L 6.25 -15.074219 L 3.558594 -15.074219 L 3.351562 -13.523438 C 3.171875 -12.292969 2.828125 -11.972656 1.527344 -11.972656 L 0.457031 -11.972656 L 0.457031 -9.144531 L 2.78125 -9.144531 L 2.78125 -4.539062 C 2.78125 -1.621094 4.46875 0 7.503906 0 Z M 7.503906 0 "/></g></g></g><g fill="#5564e8" fill-opacity="1"><g transform="translate(355.968539, 77.971763)"><g><path d="M 6.339844 0.320312 C 9.578125 0.320312 11.539062 -1.09375 11.539062 -3.375 C 11.539062 -5.335938 10.082031 -6.589844 7.117188 -7.183594 C 5.0625 -7.59375 4.425781 -7.9375 4.425781 -8.667969 C 4.425781 -9.375 5.0625 -9.785156 6.089844 -9.785156 C 7.253906 -9.785156 7.960938 -9.261719 8.027344 -8.347656 L 11.335938 -8.347656 C 11.175781 -10.878906 9.304688 -12.292969 6.113281 -12.292969 C 2.898438 -12.292969 1.070312 -10.992188 1.070312 -8.667969 C 1.070312 -6.683594 2.441406 -5.496094 5.496094 -4.949219 C 7.34375 -4.628906 8.121094 -4.152344 8.121094 -3.398438 C 8.121094 -2.691406 7.480469 -2.257812 6.386719 -2.257812 C 5.109375 -2.257812 4.332031 -2.875 4.3125 -3.855469 L 0.914062 -3.855469 C 0.914062 -1.34375 3.054688 0.320312 6.339844 0.320312 Z M 6.339844 0.320312 "/></g></g></g><g fill="#ffffff" fill-opacity="1"><g transform="translate(368.433119, 77.971763)"><g><path d="M 1.914062 1.9375 L 1.914062 3.671875 C 4.289062 3.511719 5.632812 1.324219 5.632812 -0.84375 C 5.632812 -2.53125 4.722656 -3.878906 3.101562 -3.878906 C 1.800781 -3.878906 0.933594 -2.988281 0.933594 -1.800781 C 0.933594 -0.636719 1.800781 0.226562 3.035156 0.226562 C 3.148438 0.226562 3.285156 0.226562 3.421875 0.207031 C 3.351562 1.140625 2.828125 1.710938 1.914062 1.9375 Z M 1.914062 1.9375 "/></g></g></g><g fill="#ffffff" fill-opacity="1"><g transform="translate(172.671412, 109.471762)"><g/></g></g><g fill="#5564e8" fill-opacity="1"><g transform="translate(178.026877, 109.471762)"><g><path d="M 6.5 0.320312 C 8.074219 0.320312 9.488281 -0.226562 10.445312 -1.34375 L 10.8125 0 L 13.386719 0 L 13.386719 -11.972656 L 9.921875 -11.972656 L 9.921875 -5.726562 C 9.921875 -3.832031 8.894531 -2.667969 7.320312 -2.667969 C 5.863281 -2.667969 4.972656 -3.695312 4.972656 -5.449219 L 4.972656 -11.972656 L 1.503906 -11.972656 L 1.503906 -5.109375 C 1.503906 -1.777344 3.398438 0.320312 6.5 0.320312 Z M 6.5 0.320312 "/></g></g></g><g fill="#5564e8" fill-opacity="1"><g transform="translate(193.146375, 109.471762)"><g><path d="M 1.734375 0 L 5.199219 0 L 5.199219 -6.273438 C 5.199219 -8.164062 6.25 -9.328125 7.847656 -9.328125 C 9.328125 -9.328125 10.21875 -8.277344 10.21875 -6.523438 L 10.21875 0 L 13.683594 0 L 13.683594 -6.886719 C 13.683594 -10.195312 11.792969 -12.292969 8.667969 -12.292969 C 7.070312 -12.292969 5.632812 -11.746094 4.675781 -10.628906 L 4.3125 -11.972656 L 1.734375 -11.972656 Z M 1.734375 0 "/></g></g></g><g fill="#5564e8" fill-opacity="1"><g transform="translate(208.334286, 109.471762)"><g><path d="M 1.734375 0 L 5.199219 0 L 5.199219 -11.972656 L 1.734375 -11.972656 Z M 1.230469 -15.851562 C 1.230469 -14.574219 2.144531 -13.683594 3.464844 -13.683594 C 4.789062 -13.683594 5.703125 -14.574219 5.703125 -15.851562 C 5.703125 -17.128906 4.789062 -18.019531 3.464844 -18.019531 C 2.144531 -18.019531 1.230469 -17.128906 1.230469 -15.851562 Z M 1.230469 -15.851562 "/></g></g></g><g fill="#5564e8" fill-opacity="1"><g transform="translate(215.266911, 109.471762)"><g><path d="M 5.175781 0 L 8.644531 0 L 13.640625 -11.972656 L 9.875 -11.972656 L 8.507812 -8.210938 L 6.933594 -4.152344 L 5.335938 -8.210938 L 3.992188 -11.972656 L 0.207031 -11.972656 Z M 5.175781 0 "/></g></g></g><g fill="#5564e8" fill-opacity="1"><g transform="translate(229.109352, 109.471762)"><g><path d="M 7.390625 0.320312 C 10.332031 0.320312 12.65625 -1.1875 13.707031 -3.71875 L 10.195312 -3.71875 C 9.625 -2.917969 8.597656 -2.464844 7.457031 -2.464844 C 5.882812 -2.464844 4.652344 -3.351562 4.332031 -4.996094 L 13.933594 -4.996094 C 14.140625 -9.375 11.539062 -12.292969 7.433594 -12.292969 C 3.558594 -12.292969 0.890625 -9.714844 0.890625 -6 C 0.890625 -2.257812 3.535156 0.320312 7.390625 0.320312 Z M 4.355469 -7.183594 C 4.742188 -8.644531 5.929688 -9.535156 7.457031 -9.535156 C 9.054688 -9.535156 10.195312 -8.644531 10.582031 -7.183594 Z M 4.355469 -7.183594 "/></g></g></g><g fill="#5564e8" fill-opacity="1"><g transform="translate(243.909584, 109.471762)"><g><path d="M 1.734375 0 L 5.199219 0 L 5.199219 -5.292969 C 5.199219 -7.867188 6.410156 -8.828125 8.394531 -8.828125 L 9.714844 -8.828125 L 9.714844 -11.972656 L 8.414062 -11.972656 C 6.660156 -11.972656 5.542969 -11.496094 4.765625 -10.378906 L 4.3125 -11.972656 L 1.734375 -11.972656 Z M 1.734375 0 "/></g></g></g><g fill="#5564e8" fill-opacity="1"><g transform="translate(254.39973, 109.471762)"><g><path d="M 6.339844 0.320312 C 9.578125 0.320312 11.539062 -1.09375 11.539062 -3.375 C 11.539062 -5.335938 10.082031 -6.589844 7.117188 -7.183594 C 5.0625 -7.59375 4.425781 -7.9375 4.425781 -8.667969 C 4.425781 -9.375 5.0625 -9.785156 6.089844 -9.785156 C 7.253906 -9.785156 7.960938 -9.261719 8.027344 -8.347656 L 11.335938 -8.347656 C 11.175781 -10.878906 9.304688 -12.292969 6.113281 -12.292969 C 2.898438 -12.292969 1.070312 -10.992188 1.070312 -8.667969 C 1.070312 -6.683594 2.441406 -5.496094 5.496094 -4.949219 C 7.34375 -4.628906 8.121094 -4.152344 8.121094 -3.398438 C 8.121094 -2.691406 7.480469 -2.257812 6.386719 -2.257812 C 5.109375 -2.257812 4.332031 -2.875 4.3125 -3.855469 L 0.914062 -3.855469 C 0.914062 -1.34375 3.054688 0.320312 6.339844 0.320312 Z M 6.339844 0.320312 "/></g></g></g><g fill="#5564e8" fill-opacity="1"><g transform="translate(266.873893, 109.471762)"><g><path d="M 1.734375 0 L 5.199219 0 L 5.199219 -11.972656 L 1.734375 -11.972656 Z M 1.230469 -15.851562 C 1.230469 -14.574219 2.144531 -13.683594 3.464844 -13.683594 C 4.789062 -13.683594 5.703125 -14.574219 5.703125 -15.851562 C 5.703125 -17.128906 4.789062 -18.019531 3.464844 -18.019531 C 2.144531 -18.019531 1.230469 -17.128906 1.230469 -15.851562 Z M 1.230469 -15.851562 "/></g></g></g><g fill="#5564e8" fill-opacity="1"><g transform="translate(273.806517, 109.471762)"><g><path d="M 7.503906 0 L 9.691406 0 L 9.691406 -3.011719 L 8.257812 -3.011719 C 6.886719 -3.011719 6.25 -3.671875 6.25 -5.0625 L 6.25 -9.144531 L 9.535156 -9.144531 L 9.535156 -11.972656 L 6.25 -11.972656 L 6.25 -15.074219 L 3.558594 -15.074219 L 3.351562 -13.523438 C 3.171875 -12.292969 2.828125 -11.972656 1.527344 -11.972656 L 0.457031 -11.972656 L 0.457031 -9.144531 L 2.78125 -9.144531 L 2.78125 -4.539062 C 2.78125 -1.621094 4.46875 0 7.503906 0 Z M 7.503906 0 "/></g></g></g><g fill="#5564e8" fill-opacity="1"><g transform="translate(284.456297, 109.471762)"><g><path d="M 1.734375 0 L 5.199219 0 L 5.199219 -11.972656 L 1.734375 -11.972656 Z M 1.230469 -15.851562 C 1.230469 -14.574219 2.144531 -13.683594 3.464844 -13.683594 C 4.789062 -13.683594 5.703125 -14.574219 5.703125 -15.851562 C 5.703125 -17.128906 4.789062 -18.019531 3.464844 -18.019531 C 2.144531 -18.019531 1.230469 -17.128906 1.230469 -15.851562 Z M 1.230469 -15.851562 "/></g></g></g><g fill="#5564e8" fill-opacity="1"><g transform="translate(291.388922, 109.471762)"><g><path d="M 7.390625 0.320312 C 10.332031 0.320312 12.65625 -1.1875 13.707031 -3.71875 L 10.195312 -3.71875 C 9.625 -2.917969 8.597656 -2.464844 7.457031 -2.464844 C 5.882812 -2.464844 4.652344 -3.351562 4.332031 -4.996094 L 13.933594 -4.996094 C 14.140625 -9.375 11.539062 -12.292969 7.433594 -12.292969 C 3.558594 -12.292969 0.890625 -9.714844 0.890625 -6 C 0.890625 -2.257812 3.535156 0.320312 7.390625 0.320312 Z M 4.355469 -7.183594 C 4.742188 -8.644531 5.929688 -9.535156 7.457031 -9.535156 C 9.054688 -9.535156 10.195312 -8.644531 10.582031 -7.183594 Z M 4.355469 -7.183594 "/></g></g></g><g fill="#5564e8" fill-opacity="1"><g transform="translate(306.189153, 109.471762)"><g><path d="M 6.339844 0.320312 C 9.578125 0.320312 11.539062 -1.09375 11.539062 -3.375 C 11.539062 -5.335938 10.082031 -6.589844 7.117188 -7.183594 C 5.0625 -7.59375 4.425781 -7.9375 4.425781 -8.667969 C 4.425781 -9.375 5.0625 -9.785156 6.089844 -9.785156 C 7.253906 -9.785156 7.960938 -9.261719 8.027344 -8.347656 L 11.335938 -8.347656 C 11.175781 -10.878906 9.304688 -12.292969 6.113281 -12.292969 C 2.898438 -12.292969 1.070312 -10.992188 1.070312 -8.667969 C 1.070312 -6.683594 2.441406 -5.496094 5.496094 -4.949219 C 7.34375 -4.628906 8.121094 -4.152344 8.121094 -3.398438 C 8.121094 -2.691406 7.480469 -2.257812 6.386719 -2.257812 C 5.109375 -2.257812 4.332031 -2.875 4.3125 -3.855469 L 0.914062 -3.855469 C 0.914062 -1.34375 3.054688 0.320312 6.339844 0.320312 Z M 6.339844 0.320312 "/></g></g></g><g fill="#5564e8" fill-opacity="1"><g transform="translate(318.663316, 109.471762)"><g/></g></g><g fill="#ffffff" fill-opacity="1"><g transform="translate(324.019058, 109.471762)"><g><path d="M 5.726562 0.226562 C 7.503906 0.226562 8.964844 -0.34375 9.988281 -1.390625 L 10.378906 0 L 12.953125 0 L 12.953125 -7.207031 C 12.953125 -10.378906 10.8125 -12.292969 7.230469 -12.292969 C 4.171875 -12.292969 2.167969 -10.832031 1.734375 -8.234375 L 5.0625 -8.234375 C 5.269531 -9.078125 6.136719 -9.648438 7.253906 -9.648438 C 8.621094 -9.648438 9.554688 -8.871094 9.554688 -7.6875 L 9.554688 -7.140625 L 5.222656 -7.140625 C 2.738281 -7.140625 1.140625 -5.703125 1.140625 -3.488281 C 1.140625 -1.1875 2.898438 0.226562 5.726562 0.226562 Z M 4.5625 -3.625 C 4.5625 -4.449219 5.246094 -4.972656 6.292969 -4.972656 L 9.578125 -4.972656 C 9.511719 -3.351562 8.257812 -2.257812 6.523438 -2.257812 C 5.335938 -2.257812 4.5625 -2.804688 4.5625 -3.625 Z M 4.5625 -3.625 "/></g></g></g><g fill="#ffffff" fill-opacity="1"><g transform="translate(338.477226, 109.471762)"><g><path d="M 1.734375 0 L 5.199219 0 L 5.199219 -6.273438 C 5.199219 -8.164062 6.25 -9.328125 7.847656 -9.328125 C 9.328125 -9.328125 10.21875 -8.277344 10.21875 -6.523438 L 10.21875 0 L 13.683594 0 L 13.683594 -6.886719 C 13.683594 -10.195312 11.792969 -12.292969 8.667969 -12.292969 C 7.070312 -12.292969 5.632812 -11.746094 4.675781 -10.628906 L 4.3125 -11.972656 L 1.734375 -11.972656 Z M 1.734375 0 "/></g></g></g><g fill="#ffffff" fill-opacity="1"><g transform="translate(353.665137, 109.471762)"><g><path d="M 6.980469 0.320312 C 8.710938 0.320312 10.195312 -0.296875 11.265625 -1.367188 L 11.675781 0 L 14.253906 0 L 14.253906 -16.878906 L 10.789062 -16.878906 L 10.789062 -11.039062 C 9.761719 -11.835938 8.460938 -12.292969 6.980469 -12.292969 C 3.421875 -12.292969 0.890625 -9.671875 0.890625 -6 C 0.890625 -2.28125 3.421875 0.320312 6.980469 0.320312 Z M 4.3125 -6 C 4.3125 -7.9375 5.65625 -9.328125 7.617188 -9.328125 C 9.554688 -9.328125 10.902344 -7.9375 10.902344 -6 C 10.902344 -4.035156 9.554688 -2.667969 7.617188 -2.667969 C 5.65625 -2.667969 4.3125 -4.035156 4.3125 -6 Z M 4.3125 -6 "/></g></g></g><g fill="#ffffff" fill-opacity="1"><g transform="translate(369.640154, 109.471762)"><g/></g></g><g fill="#5564e8" fill-opacity="1"><g transform="translate(235.9175, 140.97176)"><g><path d="M 7.433594 0.320312 C 10.8125 0.320312 13.34375 -1.664062 13.980469 -4.8125 L 10.605469 -4.8125 C 10.125 -3.511719 8.941406 -2.667969 7.480469 -2.667969 C 5.609375 -2.667969 4.3125 -4.035156 4.3125 -6 C 4.3125 -7.960938 5.609375 -9.328125 7.480469 -9.328125 C 8.847656 -9.328125 9.96875 -8.597656 10.535156 -7.390625 L 13.867188 -7.390625 C 13.320312 -10.355469 10.765625 -12.292969 7.433594 -12.292969 C 3.605469 -12.292969 0.890625 -9.671875 0.890625 -6 C 0.890625 -2.304688 3.582031 0.320312 7.433594 0.320312 Z M 7.433594 0.320312 "/></g></g></g><g fill="#5564e8" fill-opacity="1"><g transform="translate(250.740539, 140.97176)"><g><path d="M 7.617188 0.320312 C 11.585938 0.320312 14.324219 -2.257812 14.324219 -6 C 14.324219 -9.714844 11.585938 -12.292969 7.617188 -12.292969 C 3.625 -12.292969 0.890625 -9.714844 0.890625 -6 C 0.890625 -2.257812 3.625 0.320312 7.617188 0.320312 Z M 4.3125 -6 C 4.3125 -7.960938 5.679688 -9.328125 7.617188 -9.328125 C 9.554688 -9.328125 10.902344 -7.960938 10.902344 -6 C 10.902344 -4.035156 9.554688 -2.667969 7.617188 -2.667969 C 5.679688 -2.667969 4.3125 -4.035156 4.3125 -6 Z M 4.3125 -6 "/></g></g></g><g fill="#5564e8" fill-opacity="1"><g transform="translate(265.951258, 140.97176)"><g><path d="M 1.734375 0 L 5.199219 0 L 5.199219 -6.476562 C 5.199219 -8.210938 6.15625 -9.328125 7.640625 -9.328125 C 9.078125 -9.328125 9.96875 -8.257812 9.96875 -6.570312 L 9.96875 0 L 13.386719 0 L 13.386719 -6.476562 C 13.386719 -8.210938 14.347656 -9.328125 15.828125 -9.328125 C 17.265625 -9.328125 18.15625 -8.257812 18.15625 -6.570312 L 18.15625 0 L 21.621094 0 L 21.621094 -6.980469 C 21.621094 -10.261719 19.660156 -12.292969 16.605469 -12.292969 C 14.777344 -12.292969 13.273438 -11.585938 12.292969 -10.332031 C 11.449219 -11.609375 10.058594 -12.292969 8.347656 -12.292969 C 6.820312 -12.292969 5.519531 -11.769531 4.652344 -10.742188 L 4.3125 -11.972656 L 1.734375 -11.972656 Z M 1.734375 0 "/></g></g></g><g fill="#5564e8" fill-opacity="1"><g transform="translate(289.0752, 140.97176)"><g><path d="M 8.984375 0.320312 C 12.566406 0.320312 15.097656 -2.28125 15.097656 -6 C 15.097656 -9.671875 12.566406 -12.292969 8.984375 -12.292969 C 7.253906 -12.292969 5.769531 -11.675781 4.699219 -10.605469 L 4.3125 -11.972656 L 1.734375 -11.972656 L 1.734375 4.5625 L 5.199219 4.5625 L 5.199219 -0.933594 C 6.203125 -0.136719 7.503906 0.320312 8.984375 0.320312 Z M 5.0625 -6 C 5.0625 -7.9375 6.433594 -9.328125 8.371094 -9.328125 C 10.332031 -9.328125 11.675781 -7.9375 11.675781 -6 C 11.675781 -4.035156 10.332031 -2.667969 8.371094 -2.667969 C 6.433594 -2.667969 5.0625 -4.035156 5.0625 -6 Z M 5.0625 -6 "/></g></g></g><g fill="#5564e8" fill-opacity="1"><g transform="translate(305.06128, 140.97176)"><g><path d="M 5.726562 0.226562 C 7.503906 0.226562 8.964844 -0.34375 9.988281 -1.390625 L 10.378906 0 L 12.953125 0 L 12.953125 -7.207031 C 12.953125 -10.378906 10.8125 -12.292969 7.230469 -12.292969 C 4.171875 -12.292969 2.167969 -10.832031 1.734375 -8.234375 L 5.0625 -8.234375 C 5.269531 -9.078125 6.136719 -9.648438 7.253906 -9.648438 C 8.621094 -9.648438 9.554688 -8.871094 9.554688 -7.6875 L 9.554688 -7.140625 L 5.222656 -7.140625 C 2.738281 -7.140625 1.140625 -5.703125 1.140625 -3.488281 C 1.140625 -1.1875 2.898438 0.226562 5.726562 0.226562 Z M 4.5625 -3.625 C 4.5625 -4.449219 5.246094 -4.972656 6.292969 -4.972656 L 9.578125 -4.972656 C 9.511719 -3.351562 8.257812 -2.257812 6.523438 -2.257812 C 5.335938 -2.257812 4.5625 -2.804688 4.5625 -3.625 Z M 4.5625 -3.625 "/></g></g></g><g fill="#5564e8" fill-opacity="1"><g transform="translate(319.519447, 140.97176)"><g><path d="M 1.734375 0 L 5.199219 0 L 5.199219 -6.273438 C 5.199219 -8.164062 6.25 -9.328125 7.847656 -9.328125 C 9.328125 -9.328125 10.21875 -8.277344 10.21875 -6.523438 L 10.21875 0 L 13.683594 0 L 13.683594 -6.886719 C 13.683594 -10.195312 11.792969 -12.292969 8.667969 -12.292969 C 7.070312 -12.292969 5.632812 -11.746094 4.675781 -10.628906 L 4.3125 -11.972656 L 1.734375 -11.972656 Z M 1.734375 0 "/></g></g></g><g fill="#5564e8" fill-opacity="1"><g transform="translate(334.707358, 140.97176)"><g><path d="M 1.734375 0 L 5.199219 0 L 5.199219 -11.972656 L 1.734375 -11.972656 Z M 1.230469 -15.851562 C 1.230469 -14.574219 2.144531 -13.683594 3.464844 -13.683594 C 4.789062 -13.683594 5.703125 -14.574219 5.703125 -15.851562 C 5.703125 -17.128906 4.789062 -18.019531 3.464844 -18.019531 C 2.144531 -18.019531 1.230469 -17.128906 1.230469 -15.851562 Z M 1.230469 -15.851562 "/></g></g></g><g fill="#5564e8" fill-opacity="1"><g transform="translate(341.639983, 140.97176)"><g><path d="M 7.390625 0.320312 C 10.332031 0.320312 12.65625 -1.1875 13.707031 -3.71875 L 10.195312 -3.71875 C 9.625 -2.917969 8.597656 -2.464844 7.457031 -2.464844 C 5.882812 -2.464844 4.652344 -3.351562 4.332031 -4.996094 L 13.933594 -4.996094 C 14.140625 -9.375 11.539062 -12.292969 7.433594 -12.292969 C 3.558594 -12.292969 0.890625 -9.714844 0.890625 -6 C 0.890625 -2.257812 3.535156 0.320312 7.390625 0.320312 Z M 4.355469 -7.183594 C 4.742188 -8.644531 5.929688 -9.535156 7.457031 -9.535156 C 9.054688 -9.535156 10.195312 -8.644531 10.582031 -7.183594 Z M 4.355469 -7.183594 "/></g></g></g><g fill="#5564e8" fill-opacity="1"><g transform="translate(356.440214, 140.97176)"><g><path d="M 6.339844 0.320312 C 9.578125 0.320312 11.539062 -1.09375 11.539062 -3.375 C 11.539062 -5.335938 10.082031 -6.589844 7.117188 -7.183594 C 5.0625 -7.59375 4.425781 -7.9375 4.425781 -8.667969 C 4.425781 -9.375 5.0625 -9.785156 6.089844 -9.785156 C 7.253906 -9.785156 7.960938 -9.261719 8.027344 -8.347656 L 11.335938 -8.347656 C 11.175781 -10.878906 9.304688 -12.292969 6.113281 -12.292969 C 2.898438 -12.292969 1.070312 -10.992188 1.070312 -8.667969 C 1.070312 -6.683594 2.441406 -5.496094 5.496094 -4.949219 C 7.34375 -4.628906 8.121094 -4.152344 8.121094 -3.398438 C 8.121094 -2.691406 7.480469 -2.257812 6.386719 -2.257812 C 5.109375 -2.257812 4.332031 -2.875 4.3125 -3.855469 L 0.914062 -3.855469 C 0.914062 -1.34375 3.054688 0.320312 6.339844 0.320312 Z M 6.339844 0.320312 "/></g></g></g><g fill="#ffffff" fill-opacity="1"><g transform="translate(368.913592, 140.97176)"><g><path d="M 3.054688 0.25 C 4.289062 0.25 5.175781 -0.617188 5.175781 -1.800781 C 5.175781 -2.988281 4.289062 -3.878906 3.054688 -3.878906 C 1.800781 -3.878906 0.933594 -2.988281 0.933594 -1.800781 C 0.933594 -0.617188 1.800781 0.25 3.054688 0.25 Z M 3.054688 0.25 "/></g></g></g></svg>