<svg xmlns="http://www.w3.org/2000/svg" xmlns:xlink="http://www.w3.org/1999/xlink" width="2500" zoomAndPan="magnify" viewBox="0 0 1874.88 374.999991" height="500" preserveAspectRatio="xMidYMid meet" version="1.0"><defs><g/><clipPath id="a829cdee68"><path d="M 0 0.0117188 L 1874.761719 0.0117188 L 1874.761719 374.988281 L 0 374.988281 Z M 0 0.0117188 " clip-rule="nonzero"/></clipPath><linearGradient x1="0" gradientTransform="matrix(0.749952, 0, 0, 0.749952, 0, 0.0119955)" y1="0" x2="2499.84" gradientUnits="userSpaceOnUse" y2="0" id="0086501402"><stop stop-opacity="1" stop-color="rgb(0%, 59.199524%, 69.799805%)" offset="0"/><stop stop-opacity="1" stop-color="rgb(0.192261%, 59.300232%, 69.659424%)" offset="0.0078125"/><stop stop-opacity="1" stop-color="rgb(0.576782%, 59.501648%, 69.380188%)" offset="0.015625"/><stop stop-opacity="1" stop-color="rgb(0.96283%, 59.70459%, 69.100952%)" offset="0.0234375"/><stop stop-opacity="1" stop-color="rgb(1.348877%, 59.907532%, 68.823242%)" offset="0.03125"/><stop stop-opacity="1" stop-color="rgb(1.734924%, 60.108948%, 68.544006%)" offset="0.0390625"/><stop stop-opacity="1" stop-color="rgb(2.120972%, 60.31189%, 68.264771%)" offset="0.046875"/><stop stop-opacity="1" stop-color="rgb(2.507019%, 60.513306%, 67.985535%)" offset="0.0546875"/><stop stop-opacity="1" stop-color="rgb(2.893066%, 60.716248%, 67.706299%)" offset="0.0625"/><stop stop-opacity="1" stop-color="rgb(3.279114%, 60.919189%, 67.428589%)" offset="0.0703125"/><stop stop-opacity="1" stop-color="rgb(3.665161%, 61.120605%, 67.149353%)" offset="0.078125"/><stop stop-opacity="1" stop-color="rgb(4.051208%, 61.323547%, 66.870117%)" offset="0.0859375"/><stop stop-opacity="1" stop-color="rgb(4.437256%, 61.524963%, 66.590881%)" offset="0.09375"/><stop stop-opacity="1" stop-color="rgb(4.821777%, 61.727905%, 66.313171%)" offset="0.101562"/><stop stop-opacity="1" stop-color="rgb(5.207825%, 61.930847%, 66.033936%)" offset="0.109375"/><stop stop-opacity="1" stop-color="rgb(5.593872%, 62.132263%, 65.7547%)" offset="0.117188"/><stop stop-opacity="1" stop-color="rgb(5.979919%, 62.335205%, 65.475464%)" offset="0.125"/><stop stop-opacity="1" stop-color="rgb(6.365967%, 62.536621%, 65.196228%)" offset="0.132813"/><stop stop-opacity="1" stop-color="rgb(6.752014%, 62.739563%, 64.918518%)" offset="0.140625"/><stop stop-opacity="1" stop-color="rgb(7.138062%, 62.942505%, 64.639282%)" offset="0.148438"/><stop stop-opacity="1" stop-color="rgb(7.524109%, 63.143921%, 64.360046%)" offset="0.15625"/><stop stop-opacity="1" stop-color="rgb(7.910156%, 63.346863%, 64.080811%)" offset="0.164062"/><stop stop-opacity="1" stop-color="rgb(8.296204%, 63.548279%, 63.803101%)" offset="0.171875"/><stop stop-opacity="1" stop-color="rgb(8.682251%, 63.751221%, 63.523865%)" offset="0.179688"/><stop stop-opacity="1" stop-color="rgb(9.066772%, 63.954163%, 63.244629%)" offset="0.1875"/><stop stop-opacity="1" stop-color="rgb(9.45282%, 64.155579%, 62.965393%)" offset="0.195312"/><stop stop-opacity="1" stop-color="rgb(9.838867%, 64.358521%, 62.687683%)" offset="0.203125"/><stop stop-opacity="1" stop-color="rgb(10.224915%, 64.559937%, 62.408447%)" offset="0.210938"/><stop stop-opacity="1" stop-color="rgb(10.610962%, 64.762878%, 62.129211%)" offset="0.21875"/><stop stop-opacity="1" stop-color="rgb(10.997009%, 64.96582%, 61.849976%)" offset="0.226562"/><stop stop-opacity="1" stop-color="rgb(11.383057%, 65.167236%, 61.57074%)" offset="0.234375"/><stop stop-opacity="1" stop-color="rgb(11.769104%, 65.370178%, 61.29303%)" offset="0.242188"/><stop stop-opacity="1" stop-color="rgb(12.155151%, 65.571594%, 61.013794%)" offset="0.25"/><stop stop-opacity="1" stop-color="rgb(12.541199%, 65.774536%, 60.734558%)" offset="0.257812"/><stop stop-opacity="1" stop-color="rgb(12.927246%, 65.977478%, 60.455322%)" offset="0.265625"/><stop stop-opacity="1" stop-color="rgb(13.313293%, 66.178894%, 60.177612%)" offset="0.273438"/><stop stop-opacity="1" stop-color="rgb(13.697815%, 66.381836%, 59.898376%)" offset="0.28125"/><stop stop-opacity="1" stop-color="rgb(14.083862%, 66.583252%, 59.619141%)" offset="0.289062"/><stop stop-opacity="1" stop-color="rgb(14.46991%, 66.786194%, 59.339905%)" offset="0.296875"/><stop stop-opacity="1" stop-color="rgb(14.855957%, 66.989136%, 59.062195%)" offset="0.304687"/><stop stop-opacity="1" stop-color="rgb(15.242004%, 67.190552%, 58.782959%)" offset="0.3125"/><stop stop-opacity="1" stop-color="rgb(15.628052%, 67.393494%, 58.503723%)" offset="0.320312"/><stop stop-opacity="1" stop-color="rgb(16.014099%, 67.59491%, 58.224487%)" offset="0.328125"/><stop stop-opacity="1" stop-color="rgb(16.400146%, 67.797852%, 57.945251%)" offset="0.335938"/><stop stop-opacity="1" stop-color="rgb(16.786194%, 68.000793%, 57.667542%)" offset="0.34375"/><stop stop-opacity="1" stop-color="rgb(17.172241%, 68.202209%, 57.388306%)" offset="0.351562"/><stop stop-opacity="1" stop-color="rgb(17.558289%, 68.405151%, 57.10907%)" offset="0.359375"/><stop stop-opacity="1" stop-color="rgb(17.94281%, 68.606567%, 56.829834%)" offset="0.367188"/><stop stop-opacity="1" stop-color="rgb(18.328857%, 68.809509%, 56.552124%)" offset="0.375"/><stop stop-opacity="1" stop-color="rgb(18.714905%, 69.012451%, 56.272888%)" offset="0.382812"/><stop stop-opacity="1" stop-color="rgb(19.100952%, 69.213867%, 55.993652%)" offset="0.390625"/><stop stop-opacity="1" stop-color="rgb(19.487%, 69.416809%, 55.714417%)" offset="0.398438"/><stop stop-opacity="1" stop-color="rgb(19.873047%, 69.618225%, 55.435181%)" offset="0.40625"/><stop stop-opacity="1" stop-color="rgb(20.259094%, 69.821167%, 55.157471%)" offset="0.414062"/><stop stop-opacity="1" stop-color="rgb(20.645142%, 70.024109%, 54.878235%)" offset="0.421875"/><stop stop-opacity="1" stop-color="rgb(21.031189%, 70.225525%, 54.598999%)" offset="0.429688"/><stop stop-opacity="1" stop-color="rgb(21.417236%, 70.428467%, 54.319763%)" offset="0.4375"/><stop stop-opacity="1" stop-color="rgb(21.803284%, 70.629883%, 54.042053%)" offset="0.445312"/><stop stop-opacity="1" stop-color="rgb(22.187805%, 70.832825%, 53.762817%)" offset="0.453125"/><stop stop-opacity="1" stop-color="rgb(22.573853%, 71.035767%, 53.483582%)" offset="0.460938"/><stop stop-opacity="1" stop-color="rgb(22.9599%, 71.237183%, 53.204346%)" offset="0.46875"/><stop stop-opacity="1" stop-color="rgb(23.345947%, 71.440125%, 52.926636%)" offset="0.476562"/><stop stop-opacity="1" stop-color="rgb(23.731995%, 71.641541%, 52.6474%)" offset="0.484375"/><stop stop-opacity="1" stop-color="rgb(24.118042%, 71.844482%, 52.368164%)" offset="0.492188"/><stop stop-opacity="1" stop-color="rgb(24.504089%, 72.047424%, 52.088928%)" offset="0.5"/><stop stop-opacity="1" stop-color="rgb(24.890137%, 72.24884%, 51.809692%)" offset="0.507812"/><stop stop-opacity="1" stop-color="rgb(25.276184%, 72.451782%, 51.531982%)" offset="0.515625"/><stop stop-opacity="1" stop-color="rgb(25.662231%, 72.653198%, 51.252747%)" offset="0.523438"/><stop stop-opacity="1" stop-color="rgb(26.048279%, 72.85614%, 50.973511%)" offset="0.53125"/><stop stop-opacity="1" stop-color="rgb(26.434326%, 73.059082%, 50.694275%)" offset="0.539062"/><stop stop-opacity="1" stop-color="rgb(26.818848%, 73.260498%, 50.416565%)" offset="0.546875"/><stop stop-opacity="1" stop-color="rgb(27.204895%, 73.46344%, 50.137329%)" offset="0.554688"/><stop stop-opacity="1" stop-color="rgb(27.590942%, 73.664856%, 49.858093%)" offset="0.5625"/><stop stop-opacity="1" stop-color="rgb(27.97699%, 73.867798%, 49.578857%)" offset="0.570312"/><stop stop-opacity="1" stop-color="rgb(28.363037%, 74.07074%, 49.299622%)" offset="0.578125"/><stop stop-opacity="1" stop-color="rgb(28.749084%, 74.272156%, 49.021912%)" offset="0.585938"/><stop stop-opacity="1" stop-color="rgb(29.135132%, 74.475098%, 48.742676%)" offset="0.59375"/><stop stop-opacity="1" stop-color="rgb(29.521179%, 74.676514%, 48.46344%)" offset="0.601562"/><stop stop-opacity="1" stop-color="rgb(29.907227%, 74.879456%, 48.184204%)" offset="0.609375"/><stop stop-opacity="1" stop-color="rgb(30.293274%, 75.082397%, 47.906494%)" offset="0.617188"/><stop stop-opacity="1" stop-color="rgb(30.679321%, 75.283813%, 47.627258%)" offset="0.625"/><stop stop-opacity="1" stop-color="rgb(31.063843%, 75.486755%, 47.348022%)" offset="0.632812"/><stop stop-opacity="1" stop-color="rgb(31.44989%, 75.688171%, 47.068787%)" offset="0.640625"/><stop stop-opacity="1" stop-color="rgb(31.835938%, 75.891113%, 46.791077%)" offset="0.648437"/><stop stop-opacity="1" stop-color="rgb(32.221985%, 76.094055%, 46.511841%)" offset="0.65625"/><stop stop-opacity="1" stop-color="rgb(32.608032%, 76.295471%, 46.232605%)" offset="0.664062"/><stop stop-opacity="1" stop-color="rgb(32.99408%, 76.498413%, 45.953369%)" offset="0.671875"/><stop stop-opacity="1" stop-color="rgb(33.380127%, 76.699829%, 45.674133%)" offset="0.679687"/><stop stop-opacity="1" stop-color="rgb(33.766174%, 76.902771%, 45.396423%)" offset="0.6875"/><stop stop-opacity="1" stop-color="rgb(34.152222%, 77.105713%, 45.117188%)" offset="0.695312"/><stop stop-opacity="1" stop-color="rgb(34.538269%, 77.307129%, 44.837952%)" offset="0.703125"/><stop stop-opacity="1" stop-color="rgb(34.924316%, 77.510071%, 44.558716%)" offset="0.710938"/><stop stop-opacity="1" stop-color="rgb(35.308838%, 77.711487%, 44.281006%)" offset="0.71875"/><stop stop-opacity="1" stop-color="rgb(35.694885%, 77.914429%, 44.00177%)" offset="0.726562"/><stop stop-opacity="1" stop-color="rgb(36.080933%, 78.117371%, 43.722534%)" offset="0.734375"/><stop stop-opacity="1" stop-color="rgb(36.46698%, 78.318787%, 43.443298%)" offset="0.742188"/><stop stop-opacity="1" stop-color="rgb(36.853027%, 78.521729%, 43.164062%)" offset="0.75"/><stop stop-opacity="1" stop-color="rgb(37.239075%, 78.723145%, 42.886353%)" offset="0.757812"/><stop stop-opacity="1" stop-color="rgb(37.625122%, 78.926086%, 42.607117%)" offset="0.765625"/><stop stop-opacity="1" stop-color="rgb(38.011169%, 79.129028%, 42.327881%)" offset="0.773438"/><stop stop-opacity="1" stop-color="rgb(38.397217%, 79.330444%, 42.048645%)" offset="0.78125"/><stop stop-opacity="1" stop-color="rgb(38.783264%, 79.533386%, 41.770935%)" offset="0.789062"/><stop stop-opacity="1" stop-color="rgb(39.169312%, 79.734802%, 41.491699%)" offset="0.796875"/><stop stop-opacity="1" stop-color="rgb(39.555359%, 79.937744%, 41.212463%)" offset="0.804687"/><stop stop-opacity="1" stop-color="rgb(39.93988%, 80.140686%, 40.933228%)" offset="0.8125"/><stop stop-opacity="1" stop-color="rgb(40.325928%, 80.342102%, 40.655518%)" offset="0.820312"/><stop stop-opacity="1" stop-color="rgb(40.711975%, 80.545044%, 40.376282%)" offset="0.828125"/><stop stop-opacity="1" stop-color="rgb(41.098022%, 80.74646%, 40.097046%)" offset="0.835938"/><stop stop-opacity="1" stop-color="rgb(41.48407%, 80.949402%, 39.81781%)" offset="0.84375"/><stop stop-opacity="1" stop-color="rgb(41.870117%, 81.152344%, 39.538574%)" offset="0.851562"/><stop stop-opacity="1" stop-color="rgb(42.256165%, 81.35376%, 39.260864%)" offset="0.859375"/><stop stop-opacity="1" stop-color="rgb(42.642212%, 81.556702%, 38.981628%)" offset="0.867188"/><stop stop-opacity="1" stop-color="rgb(43.028259%, 81.758118%, 38.702393%)" offset="0.875"/><stop stop-opacity="1" stop-color="rgb(43.414307%, 81.96106%, 38.423157%)" offset="0.882812"/><stop stop-opacity="1" stop-color="rgb(43.800354%, 82.164001%, 38.145447%)" offset="0.890625"/><stop stop-opacity="1" stop-color="rgb(44.184875%, 82.365417%, 37.866211%)" offset="0.898438"/><stop stop-opacity="1" stop-color="rgb(44.570923%, 82.568359%, 37.586975%)" offset="0.90625"/><stop stop-opacity="1" stop-color="rgb(44.95697%, 82.769775%, 37.307739%)" offset="0.914062"/><stop stop-opacity="1" stop-color="rgb(45.343018%, 82.972717%, 37.028503%)" offset="0.921875"/><stop stop-opacity="1" stop-color="rgb(45.729065%, 83.175659%, 36.750793%)" offset="0.929687"/><stop stop-opacity="1" stop-color="rgb(46.115112%, 83.377075%, 36.471558%)" offset="0.9375"/><stop stop-opacity="1" stop-color="rgb(46.50116%, 83.580017%, 36.192322%)" offset="0.945312"/><stop stop-opacity="1" stop-color="rgb(46.887207%, 83.781433%, 35.913086%)" offset="0.953125"/><stop stop-opacity="1" stop-color="rgb(47.273254%, 83.984375%, 35.635376%)" offset="0.960938"/><stop stop-opacity="1" stop-color="rgb(47.659302%, 84.187317%, 35.35614%)" offset="0.96875"/><stop stop-opacity="1" stop-color="rgb(48.045349%, 84.388733%, 35.076904%)" offset="0.976562"/><stop stop-opacity="1" stop-color="rgb(48.429871%, 84.591675%, 34.797668%)" offset="0.984375"/><stop stop-opacity="1" stop-color="rgb(48.815918%, 84.793091%, 34.519958%)" offset="0.992188"/><stop stop-opacity="1" stop-color="rgb(49.201965%, 84.996033%, 34.240723%)" offset="1"/></linearGradient><clipPath id="761a119364"><path d="M 167 320 L 214 320 L 214 342.621094 L 167 342.621094 Z M 167 320 " clip-rule="nonzero"/></clipPath><clipPath id="bceeab8bc4"><path d="M 186 32.144531 L 194 32.144531 L 194 63 L 186 63 Z M 186 32.144531 " clip-rule="nonzero"/></clipPath><clipPath id="feddb9d4a3"><path d="M 299 167 L 329.050781 167 L 329.050781 175 L 299 175 Z M 299 167 " clip-rule="nonzero"/></clipPath><clipPath id="59e1633ca6"><path d="M 51.570312 167 L 82 167 L 82 175 L 51.570312 175 Z M 51.570312 167 " clip-rule="nonzero"/></clipPath></defs><g clip-path="url(#a829cdee68)"><path fill="#ffffff" d="M 0 0.0117188 L 1874.878906 0.0117188 L 1874.878906 382.488281 L 0 382.488281 Z M 0 0.0117188 " fill-opacity="1" fill-rule="nonzero"/><path fill="#ffffff" d="M 0 0.0117188 L 1874.878906 0.0117188 L 1874.878906 374.988281 L 0 374.988281 Z M 0 0.0117188 " fill-opacity="1" fill-rule="nonzero"/><path fill="url(#0086501402)" d="M 0 0.0117188 L 0 374.988281 L 1874.761719 374.988281 L 1874.761719 0.0117188 Z M 0 0.0117188 " fill-rule="nonzero"/></g><path fill="#06d48f" d="M 176.386719 113.785156 C 180.34375 113.785156 184.015625 115.046875 187.027344 117.1875 C 190.113281 119.386719 192.492188 122.507812 193.75 126.148438 C 193.898438 126.570312 193.960938 127 193.949219 127.421875 L 193.949219 214.386719 C 193.949219 215.097656 193.746094 215.761719 193.394531 216.320312 C 191.742188 219.339844 189.316406 221.871094 186.382812 223.640625 C 183.460938 225.402344 180.039062 226.417969 176.386719 226.417969 C 172.644531 226.417969 169.128906 225.335938 166.136719 223.464844 C 163.632812 221.902344 161.515625 219.785156 159.957031 217.292969 C 155.757812 216.523438 152.03125 214.398438 149.246094 211.390625 C 146.058594 207.945312 144.105469 203.335938 144.105469 198.277344 C 144.105469 197.703125 144.136719 197.101562 144.195312 196.484375 C 142.304688 194.9375 140.710938 193.035156 139.511719 190.882812 C 137.960938 188.089844 137.078125 184.894531 137.078125 181.511719 C 137.078125 179.171875 137.503906 176.914062 138.273438 174.820312 C 138.734375 173.582031 139.316406 172.402344 140.011719 171.292969 C 139.328125 170.199219 138.757812 169.027344 138.304688 167.800781 C 137.539062 165.710938 137.117188 163.46875 137.117188 161.136719 C 137.117188 158.632812 137.597656 156.230469 138.472656 154.027344 C 139.011719 152.664062 139.710938 151.367188 140.539062 150.167969 C 139.988281 149.175781 139.523438 148.128906 139.15625 147.046875 C 138.488281 145.082031 138.125 142.988281 138.125 140.832031 C 138.125 135.5 140.292969 130.667969 143.796875 127.167969 L 146.371094 129.722656 L 143.796875 127.15625 L 143.867188 127.085938 C 147.367188 123.625 152.179688 121.488281 157.492188 121.488281 C 158.65625 121.488281 159.800781 121.59375 160.910156 121.789062 L 160.792969 122.449219 L 160.914062 121.789062 C 161.003906 121.808594 161.09375 121.828125 161.183594 121.851562 C 162.570312 119.8125 164.355469 118.070312 166.425781 116.730469 C 169.308594 114.867188 172.730469 113.785156 176.386719 113.785156 Z M 182.820312 123.09375 C 181.015625 121.8125 178.792969 121.054688 176.386719 121.054688 C 174.15625 121.054688 172.09375 121.699219 170.378906 122.808594 C 168.640625 123.929688 167.230469 125.535156 166.34375 127.429688 C 165.617188 129.265625 163.554688 130.195312 161.691406 129.507812 L 161.691406 129.5 C 161.089844 129.28125 160.492188 129.105469 159.90625 128.984375 C 159.816406 128.976562 159.722656 128.964844 159.632812 128.945312 C 158.9375 128.824219 158.222656 128.757812 157.492188 128.757812 C 154.164062 128.757812 151.152344 130.101562 148.964844 132.273438 L 148.945312 132.292969 L 148.9375 132.289062 C 146.757812 134.46875 145.40625 137.492188 145.40625 140.832031 C 145.40625 142.207031 145.628906 143.511719 146.035156 144.714844 C 146.441406 145.90625 147.019531 147.003906 147.742188 147.984375 C 148.976562 149.375 148.964844 151.5 147.667969 152.878906 L 145.015625 150.390625 L 147.660156 152.878906 C 146.636719 153.96875 145.808594 155.261719 145.238281 156.699219 C 144.695312 158.066406 144.398438 159.566406 144.398438 161.136719 C 144.398438 162.609375 144.65625 164.011719 145.128906 165.300781 C 145.601562 166.582031 146.28125 167.761719 147.132812 168.792969 C 148.40625 170.128906 148.488281 172.234375 147.261719 173.664062 L 147.253906 173.660156 C 146.335938 174.730469 145.601562 175.96875 145.101562 177.320312 C 144.621094 178.617188 144.359375 180.03125 144.359375 181.511719 C 144.359375 183.652344 144.902344 185.644531 145.855469 187.359375 C 146.820312 189.097656 148.210938 190.578125 149.886719 191.660156 C 151.261719 192.421875 152.039062 194.023438 151.679688 195.632812 L 151.664062 195.632812 C 151.589844 195.96875 151.523438 196.335938 151.476562 196.730469 L 151.460938 196.949219 L 151.453125 196.949219 C 151.410156 197.34375 151.386719 197.789062 151.386719 198.277344 C 151.386719 201.445312 152.601562 204.328125 154.59375 206.476562 C 156.5625 208.609375 159.296875 210.027344 162.355469 210.300781 C 163.660156 210.347656 164.898438 211.09375 165.511719 212.347656 L 162.238281 213.9375 L 165.507812 212.359375 C 166.507812 214.410156 168.066406 216.136719 169.976562 217.332031 C 171.816406 218.480469 174.011719 219.144531 176.386719 219.144531 C 178.675781 219.144531 180.8125 218.515625 182.628906 217.421875 C 184.273438 216.429688 185.660156 215.0625 186.671875 213.4375 L 186.671875 127.976562 C 185.871094 126.003906 184.523438 124.308594 182.820312 123.09375 Z M 182.820312 123.09375 " fill-opacity="1" fill-rule="nonzero"/><path fill="#06d48f" d="M 169.679688 127.941406 C 167.714844 128.347656 166.457031 130.269531 166.863281 132.230469 C 167.269531 134.1875 169.195312 135.449219 171.15625 135.039062 C 171.316406 135.007812 171.472656 134.980469 171.621094 134.96875 C 171.714844 134.957031 171.875 134.953125 172.089844 134.953125 C 173.335938 134.953125 174.46875 135.457031 175.285156 136.273438 C 175.332031 136.320312 175.382812 136.367188 175.433594 136.414062 C 176.160156 137.207031 176.605469 138.277344 176.605469 139.460938 C 176.605469 141.46875 178.238281 143.097656 180.246094 143.097656 C 182.257812 143.097656 183.886719 141.46875 183.886719 139.460938 C 183.886719 136.339844 182.660156 133.496094 180.65625 131.378906 C 180.585938 131.292969 180.511719 131.210938 180.429688 131.132812 C 178.296875 129 175.347656 127.683594 172.089844 127.683594 C 171.746094 127.683594 171.339844 127.707031 170.878906 127.753906 C 170.46875 127.796875 170.070312 127.859375 169.679688 127.941406 Z M 169.679688 127.941406 " fill-opacity="1" fill-rule="nonzero"/><path fill="#06d48f" d="M 164.882812 157.738281 C 166.84375 158.144531 168.769531 156.886719 169.175781 154.925781 C 169.585938 152.964844 168.324219 151.046875 166.363281 150.636719 C 165.972656 150.558594 165.570312 150.492188 165.160156 150.453125 C 164.699219 150.402344 164.292969 150.378906 163.949219 150.378906 C 160.710938 150.378906 157.761719 151.699219 155.621094 153.832031 L 155.613281 153.839844 L 155.609375 153.832031 C 155.527344 153.910156 155.453125 153.992188 155.382812 154.078125 C 153.378906 156.195312 152.152344 159.039062 152.152344 162.160156 C 152.152344 164.167969 153.785156 165.792969 155.792969 165.792969 C 157.804688 165.792969 159.433594 164.167969 159.433594 162.160156 C 159.433594 160.976562 159.878906 159.90625 160.609375 159.109375 C 160.660156 159.066406 160.707031 159.019531 160.757812 158.96875 L 158.183594 156.398438 L 160.757812 158.957031 C 161.5625 158.148438 162.695312 157.648438 163.949219 157.648438 C 164.164062 157.648438 164.324219 157.65625 164.421875 157.664062 C 164.570312 157.679688 164.726562 157.703125 164.882812 157.738281 Z M 164.882812 157.738281 " fill-opacity="1" fill-rule="nonzero"/><path fill="#06d48f" d="M 157.214844 190.421875 C 159.175781 190.828125 161.101562 189.570312 161.507812 187.609375 C 161.917969 185.648438 160.65625 183.730469 158.695312 183.320312 C 158.304688 183.242188 157.902344 183.175781 157.492188 183.136719 C 157.03125 183.085938 156.625 183.0625 156.28125 183.0625 C 153.039062 183.0625 150.089844 184.386719 147.945312 186.519531 L 147.941406 186.511719 L 147.9375 186.515625 C 145.804688 188.644531 144.484375 191.589844 144.484375 194.84375 C 144.484375 196.851562 146.113281 198.476562 148.125 198.476562 C 150.132812 198.476562 151.765625 196.851562 151.765625 194.84375 C 151.765625 193.597656 152.269531 192.46875 153.085938 191.652344 L 153.089844 191.652344 L 150.511719 189.082031 L 153.085938 191.640625 C 153.894531 190.832031 155.023438 190.332031 156.28125 190.332031 C 156.496094 190.332031 156.65625 190.339844 156.753906 190.347656 C 156.898438 190.363281 157.054688 190.386719 157.214844 190.421875 Z M 157.214844 190.421875 " fill-opacity="1" fill-rule="nonzero"/><path fill="#06d48f" d="M 171.328125 209.515625 C 173.289062 209.921875 175.214844 208.664062 175.621094 206.703125 C 176.027344 204.742188 174.769531 202.824219 172.804688 202.414062 C 172.414062 202.335938 172.011719 202.269531 171.605469 202.230469 C 171.140625 202.179688 170.738281 202.15625 170.394531 202.15625 C 167.148438 202.15625 164.199219 203.480469 162.058594 205.613281 L 162.050781 205.609375 C 159.917969 207.738281 158.597656 210.683594 158.597656 213.9375 C 158.597656 215.945312 160.226562 217.570312 162.238281 217.570312 C 164.246094 217.570312 165.878906 215.945312 165.878906 213.9375 C 165.878906 212.691406 166.382812 211.5625 167.199219 210.75 L 167.199219 210.746094 L 164.625 208.179688 L 167.199219 210.734375 C 168.007812 209.925781 169.136719 209.425781 170.394531 209.425781 C 170.609375 209.425781 170.769531 209.433594 170.863281 209.441406 C 171.011719 209.457031 171.167969 209.480469 171.328125 209.515625 Z M 171.328125 209.515625 " fill-opacity="1" fill-rule="nonzero"/><path fill="#06d48f" d="M 177.628906 183.898438 C 177.730469 185.898438 179.4375 187.4375 181.4375 187.335938 C 183.441406 187.234375 184.980469 185.527344 184.878906 183.53125 C 184.855469 183.128906 184.8125 182.71875 184.746094 182.308594 C 184.675781 181.867188 184.59375 181.464844 184.5 181.117188 C 183.660156 177.984375 181.617188 175.484375 178.992188 173.972656 C 176.378906 172.464844 173.195312 171.949219 170.0625 172.789062 C 168.121094 173.304688 166.96875 175.296875 167.488281 177.234375 C 168.007812 179.167969 170 180.320312 171.9375 179.804688 C 173.15625 179.476562 174.382812 179.671875 175.382812 180.246094 C 176.375 180.820312 177.152344 181.78125 177.476562 182.992188 C 177.527344 183.183594 177.5625 183.335938 177.582031 183.445312 C 177.601562 183.585938 177.621094 183.738281 177.628906 183.898438 Z M 177.628906 183.898438 " fill-opacity="1" fill-rule="nonzero"/><path fill="#06d48f" d="M 209.464844 135.039062 C 211.425781 135.449219 213.351562 134.1875 213.757812 132.230469 C 214.164062 130.269531 212.90625 128.347656 210.941406 127.941406 C 210.550781 127.859375 210.152344 127.796875 209.742188 127.753906 C 209.28125 127.707031 208.875 127.683594 208.527344 127.683594 C 205.273438 127.683594 202.324219 129 200.1875 131.132812 C 200.109375 131.210938 200.035156 131.292969 199.964844 131.378906 C 197.960938 133.496094 196.734375 136.339844 196.734375 139.460938 C 196.734375 141.46875 198.363281 143.097656 200.375 143.097656 C 202.382812 143.097656 204.011719 141.46875 204.011719 139.460938 C 204.011719 138.277344 204.460938 137.207031 205.1875 136.414062 C 205.238281 136.367188 205.289062 136.320312 205.335938 136.273438 C 206.152344 135.457031 207.28125 134.953125 208.527344 134.953125 C 208.746094 134.953125 208.90625 134.957031 209 134.96875 C 209.148438 134.980469 209.304688 135.007812 209.464844 135.039062 Z M 209.464844 135.039062 " fill-opacity="1" fill-rule="nonzero"/><path fill="#06d48f" d="M 214.257812 150.636719 C 212.296875 151.046875 211.035156 152.964844 211.441406 154.925781 C 211.851562 156.886719 213.773438 158.144531 215.738281 157.738281 C 215.894531 157.703125 216.050781 157.679688 216.199219 157.664062 C 216.292969 157.65625 216.453125 157.648438 216.671875 157.648438 C 217.925781 157.648438 219.058594 158.148438 219.863281 158.957031 L 222.4375 156.398438 L 219.863281 158.96875 C 219.914062 159.019531 219.960938 159.066406 220.011719 159.109375 C 220.742188 159.90625 221.1875 160.976562 221.1875 162.160156 C 221.1875 164.167969 222.816406 165.792969 224.828125 165.792969 C 226.835938 165.792969 228.46875 164.167969 228.46875 162.160156 C 228.46875 159.039062 227.238281 156.195312 225.238281 154.078125 C 225.167969 153.992188 225.09375 153.910156 225.011719 153.832031 L 225.003906 153.839844 L 225.003906 153.835938 L 224.996094 153.832031 C 222.859375 151.699219 219.910156 150.378906 216.671875 150.378906 C 216.328125 150.378906 215.921875 150.402344 215.460938 150.453125 C 215.050781 150.492188 214.648438 150.558594 214.257812 150.636719 Z M 214.257812 150.636719 " fill-opacity="1" fill-rule="nonzero"/><path fill="#06d48f" d="M 221.925781 183.320312 C 219.964844 183.730469 218.703125 185.648438 219.113281 187.609375 C 219.519531 189.570312 221.445312 190.828125 223.40625 190.421875 C 223.5625 190.386719 223.71875 190.363281 223.867188 190.347656 C 223.964844 190.339844 224.125 190.332031 224.339844 190.332031 C 225.597656 190.332031 226.726562 190.832031 227.53125 191.640625 L 230.105469 189.082031 L 227.53125 191.652344 C 228.351562 192.46875 228.855469 193.597656 228.855469 194.84375 C 228.855469 196.851562 230.484375 198.476562 232.496094 198.476562 C 234.503906 198.476562 236.136719 196.851562 236.136719 194.84375 C 236.136719 191.589844 234.816406 188.644531 232.679688 186.515625 L 232.679688 186.511719 L 232.671875 186.519531 C 230.53125 184.386719 227.582031 183.0625 224.339844 183.0625 C 223.996094 183.0625 223.589844 183.085938 223.128906 183.136719 C 222.71875 183.175781 222.316406 183.242188 221.925781 183.320312 Z M 221.925781 183.320312 " fill-opacity="1" fill-rule="nonzero"/><path fill="#06d48f" d="M 207.816406 202.414062 C 205.851562 202.824219 204.589844 204.742188 205 206.703125 C 205.40625 208.664062 207.332031 209.921875 209.292969 209.515625 C 209.453125 209.480469 209.609375 209.457031 209.753906 209.441406 C 209.851562 209.433594 210.011719 209.425781 210.226562 209.425781 C 211.484375 209.425781 212.613281 209.925781 213.421875 210.734375 L 215.996094 208.179688 L 213.421875 210.746094 L 213.421875 210.75 C 214.238281 211.5625 214.742188 212.691406 214.742188 213.9375 C 214.742188 215.945312 216.375 217.570312 218.382812 217.570312 C 220.394531 217.570312 222.023438 215.945312 222.023438 213.9375 C 222.023438 210.683594 220.703125 207.738281 218.570312 205.609375 L 218.566406 205.609375 L 218.5625 205.613281 C 216.421875 203.480469 213.472656 202.15625 210.226562 202.15625 C 209.882812 202.15625 209.476562 202.179688 209.015625 202.230469 C 208.605469 202.269531 208.207031 202.335938 207.816406 202.414062 Z M 207.816406 202.414062 " fill-opacity="1" fill-rule="nonzero"/><path fill="#06d48f" d="M 195.742188 183.53125 C 195.640625 185.527344 197.179688 187.234375 199.183594 187.335938 C 201.183594 187.4375 202.890625 185.898438 202.992188 183.898438 C 203 183.738281 203.019531 183.585938 203.039062 183.445312 C 203.058594 183.335938 203.09375 183.1875 203.144531 182.992188 C 203.46875 181.78125 204.246094 180.820312 205.238281 180.246094 C 206.238281 179.671875 207.464844 179.476562 208.683594 179.804688 C 210.621094 180.320312 212.613281 179.171875 213.132812 177.234375 C 213.648438 175.296875 212.5 173.308594 210.558594 172.789062 C 207.425781 171.949219 204.242188 172.464844 201.625 173.972656 C 199.003906 175.484375 196.960938 177.988281 196.121094 181.117188 C 196.027344 181.464844 195.945312 181.867188 195.875 182.308594 C 195.808594 182.71875 195.761719 183.128906 195.742188 183.53125 Z M 195.742188 183.53125 " fill-opacity="1" fill-rule="nonzero"/><path fill="#06d48f" d="M 149.632812 266.75 C 149.632812 268.757812 151.265625 270.386719 153.273438 270.386719 C 155.285156 270.386719 156.914062 268.757812 156.914062 266.75 C 156.914062 229.410156 146.023438 218.140625 135.578125 207.332031 C 126.945312 198.398438 118.648438 189.816406 118.648438 163.226562 C 118.648438 143.464844 126.671875 125.570312 139.640625 112.621094 C 152.605469 99.671875 170.523438 91.664062 190.308594 91.664062 C 210.097656 91.664062 228.015625 99.671875 240.980469 112.621094 C 253.949219 125.570312 261.972656 143.464844 261.972656 163.226562 C 261.972656 189.8125 253.675781 198.398438 245.039062 207.332031 C 234.597656 218.140625 223.707031 229.410156 223.707031 266.75 C 223.707031 268.757812 225.335938 270.386719 227.347656 270.386719 C 229.355469 270.386719 230.984375 268.757812 230.984375 266.75 C 230.984375 232.316406 240.832031 222.128906 250.273438 212.359375 C 259.953125 202.34375 269.25 192.722656 269.25 163.226562 C 269.25 141.457031 260.414062 121.746094 246.128906 107.480469 C 231.84375 93.21875 212.109375 84.390625 190.308594 84.390625 C 168.511719 84.390625 148.773438 93.21875 134.492188 107.480469 C 120.207031 121.746094 111.371094 141.457031 111.371094 163.226562 C 111.371094 192.71875 120.667969 202.34375 130.347656 212.359375 C 139.789062 222.128906 149.632812 232.316406 149.632812 266.75 Z M 149.632812 266.75 " fill-opacity="1" fill-rule="nonzero"/><path fill="#06d48f" d="M 154.476562 289.421875 C 156.488281 289.421875 158.117188 287.792969 158.117188 285.785156 C 158.117188 283.78125 156.488281 282.152344 154.476562 282.152344 C 152.863281 282.152344 151.390625 281.488281 150.320312 280.421875 C 149.25 279.355469 148.585938 277.882812 148.585938 276.269531 C 148.585938 274.65625 149.25 273.183594 150.320312 272.117188 C 151.390625 271.050781 152.863281 270.386719 154.476562 270.386719 L 226.140625 270.386719 C 227.757812 270.386719 229.230469 271.050781 230.300781 272.117188 C 231.371094 273.183594 232.035156 274.65625 232.035156 276.269531 C 232.035156 277.882812 231.371094 279.355469 230.300781 280.421875 C 229.230469 281.488281 227.757812 282.152344 226.140625 282.152344 C 224.132812 282.152344 222.503906 283.78125 222.503906 285.785156 C 222.503906 287.792969 224.132812 289.421875 226.140625 289.421875 C 229.769531 289.421875 233.0625 287.945312 235.449219 285.5625 C 237.832031 283.179688 239.3125 279.890625 239.3125 276.269531 C 239.3125 272.648438 237.832031 269.359375 235.449219 266.976562 C 233.0625 264.59375 229.769531 263.117188 226.140625 263.117188 L 154.476562 263.117188 C 150.851562 263.117188 147.558594 264.59375 145.171875 266.976562 C 142.789062 269.359375 141.308594 272.648438 141.308594 276.269531 C 141.308594 279.890625 142.789062 283.179688 145.171875 285.5625 C 147.558594 287.945312 150.851562 289.421875 154.476562 289.421875 Z M 154.476562 289.421875 " fill-opacity="1" fill-rule="nonzero"/><path fill="#06d48f" d="M 156.011719 308.457031 C 158.023438 308.457031 159.652344 306.832031 159.652344 304.824219 C 159.652344 302.816406 158.023438 301.1875 156.011719 301.1875 L 147.925781 301.1875 C 146.308594 301.1875 144.835938 300.523438 143.769531 299.457031 C 142.699219 298.390625 142.035156 296.917969 142.035156 295.304688 C 142.035156 293.691406 142.699219 292.21875 143.769531 291.152344 C 144.835938 290.085938 146.308594 289.421875 147.925781 289.421875 L 232.695312 289.421875 C 234.3125 289.421875 235.785156 290.085938 236.851562 291.152344 C 237.921875 292.21875 238.585938 293.691406 238.585938 295.304688 C 238.585938 296.917969 237.921875 298.390625 236.851562 299.457031 L 236.703125 299.613281 C 235.65625 300.589844 234.246094 301.1875 232.695312 301.1875 L 224.613281 301.1875 C 222.605469 301.1875 220.972656 302.816406 220.972656 304.824219 C 220.972656 306.832031 222.605469 308.457031 224.613281 308.457031 L 232.695312 308.457031 C 236.191406 308.457031 239.386719 307.070312 241.757812 304.816406 C 241.839844 304.75 241.921875 304.675781 242 304.597656 C 244.382812 302.214844 245.867188 298.925781 245.867188 295.304688 C 245.867188 291.683594 244.386719 288.394531 242 286.011719 C 239.613281 283.628906 236.320312 282.152344 232.695312 282.152344 L 147.925781 282.152344 C 144.300781 282.152344 141.007812 283.628906 138.621094 286.011719 C 136.234375 288.394531 134.753906 291.683594 134.753906 295.304688 C 134.753906 298.925781 136.234375 302.214844 138.621094 304.597656 C 141.003906 306.980469 144.300781 308.457031 147.925781 308.457031 Z M 156.011719 308.457031 " fill-opacity="1" fill-rule="nonzero"/><path fill="#06d48f" d="M 156.300781 301.1875 L 224.320312 301.1875 C 227.945312 301.1875 231.238281 302.667969 233.625 305.050781 C 236.007812 307.429688 237.488281 310.71875 237.488281 314.339844 C 237.488281 317.960938 236.007812 321.25 233.625 323.632812 C 231.238281 326.015625 227.945312 327.496094 224.320312 327.496094 L 156.300781 327.496094 C 152.675781 327.496094 149.382812 326.015625 146.996094 323.632812 C 144.609375 321.25 143.128906 317.960938 143.128906 314.339844 C 143.128906 310.71875 144.609375 307.429688 146.996094 305.050781 C 149.382812 302.667969 152.675781 301.1875 156.300781 301.1875 Z M 224.320312 308.457031 L 156.300781 308.457031 C 154.683594 308.457031 153.210938 309.121094 152.144531 310.191406 C 151.074219 311.257812 150.410156 312.726562 150.410156 314.339844 C 150.410156 315.953125 151.074219 317.425781 152.144531 318.492188 C 153.210938 319.5625 154.683594 320.222656 156.300781 320.222656 L 224.320312 320.222656 C 225.933594 320.222656 227.40625 319.5625 228.476562 318.492188 C 229.546875 317.425781 230.210938 315.953125 230.210938 314.339844 C 230.210938 312.726562 229.546875 311.257812 228.476562 310.191406 C 227.40625 309.121094 225.933594 308.457031 224.320312 308.457031 Z M 224.320312 308.457031 " fill-opacity="1" fill-rule="nonzero"/><g clip-path="url(#761a119364)"><path fill="#06d48f" d="M 213.199219 323.859375 C 213.199219 321.851562 211.570312 320.222656 209.558594 320.222656 C 207.550781 320.222656 205.917969 321.851562 205.917969 323.859375 L 205.917969 331.351562 C 205.917969 332.417969 205.488281 333.378906 204.796875 334.070312 L 207.355469 336.640625 L 204.78125 334.070312 L 204.644531 334.214844 C 203.964844 334.828125 203.058594 335.207031 202.058594 335.207031 L 178.558594 335.207031 C 177.503906 335.207031 176.539062 334.769531 175.835938 334.070312 C 175.136719 333.371094 174.699219 332.40625 174.699219 331.351562 L 174.699219 323.859375 C 174.699219 321.851562 173.070312 320.222656 171.058594 320.222656 C 169.050781 320.222656 167.421875 321.851562 167.421875 323.859375 L 167.421875 331.351562 C 167.421875 334.414062 168.671875 337.199219 170.691406 339.210938 C 172.707031 341.222656 175.492188 342.476562 178.558594 342.476562 L 202.058594 342.476562 C 204.996094 342.476562 207.683594 341.316406 209.683594 339.4375 C 209.769531 339.367188 209.851562 339.292969 209.929688 339.210938 L 209.921875 339.207031 L 209.921875 339.203125 L 209.929688 339.199219 C 211.949219 337.175781 213.199219 334.398438 213.199219 331.351562 Z M 213.199219 323.859375 " fill-opacity="1" fill-rule="nonzero"/></g><path fill="#06d48f" d="M 186.671875 266.75 C 186.671875 268.757812 188.300781 270.386719 190.308594 270.386719 C 192.320312 270.386719 193.949219 268.757812 193.949219 266.75 L 193.949219 214.386719 C 193.949219 212.378906 192.320312 210.75 190.308594 210.75 C 188.300781 210.75 186.671875 212.378906 186.671875 214.386719 Z M 186.671875 266.75 " fill-opacity="1" fill-rule="nonzero"/><g clip-path="url(#bceeab8bc4)"><path fill="#06d48f" d="M 193.949219 35.925781 C 193.949219 33.917969 192.320312 32.289062 190.308594 32.289062 C 188.300781 32.289062 186.671875 33.917969 186.671875 35.925781 L 186.671875 58.644531 C 186.671875 60.648438 188.300781 62.277344 190.308594 62.277344 C 192.320312 62.277344 193.949219 60.648438 193.949219 58.644531 Z M 193.949219 35.925781 " fill-opacity="1" fill-rule="nonzero"/></g><path fill="#06d48f" d="M 261.011719 55.820312 C 262.015625 54.085938 261.421875 51.867188 259.6875 50.863281 C 257.953125 49.859375 255.730469 50.453125 254.726562 52.183594 L 243.351562 71.859375 C 242.347656 73.589844 242.9375 75.8125 244.675781 76.8125 C 246.410156 77.816406 248.632812 77.226562 249.636719 75.496094 Z M 261.011719 55.820312 " fill-opacity="1" fill-rule="nonzero"/><path fill="#06d48f" d="M 309.144531 106.527344 C 310.878906 105.527344 311.472656 103.304688 310.464844 101.574219 C 309.460938 99.839844 307.238281 99.25 305.503906 100.253906 L 285.804688 111.613281 C 284.070312 112.617188 283.476562 114.835938 284.480469 116.570312 C 285.484375 118.300781 287.707031 118.890625 289.441406 117.886719 Z M 309.144531 106.527344 " fill-opacity="1" fill-rule="nonzero"/><g clip-path="url(#feddb9d4a3)"><path fill="#06d48f" d="M 325.425781 174.492188 C 327.4375 174.492188 329.066406 172.867188 329.066406 170.859375 C 329.066406 168.851562 327.4375 167.222656 325.425781 167.222656 L 302.679688 167.222656 C 300.667969 167.222656 299.039062 168.851562 299.039062 170.859375 C 299.039062 172.867188 300.667969 174.492188 302.679688 174.492188 Z M 325.425781 174.492188 " fill-opacity="1" fill-rule="nonzero"/></g><g clip-path="url(#59e1633ca6)"><path fill="#06d48f" d="M 55.195312 167.222656 C 53.183594 167.222656 51.554688 168.851562 51.554688 170.859375 C 51.554688 172.867188 53.183594 174.492188 55.195312 174.492188 L 77.941406 174.492188 C 79.953125 174.492188 81.582031 172.867188 81.582031 170.859375 C 81.582031 168.851562 79.953125 167.222656 77.941406 167.222656 Z M 55.195312 167.222656 " fill-opacity="1" fill-rule="nonzero"/></g><path fill="#06d48f" d="M 75.117188 100.253906 C 73.378906 99.25 71.15625 99.84375 70.152344 101.574219 C 69.148438 103.304688 69.742188 105.527344 71.476562 106.53125 L 91.175781 117.890625 C 92.910156 118.890625 95.132812 118.300781 96.140625 116.570312 C 97.144531 114.835938 96.550781 112.617188 94.816406 111.613281 Z M 75.117188 100.253906 " fill-opacity="1" fill-rule="nonzero"/><path fill="#06d48f" d="M 125.894531 52.183594 C 124.890625 50.453125 122.667969 49.859375 120.933594 50.863281 C 119.195312 51.867188 118.605469 54.085938 119.609375 55.820312 L 130.984375 75.496094 C 131.988281 77.226562 134.210938 77.816406 135.945312 76.8125 C 137.679688 75.8125 138.273438 73.589844 137.269531 71.859375 Z M 125.894531 52.183594 " fill-opacity="1" fill-rule="nonzero"/><path fill="#06d48f" d="M 204.234375 113.785156 C 200.28125 113.785156 196.605469 115.046875 193.597656 117.1875 C 190.507812 119.386719 188.128906 122.507812 186.875 126.148438 L 186.871094 126.148438 C 186.726562 126.570312 186.664062 127 186.671875 127.421875 L 186.671875 214.386719 C 186.671875 215.097656 186.878906 215.761719 187.230469 216.320312 C 188.878906 219.339844 191.308594 221.871094 194.242188 223.640625 C 197.164062 225.402344 200.585938 226.417969 204.234375 226.417969 C 207.980469 226.417969 211.496094 225.335938 214.488281 223.464844 C 216.988281 221.902344 219.105469 219.785156 220.667969 217.292969 C 224.867188 216.523438 228.59375 214.398438 231.375 211.390625 C 234.566406 207.945312 236.515625 203.335938 236.515625 198.277344 C 236.515625 197.703125 236.488281 197.101562 236.429688 196.484375 C 238.320312 194.9375 239.914062 193.035156 241.109375 190.882812 C 242.660156 188.089844 243.546875 184.894531 243.546875 181.511719 C 243.546875 179.171875 243.121094 176.914062 242.347656 174.820312 C 241.890625 173.582031 241.304688 172.402344 240.613281 171.292969 C 241.292969 170.199219 241.867188 169.027344 242.320312 167.800781 C 243.085938 165.710938 243.503906 163.46875 243.503906 161.136719 C 243.503906 158.632812 243.027344 156.230469 242.152344 154.027344 C 241.609375 152.664062 240.914062 151.367188 240.082031 150.167969 C 240.632812 149.175781 241.097656 148.128906 241.46875 147.046875 C 242.136719 145.082031 242.5 142.988281 242.5 140.832031 C 242.5 135.5 240.328125 130.667969 236.824219 127.167969 L 234.25 129.722656 L 236.824219 127.15625 L 236.757812 127.085938 C 233.257812 123.625 228.441406 121.488281 223.128906 121.488281 C 221.964844 121.488281 220.820312 121.59375 219.710938 121.789062 L 219.832031 122.449219 L 219.828125 122.449219 L 219.710938 121.789062 C 219.617188 121.808594 219.527344 121.828125 219.4375 121.851562 C 218.054688 119.8125 216.269531 118.070312 214.195312 116.730469 C 211.3125 114.867188 207.890625 113.785156 204.234375 113.785156 Z M 197.804688 123.09375 C 199.609375 121.8125 201.828125 121.054688 204.234375 121.054688 C 206.464844 121.054688 208.527344 121.699219 210.246094 122.808594 C 211.984375 123.929688 213.390625 125.535156 214.28125 127.429688 C 215.003906 129.265625 217.070312 130.195312 218.933594 129.507812 L 218.929688 129.5 C 219.53125 129.28125 220.128906 129.105469 220.714844 128.984375 C 220.808594 128.976562 220.898438 128.964844 220.992188 128.945312 C 221.683594 128.824219 222.402344 128.757812 223.128906 128.757812 C 226.457031 128.757812 229.472656 130.101562 231.65625 132.273438 L 231.675781 132.292969 L 231.679688 132.292969 L 231.683594 132.289062 C 233.867188 134.46875 235.21875 137.492188 235.21875 140.832031 C 235.21875 142.207031 234.996094 143.511719 234.585938 144.714844 C 234.183594 145.90625 233.601562 147.003906 232.882812 147.984375 C 231.648438 149.375 231.65625 151.5 232.953125 152.878906 L 235.609375 150.390625 L 232.964844 152.878906 C 233.988281 153.96875 234.816406 155.261719 235.382812 156.699219 C 235.925781 158.066406 236.226562 159.566406 236.226562 161.136719 C 236.226562 162.609375 235.964844 164.011719 235.492188 165.300781 C 235.023438 166.582031 234.339844 167.761719 233.492188 168.792969 C 232.21875 170.128906 232.136719 172.234375 233.363281 173.664062 L 233.371094 173.660156 C 234.289062 174.730469 235.023438 175.96875 235.523438 177.320312 C 236.003906 178.617188 236.265625 180.03125 236.265625 181.511719 C 236.265625 183.652344 235.722656 185.644531 234.769531 187.359375 C 233.800781 189.097656 232.414062 190.578125 230.738281 191.660156 C 229.359375 192.421875 228.585938 194.023438 228.945312 195.632812 L 228.960938 195.632812 C 229.035156 195.96875 229.097656 196.335938 229.148438 196.730469 L 229.164062 196.949219 L 229.171875 196.949219 C 229.214844 197.34375 229.238281 197.789062 229.238281 198.277344 C 229.238281 201.445312 228.019531 204.328125 226.03125 206.476562 C 224.058594 208.609375 221.328125 210.027344 218.269531 210.300781 C 216.960938 210.347656 215.722656 211.09375 215.113281 212.347656 L 218.386719 213.9375 L 215.117188 212.359375 C 214.117188 214.410156 212.558594 216.136719 210.648438 217.332031 C 208.808594 218.480469 206.609375 219.144531 204.234375 219.144531 C 201.949219 219.144531 199.8125 218.515625 197.996094 217.421875 C 196.351562 216.429688 194.964844 215.0625 193.953125 213.4375 L 193.953125 127.976562 C 194.75 126.003906 196.097656 124.308594 197.804688 123.09375 Z M 197.804688 123.09375 " fill-opacity="1" fill-rule="nonzero"/><g fill="#000000" fill-opacity="1"><g transform="translate(1513.841549, 155.578259)"><g><path d="M 26.375 -35.921875 L 33.296875 -35.921875 L 20.21875 -11.75 L 20.21875 0 L 13.34375 0 L 13.34375 -11.5 L -0.046875 -35.921875 L 6.921875 -35.921875 L 16.734375 -19.03125 Z M 26.375 -35.921875 "/></g></g></g><g fill="#000000" fill-opacity="1"><g transform="translate(1547.136207, 155.578259)"><g><path d="M 20.734375 -36.375 C 24.285156 -36.375 27.523438 -35.570312 30.453125 -33.96875 C 33.378906 -32.363281 35.679688 -30.15625 37.359375 -27.34375 C 39.035156 -24.539062 39.875 -21.429688 39.875 -18.015625 C 39.875 -14.585938 39.035156 -11.460938 37.359375 -8.640625 C 35.679688 -5.816406 33.378906 -3.582031 30.453125 -1.9375 C 27.523438 -0.300781 24.285156 0.515625 20.734375 0.515625 C 17.171875 0.515625 13.925781 -0.300781 11 -1.9375 C 8.082031 -3.582031 5.785156 -5.816406 4.109375 -8.640625 C 2.429688 -11.460938 1.59375 -14.585938 1.59375 -18.015625 C 1.59375 -21.429688 2.429688 -24.539062 4.109375 -27.34375 C 5.785156 -30.15625 8.082031 -32.363281 11 -33.96875 C 13.925781 -35.570312 17.171875 -36.375 20.734375 -36.375 Z M 20.828125 -30.21875 C 18.640625 -30.21875 16.601562 -29.675781 14.71875 -28.59375 C 12.84375 -27.519531 11.359375 -26.050781 10.265625 -24.1875 C 9.171875 -22.320312 8.625 -20.265625 8.625 -18.015625 C 8.625 -15.753906 9.175781 -13.679688 10.28125 -11.796875 C 11.394531 -9.921875 12.882812 -8.4375 14.75 -7.34375 C 16.613281 -6.25 18.640625 -5.703125 20.828125 -5.703125 C 22.984375 -5.703125 24.984375 -6.25 26.828125 -7.34375 C 28.679688 -8.4375 30.144531 -9.921875 31.21875 -11.796875 C 32.300781 -13.679688 32.84375 -15.753906 32.84375 -18.015625 C 32.84375 -20.265625 32.300781 -22.320312 31.21875 -24.1875 C 30.144531 -26.050781 28.679688 -27.519531 26.828125 -28.59375 C 24.984375 -29.675781 22.984375 -30.21875 20.828125 -30.21875 Z M 20.828125 -30.21875 "/></g></g></g><g fill="#000000" fill-opacity="1"><g transform="translate(1588.639096, 155.578259)"><g><path d="M 10.625 -14.78125 C 10.625 -11.9375 11.425781 -9.710938 13.03125 -8.109375 C 14.632812 -6.503906 16.789062 -5.703125 19.5 -5.703125 C 22.195312 -5.703125 24.320312 -6.503906 25.875 -8.109375 C 27.4375 -9.710938 28.21875 -11.9375 28.21875 -14.78125 L 28.21875 -35.921875 L 35.09375 -35.921875 L 35.09375 -14.78125 C 35.09375 -11.664062 34.457031 -8.953125 33.1875 -6.640625 C 31.925781 -4.335938 30.125 -2.566406 27.78125 -1.328125 C 25.4375 -0.0976562 22.675781 0.515625 19.5 0.515625 C 16.28125 0.515625 13.484375 -0.0976562 11.109375 -1.328125 C 8.734375 -2.566406 6.910156 -4.335938 5.640625 -6.640625 C 4.378906 -8.953125 3.75 -11.664062 3.75 -14.78125 L 3.75 -35.921875 L 10.625 -35.921875 Z M 10.625 -14.78125 "/></g></g></g><g fill="#000000" fill-opacity="1"><g transform="translate(1627.423008, 155.578259)"><g><path d="M 34.734375 0 L 26.890625 0 L 20.671875 -10.625 C 20.398438 -10.59375 19.972656 -10.578125 19.390625 -10.578125 L 11.28125 -10.578125 L 11.28125 0 L 4.40625 0 L 4.40625 -35.921875 L 19.390625 -35.921875 C 24.046875 -35.921875 27.640625 -34.84375 30.171875 -32.6875 C 32.703125 -30.53125 33.96875 -27.484375 33.96875 -23.546875 C 33.96875 -20.742188 33.359375 -18.347656 32.140625 -16.359375 C 30.929688 -14.378906 29.164062 -12.894531 26.84375 -11.90625 Z M 11.28125 -29.921875 L 11.28125 -16.625 L 19.390625 -16.625 C 21.992188 -16.625 23.976562 -17.1875 25.34375 -18.3125 C 26.71875 -19.445312 27.40625 -21.125 27.40625 -23.34375 C 27.40625 -25.53125 26.71875 -27.171875 25.34375 -28.265625 C 23.976562 -29.367188 21.992188 -29.921875 19.390625 -29.921875 Z M 11.28125 -29.921875 "/></g></g></g><g fill="#000000" fill-opacity="1"><g transform="translate(1664.513967, 155.578259)"><g/></g></g><g fill="#000000" fill-opacity="1"><g transform="translate(1678.365363, 155.578259)"><g><path d="M 29.453125 -11.140625 L 29.453125 -35.921875 L 36.125 -35.921875 L 36.125 0 L 29.609375 0 L 11.140625 -24.734375 L 11.140625 0 L 4.40625 0 L 4.40625 -35.921875 L 10.921875 -35.921875 Z M 29.453125 -11.140625 "/></g></g></g><g fill="#000000" fill-opacity="1"><g transform="translate(1718.893541, 155.578259)"><g><path d="M 4.40625 0 L 4.40625 -35.921875 L 30.734375 -35.921875 L 30.734375 -29.921875 L 11.28125 -29.921875 L 11.28125 -21.03125 L 28.734375 -21.03125 L 28.734375 -15.03125 L 11.28125 -15.03125 L 11.28125 -6 L 31.359375 -6 L 31.359375 0 Z M 4.40625 0 "/></g></g></g><g fill="#000000" fill-opacity="1"><g transform="translate(1752.803829, 155.578259)"><g><path d="M 39.609375 -7.34375 L 47.984375 -35.921875 L 55.109375 -35.921875 L 42.953125 0 L 35.8125 0 L 27.609375 -27.25 L 19.234375 0 L 12.21875 0 L 0.109375 -35.921875 L 7.484375 -35.921875 L 15.953125 -7.4375 L 24.375 -35.921875 L 31.140625 -35.921875 Z M 39.609375 -7.34375 "/></g></g></g><g fill="#000000" fill-opacity="1"><g transform="translate(1635.122844, 210.324753)"><g><path d="M 26.984375 -26.6875 C 25.140625 -27.8125 23.25 -28.679688 21.3125 -29.296875 C 19.382812 -29.910156 17.6875 -30.21875 16.21875 -30.21875 C 14.570312 -30.21875 13.269531 -29.910156 12.3125 -29.296875 C 11.351562 -28.679688 10.875 -27.828125 10.875 -26.734375 C 10.875 -25.742188 11.207031 -24.914062 11.875 -24.25 C 12.539062 -23.582031 13.378906 -23.035156 14.390625 -22.609375 C 15.398438 -22.179688 16.78125 -21.707031 18.53125 -21.1875 C 20.957031 -20.46875 22.945312 -19.75 24.5 -19.03125 C 26.0625 -18.3125 27.390625 -17.25 28.484375 -15.84375 C 29.578125 -14.445312 30.125 -12.601562 30.125 -10.3125 C 30.125 -8.125 29.53125 -6.21875 28.34375 -4.59375 C 27.164062 -2.96875 25.539062 -1.726562 23.46875 -0.875 C 21.40625 -0.0195312 19.039062 0.40625 16.375 0.40625 C 13.5625 0.40625 10.820312 -0.113281 8.15625 -1.15625 C 5.488281 -2.195312 3.164062 -3.59375 1.1875 -5.34375 L 4.046875 -11.1875 C 5.859375 -9.507812 7.894531 -8.191406 10.15625 -7.234375 C 12.414062 -6.273438 14.519531 -5.796875 16.46875 -5.796875 C 18.382812 -5.796875 19.890625 -6.160156 20.984375 -6.890625 C 22.078125 -7.628906 22.625 -8.632812 22.625 -9.90625 C 22.625 -10.925781 22.289062 -11.769531 21.625 -12.4375 C 20.957031 -13.101562 20.109375 -13.640625 19.078125 -14.046875 C 18.054688 -14.460938 16.65625 -14.925781 14.875 -15.4375 C 12.445312 -16.15625 10.460938 -16.859375 8.921875 -17.546875 C 7.390625 -18.234375 6.070312 -19.269531 4.96875 -20.65625 C 3.875 -22.039062 3.328125 -23.863281 3.328125 -26.125 C 3.328125 -28.207031 3.882812 -30.023438 5 -31.578125 C 6.113281 -33.140625 7.6875 -34.347656 9.71875 -35.203125 C 11.757812 -36.054688 14.113281 -36.484375 16.78125 -36.484375 C 19.101562 -36.484375 21.398438 -36.140625 23.671875 -35.453125 C 25.953125 -34.773438 27.984375 -33.851562 29.765625 -32.6875 Z M 26.984375 -26.6875 "/></g></g></g><g fill="#000000" fill-opacity="1"><g transform="translate(1667.340168, 210.324753)"><g><path d="M 21.8125 -20.734375 L 36.484375 0 L 28.21875 0 L 16.9375 -15.390625 L 11.28125 -9.1875 L 11.28125 0 L 4.40625 0 L 4.40625 -35.921875 L 11.28125 -35.921875 L 11.28125 -18.015625 L 27.5 -35.921875 L 35.609375 -35.921875 Z M 21.8125 -20.734375 "/></g></g></g><g fill="#000000" fill-opacity="1"><g transform="translate(1704.58504, 210.324753)"><g><path d="M 4.40625 0 L 4.40625 -35.921875 L 11.28125 -35.921875 L 11.28125 0 Z M 4.40625 0 "/></g></g></g><g fill="#000000" fill-opacity="1"><g transform="translate(1720.283292, 210.324753)"><g><path d="M 4.40625 0 L 4.40625 -35.921875 L 11.28125 -35.921875 L 11.28125 -6.203125 L 26.78125 -6.203125 L 26.78125 0 Z M 4.40625 0 "/></g></g></g><g fill="#000000" fill-opacity="1"><g transform="translate(1748.037385, 210.324753)"><g><path d="M 4.40625 0 L 4.40625 -35.921875 L 11.28125 -35.921875 L 11.28125 -6.203125 L 26.78125 -6.203125 L 26.78125 0 Z M 4.40625 0 "/></g></g></g><g fill="#000000" fill-opacity="1"><g transform="translate(1775.791479, 210.324753)"><g><path d="M 26.984375 -26.6875 C 25.140625 -27.8125 23.25 -28.679688 21.3125 -29.296875 C 19.382812 -29.910156 17.6875 -30.21875 16.21875 -30.21875 C 14.570312 -30.21875 13.269531 -29.910156 12.3125 -29.296875 C 11.351562 -28.679688 10.875 -27.828125 10.875 -26.734375 C 10.875 -25.742188 11.207031 -24.914062 11.875 -24.25 C 12.539062 -23.582031 13.378906 -23.035156 14.390625 -22.609375 C 15.398438 -22.179688 16.78125 -21.707031 18.53125 -21.1875 C 20.957031 -20.46875 22.945312 -19.75 24.5 -19.03125 C 26.0625 -18.3125 27.390625 -17.25 28.484375 -15.84375 C 29.578125 -14.445312 30.125 -12.601562 30.125 -10.3125 C 30.125 -8.125 29.53125 -6.21875 28.34375 -4.59375 C 27.164062 -2.96875 25.539062 -1.726562 23.46875 -0.875 C 21.40625 -0.0195312 19.039062 0.40625 16.375 0.40625 C 13.5625 0.40625 10.820312 -0.113281 8.15625 -1.15625 C 5.488281 -2.195312 3.164062 -3.59375 1.1875 -5.34375 L 4.046875 -11.1875 C 5.859375 -9.507812 7.894531 -8.191406 10.15625 -7.234375 C 12.414062 -6.273438 14.519531 -5.796875 16.46875 -5.796875 C 18.382812 -5.796875 19.890625 -6.160156 20.984375 -6.890625 C 22.078125 -7.628906 22.625 -8.632812 22.625 -9.90625 C 22.625 -10.925781 22.289062 -11.769531 21.625 -12.4375 C 20.957031 -13.101562 20.109375 -13.640625 19.078125 -14.046875 C 18.054688 -14.460938 16.65625 -14.925781 14.875 -15.4375 C 12.445312 -16.15625 10.460938 -16.859375 8.921875 -17.546875 C 7.390625 -18.234375 6.070312 -19.269531 4.96875 -20.65625 C 3.875 -22.039062 3.328125 -23.863281 3.328125 -26.125 C 3.328125 -28.207031 3.882812 -30.023438 5 -31.578125 C 6.113281 -33.140625 7.6875 -34.347656 9.71875 -35.203125 C 11.757812 -36.054688 14.113281 -36.484375 16.78125 -36.484375 C 19.101562 -36.484375 21.398438 -36.140625 23.671875 -35.453125 C 25.953125 -34.773438 27.984375 -33.851562 29.765625 -32.6875 Z M 26.984375 -26.6875 "/></g></g></g><g fill="#000000" fill-opacity="1"><g transform="translate(1566.221007, 265.071247)"><g><path d="M 4.40625 0 L 4.40625 -35.921875 L 11.28125 -35.921875 L 11.28125 -6.203125 L 26.78125 -6.203125 L 26.78125 0 Z M 4.40625 0 "/></g></g></g><g fill="#000000" fill-opacity="1"><g transform="translate(1593.9751, 265.071247)"><g><path d="M 20.734375 -36.375 C 24.285156 -36.375 27.523438 -35.570312 30.453125 -33.96875 C 33.378906 -32.363281 35.679688 -30.15625 37.359375 -27.34375 C 39.035156 -24.539062 39.875 -21.429688 39.875 -18.015625 C 39.875 -14.585938 39.035156 -11.460938 37.359375 -8.640625 C 35.679688 -5.816406 33.378906 -3.582031 30.453125 -1.9375 C 27.523438 -0.300781 24.285156 0.515625 20.734375 0.515625 C 17.171875 0.515625 13.925781 -0.300781 11 -1.9375 C 8.082031 -3.582031 5.785156 -5.816406 4.109375 -8.640625 C 2.429688 -11.460938 1.59375 -14.585938 1.59375 -18.015625 C 1.59375 -21.429688 2.429688 -24.539062 4.109375 -27.34375 C 5.785156 -30.15625 8.082031 -32.363281 11 -33.96875 C 13.925781 -35.570312 17.171875 -36.375 20.734375 -36.375 Z M 20.828125 -30.21875 C 18.640625 -30.21875 16.601562 -29.675781 14.71875 -28.59375 C 12.84375 -27.519531 11.359375 -26.050781 10.265625 -24.1875 C 9.171875 -22.320312 8.625 -20.265625 8.625 -18.015625 C 8.625 -15.753906 9.175781 -13.679688 10.28125 -11.796875 C 11.394531 -9.921875 12.882812 -8.4375 14.75 -7.34375 C 16.613281 -6.25 18.640625 -5.703125 20.828125 -5.703125 C 22.984375 -5.703125 24.984375 -6.25 26.828125 -7.34375 C 28.679688 -8.4375 30.144531 -9.921875 31.21875 -11.796875 C 32.300781 -13.679688 32.84375 -15.753906 32.84375 -18.015625 C 32.84375 -20.265625 32.300781 -22.320312 31.21875 -24.1875 C 30.144531 -26.050781 28.679688 -27.519531 26.828125 -28.59375 C 24.984375 -29.675781 22.984375 -30.21875 20.828125 -30.21875 Z M 20.828125 -30.21875 "/></g></g></g><g fill="#000000" fill-opacity="1"><g transform="translate(1635.477989, 265.071247)"><g><path d="M 38.375 0 L 31 0 L 27.8125 -7.59375 L 10.265625 -7.59375 L 7.078125 0 L -0.046875 0 L 15.703125 -35.921875 L 22.828125 -35.921875 Z M 19.09375 -28.578125 L 12.71875 -13.5 L 25.34375 -13.5 Z M 19.09375 -28.578125 "/></g></g></g><g fill="#000000" fill-opacity="1"><g transform="translate(1673.800184, 265.071247)"><g><path d="M 19.34375 -35.921875 C 22.9375 -35.921875 26.148438 -35.160156 28.984375 -33.640625 C 31.828125 -32.117188 34.050781 -29.988281 35.65625 -27.25 C 37.269531 -24.507812 38.078125 -21.410156 38.078125 -17.953125 C 38.078125 -14.503906 37.265625 -11.421875 35.640625 -8.703125 C 34.015625 -5.984375 31.765625 -3.851562 28.890625 -2.3125 C 26.015625 -0.769531 22.75 0 19.09375 0 L 4.40625 0 L 4.40625 -35.921875 Z M 19.5 -6.0625 C 21.6875 -6.0625 23.660156 -6.5625 25.421875 -7.5625 C 27.179688 -8.570312 28.554688 -9.972656 29.546875 -11.765625 C 30.546875 -13.566406 31.046875 -15.613281 31.046875 -17.90625 C 31.046875 -20.195312 30.53125 -22.257812 29.5 -24.09375 C 28.476562 -25.925781 27.066406 -27.34375 25.265625 -28.34375 C 23.472656 -29.351562 21.460938 -29.859375 19.234375 -29.859375 L 11.28125 -29.859375 L 11.28125 -6.0625 Z M 19.5 -6.0625 "/></g></g></g><g fill="#000000" fill-opacity="1"><g transform="translate(1713.456218, 265.071247)"><g><path d="M 4.40625 0 L 4.40625 -35.921875 L 11.28125 -35.921875 L 11.28125 0 Z M 4.40625 0 "/></g></g></g><g fill="#000000" fill-opacity="1"><g transform="translate(1729.15447, 265.071247)"><g><path d="M 29.453125 -11.140625 L 29.453125 -35.921875 L 36.125 -35.921875 L 36.125 0 L 29.609375 0 L 11.140625 -24.734375 L 11.140625 0 L 4.40625 0 L 4.40625 -35.921875 L 10.921875 -35.921875 Z M 29.453125 -11.140625 "/></g></g></g><g fill="#000000" fill-opacity="1"><g transform="translate(1769.682647, 265.071247)"><g><path d="M 28.78125 -17.859375 L 34.796875 -17.859375 L 34.796875 -4.203125 C 32.910156 -2.804688 30.679688 -1.671875 28.109375 -0.796875 C 25.546875 0.078125 23.035156 0.515625 20.578125 0.515625 C 17.054688 0.515625 13.847656 -0.300781 10.953125 -1.9375 C 8.066406 -3.582031 5.785156 -5.816406 4.109375 -8.640625 C 2.429688 -11.460938 1.59375 -14.585938 1.59375 -18.015625 C 1.59375 -21.429688 2.445312 -24.53125 4.15625 -27.3125 C 5.863281 -30.101562 8.195312 -32.3125 11.15625 -33.9375 C 14.113281 -35.5625 17.390625 -36.375 20.984375 -36.375 C 23.546875 -36.375 26.078125 -35.910156 28.578125 -34.984375 C 31.078125 -34.066406 33.234375 -32.804688 35.046875 -31.203125 L 31.140625 -26.125 C 29.773438 -27.414062 28.191406 -28.421875 26.390625 -29.140625 C 24.597656 -29.859375 22.796875 -30.21875 20.984375 -30.21875 C 18.722656 -30.21875 16.644531 -29.675781 14.75 -28.59375 C 12.851562 -27.519531 11.359375 -26.039062 10.265625 -24.15625 C 9.171875 -22.28125 8.625 -20.234375 8.625 -18.015625 C 8.625 -15.753906 9.175781 -13.679688 10.28125 -11.796875 C 11.394531 -9.921875 12.890625 -8.4375 14.765625 -7.34375 C 16.648438 -6.25 18.738281 -5.703125 21.03125 -5.703125 C 22.269531 -5.703125 23.5625 -5.894531 24.90625 -6.28125 C 26.257812 -6.675781 27.550781 -7.234375 28.78125 -7.953125 Z M 28.78125 -17.859375 "/></g></g></g></svg>