<svg xmlns="http://www.w3.org/2000/svg" xmlns:xlink="http://www.w3.org/1999/xlink" width="250" zoomAndPan="magnify" viewBox="0 0 187.5 187.499992" height="250" preserveAspectRatio="xMidYMid meet" version="1.0"><defs><clipPath id="74d890ff48"><path d="M 178 97 L 187 97 L 187 113 L 178 113 Z M 178 97 " clip-rule="nonzero"/></clipPath><clipPath id="b21d305b1d"><path d="M 178 97 L 187 97 L 187 113 L 178 113 Z M 178 97 " clip-rule="nonzero"/></clipPath><clipPath id="d6fd7dab69"><path d="M 16.171875 151.40625 L 35.054688 151.40625 L 35.054688 158.003906 L 16.171875 158.003906 Z M 16.171875 151.40625 " clip-rule="nonzero"/></clipPath><clipPath id="bc89f91159"><path d="M 16.878906 151.816406 L 35.054688 151.40625 L 34.9375 158.003906 L 16.171875 157.039062 Z M 16.878906 151.816406 " clip-rule="nonzero"/></clipPath><clipPath id="ba1d80f56a"><path d="M 16.878906 151.816406 L 35.054688 151.40625 L 34.9375 158.003906 L 16.171875 157.039062 L 16.878906 151.816406 " clip-rule="nonzero"/></clipPath><linearGradient x1="330.87899" gradientTransform="matrix(0.449295, 0, 0, -0.449421, -123.167676, 342.055243)" y1="408.837707" x2="331.412943" gradientUnits="userSpaceOnUse" y2="424.900588" id="687bd97966"><stop stop-opacity="1" stop-color="rgb(90.19928%, 90.19928%, 90.19928%)" offset="0"/><stop stop-opacity="1" stop-color="rgb(90.19928%, 90.19928%, 90.19928%)" offset="0.0625"/><stop stop-opacity="1" stop-color="rgb(90.324402%, 90.324402%, 90.324402%)" offset="0.078125"/><stop stop-opacity="1" stop-color="rgb(90.524292%, 90.524292%, 90.524292%)" offset="0.0868777"/><stop stop-opacity="1" stop-color="rgb(90.59906%, 90.59906%, 90.59906%)" offset="0.09375"/><stop stop-opacity="1" stop-color="rgb(90.698242%, 90.698242%, 90.698242%)" offset="0.109375"/><stop stop-opacity="1" stop-color="rgb(90.898132%, 90.898132%, 90.898132%)" offset="0.125"/><stop stop-opacity="1" stop-color="rgb(91.099548%, 91.099548%, 91.099548%)" offset="0.140625"/><stop stop-opacity="1" stop-color="rgb(91.299438%, 91.299438%, 91.299438%)" offset="0.15625"/><stop stop-opacity="1" stop-color="rgb(91.398621%, 91.398621%, 91.398621%)" offset="0.1875"/><stop stop-opacity="1" stop-color="rgb(91.496277%, 91.496277%, 91.496277%)" offset="0.203125"/><stop stop-opacity="1" stop-color="rgb(91.694641%, 91.694641%, 91.694641%)" offset="0.21875"/><stop stop-opacity="1" stop-color="rgb(91.896057%, 91.896057%, 91.896057%)" offset="0.234375"/><stop stop-opacity="1" stop-color="rgb(92.097473%, 92.097473%, 92.097473%)" offset="0.25"/><stop stop-opacity="1" stop-color="rgb(92.349243%, 92.349243%, 92.349243%)" offset="0.28125"/><stop stop-opacity="1" stop-color="rgb(92.697144%, 92.697144%, 92.697144%)" offset="0.3125"/><stop stop-opacity="1" stop-color="rgb(92.895508%, 92.895508%, 92.895508%)" offset="0.34375"/><stop stop-opacity="1" stop-color="rgb(92.997742%, 92.997742%, 92.997742%)" offset="0.359375"/><stop stop-opacity="1" stop-color="rgb(93.197632%, 93.197632%, 93.197632%)" offset="0.375"/><stop stop-opacity="1" stop-color="rgb(93.399048%, 93.399048%, 93.399048%)" offset="0.390625"/><stop stop-opacity="1" stop-color="rgb(93.600464%, 93.600464%, 93.600464%)" offset="0.40625"/><stop stop-opacity="1" stop-color="rgb(93.896484%, 93.896484%, 93.896484%)" offset="0.4375"/><stop stop-opacity="1" stop-color="rgb(94.192505%, 94.192505%, 94.192505%)" offset="0.453125"/><stop stop-opacity="1" stop-color="rgb(94.393921%, 94.393921%, 94.393921%)" offset="0.46875"/><stop stop-opacity="1" stop-color="rgb(94.595337%, 94.595337%, 94.595337%)" offset="0.484375"/><stop stop-opacity="1" stop-color="rgb(94.798279%, 94.798279%, 94.798279%)" offset="0.5"/><stop stop-opacity="1" stop-color="rgb(94.900513%, 94.900513%, 94.900513%)" offset="0.53125"/><stop stop-opacity="1" stop-color="rgb(95.097351%, 95.097351%, 95.097351%)" offset="0.5625"/><stop stop-opacity="1" stop-color="rgb(95.393372%, 95.393372%, 95.393372%)" offset="0.578125"/><stop stop-opacity="1" stop-color="rgb(95.594788%, 95.594788%, 95.594788%)" offset="0.59375"/><stop stop-opacity="1" stop-color="rgb(95.796204%, 95.796204%, 95.796204%)" offset="0.609375"/><stop stop-opacity="1" stop-color="rgb(95.99762%, 95.99762%, 95.99762%)" offset="0.625"/><stop stop-opacity="1" stop-color="rgb(96.199036%, 96.199036%, 96.199036%)" offset="0.640625"/><stop stop-opacity="1" stop-color="rgb(96.398926%, 96.398926%, 96.398926%)" offset="0.65625"/><stop stop-opacity="1" stop-color="rgb(96.499634%, 96.499634%, 96.499634%)" offset="0.6875"/><stop stop-opacity="1" stop-color="rgb(96.595764%, 96.595764%, 96.595764%)" offset="0.703125"/><stop stop-opacity="1" stop-color="rgb(96.794128%, 96.794128%, 96.794128%)" offset="0.71875"/><stop stop-opacity="1" stop-color="rgb(96.995544%, 96.995544%, 96.995544%)" offset="0.734375"/><stop stop-opacity="1" stop-color="rgb(97.19696%, 97.19696%, 97.19696%)" offset="0.75"/><stop stop-opacity="1" stop-color="rgb(97.44873%, 97.44873%, 97.44873%)" offset="0.78125"/><stop stop-opacity="1" stop-color="rgb(97.796631%, 97.796631%, 97.796631%)" offset="0.8125"/><stop stop-opacity="1" stop-color="rgb(98.092651%, 98.092651%, 98.092651%)" offset="0.828125"/><stop stop-opacity="1" stop-color="rgb(98.294067%, 98.294067%, 98.294067%)" offset="0.84375"/><stop stop-opacity="1" stop-color="rgb(98.396301%, 98.396301%, 98.396301%)" offset="0.875"/><stop stop-opacity="1" stop-color="rgb(98.498535%, 98.498535%, 98.498535%)" offset="0.890625"/><stop stop-opacity="1" stop-color="rgb(98.703003%, 98.703003%, 98.703003%)" offset="0.90625"/><stop stop-opacity="1" stop-color="rgb(99.003601%, 99.003601%, 99.003601%)" offset="0.913122"/><stop stop-opacity="1" stop-color="rgb(99.198914%, 99.198914%, 99.198914%)" offset="0.9375"/><stop stop-opacity="1" stop-color="rgb(99.298096%, 99.298096%, 99.298096%)" offset="0.96875"/><stop stop-opacity="1" stop-color="rgb(99.497986%, 99.497986%, 99.497986%)" offset="1"/></linearGradient><clipPath id="280c92dae0"><path d="M 9 156 L 36 156 L 36 178.515625 L 9 178.515625 Z M 9 156 " clip-rule="nonzero"/></clipPath><clipPath id="255e150542"><path d="M 160.171875 139.894531 L 178.355469 139.894531 L 178.355469 145.261719 L 160.171875 145.261719 Z M 160.171875 139.894531 " clip-rule="nonzero"/></clipPath><clipPath id="a67faf5329"><path d="M 178.0625 140.015625 C 176.527344 139.894531 161.285156 139.929688 161.285156 139.929688 L 160.171875 145.261719 L 178.355469 144.9375 Z M 178.0625 140.015625 " clip-rule="nonzero"/></clipPath><clipPath id="c262e60684"><path d="M 178.0625 140.015625 C 176.527344 139.894531 161.285156 139.929688 161.285156 139.929688 L 160.171875 145.261719 L 178.355469 144.9375 L 178.0625 140.015625 " clip-rule="nonzero"/></clipPath><linearGradient x1="650.687978" gradientTransform="matrix(0.449295, 0, 0, -0.449421, -123.167676, 342.055243)" y1="437.322581" x2="651.052959" gradientUnits="userSpaceOnUse" y2="450.388256" id="40611f6950"><stop stop-opacity="1" stop-color="rgb(90.19928%, 90.19928%, 90.19928%)" offset="0"/><stop stop-opacity="1" stop-color="rgb(90.19928%, 90.19928%, 90.19928%)" offset="0.0625"/><stop stop-opacity="1" stop-color="rgb(90.330505%, 90.330505%, 90.330505%)" offset="0.078125"/><stop stop-opacity="1" stop-color="rgb(90.530396%, 90.530396%, 90.530396%)" offset="0.0864628"/><stop stop-opacity="1" stop-color="rgb(90.59906%, 90.59906%, 90.59906%)" offset="0.09375"/><stop stop-opacity="1" stop-color="rgb(90.698242%, 90.698242%, 90.698242%)" offset="0.109375"/><stop stop-opacity="1" stop-color="rgb(90.898132%, 90.898132%, 90.898132%)" offset="0.125"/><stop stop-opacity="1" stop-color="rgb(91.099548%, 91.099548%, 91.099548%)" offset="0.140625"/><stop stop-opacity="1" stop-color="rgb(91.299438%, 91.299438%, 91.299438%)" offset="0.15625"/><stop stop-opacity="1" stop-color="rgb(91.398621%, 91.398621%, 91.398621%)" offset="0.1875"/><stop stop-opacity="1" stop-color="rgb(91.496277%, 91.496277%, 91.496277%)" offset="0.203125"/><stop stop-opacity="1" stop-color="rgb(91.694641%, 91.694641%, 91.694641%)" offset="0.21875"/><stop stop-opacity="1" stop-color="rgb(91.896057%, 91.896057%, 91.896057%)" offset="0.234375"/><stop stop-opacity="1" stop-color="rgb(92.097473%, 92.097473%, 92.097473%)" offset="0.25"/><stop stop-opacity="1" stop-color="rgb(92.349243%, 92.349243%, 92.349243%)" offset="0.28125"/><stop stop-opacity="1" stop-color="rgb(92.697144%, 92.697144%, 92.697144%)" offset="0.3125"/><stop stop-opacity="1" stop-color="rgb(92.993164%, 92.993164%, 92.993164%)" offset="0.328125"/><stop stop-opacity="1" stop-color="rgb(93.19458%, 93.19458%, 93.19458%)" offset="0.34375"/><stop stop-opacity="1" stop-color="rgb(93.296814%, 93.296814%, 93.296814%)" offset="0.375"/><stop stop-opacity="1" stop-color="rgb(93.399048%, 93.399048%, 93.399048%)" offset="0.390625"/><stop stop-opacity="1" stop-color="rgb(93.600464%, 93.600464%, 93.600464%)" offset="0.40625"/><stop stop-opacity="1" stop-color="rgb(93.896484%, 93.896484%, 93.896484%)" offset="0.4375"/><stop stop-opacity="1" stop-color="rgb(94.192505%, 94.192505%, 94.192505%)" offset="0.453125"/><stop stop-opacity="1" stop-color="rgb(94.393921%, 94.393921%, 94.393921%)" offset="0.46875"/><stop stop-opacity="1" stop-color="rgb(94.596863%, 94.596863%, 94.596863%)" offset="0.484375"/><stop stop-opacity="1" stop-color="rgb(94.798279%, 94.798279%, 94.798279%)" offset="0.5"/><stop stop-opacity="1" stop-color="rgb(94.900513%, 94.900513%, 94.900513%)" offset="0.53125"/><stop stop-opacity="1" stop-color="rgb(95.097351%, 95.097351%, 95.097351%)" offset="0.5625"/><stop stop-opacity="1" stop-color="rgb(95.393372%, 95.393372%, 95.393372%)" offset="0.578125"/><stop stop-opacity="1" stop-color="rgb(95.594788%, 95.594788%, 95.594788%)" offset="0.59375"/><stop stop-opacity="1" stop-color="rgb(95.796204%, 95.796204%, 95.796204%)" offset="0.609375"/><stop stop-opacity="1" stop-color="rgb(95.99762%, 95.99762%, 95.99762%)" offset="0.625"/><stop stop-opacity="1" stop-color="rgb(96.199036%, 96.199036%, 96.199036%)" offset="0.640625"/><stop stop-opacity="1" stop-color="rgb(96.400452%, 96.400452%, 96.400452%)" offset="0.65625"/><stop stop-opacity="1" stop-color="rgb(96.696472%, 96.696472%, 96.696472%)" offset="0.6875"/><stop stop-opacity="1" stop-color="rgb(96.894836%, 96.894836%, 96.894836%)" offset="0.71875"/><stop stop-opacity="1" stop-color="rgb(96.99707%, 96.99707%, 96.99707%)" offset="0.734375"/><stop stop-opacity="1" stop-color="rgb(97.19696%, 97.19696%, 97.19696%)" offset="0.75"/><stop stop-opacity="1" stop-color="rgb(97.450256%, 97.450256%, 97.450256%)" offset="0.78125"/><stop stop-opacity="1" stop-color="rgb(97.796631%, 97.796631%, 97.796631%)" offset="0.8125"/><stop stop-opacity="1" stop-color="rgb(98.092651%, 98.092651%, 98.092651%)" offset="0.828125"/><stop stop-opacity="1" stop-color="rgb(98.294067%, 98.294067%, 98.294067%)" offset="0.84375"/><stop stop-opacity="1" stop-color="rgb(98.495483%, 98.495483%, 98.495483%)" offset="0.859375"/><stop stop-opacity="1" stop-color="rgb(98.696899%, 98.696899%, 98.696899%)" offset="0.875"/><stop stop-opacity="1" stop-color="rgb(98.803711%, 98.803711%, 98.803711%)" offset="0.90625"/><stop stop-opacity="1" stop-color="rgb(99.003601%, 99.003601%, 99.003601%)" offset="0.913537"/><stop stop-opacity="1" stop-color="rgb(99.198914%, 99.198914%, 99.198914%)" offset="0.914062"/><stop stop-opacity="1" stop-color="rgb(99.264526%, 99.264526%, 99.264526%)" offset="0.921875"/><stop stop-opacity="1" stop-color="rgb(99.459839%, 99.459839%, 99.459839%)" offset="0.9375"/><stop stop-opacity="1" stop-color="rgb(99.594116%, 99.594116%, 99.594116%)" offset="1"/></linearGradient><clipPath id="42f47a732a"><path d="M 96.738281 133.296875 L 114.175781 133.296875 L 114.175781 138.652344 L 96.738281 138.652344 Z M 96.738281 133.296875 " clip-rule="nonzero"/></clipPath><clipPath id="a138bb6f62"><path d="M 113.878906 133.421875 C 112.34375 133.296875 97.105469 133.335938 97.105469 133.335938 L 96.738281 138.652344 L 114.175781 138.339844 Z M 113.878906 133.421875 " clip-rule="nonzero"/></clipPath><clipPath id="efa1567e4c"><path d="M 113.878906 133.421875 C 112.34375 133.296875 97.105469 133.335938 97.105469 133.335938 L 96.738281 138.652344 L 114.175781 138.339844 L 113.878906 133.421875 " clip-rule="nonzero"/></clipPath><linearGradient x1="508.66098" gradientTransform="matrix(0.449295, 0, 0, -0.449421, -123.167676, 342.055243)" y1="452.030962" x2="509.040002" gradientUnits="userSpaceOnUse" y2="465.062715" id="b2c19adb97"><stop stop-opacity="1" stop-color="rgb(90.19928%, 90.19928%, 90.19928%)" offset="0"/><stop stop-opacity="1" stop-color="rgb(90.19928%, 90.19928%, 90.19928%)" offset="0.0625"/><stop stop-opacity="1" stop-color="rgb(90.328979%, 90.328979%, 90.328979%)" offset="0.078125"/><stop stop-opacity="1" stop-color="rgb(90.52887%, 90.52887%, 90.52887%)" offset="0.0865406"/><stop stop-opacity="1" stop-color="rgb(90.59906%, 90.59906%, 90.59906%)" offset="0.09375"/><stop stop-opacity="1" stop-color="rgb(90.698242%, 90.698242%, 90.698242%)" offset="0.109375"/><stop stop-opacity="1" stop-color="rgb(90.898132%, 90.898132%, 90.898132%)" offset="0.125"/><stop stop-opacity="1" stop-color="rgb(91.099548%, 91.099548%, 91.099548%)" offset="0.140625"/><stop stop-opacity="1" stop-color="rgb(91.299438%, 91.299438%, 91.299438%)" offset="0.15625"/><stop stop-opacity="1" stop-color="rgb(91.398621%, 91.398621%, 91.398621%)" offset="0.1875"/><stop stop-opacity="1" stop-color="rgb(91.496277%, 91.496277%, 91.496277%)" offset="0.203125"/><stop stop-opacity="1" stop-color="rgb(91.694641%, 91.694641%, 91.694641%)" offset="0.21875"/><stop stop-opacity="1" stop-color="rgb(91.896057%, 91.896057%, 91.896057%)" offset="0.234375"/><stop stop-opacity="1" stop-color="rgb(92.097473%, 92.097473%, 92.097473%)" offset="0.25"/><stop stop-opacity="1" stop-color="rgb(92.349243%, 92.349243%, 92.349243%)" offset="0.28125"/><stop stop-opacity="1" stop-color="rgb(92.697144%, 92.697144%, 92.697144%)" offset="0.3125"/><stop stop-opacity="1" stop-color="rgb(92.993164%, 92.993164%, 92.993164%)" offset="0.328125"/><stop stop-opacity="1" stop-color="rgb(93.19458%, 93.19458%, 93.19458%)" offset="0.34375"/><stop stop-opacity="1" stop-color="rgb(93.296814%, 93.296814%, 93.296814%)" offset="0.375"/><stop stop-opacity="1" stop-color="rgb(93.399048%, 93.399048%, 93.399048%)" offset="0.390625"/><stop stop-opacity="1" stop-color="rgb(93.600464%, 93.600464%, 93.600464%)" offset="0.40625"/><stop stop-opacity="1" stop-color="rgb(93.896484%, 93.896484%, 93.896484%)" offset="0.4375"/><stop stop-opacity="1" stop-color="rgb(94.192505%, 94.192505%, 94.192505%)" offset="0.453125"/><stop stop-opacity="1" stop-color="rgb(94.393921%, 94.393921%, 94.393921%)" offset="0.46875"/><stop stop-opacity="1" stop-color="rgb(94.595337%, 94.595337%, 94.595337%)" offset="0.484375"/><stop stop-opacity="1" stop-color="rgb(94.798279%, 94.798279%, 94.798279%)" offset="0.5"/><stop stop-opacity="1" stop-color="rgb(94.900513%, 94.900513%, 94.900513%)" offset="0.53125"/><stop stop-opacity="1" stop-color="rgb(95.097351%, 95.097351%, 95.097351%)" offset="0.5625"/><stop stop-opacity="1" stop-color="rgb(95.393372%, 95.393372%, 95.393372%)" offset="0.578125"/><stop stop-opacity="1" stop-color="rgb(95.594788%, 95.594788%, 95.594788%)" offset="0.59375"/><stop stop-opacity="1" stop-color="rgb(95.796204%, 95.796204%, 95.796204%)" offset="0.609375"/><stop stop-opacity="1" stop-color="rgb(95.99762%, 95.99762%, 95.99762%)" offset="0.625"/><stop stop-opacity="1" stop-color="rgb(96.199036%, 96.199036%, 96.199036%)" offset="0.640625"/><stop stop-opacity="1" stop-color="rgb(96.400452%, 96.400452%, 96.400452%)" offset="0.65625"/><stop stop-opacity="1" stop-color="rgb(96.696472%, 96.696472%, 96.696472%)" offset="0.6875"/><stop stop-opacity="1" stop-color="rgb(96.894836%, 96.894836%, 96.894836%)" offset="0.71875"/><stop stop-opacity="1" stop-color="rgb(96.998596%, 96.998596%, 96.998596%)" offset="0.734375"/><stop stop-opacity="1" stop-color="rgb(97.198486%, 97.198486%, 97.198486%)" offset="0.75"/><stop stop-opacity="1" stop-color="rgb(97.450256%, 97.450256%, 97.450256%)" offset="0.78125"/><stop stop-opacity="1" stop-color="rgb(97.796631%, 97.796631%, 97.796631%)" offset="0.8125"/><stop stop-opacity="1" stop-color="rgb(98.092651%, 98.092651%, 98.092651%)" offset="0.828125"/><stop stop-opacity="1" stop-color="rgb(98.294067%, 98.294067%, 98.294067%)" offset="0.84375"/><stop stop-opacity="1" stop-color="rgb(98.497009%, 98.497009%, 98.497009%)" offset="0.859375"/><stop stop-opacity="1" stop-color="rgb(98.698425%, 98.698425%, 98.698425%)" offset="0.875"/><stop stop-opacity="1" stop-color="rgb(98.803711%, 98.803711%, 98.803711%)" offset="0.90625"/><stop stop-opacity="1" stop-color="rgb(99.005127%, 99.005127%, 99.005127%)" offset="0.913459"/><stop stop-opacity="1" stop-color="rgb(99.200439%, 99.200439%, 99.200439%)" offset="0.914062"/><stop stop-opacity="1" stop-color="rgb(99.264526%, 99.264526%, 99.264526%)" offset="0.921875"/><stop stop-opacity="1" stop-color="rgb(99.459839%, 99.459839%, 99.459839%)" offset="0.9375"/><stop stop-opacity="1" stop-color="rgb(99.594116%, 99.594116%, 99.594116%)" offset="1"/></linearGradient><clipPath id="41eed5b32b"><path d="M 54 8.265625 L 139 8.265625 L 139 37 L 54 37 Z M 54 8.265625 " clip-rule="nonzero"/></clipPath><clipPath id="8bbb1199dc"><path d="M 141 22 L 187 22 L 187 66 L 141 66 Z M 141 22 " clip-rule="nonzero"/></clipPath><clipPath id="426dd5ebec"><path d="M 178 46 L 187 46 L 187 83 L 178 83 Z M 178 46 " clip-rule="nonzero"/></clipPath></defs><path fill="#fcc99f" d="M 113.636719 124.808594 L 113.152344 124.808594 L 105.464844 123 L 105.132812 122.921875 L 103.195312 123.199219 L 97.921875 123.953125 C 97.921875 123.953125 99.925781 126.695312 101.300781 126.785156 C 102.675781 126.867188 106.195312 125.925781 106.195312 125.925781 C 106.195312 125.925781 107.230469 126.03125 108.402344 126.152344 L 108.394531 126.152344 C 108.394531 126.152344 113.09375 127.011719 113.09375 129.304688 C 113.09375 129.414062 113.09375 129.511719 113.097656 129.605469 C 113.046875 132.300781 112.980469 134.6875 112.980469 134.6875 L 113.46875 134.6875 C 113.46875 134.6875 114.066406 128.730469 113.636719 124.808594 " fill-opacity="1" fill-rule="evenodd"/><path fill="#f5bc8f" d="M 97.921875 123.953125 L 103.195312 123.199219 C 100.308594 123.507812 97.921875 123.953125 97.921875 123.953125 " fill-opacity="1" fill-rule="evenodd"/><path fill="#fcc99f" d="M 113.09375 129.304688 C 113.09375 127.011719 108.394531 126.152344 108.394531 126.152344 L 108.402344 126.152344 C 107.230469 126.03125 106.195312 125.925781 106.195312 125.925781 C 106.195312 125.925781 102.675781 126.867188 101.300781 126.785156 C 99.925781 126.695312 97.921875 123.953125 97.921875 123.953125 C 97.921875 123.953125 98.980469 127.816406 98.722656 129.617188 C 98.464844 131.421875 97.949219 134.6875 97.949219 134.6875 L 112.980469 134.6875 C 112.980469 134.6875 113.046875 132.300781 113.097656 129.605469 C 113.09375 129.511719 113.09375 129.414062 113.09375 129.304688 " fill-opacity="1" fill-rule="evenodd"/><path stroke-linecap="butt" transform="matrix(0.0449295, 0, 0, -0.0449421, -10.844039, 178.915289)" fill="none" stroke-linejoin="miter" d="M 2758.497262 1103.877083 C 2758.497262 1154.897542 2653.906223 1174.019349 2653.906223 1174.019349 L 2654.080107 1174.019349 C 2627.997554 1176.713786 2604.957965 1179.060553 2604.957965 1179.060553 C 2604.957965 1179.060553 2526.623363 1158.113482 2496.019834 1159.938746 C 2465.416305 1161.937844 2420.815139 1222.953793 2420.815139 1222.953793 C 2420.815139 1222.953793 2444.376379 1136.992577 2438.638217 1096.923698 C 2432.900055 1056.767902 2421.423732 984.105033 2421.423732 984.105033 L 2755.975948 984.105033 C 2755.975948 984.105033 2757.45396 1037.211508 2758.584204 1097.18445 C 2758.497262 1099.270465 2758.497262 1101.443398 2758.497262 1103.877083 Z M 2758.497262 1103.877083 " stroke="#fcc99f" stroke-width="2.16" stroke-opacity="1" stroke-miterlimit="2.613"/><path fill="#ffd3ab" d="M 105.976562 93.449219 C 105.929688 92.765625 106.039062 90.871094 106.097656 89.496094 C 106.140625 88.523438 106.214844 86.980469 106.335938 85.777344 C 106.316406 83.695312 105.976562 81.230469 104.21875 81.488281 C 102.34375 81.761719 102.472656 88.027344 102.472656 88.027344 C 101.984375 90.59375 102.140625 91.789062 101.574219 93.757812 C 101.136719 95.28125 101.523438 97.078125 101.378906 97.933594 C 100.867188 101.0625 100.730469 102.078125 100.730469 102.078125 C 100.730469 102.078125 102.050781 102.738281 103.316406 102.691406 C 104.460938 102.652344 105.707031 101.953125 105.933594 101.820312 C 105.757812 100.839844 105.679688 100.265625 105.679688 99.007812 C 105.679688 97.746094 105.859375 96.542969 105.976562 95.453125 C 106.039062 94.898438 106.039062 94.308594 105.976562 93.449219 " fill-opacity="1" fill-rule="evenodd"/><path fill="#ffd3ab" d="M 105.535156 93.222656 C 105.488281 92.535156 105.589844 90.644531 105.648438 89.269531 C 105.6875 88.292969 105.757812 86.75 105.878906 85.546875 C 105.859375 83.464844 105.382812 81.148438 104.007812 81.519531 C 102.25 81.992188 102.171875 87.796875 102.171875 87.796875 C 101.707031 90.363281 101.855469 91.5625 101.3125 93.527344 C 100.890625 95.050781 101.257812 96.851562 101.125 97.707031 C 100.632812 100.832031 100.503906 101.847656 100.503906 101.847656 C 100.503906 101.847656 101.765625 102.507812 102.980469 102.464844 C 104.078125 102.425781 105.273438 101.722656 105.488281 101.59375 C 105.324219 100.609375 105.246094 100.039062 105.246094 98.777344 C 105.246094 97.515625 105.417969 96.3125 105.535156 95.226562 C 105.589844 94.667969 105.589844 94.078125 105.535156 93.222656 " fill-opacity="1" fill-rule="evenodd"/><path fill="#ffd3ab" d="M 110.785156 125.402344 L 101.019531 124.164062 C 98.578125 123.851562 96.582031 122.066406 96.003906 119.671875 L 94.390625 112.96875 C 94.292969 112.554688 94.273438 112.128906 94.335938 111.71875 C 94.402344 111.277344 94.601562 110.867188 94.878906 110.515625 C 95.378906 109.890625 97.742188 110.386719 99.050781 107.203125 C 100.335938 104.089844 100.25 103.121094 100.503906 101.847656 C 100.78125 101.828125 103.3125 100.957031 103.582031 101.023438 L 115.550781 104.113281 C 117.179688 104.617188 117.980469 107.5625 117.617188 109.230469 L 114.5625 122.691406 C 114.539062 122.804688 114.503906 122.917969 114.464844 123.027344 C 113.890625 124.453125 112.347656 125.445312 111.023438 125.421875 C 110.945312 125.421875 110.867188 125.410156 110.785156 125.402344 " fill-opacity="1" fill-rule="evenodd"/><path fill="#fcc99f" d="M 95.660156 109.199219 C 95.660156 109.199219 101.472656 110.375 103.878906 114.496094 C 106.28125 118.621094 106.367188 122.574219 106.367188 122.574219 L 95.804688 109.773438 L 95.660156 109.199219 " fill-opacity="1" fill-rule="evenodd"/><path fill="#fcc99f" d="M 95.890625 121.457031 C 95.890625 121.457031 93.054688 116.472656 91.9375 114.15625 C 90.71875 111.621094 91.269531 107.136719 95.296875 109.054688 C 99.324219 110.976562 101.84375 112.636719 104.734375 118.019531 C 107.226562 122.660156 106.109375 124.550781 104.734375 125.324219 C 102.859375 126.375 98.636719 126.269531 95.890625 121.457031 " fill-opacity="1" fill-rule="evenodd"/><path fill="#fcc99f" d="M 96.402344 112.226562 C 96.402344 112.226562 106.195312 108.804688 104.089844 103.277344 C 102.378906 98.777344 100.246094 103.636719 98.925781 104.65625 C 97.703125 105.601562 93.886719 107.203125 92.414062 109.597656 C 90.941406 111.992188 96.402344 112.226562 96.402344 112.226562 " fill-opacity="1" fill-rule="evenodd"/><path fill="#ffd3ab" d="M 105.257812 124.671875 C 105.257812 124.671875 108.171875 116.730469 112.464844 113.378906 C 116.761719 110.03125 117.359375 110.460938 117.359375 110.460938 C 117.359375 110.460938 115.890625 123.175781 113.191406 124.808594 C 110.488281 126.441406 105.257812 124.671875 105.257812 124.671875 " fill-opacity="1" fill-rule="evenodd"/><path fill="#fcc99f" d="M 96.332031 111.710938 C 96.332031 111.710938 104.222656 108.3125 103.480469 103.558594 C 102.734375 98.800781 100.324219 104.707031 98.917969 105.347656 C 97.507812 105.984375 93.4375 106.933594 91.964844 109.328125 C 90.492188 111.722656 96.332031 111.710938 96.332031 111.710938 " fill-opacity="1" fill-rule="evenodd"/><path fill="#d68265" d="M 109.460938 104.269531 C 109.464844 104.308594 109.46875 104.335938 109.476562 104.355469 C 109.488281 104.390625 109.503906 104.394531 109.519531 104.367188 C 109.488281 104.304688 109.476562 104.269531 109.476562 104.269531 C 109.476562 104.269531 109.46875 104.269531 109.460938 104.269531 " fill-opacity="1" fill-rule="evenodd"/><path fill="#d68265" d="M 113.238281 106.097656 C 113.234375 106.265625 113.261719 106.34375 113.339844 106.246094 C 113.363281 106.222656 113.382812 106.175781 113.410156 106.121094 C 113.363281 106.089844 113.339844 106.074219 113.339844 106.074219 C 113.339844 106.074219 113.304688 106.085938 113.238281 106.097656 " fill-opacity="1" fill-rule="evenodd"/><path fill="#ffd3ab" d="M 117.699219 107.585938 C 117.699219 107.585938 117.542969 109.464844 117.359375 110.460938 C 117.082031 112.636719 115.476562 123.433594 113.0625 124.894531 L 113.433594 125.121094 C 116.582031 123.691406 117.484375 113.847656 117.484375 113.847656 L 117.84375 111.449219 L 118.144531 107.78125 L 117.699219 107.585938 " fill-opacity="1" fill-rule="evenodd"/><path fill="#fcc99f" d="M 104.355469 105.003906 C 104.355469 105.003906 102.015625 109.875 104.964844 110.945312 C 107.558594 111.890625 109.261719 106.699219 109.601562 105.972656 C 109.96875 105.183594 111.695312 101.925781 111.835938 101.441406 C 112.164062 100.308594 112.164062 97.894531 110.589844 97.152344 C 109.378906 96.578125 107.742188 97.21875 106.902344 98.476562 C 105.382812 100.753906 105.242188 102.816406 104.355469 105.003906 " fill-opacity="1" fill-rule="evenodd"/><path fill="#fcc99f" d="M 110.265625 103.910156 C 110.265625 103.910156 111.027344 100.003906 113.042969 99.214844 C 114.925781 98.472656 116.621094 99.941406 116.808594 100.816406 C 117.0625 101.988281 116.808594 102.542969 116.558594 103.898438 C 116.324219 105.164062 115.132812 105.277344 114.960938 105.726562 C 114.15625 107.808594 114.050781 108.648438 113.230469 110.492188 C 112.859375 111.332031 112.167969 113.03125 110.34375 112.648438 C 108.898438 112.347656 107.980469 110.964844 108.894531 108.027344 C 109.535156 105.988281 109.691406 105.328125 110.265625 103.910156 " fill-opacity="1" fill-rule="evenodd"/><path fill="#fcc99f" d="M 118.265625 102.796875 C 116.523438 102.238281 115.363281 104.449219 114.660156 106.101562 C 113.960938 107.75 113.582031 110.292969 113.359375 111.554688 C 113.132812 112.816406 114.074219 113.816406 115.144531 113.753906 C 116.355469 113.683594 116.917969 112.828125 117.308594 111.847656 C 117.6875 110.914062 118.09375 109.699219 118.289062 109.179688 C 118.570312 108.441406 118.847656 107.65625 119.226562 106.519531 C 119.765625 104.898438 120.15625 103.398438 118.265625 102.796875 " fill-opacity="1" fill-rule="evenodd"/><path fill="#fcc99f" d="M 118.144531 103.277344 C 116.757812 102.738281 115.945312 104.214844 115.371094 105.777344 C 114.800781 107.339844 114.09375 109.863281 113.90625 111.054688 C 113.714844 112.25 114.65625 112.859375 115.511719 112.808594 C 116.476562 112.75 116.742188 112.292969 117.0625 111.363281 C 117.371094 110.480469 117.707031 109.332031 117.867188 108.84375 C 118.09375 108.140625 118.339844 107.53125 118.746094 106.5 C 119.246094 105.222656 119.648438 103.863281 118.144531 103.277344 " fill-opacity="1" fill-rule="evenodd"/><path fill="#fcc99f" d="M 110.699219 103.949219 C 110.699219 103.949219 112.226562 99.398438 114.0625 99.582031 C 115.535156 99.722656 116.078125 100.363281 116.285156 101.171875 C 116.582031 102.359375 114.808594 104.808594 114.507812 105.5625 C 113.742188 107.476562 113.960938 107.261719 113.191406 108.953125 C 112.84375 109.722656 111.789062 112.117188 110.539062 111.839844 C 109.3125 111.566406 108.566406 110.410156 109.464844 107.703125 C 110.085938 105.828125 110.15625 105.253906 110.699219 103.949219 " fill-opacity="1" fill-rule="evenodd"/><path stroke-linecap="butt" transform="matrix(0.0449295, 0, 0, -0.0449421, -10.844039, 178.915289)" fill="none" stroke-linejoin="miter" d="M 2705.201911 1668.057323 C 2705.201911 1668.057323 2739.196173 1769.315986 2780.058839 1765.230872 C 2812.835915 1762.101849 2824.920831 1747.847411 2829.528749 1729.855528 C 2836.136329 1703.432667 2796.664732 1648.935515 2789.97021 1632.160475 C 2772.929608 1589.570995 2777.798351 1594.351447 2760.670808 1556.716253 C 2752.932984 1539.593543 2729.458686 1486.313234 2701.637296 1492.484363 C 2674.337557 1498.568574 2657.731665 1524.296097 2677.728289 1584.529791 C 2691.552042 1626.250098 2693.116995 1639.026942 2705.201911 1668.057323 Z M 2705.201911 1668.057323 " stroke="#fcc99f" stroke-width="2.16" stroke-opacity="1" stroke-miterlimit="2.613"/><path fill="#fcc99f" d="M 104.847656 104.59375 C 104.847656 104.59375 102.804688 109.15625 104.90625 109.96875 C 107.007812 110.78125 107.859375 107.570312 108.195312 106.847656 C 108.53125 106.125 111.152344 100.734375 111.328125 99.332031 C 111.507812 97.933594 109.335938 96.3125 107.605469 98.261719 C 105.941406 100.136719 105.738281 102.40625 104.847656 104.59375 " fill-opacity="1" fill-rule="evenodd"/><path fill="#fcc99f" d="M 29.789062 115.535156 C 29.789062 115.535156 33.863281 108.957031 34.175781 106.921875 C 34.175781 106.921875 38.089844 105.511719 39.1875 104.101562 C 40.28125 102.691406 43.410156 102.066406 44.195312 99.71875 C 44.980469 97.367188 44.507812 95.800781 39.1875 98.933594 C 33.863281 102.066406 32.921875 101.28125 31.671875 103.003906 C 30.417969 104.730469 27.128906 110.835938 27.128906 110.835938 L 29.789062 115.535156 " fill-opacity="1" fill-rule="evenodd"/><path fill="#fcc99f" d="M 31.671875 111.933594 C 31.671875 111.933594 33.390625 110.523438 35.585938 109.113281 C 37.125 108.121094 38.246094 107.234375 40.4375 106.765625 C 41.660156 106.5 43.253906 105.667969 44.195312 106.292969 C 45.136719 106.921875 44.820312 109.425781 41.21875 110.207031 C 39.621094 110.558594 37.785156 111.921875 36.523438 113.1875 C 35.113281 114.59375 34.957031 116.472656 33.234375 117.570312 C 31.515625 118.667969 29.007812 114.28125 29.007812 114.28125 L 31.671875 111.933594 " fill-opacity="1" fill-rule="evenodd"/><path fill="#fcc99f" d="M 25.097656 110.679688 C 25.097656 110.679688 27.753906 99.402344 29.632812 98.152344 C 31.515625 96.898438 34.488281 95.019531 35.269531 94.234375 C 36.054688 93.453125 38.402344 91.105469 39.1875 90.949219 C 39.96875 90.789062 41.535156 93.453125 39.96875 95.644531 C 38.402344 97.839844 34.800781 100.03125 34.019531 100.96875 C 33.234375 101.910156 31.671875 105.824219 30.886719 107.546875 C 30.105469 109.269531 28.695312 112.402344 28.695312 112.402344 L 25.097656 110.679688 " fill-opacity="1" fill-rule="evenodd"/><path fill="#fcc99f" d="M 34.175781 122.425781 C 34.175781 122.425781 35.269531 116.789062 33.546875 115.847656 C 31.828125 114.90625 29.007812 114.28125 29.007812 114.28125 L 30.886719 121.640625 L 34.175781 122.425781 " fill-opacity="1" fill-rule="evenodd"/><path fill="#ffd3ab" d="M 33.25 151.566406 L 34.570312 141.574219 C 34.570312 141.574219 37.332031 140.707031 39.339844 135.894531 C 40.414062 133.320312 39.976562 131.324219 41.691406 126.808594 C 42.855469 123.730469 44.703125 121.917969 45.289062 120.390625 C 45.878906 118.863281 47.71875 115.339844 48.421875 114.28125 C 49.125 113.222656 47.5625 110.640625 44.980469 112.402344 C 42.394531 114.164062 40.164062 117.609375 39.929688 118.550781 C 39.695312 119.488281 35.933594 122.425781 33.234375 121.484375 C 30.535156 120.546875 31.042969 118.824219 30.574219 116.628906 C 30.148438 114.632812 29.949219 111.933594 28.539062 110.5625 C 28.539062 110.5625 28.054688 104.605469 28.070312 101.910156 C 28.078125 100.066406 28.441406 96.6875 29.164062 93.609375 C 29.164062 93.609375 31.199219 90.320312 31.355469 86.25 C 31.464844 83.457031 27.914062 84.265625 27.128906 86.40625 C 26.082031 89.273438 23.53125 94.21875 22.902344 97.210938 C 22.378906 99.707031 23.058594 103.945312 21.179688 107.703125 C 19.996094 110.074219 18.210938 110.628906 18.050781 116.316406 C 17.917969 120.949219 19.34375 139.210938 18.835938 141.222656 C 18.230469 143.625 17.414062 152.015625 17.414062 152.015625 L 33.25 151.566406 " fill-opacity="1" fill-rule="evenodd"/><path fill="#ffd3ab" d="M 27.441406 139.964844 C 24.625 136.207031 26.035156 127.277344 24.15625 120.234375 C 22.625 114.5 19.855469 112.1875 18.875 111.523438 C 18.4375 112.597656 18.113281 114.050781 18.050781 116.316406 C 17.917969 120.949219 19.34375 139.210938 18.835938 141.222656 C 18.582031 142.222656 18.292969 144.269531 18.042969 146.3125 C 19.09375 145.664062 21.015625 144.835938 23.683594 145.132812 C 27.914062 145.601562 33.25 151.566406 33.25 151.566406 L 34.570312 141.574219 C 34.570312 141.574219 30.261719 143.722656 27.441406 139.964844 " fill-opacity="1" fill-rule="evenodd"/><path fill="#ffd3ab" d="M 177.898438 129.84375 L 177.402344 129.84375 L 169.554688 127.996094 L 169.21875 127.917969 L 167.238281 128.199219 L 161.855469 128.972656 C 161.855469 128.972656 163.902344 131.773438 165.308594 131.859375 C 166.710938 131.945312 170.304688 130.984375 170.304688 130.984375 C 170.304688 130.984375 171.359375 131.09375 172.554688 131.214844 L 172.550781 131.21875 C 172.550781 131.21875 177.34375 132.09375 177.34375 134.429688 C 177.34375 134.542969 177.34375 134.644531 177.347656 134.742188 C 177.296875 137.492188 177.226562 139.925781 177.226562 139.925781 L 177.726562 139.925781 C 177.726562 139.925781 178.335938 133.847656 177.898438 129.84375 " fill-opacity="1" fill-rule="evenodd"/><path fill="#fcb788" d="M 161.855469 128.972656 L 167.238281 128.199219 C 164.292969 128.515625 161.855469 128.972656 161.855469 128.972656 " fill-opacity="1" fill-rule="evenodd"/><path fill="#ffd3ab" d="M 177.34375 134.429688 C 177.34375 132.09375 172.550781 131.21875 172.550781 131.21875 L 172.554688 131.214844 C 171.359375 131.09375 170.304688 130.984375 170.304688 130.984375 C 170.304688 130.984375 166.710938 131.945312 165.308594 131.859375 C 163.902344 131.773438 161.855469 128.972656 161.855469 128.972656 C 161.855469 128.972656 162.941406 132.914062 162.675781 134.753906 C 162.414062 136.59375 161.886719 139.925781 161.886719 139.925781 L 177.230469 139.925781 C 177.230469 139.925781 177.296875 137.492188 177.347656 134.742188 C 177.34375 134.644531 177.34375 134.542969 177.34375 134.429688 " fill-opacity="1" fill-rule="evenodd"/><path fill="#fcb788" d="M 177.402344 129.84375 C 177.402344 128.519531 175.484375 128.019531 173 127.921875 C 171.921875 127.882812 170.738281 127.921875 169.554688 127.996094 L 177.402344 129.84375 " fill-opacity="1" fill-rule="evenodd"/><g clip-path="url(#74d890ff48)"><path fill="#ffd3ab" d="M 187.164062 102.585938 C 187.164062 102.585938 188.871094 98.828125 188.191406 97.988281 C 187.261719 96.84375 186.15625 98.019531 185.867188 98.367188 C 185.4375 99.203125 184.273438 102.230469 183.851562 102.914062 C 183.410156 103.621094 181.738281 106.683594 181.5 107.183594 C 181.28125 107.640625 179.558594 110.328125 178.980469 110.902344 C 179.140625 111.128906 179.699219 111.84375 180.65625 112.242188 C 181.808594 112.71875 182.421875 112.707031 182.421875 112.707031 C 182.421875 112.707031 182.746094 112.203125 183.277344 111.378906 C 184.285156 109.691406 185.21875 107.863281 185.21875 107.863281 C 185.855469 106.539062 187.164062 102.585938 187.164062 102.585938 " fill-opacity="1" fill-rule="evenodd"/></g><path fill="#ffd3ab" d="M 181 103.714844 C 181.488281 103.015625 181.960938 101.269531 182.144531 100.292969 C 182.304688 99.457031 183.113281 97.566406 183.34375 97.042969 C 183.332031 97.0625 183.328125 97.070312 183.328125 97.070312 C 183.328125 97.070312 185.648438 91.085938 184.265625 90.21875 C 182.921875 89.378906 181.746094 91.289062 181.386719 91.953125 C 181.183594 92.507812 180.554688 94.246094 180.457031 94.75 C 180.273438 95.726562 179.542969 97.675781 179.664062 97.238281 C 179.132812 98.492188 177.859375 101.40625 177.6875 102.015625 C 177.371094 103.132812 175.699219 107.335938 175.40625 107.609375 C 175.484375 107.914062 175.78125 108.800781 176.722656 109.464844 C 177.644531 110.113281 178.410156 110.195312 178.679688 110.203125 C 178.785156 109.777344 179.207031 108.792969 179.347656 108.296875 C 179.539062 107.605469 180.398438 104.570312 181 103.714844 " fill-opacity="1" fill-rule="evenodd"/><path fill="#ffd3ab" d="M 170.078125 97.835938 C 170.03125 97.136719 170.140625 95.207031 170.203125 93.800781 C 170.246094 92.808594 170.320312 91.234375 170.445312 90.003906 C 170.425781 87.878906 170.082031 85.363281 168.285156 85.628906 C 166.371094 85.90625 166.503906 92.304688 166.503906 92.304688 C 166.007812 94.921875 166.164062 96.144531 165.585938 98.152344 C 165.136719 99.703125 165.53125 101.542969 165.386719 102.414062 C 164.863281 105.605469 164.726562 106.644531 164.726562 106.644531 C 164.726562 106.644531 166.070312 107.316406 167.363281 107.269531 C 168.535156 107.230469 169.804688 106.515625 170.035156 106.382812 C 169.855469 105.378906 169.777344 104.792969 169.777344 103.507812 C 169.777344 102.21875 169.957031 100.992188 170.078125 99.882812 C 170.144531 99.316406 170.140625 98.714844 170.078125 97.835938 " fill-opacity="1" fill-rule="evenodd"/><path fill="#ffd3ab" d="M 175.109375 130.464844 L 163.171875 128.949219 C 161.792969 128.773438 160.664062 127.765625 160.339844 126.410156 L 158.253906 117.757812 C 158.082031 117.039062 158.148438 116.277344 158.457031 115.601562 C 158.457031 115.601562 159.871094 114.234375 161.714844 109.761719 C 163.101562 106.386719 164.605469 105.554688 167.234375 105.464844 L 177.132812 107.9375 C 178.292969 108.652344 182.535156 111.710938 182.164062 113.414062 L 178.804688 127.859375 C 178.261719 129.449219 176.539062 130.558594 175.109375 130.464844 " fill-opacity="1" fill-rule="evenodd"/><path fill="#fcc99f" d="M 159.628906 113.984375 C 159.628906 113.984375 165.480469 115.113281 167.9375 119.320312 C 170.390625 123.53125 170.476562 127.5625 170.476562 127.5625 L 159.695312 114.496094 L 159.628906 113.984375 " fill-opacity="1" fill-rule="evenodd"/><path fill="#ffd3ab" d="M 169.355469 129.691406 C 169.355469 129.691406 172.320312 121.601562 176.703125 118.179688 C 181.085938 114.761719 181.699219 115.199219 181.699219 115.199219 C 181.699219 115.199219 180.199219 128.175781 177.445312 129.84375 C 174.6875 131.507812 169.355469 129.691406 169.355469 129.691406 " fill-opacity="1" fill-rule="evenodd"/><path fill="#ffd3ab" d="M 168.8125 122.914062 C 165.863281 117.421875 163.289062 115.726562 159.179688 113.765625 C 159.175781 113.765625 159.171875 113.761719 159.171875 113.761719 C 159.175781 113.183594 159.175781 104.980469 154.613281 103.710938 C 149.878906 102.394531 154.347656 107.132812 154.347656 108.710938 C 154.347656 110.289062 153.511719 114.472656 155.113281 116.851562 C 155.140625 116.898438 155.171875 116.9375 155.199219 116.976562 C 155.273438 117.675781 155.464844 118.375 155.75 118.96875 C 156.890625 121.335938 159.78125 126.421875 159.78125 126.421875 C 162.589844 131.335938 166.898438 131.445312 168.8125 130.367188 C 170.214844 129.582031 171.355469 127.652344 168.8125 122.914062 " fill-opacity="1" fill-rule="evenodd"/><path fill="#d68265" d="M 176.148438 92.835938 C 176.164062 92.726562 176.171875 92.660156 176.171875 92.660156 C 176.171875 92.660156 176.160156 92.699219 176.140625 92.769531 C 176.105469 92.960938 176.085938 93.070312 176.085938 93.070312 C 176.085938 93.070312 176.105469 92.980469 176.148438 92.835938 " fill-opacity="1" fill-rule="evenodd"/><path fill="#ffd3ab" d="M 175.675781 102.335938 C 176.289062 100.816406 176.453125 99.464844 176.582031 98.597656 C 176.710938 97.730469 177.347656 95.496094 177.472656 94.976562 C 177.886719 93.300781 178.34375 91.53125 178.394531 91.464844 C 178.761719 90.125 179.957031 85.804688 177.867188 85.726562 C 175.90625 85.65625 174.828125 89.382812 174.507812 90.699219 L 174.5 90.851562 C 174.5 90.851562 173.613281 94.636719 173.308594 95.730469 C 172.929688 97.09375 172.46875 97.875 172.140625 98.886719 C 171.8125 99.90625 171.578125 101.117188 171.320312 101.929688 C 170.972656 103.039062 170.152344 105.378906 169.761719 106.3125 C 170.003906 106.730469 170.808594 107.558594 171.820312 107.832031 C 173.027344 108.160156 173.691406 107.949219 174.417969 107.6875 C 174.683594 106.664062 175.464844 102.855469 175.675781 102.335938 " fill-opacity="1" fill-rule="evenodd"/><path fill="#ffd3ab" d="M 169.625 97.601562 C 169.582031 96.902344 169.6875 94.972656 169.746094 93.570312 C 169.785156 92.574219 169.855469 91 169.980469 89.769531 C 169.960938 87.644531 169.46875 85.28125 168.070312 85.660156 C 166.273438 86.140625 166.199219 92.066406 166.199219 92.066406 C 165.71875 94.6875 165.871094 95.90625 165.316406 97.917969 C 164.886719 99.472656 165.265625 101.308594 165.125 102.179688 C 164.621094 105.375 164.492188 106.40625 164.492188 106.40625 C 164.492188 106.40625 165.78125 107.082031 167.023438 107.039062 C 168.144531 106.996094 169.363281 106.210938 169.582031 106.078125 C 169.410156 105.074219 169.335938 104.5625 169.335938 103.273438 C 169.335938 101.988281 169.511719 100.761719 169.625 99.648438 C 169.6875 99.082031 169.6875 98.480469 169.625 97.601562 " fill-opacity="1" fill-rule="evenodd"/><path fill="#d68265" d="M 179.21875 97.109375 C 179.21875 97.109375 179.207031 97.164062 179.1875 97.253906 C 179.195312 97.238281 179.199219 97.210938 179.210938 97.179688 C 179.210938 97.15625 179.214844 97.132812 179.21875 97.109375 " fill-opacity="1" fill-rule="evenodd"/><path fill="#ffd3ab" d="M 178.15625 85.769531 C 179.839844 86.230469 178.742188 90.191406 178.394531 91.464844 C 178.34375 91.53125 177.886719 93.300781 177.472656 94.976562 C 177.347656 95.496094 176.710938 97.730469 176.582031 98.597656 C 176.453125 99.464844 176.289062 100.816406 175.675781 102.335938 C 175.496094 102.773438 174.582031 106.003906 174.277344 107.59375 L 174.246094 107.75 C 174.433594 107.71875 174.640625 107.597656 174.804688 107.417969 C 175.117188 105.742188 175.855469 102.925781 176.027344 102.511719 C 176.640625 100.992188 176.804688 99.640625 176.933594 98.773438 C 177.0625 97.90625 177.695312 95.671875 177.824219 95.152344 C 178.238281 93.476562 178.691406 91.707031 178.746094 91.640625 C 179.230469 90.070312 180.0625 86.03125 178.15625 85.769531 " fill-opacity="1" fill-rule="evenodd"/><path fill="#ffd3ab" d="M 180.597656 103.71875 C 181.089844 103.023438 181.558594 101.277344 181.746094 100.300781 C 181.902344 99.460938 182.710938 97.574219 182.941406 97.046875 C 182.929688 97.066406 182.925781 97.078125 182.925781 97.078125 C 182.925781 97.078125 185.246094 91.089844 183.863281 90.226562 C 182.519531 89.382812 181.34375 91.292969 180.984375 91.960938 C 180.785156 92.515625 180.152344 94.253906 180.058594 94.757812 C 179.871094 95.734375 179.140625 97.679688 179.265625 97.246094 C 178.730469 98.5 177.457031 101.414062 177.285156 102.019531 C 176.96875 103.136719 175.046875 107.449219 174.753906 107.722656 C 174.832031 108.027344 175.378906 108.808594 176.320312 109.472656 C 177.242188 110.117188 177.890625 110.191406 178.160156 110.199219 C 178.308594 109.914062 178.574219 109.304688 178.941406 108.304688 C 179.195312 107.628906 179.996094 104.578125 180.597656 103.71875 " fill-opacity="1" fill-rule="evenodd"/><g clip-path="url(#b21d305b1d)"><path fill="#ffd3ab" d="M 186.804688 102.152344 C 186.804688 102.152344 188.515625 98.394531 187.808594 97.542969 C 186.839844 96.378906 185.71875 97.550781 185.425781 97.894531 C 184.992188 98.730469 183.832031 101.757812 183.402344 102.445312 C 182.960938 103.148438 181.277344 106.207031 181.039062 106.703125 C 180.816406 107.160156 179.074219 109.839844 178.488281 110.410156 C 178.65625 110.640625 179.238281 111.367188 180.226562 111.777344 C 181.414062 112.265625 182.003906 112.351562 182.003906 112.351562 C 182.003906 112.351562 182.371094 111.761719 182.910156 110.941406 C 183.925781 109.257812 184.863281 107.429688 184.863281 107.429688 C 185.5 106.105469 186.804688 102.152344 186.804688 102.152344 " fill-opacity="1" fill-rule="evenodd"/></g><path fill="#ffd3ab" d="M 182.03125 112.359375 C 182.03125 112.359375 181.886719 114.183594 181.699219 115.199219 C 181.414062 117.421875 179.777344 128.441406 177.3125 129.929688 L 177.691406 130.164062 C 180.90625 128.703125 181.824219 118.660156 181.824219 118.660156 L 182.191406 116.207031 L 182.5 112.464844 L 182.03125 112.359375 " fill-opacity="1" fill-rule="evenodd"/><path stroke-linecap="butt" transform="matrix(0.0449295, 0, 0, -0.0449421, -10.844039, 178.915289)" fill="none" stroke-linejoin="miter" d="M 4292.846929 1480.924361 C 4292.846929 1480.924361 4289.63008 1440.333978 4285.456872 1417.735479 C 4279.110117 1368.279531 4242.681485 1123.085807 4187.821181 1089.970313 L 4196.25454 1084.755275 C 4267.807678 1117.262348 4288.239011 1340.726744 4288.239011 1340.726744 L 4296.411544 1395.310813 L 4303.27995 1478.577594 Z M 4292.846929 1480.924361 " stroke="#ffd3ab" stroke-width="2.16" stroke-opacity="1" stroke-miterlimit="2.613"/><path fill="#ffd3ab" d="M 178.902344 108.425781 L 178.160156 110.199219 C 178.160156 110.199219 178.535156 110.082031 178.6875 109.878906 C 178.84375 109.675781 179.261719 108.566406 179.261719 108.566406 L 178.902344 108.425781 " fill-opacity="1" fill-rule="evenodd"/><g clip-path="url(#d6fd7dab69)"><g clip-path="url(#bc89f91159)"><g clip-path="url(#ba1d80f56a)"><path fill="url(#687bd97966)" d="M 16.171875 158.003906 L 16.171875 151.40625 L 35.054688 151.40625 L 35.054688 158.003906 Z M 16.171875 158.003906 " fill-rule="nonzero"/></g></g></g><g clip-path="url(#280c92dae0)"><path fill="#000000" d="M 35.3125 178.515625 C 35.082031 176.984375 34.9375 158.003906 34.9375 158.003906 L 14.734375 156.976562 C 14.734375 156.976562 8.679688 178.1875 9.273438 178.195312 L 35.3125 178.515625 " fill-opacity="1" fill-rule="evenodd"/></g><g clip-path="url(#255e150542)"><g clip-path="url(#a67faf5329)"><g clip-path="url(#c262e60684)"><path fill="url(#40611f6950)" d="M 160.171875 145.261719 L 160.171875 139.894531 L 178.355469 139.894531 L 178.355469 145.261719 Z M 160.171875 145.261719 " fill-rule="nonzero"/></g></g></g><path fill="#5f5d5d" d="M 158.484375 144.726562 L 181.121094 144.492188 L 183 176.777344 L 152.855469 176.777344 C 154.339844 166.242188 156.679688 155.296875 158.484375 144.726562 " fill-opacity="1" fill-rule="evenodd"/><g clip-path="url(#42f47a732a)"><g clip-path="url(#a138bb6f62)"><g clip-path="url(#efa1567e4c)"><path fill="url(#b2c19adb97)" d="M 96.738281 138.652344 L 96.738281 133.296875 L 114.175781 133.296875 L 114.175781 138.652344 Z M 96.738281 138.652344 " fill-rule="nonzero"/></g></g></g><path fill="#222222" d="M 95.683594 138.132812 L 115.542969 137.898438 L 118.785156 173.183594 L 92.335938 173.183594 L 95.683594 138.132812 " fill-opacity="1" fill-rule="evenodd"/><path fill="#222222" d="M 81.175781 44.164062 L 78.425781 31.480469 L 114.714844 20.21875 L 120.164062 31.113281 C 120.164062 31.113281 117.1875 35 116.691406 36.53125 C 116.195312 38.058594 112.597656 41.371094 111 41.386719 C 109.402344 41.398438 90.628906 44.039062 87.863281 44.6875 C 85.097656 45.339844 83.070312 44.730469 82.371094 44.648438 C 81.671875 44.566406 81.175781 44.164062 81.175781 44.164062 " fill-opacity="1" fill-rule="evenodd"/><path stroke-linecap="butt" transform="matrix(0.0449295, 0, 0, -0.0449421, -10.844039, 178.915289)" fill="none" stroke-linejoin="miter" d="M 2048.095453 2998.326708 L 1986.888395 3280.547204 L 2794.578127 3531.129801 L 2915.862 3288.717431 C 2915.862 3288.717431 2849.612315 3202.234711 2838.5707 3168.163126 C 2827.529086 3134.178459 2747.455648 3060.472583 2711.896433 3060.124913 C 2676.337219 3059.864161 2258.494716 3001.108062 2196.93989 2986.679789 C 2135.385064 2972.164599 2090.262247 2985.723699 2074.699657 2987.548962 C 2059.137067 2989.374225 2048.095453 2998.326708 2048.095453 2998.326708 Z M 2048.095453 2998.326708 " stroke="#000000" stroke-width="5" stroke-opacity="1" stroke-miterlimit="2.613"/><g clip-path="url(#41eed5b32b)"><path fill="#373838" d="M 138.1875 8.269531 C 138.1875 8.269531 111.542969 24.9375 106.320312 25.5625 C 103.71875 25.875 90.753906 28.765625 78.425781 31.480469 C 65.996094 34.21875 54.214844 36.777344 54.359375 36.339844 C 54.640625 35.464844 97.109375 14.65625 97.109375 14.65625 L 138.1875 8.269531 " fill-opacity="1" fill-rule="evenodd"/></g><path fill="#222222" d="M 41.957031 40.140625 C 41.957031 40.140625 49.148438 46.542969 49.519531 47.441406 C 49.886719 48.339844 52.691406 52.890625 47.613281 56.539062 C 42.535156 60.191406 31.113281 65.429688 29.632812 66.011719 C 28.148438 66.59375 18.628906 69.609375 16.195312 66.699219 C 13.761719 63.789062 11.066406 57.917969 11.066406 57.917969 L 41.957031 40.140625 " fill-opacity="1" fill-rule="evenodd"/><path fill="#373838" d="M -10.40625 70.03125 C 11.042969 58.066406 41.703125 51.695312 42.484375 47.175781 L 48.195312 14.058594 L 10.328125 31.09375 L -10.40625 70.03125 " fill-opacity="1" fill-rule="evenodd"/><path stroke-linecap="butt" transform="matrix(0.0449295, 0, 0, -0.0449421, -10.844039, 178.915289)" fill="none" stroke-linejoin="miter" d="M 9.743915 2422.7603 C 487.141582 2688.988012 1169.548117 2830.75014 1186.936486 2931.313464 L 1314.045462 3668.198394 L 471.231224 3289.152018 Z M 9.743915 2422.7603 " stroke="#000000" stroke-width="5" stroke-opacity="1" stroke-miterlimit="2.613"/><path fill="#222222" d="M 158.808594 40.519531 C 158.277344 40.519531 151.488281 47.640625 151.488281 47.640625 C 151.488281 47.640625 150.222656 56.527344 158.894531 62.136719 C 167.566406 67.746094 172.859375 71.449219 176.03125 72.082031 C 179.203125 72.71875 182.589844 70.707031 182.589844 70.707031 C 182.589844 70.707031 185.128906 65.523438 185.339844 64.992188 C 185.550781 64.464844 158.808594 40.519531 158.808594 40.519531 " fill-opacity="1" fill-rule="evenodd"/><g clip-path="url(#8bbb1199dc)"><path fill="#373838" d="M 141.546875 22.246094 L 181.742188 65.3125 L 209.246094 65.203125 L 176.875 34.519531 L 141.546875 22.246094 " fill-opacity="1" fill-rule="evenodd"/></g><path stroke-linecap="butt" transform="matrix(0.0449295, 0, 0, -0.0449421, -10.844039, 178.915289)" fill="none" stroke-linejoin="round" d="M 1808.744556 2991.025654 L 1812.569997 3246.127951 L 2376.99645 3526.436266 " stroke="#d19f2e" stroke-width="14.173" stroke-opacity="1" stroke-miterlimit="2.613"/><path fill="#222222" d="M 97.277344 19.769531 C 97.035156 19.195312 96.316406 18.949219 95.675781 19.222656 C 95.03125 19.492188 94.707031 20.175781 94.945312 20.75 C 95.1875 21.320312 95.902344 21.566406 96.546875 21.296875 C 97.1875 21.027344 97.515625 20.34375 97.277344 19.769531 " fill-opacity="1" fill-rule="evenodd"/><path stroke-linecap="butt" transform="matrix(0.0449295, 0, 0, -0.0449421, -10.844039, 178.915289)" fill="none" stroke-linejoin="miter" d="M 2406.469735 3541.125291 C 2401.07934 3553.902135 2385.082041 3559.377925 2370.823579 3553.293714 C 2356.478174 3547.29642 2349.262001 3532.085891 2354.565454 3519.309047 C 2359.955848 3506.61912 2375.866206 3501.14333 2390.21161 3507.140624 C 2404.470072 3513.137918 2411.773187 3528.348447 2406.469735 3541.125291 Z M 2406.469735 3541.125291 " stroke="#000000" stroke-width="5" stroke-opacity="1" stroke-miterlimit="2.613"/><path fill="#222222" d="M 23.394531 38.628906 C 22.925781 38.085938 22.054688 38.070312 21.445312 38.59375 C 20.835938 39.117188 20.71875 39.984375 21.1875 40.527344 C 21.65625 41.070312 22.527344 41.085938 23.136719 40.558594 C 23.746094 40.035156 23.859375 39.167969 23.394531 38.628906 " fill-opacity="1" fill-rule="evenodd"/><path stroke-linecap="butt" transform="matrix(0.0449295, 0, 0, -0.0449421, -10.844039, 178.915289)" fill="none" stroke-linejoin="miter" d="M 762.051693 3121.488532 C 751.618672 3133.570038 732.230641 3133.917707 718.667713 3122.270788 C 705.104785 3110.623869 702.49653 3091.328227 712.929551 3079.246721 C 723.362573 3067.165215 742.750604 3066.817546 756.313531 3078.551383 C 769.876459 3090.198302 772.397773 3109.493944 762.051693 3121.488532 Z M 762.051693 3121.488532 " stroke="#000000" stroke-width="5" stroke-opacity="1" stroke-miterlimit="2.613"/><path stroke-linecap="round" transform="matrix(0.0449295, 0, 0, -0.0449421, -10.844039, 178.915289)" fill="none" stroke-linejoin="round" d="M 728.492141 3070.468073 L 510.355054 2645.79011 L 496.357417 2367.046307 " stroke="#d19f2e" stroke-width="14.173" stroke-opacity="1" stroke-miterlimit="2.613"/><path fill="#d19f2e" d="M 69.070312 47.148438 C 69.183594 47.605469 69.894531 49.761719 69.894531 49.761719 C 69.894531 49.761719 70.070312 49.859375 70.085938 49.71875 C 70.105469 49.582031 69.484375 46.945312 69.484375 46.945312 C 69.484375 46.945312 70.433594 49.992188 70.5625 50.199219 C 70.6875 50.402344 70.84375 50.460938 70.789062 50.242188 C 70.734375 50.027344 69.886719 46.542969 69.886719 46.542969 C 69.886719 46.542969 71.113281 50.328125 71.210938 50.429688 C 71.308594 50.523438 71.492188 50.539062 71.441406 50.347656 C 71.394531 50.15625 70.5 46.503906 70.5 46.503906 C 70.5 46.503906 71.671875 50.507812 71.722656 50.519531 C 71.773438 50.535156 72.113281 50.660156 72.035156 50.277344 C 71.960938 49.898438 71.027344 46.386719 71.027344 46.386719 C 71.027344 46.386719 72.136719 50.136719 72.257812 50.148438 C 72.382812 50.15625 72.644531 50.402344 72.511719 49.875 C 72.375 49.34375 71.4375 46.234375 71.4375 46.234375 C 71.4375 46.234375 72.628906 49.917969 72.675781 49.960938 C 72.71875 50.003906 72.894531 50.175781 72.863281 49.851562 C 72.835938 49.527344 71.941406 46.363281 71.941406 46.363281 C 71.941406 46.363281 72.800781 49.757812 73 49.6875 C 73.199219 49.617188 72.199219 46.480469 72.191406 46.441406 C 72.179688 46.40625 73.144531 49.511719 73.230469 49.5 C 73.316406 49.492188 72.46875 46.257812 72.433594 46.136719 C 72.394531 46.019531 73.261719 48.820312 73.367188 49.03125 C 73.476562 49.242188 72.648438 46.074219 72.648438 46.074219 C 72.648438 46.074219 73.3125 48.609375 73.484375 48.519531 C 73.660156 48.429688 72.894531 45.945312 72.882812 45.90625 C 72.871094 45.867188 72.527344 45.039062 71.984375 44.566406 C 71.445312 44.09375 71.226562 44.039062 71.226562 44.039062 L 69.675781 44.394531 C 69.640625 44.753906 68.835938 46.234375 69.070312 47.148438 " fill-opacity="1" fill-rule="evenodd"/><path fill="#a92f33" d="M 69.6875 44.1875 L 71.152344 43.816406 C 71.214844 43.800781 71.273438 43.835938 71.289062 43.898438 C 71.308594 43.957031 71.269531 44.019531 71.207031 44.035156 L 69.746094 44.410156 C 69.683594 44.421875 69.621094 44.386719 69.605469 44.324219 C 69.59375 44.265625 69.628906 44.203125 69.6875 44.1875 " fill-opacity="1" fill-rule="evenodd"/><g clip-path="url(#426dd5ebec)"><path stroke-linecap="butt" transform="matrix(0.0449295, 0, 0, -0.0449421, -10.844039, 178.915289)" fill="none" stroke-linejoin="miter" d="M 4270.937584 2899.936316 L 4559.75839 2528.799415 L 4659.567628 2192.777106 " stroke="#d19f2e" stroke-width="14.173" stroke-opacity="1" stroke-miterlimit="2.613"/></g><path fill="#d19f2e" d="M 9.078125 75.597656 C 9.0625 76.140625 9.167969 78.753906 9.167969 78.753906 C 9.167969 78.753906 9.328125 78.917969 9.394531 78.769531 C 9.460938 78.617188 9.605469 75.503906 9.605469 75.503906 C 9.605469 75.503906 9.695312 79.179688 9.769531 79.449219 C 9.84375 79.714844 10 79.824219 10.007812 79.566406 C 10.015625 79.308594 10.175781 75.1875 10.175781 75.1875 C 10.175781 75.1875 10.335938 79.765625 10.414062 79.90625 C 10.492188 80.042969 10.6875 80.117188 10.695312 79.890625 C 10.703125 79.664062 10.867188 75.335938 10.867188 75.335938 C 10.867188 75.335938 10.902344 80.140625 10.953125 80.171875 C 11.007812 80.203125 11.339844 80.449219 11.375 80.003906 C 11.410156 79.554688 11.488281 75.371094 11.488281 75.371094 C 11.488281 75.371094 11.53125 79.878906 11.667969 79.925781 C 11.800781 79.976562 12.011719 80.332031 12.03125 79.703125 C 12.046875 79.074219 11.988281 75.332031 11.988281 75.332031 C 11.988281 75.332031 12.148438 79.789062 12.183594 79.851562 C 12.222656 79.914062 12.359375 80.160156 12.429688 79.789062 C 12.5 79.421875 12.503906 75.636719 12.503906 75.636719 C 12.503906 75.636719 12.386719 79.667969 12.628906 79.652344 C 12.871094 79.636719 12.757812 75.847656 12.757812 75.800781 C 12.757812 75.757812 12.847656 79.5 12.945312 79.515625 C 13.042969 79.535156 13.125 75.683594 13.121094 75.539062 C 13.117188 75.394531 13.191406 78.773438 13.246094 79.039062 C 13.300781 79.308594 13.378906 75.539062 13.378906 75.539062 C 13.378906 75.539062 13.3125 78.558594 13.535156 78.511719 C 13.757812 78.460938 13.691406 75.472656 13.695312 75.425781 C 13.695312 75.382812 13.574219 74.355469 13.121094 73.660156 C 12.671875 72.960938 12.449219 72.835938 12.449219 72.835938 L 10.617188 72.734375 C 10.46875 73.125 9.109375 74.511719 9.078125 75.597656 " fill-opacity="1" fill-rule="evenodd"/><path fill="#a92f33" d="M 10.699219 72.515625 L 12.4375 72.566406 C 12.507812 72.566406 12.566406 72.628906 12.566406 72.699219 C 12.5625 72.769531 12.5 72.828125 12.429688 72.828125 L 10.691406 72.777344 C 10.617188 72.773438 10.5625 72.714844 10.5625 72.640625 C 10.566406 72.570312 10.625 72.511719 10.699219 72.515625 " fill-opacity="1" fill-rule="evenodd"/></svg>