<svg xmlns="http://www.w3.org/2000/svg" xmlns:xlink="http://www.w3.org/1999/xlink" width="1640" zoomAndPan="magnify" viewBox="0 0 1230 693.000001" height="924" preserveAspectRatio="xMidYMid meet" version="1.0"><defs><filter x="0%" y="0%" width="100%" height="100%" id="20c60dad40"><feColorMatrix values="0 0 0 0 1 0 0 0 0 1 0 0 0 0 1 0 0 0 1 0" color-interpolation-filters="sRGB"/></filter><g/><clipPath id="714d9506b0"><path d="M 68.015625 476.484375 L 140.660156 476.484375 L 140.660156 549.128906 L 68.015625 549.128906 Z M 68.015625 476.484375 " clip-rule="nonzero"/></clipPath><clipPath id="72ce997914"><path d="M 362.765625 476.484375 L 435.410156 476.484375 L 435.410156 549.128906 L 362.765625 549.128906 Z M 362.765625 476.484375 " clip-rule="nonzero"/></clipPath><clipPath id="52ff8bd85a"><path d="M 692.070312 476.484375 L 764.714844 476.484375 L 764.714844 549.128906 L 692.070312 549.128906 Z M 692.070312 476.484375 " clip-rule="nonzero"/></clipPath><clipPath id="ca1ef287d3"><path d="M 984.550781 476.484375 L 1057.195312 476.484375 L 1057.195312 549.128906 L 984.550781 549.128906 Z M 984.550781 476.484375 " clip-rule="nonzero"/></clipPath><clipPath id="2d33df4128"><path d="M 0.886719 0 L 590 0 L 590 685 L 0.886719 685 Z M 0.886719 0 " clip-rule="nonzero"/></clipPath><mask id="f9ff692afc"><g filter="url(#20c60dad40)"><rect x="-123" width="1476" fill="#000000" y="-69.3" height="831.600001" fill-opacity="0.0784"/></g></mask><clipPath id="30c0ec1f85"><path d="M 1.289062 0.402344 L 589.144531 0.402344 L 589.144531 684.855469 L 1.289062 684.855469 Z M 1.289062 0.402344 " clip-rule="nonzero"/></clipPath><clipPath id="fb6ee7d50f"><rect x="0" width="590" y="0" height="685"/></clipPath><mask id="07b2b903b9"><g filter="url(#20c60dad40)"><rect x="-123" width="1476" fill="#000000" y="-69.3" height="831.600001" fill-opacity="0.7176"/></g></mask><clipPath id="1e5a228fb7"><path d="M 11 0.09375 L 20.242188 0.09375 L 20.242188 46.023438 L 11 46.023438 Z M 11 0.09375 " clip-rule="nonzero"/></clipPath><clipPath id="88ec3921c2"><path d="M 15.792969 46.023438 C 13.421875 46.023438 11.507812 44.09375 11.507812 41.710938 L 11.507812 4.460938 C 11.507812 2.074219 13.421875 0.148438 15.792969 0.148438 C 18.164062 0.148438 20.078125 2.074219 20.078125 4.460938 L 20.078125 41.710938 C 20.078125 44.09375 18.164062 46.023438 15.792969 46.023438 Z M 15.792969 46.023438 " clip-rule="nonzero"/></clipPath><clipPath id="6c7c338bf4"><path d="M 0.113281 0.09375 L 20.242188 0.09375 L 20.242188 18 L 0.113281 18 Z M 0.113281 0.09375 " clip-rule="nonzero"/></clipPath><clipPath id="434446fb0e"><path d="M 4.554688 17.3125 C 3.257812 17.3125 1.972656 16.726562 1.136719 15.597656 C -0.289062 13.699219 0.0859375 10.992188 1.972656 9.5625 L 13.210938 1.019531 C 15.101562 -0.410156 17.789062 -0.0351562 19.210938 1.863281 C 20.632812 3.761719 20.257812 6.46875 18.371094 7.902344 L 7.132812 16.441406 C 6.359375 17.03125 5.457031 17.3125 4.554688 17.3125 Z M 4.554688 17.3125 " clip-rule="nonzero"/></clipPath><clipPath id="069ad54605"><rect x="0" width="21" y="0" height="47"/></clipPath><mask id="8f9cc0ae80"><g filter="url(#20c60dad40)"><rect x="-123" width="1476" fill="#000000" y="-69.3" height="831.600001" fill-opacity="0.7176"/></g></mask><clipPath id="6a513a2643"><path d="M 0.09375 0.613281 L 31.347656 0.613281 L 31.347656 47 L 0.09375 47 Z M 0.09375 0.613281 " clip-rule="nonzero"/></clipPath><clipPath id="beb207a299"><path d="M 4.628906 47 C 3.527344 47 2.425781 46.574219 1.589844 45.734375 C -0.0976562 44.042969 -0.105469 41.289062 1.574219 39.589844 L 19.355469 21.578125 C 19.605469 21.328125 19.863281 21.089844 20.109375 20.847656 L 20.332031 20.636719 C 21.644531 19.398438 22.386719 17.6875 22.414062 15.839844 C 22.441406 14.054688 21.800781 12.429688 20.613281 11.246094 C 19.414062 10.046875 17.675781 9.398438 15.886719 9.492188 C 13.996094 9.582031 12.296875 10.414062 11.101562 11.855469 C 9.570312 13.695312 6.84375 13.9375 5.015625 12.394531 C 3.1875 10.847656 2.949219 8.105469 4.484375 6.265625 C 7.203125 3.003906 11.214844 1.007812 15.484375 0.8125 C 19.6875 0.609375 23.773438 2.171875 26.683594 5.074219 C 29.511719 7.890625 31.101562 11.855469 31.042969 15.96875 C 30.988281 20.144531 29.234375 24.164062 26.234375 26.992188 L 25.96875 27.242188 C 25.800781 27.398438 25.636719 27.546875 25.472656 27.714844 L 7.695312 45.714844 C 6.851562 46.574219 5.742188 47 4.628906 47 Z M 4.628906 47 " clip-rule="nonzero"/></clipPath><clipPath id="e8709a4d42"><path d="M 0.09375 38 L 31.347656 38 L 31.347656 47 L 0.09375 47 Z M 0.09375 38 " clip-rule="nonzero"/></clipPath><clipPath id="a7d432b5bf"><path d="M 4.628906 47 C 2.253906 47 0.324219 45.066406 0.316406 42.675781 C 0.304688 40.273438 2.234375 38.320312 4.613281 38.3125 L 27.003906 38.21875 C 27.015625 38.21875 27.015625 38.21875 27.023438 38.21875 C 29.402344 38.21875 31.328125 40.152344 31.339844 42.546875 C 31.347656 44.949219 29.417969 46.898438 27.042969 46.90625 L 4.648438 47 C 4.648438 47 4.640625 47 4.628906 47 Z M 4.628906 47 " clip-rule="nonzero"/></clipPath><clipPath id="dfdc247efe"><rect x="0" width="32" y="0" height="48"/></clipPath><mask id="95bf5b98a8"><g filter="url(#20c60dad40)"><rect x="-123" width="1476" fill="#000000" y="-69.3" height="831.600001" fill-opacity="0.7176"/></g></mask><clipPath id="3105b7cbf5"><path d="M 0.210938 0.613281 L 25.855469 0.613281 L 25.855469 29 L 0.210938 29 Z M 0.210938 0.613281 " clip-rule="nonzero"/></clipPath><clipPath id="6f847e963d"><path d="M 12.160156 28.160156 C 9.761719 28.160156 7.824219 26.207031 7.824219 23.804688 C 7.824219 21.40625 9.773438 19.449219 12.160156 19.449219 C 14.925781 19.449219 17.179688 17.1875 17.179688 14.40625 C 17.179688 11.625 14.925781 9.355469 12.160156 9.355469 C 10.527344 9.355469 9.042969 10.125 8.082031 11.460938 C 6.683594 13.414062 3.96875 13.851562 2.035156 12.441406 C 0.0859375 11.023438 -0.355469 8.296875 1.046875 6.351562 C 3.621094 2.773438 7.769531 0.632812 12.160156 0.632812 C 19.714844 0.632812 25.855469 6.804688 25.855469 14.398438 C 25.855469 21.988281 19.703125 28.160156 12.160156 28.160156 Z M 12.160156 28.160156 " clip-rule="nonzero"/></clipPath><clipPath id="2ae9f929bb"><path d="M 0.210938 19 L 25.855469 19 L 25.855469 47 L 0.210938 47 Z M 0.210938 19 " clip-rule="nonzero"/></clipPath><clipPath id="5f1a5af2b6"><path d="M 12.160156 46.976562 C 7.769531 46.976562 3.609375 44.835938 1.046875 41.257812 C -0.355469 39.300781 0.0859375 36.578125 2.035156 35.175781 C 3.980469 33.769531 6.691406 34.214844 8.082031 36.167969 C 9.023438 37.484375 10.546875 38.265625 12.160156 38.265625 C 14.925781 38.265625 17.179688 36.003906 17.179688 33.222656 C 17.179688 30.441406 14.925781 28.171875 12.160156 28.171875 L 8.894531 28.171875 C 6.496094 28.171875 4.5625 26.214844 4.5625 23.8125 C 4.5625 21.414062 6.507812 19.457031 8.894531 19.457031 L 12.152344 19.457031 C 19.703125 19.457031 25.847656 25.632812 25.847656 33.222656 C 25.855469 40.804688 19.703125 46.976562 12.160156 46.976562 Z M 12.160156 46.976562 " clip-rule="nonzero"/></clipPath><clipPath id="1d564cb7cd"><rect x="0" width="27" y="0" height="48"/></clipPath><mask id="2511a2e8d1"><g filter="url(#20c60dad40)"><rect x="-123" width="1476" fill="#000000" y="-69.3" height="831.600001" fill-opacity="0.7176"/></g></mask><clipPath id="06f70116d3"><path d="M 18 0.6875 L 28 0.6875 L 28 46.585938 L 18 46.585938 Z M 18 0.6875 " clip-rule="nonzero"/></clipPath><clipPath id="6b94828b1e"><path d="M 22.929688 46.585938 C 20.546875 46.585938 18.625 44.660156 18.625 42.273438 L 18.625 5.027344 C 18.625 2.640625 20.546875 0.714844 22.929688 0.714844 C 25.308594 0.714844 27.230469 2.640625 27.230469 5.027344 L 27.230469 42.273438 C 27.230469 44.660156 25.308594 46.585938 22.929688 46.585938 Z M 22.929688 46.585938 " clip-rule="nonzero"/></clipPath><clipPath id="b768148ee3"><path d="M 0.316406 19 L 33.640625 19 L 33.640625 28 L 0.316406 28 Z M 0.316406 19 " clip-rule="nonzero"/></clipPath><clipPath id="06c0c0f849"><path d="M 29.328125 27.945312 L 4.808594 27.945312 C 2.425781 27.945312 0.503906 26.015625 0.503906 23.632812 C 0.503906 21.246094 2.425781 19.320312 4.808594 19.320312 L 29.328125 19.320312 C 31.707031 19.320312 33.632812 21.246094 33.632812 23.632812 C 33.632812 26.015625 31.707031 27.945312 29.328125 27.945312 Z M 29.328125 27.945312 " clip-rule="nonzero"/></clipPath><clipPath id="24be6055d0"><path d="M 0.316406 0.6875 L 17 0.6875 L 17 28 L 0.316406 28 Z M 0.316406 0.6875 " clip-rule="nonzero"/></clipPath><clipPath id="c24bd7a732"><path d="M 4.808594 27.945312 C 4.304688 27.945312 3.792969 27.851562 3.296875 27.667969 C 1.070312 26.832031 -0.0546875 24.347656 0.777344 22.117188 L 7.746094 3.511719 C 8.589844 1.28125 11.070312 0.152344 13.296875 0.988281 C 15.519531 1.824219 16.648438 4.308594 15.8125 6.539062 L 8.835938 25.144531 C 8.1875 26.878906 6.546875 27.945312 4.808594 27.945312 Z M 4.808594 27.945312 " clip-rule="nonzero"/></clipPath><clipPath id="5ac86b2976"><rect x="0" width="34" y="0" height="47"/></clipPath></defs><path stroke-linecap="round" transform="matrix(0.000000000000000046, 0.750018, -0.748919, 0.000000000000000046, 729.715619, 546.375362)" fill="none" stroke-linejoin="miter" d="M 1.99947 1.998705 L 125.814219 1.998705 " stroke="#c20400" stroke-width="4" stroke-opacity="1" stroke-miterlimit="4"/><path stroke-linecap="round" transform="matrix(0.748724, 0, 0, 0.748919, 68.014646, 638.950987)" fill="none" stroke-linejoin="miter" d="M 1.999498 2.000525 L 1318.342642 2.000525 " stroke="#c20400" stroke-width="4" stroke-opacity="1" stroke-miterlimit="4"/><path stroke-linecap="round" transform="matrix(0.000000000000000046, 0.750018, -0.748919, 0.000000000000000046, 105.658986, 546.375362)" fill="none" stroke-linejoin="miter" d="M 1.99947 2.001323 L 125.814219 2.001323 " stroke="#c20400" stroke-width="4" stroke-opacity="1" stroke-miterlimit="4"/><path stroke-linecap="round" transform="matrix(0.000000000000000046, 0.750018, -0.748919, 0.000000000000000046, 400.410319, 546.375362)" fill="none" stroke-linejoin="miter" d="M 1.99947 1.997888 L 125.814219 1.997888 " stroke="#c20400" stroke-width="4" stroke-opacity="1" stroke-miterlimit="4"/><path stroke-linecap="round" transform="matrix(0.000000000000000046, 0.750018, -0.748919, 0.000000000000000046, 1022.193929, 546.375362)" fill="none" stroke-linejoin="miter" d="M 1.99947 2.001038 L 125.814219 2.001038 " stroke="#c20400" stroke-width="4" stroke-opacity="1" stroke-miterlimit="4"/><g clip-path="url(#714d9506b0)"><path fill="#c20400" d="M 104.335938 549.128906 C 84.269531 549.128906 68.015625 532.761719 68.015625 512.808594 C 68.015625 492.851562 84.269531 476.484375 104.335938 476.484375 C 124.40625 476.484375 140.660156 492.742188 140.660156 512.808594 C 140.660156 532.875 124.292969 549.128906 104.335938 549.128906 Z M 104.335938 478.726562 C 85.503906 478.726562 70.257812 493.972656 70.257812 512.808594 C 70.257812 531.640625 85.503906 546.886719 104.335938 546.886719 C 123.171875 546.886719 138.417969 531.640625 138.417969 512.808594 C 138.417969 493.972656 123.058594 478.726562 104.335938 478.726562 Z M 104.335938 478.726562 " fill-opacity="1" fill-rule="nonzero"/></g><g clip-path="url(#72ce997914)"><path fill="#c20400" d="M 399.089844 549.128906 C 379.019531 549.128906 362.765625 532.761719 362.765625 512.808594 C 362.765625 492.851562 379.019531 476.484375 399.089844 476.484375 C 419.15625 476.484375 435.410156 492.742188 435.410156 512.808594 C 435.410156 532.875 419.042969 549.128906 399.089844 549.128906 Z M 399.089844 478.726562 C 380.253906 478.726562 365.007812 493.972656 365.007812 512.808594 C 365.007812 531.640625 380.253906 546.886719 399.089844 546.886719 C 417.921875 546.886719 433.167969 531.640625 433.167969 512.808594 C 433.167969 493.972656 417.808594 478.726562 399.089844 478.726562 Z M 399.089844 478.726562 " fill-opacity="1" fill-rule="nonzero"/></g><g clip-path="url(#52ff8bd85a)"><path fill="#c20400" d="M 728.394531 549.128906 C 708.328125 549.128906 692.070312 532.761719 692.070312 512.808594 C 692.070312 492.851562 708.328125 476.484375 728.394531 476.484375 C 748.460938 476.484375 764.714844 492.742188 764.714844 512.808594 C 764.714844 532.875 748.347656 549.128906 728.394531 549.128906 Z M 728.394531 478.726562 C 709.558594 478.726562 694.3125 493.972656 694.3125 512.808594 C 694.3125 531.640625 709.558594 546.886719 728.394531 546.886719 C 747.226562 546.886719 762.472656 531.640625 762.472656 512.808594 C 762.472656 493.972656 747.117188 478.726562 728.394531 478.726562 Z M 728.394531 478.726562 " fill-opacity="1" fill-rule="nonzero"/></g><g clip-path="url(#ca1ef287d3)"><path fill="#c20400" d="M 1020.871094 549.128906 C 1000.804688 549.128906 984.550781 532.761719 984.550781 512.808594 C 984.550781 492.851562 1000.804688 476.484375 1020.871094 476.484375 C 1040.9375 476.484375 1057.195312 492.742188 1057.195312 512.808594 C 1057.195312 532.875 1040.828125 549.128906 1020.871094 549.128906 Z M 1020.871094 478.726562 C 1002.039062 478.726562 986.792969 493.972656 986.792969 512.808594 C 986.792969 531.640625 1002.039062 546.886719 1020.871094 546.886719 C 1039.707031 546.886719 1054.953125 531.640625 1054.953125 512.808594 C 1054.953125 493.972656 1039.59375 478.726562 1020.871094 478.726562 Z M 1020.871094 478.726562 " fill-opacity="1" fill-rule="nonzero"/></g><g clip-path="url(#2d33df4128)"><g mask="url(#f9ff692afc)"><g transform="matrix(1, 0, 0, 1, 0, -0.000000000000066872)"><g clip-path="url(#fb6ee7d50f)"><g clip-path="url(#30c0ec1f85)"><path fill="#ffffff" d="M 40.230469 16.132812 C 40.230469 17.203125 40.039062 18.292969 39.636719 19.347656 C 37.859375 24.015625 32.636719 26.359375 27.96875 24.585938 C 21.449219 22.101562 14.742188 19.945312 8.03125 18.183594 C 3.203125 16.917969 0.316406 11.972656 1.582031 7.144531 C 2.851562 2.316406 7.792969 -0.574219 12.621094 0.699219 C 19.957031 2.621094 27.285156 4.972656 34.402344 7.6875 C 38.011719 9.058594 40.230469 12.492188 40.230469 16.132812 Z M 105.667969 59.9375 C 105.667969 62.507812 104.574219 65.058594 102.460938 66.851562 C 98.640625 70.070312 92.9375 69.585938 89.714844 65.765625 C 82.261719 56.933594 72.847656 48.792969 61.734375 41.5625 C 57.546875 38.84375 56.359375 33.246094 59.085938 29.054688 C 61.804688 24.867188 67.402344 23.6875 71.59375 26.40625 C 84.191406 34.597656 94.9375 43.921875 103.539062 54.105469 C 104.964844 55.804688 105.667969 57.875 105.667969 59.9375 Z M 132.625 133.539062 C 132.625 138.003906 129.324219 141.886719 124.777344 142.492188 C 119.828125 143.148438 115.285156 139.667969 114.621094 134.71875 C 112.59375 119.480469 110.085938 107.226562 106.964844 97.265625 C 105.472656 92.5 108.117188 87.425781 112.882812 85.933594 C 117.652344 84.433594 122.722656 87.089844 124.21875 91.855469 C 127.652344 102.820312 130.378906 116.058594 132.542969 132.335938 C 132.601562 132.738281 132.625 133.140625 132.625 133.539062 Z M 139.277344 212.941406 C 139.277344 217.65625 135.625 221.632812 130.851562 221.953125 C 125.871094 222.292969 121.558594 218.53125 121.21875 213.546875 C 120.929688 209.398438 120.660156 205.261719 120.382812 201.144531 C 119.753906 191.695312 119.160156 182.765625 118.488281 173.863281 C 118.105469 168.886719 121.839844 164.542969 126.816406 164.167969 C 131.800781 163.785156 136.140625 167.519531 136.519531 172.496094 C 137.199219 181.484375 137.820312 190.867188 138.425781 199.945312 C 138.695312 204.054688 138.972656 208.179688 139.253906 212.320312 C 139.273438 212.527344 139.277344 212.734375 139.277344 212.941406 Z M 147.535156 292.175781 C 147.535156 296.5 144.410156 300.328125 140 301.074219 C 135.078125 301.910156 130.414062 298.59375 129.578125 293.671875 C 127.566406 281.820312 125.871094 268.691406 124.402344 253.53125 C 123.917969 248.558594 127.554688 244.140625 132.527344 243.65625 C 137.492188 243.171875 141.917969 246.808594 142.402344 251.78125 C 143.828125 266.507812 145.464844 279.222656 147.402344 290.648438 C 147.488281 291.160156 147.535156 291.671875 147.535156 292.175781 Z M 173.320312 366.820312 C 173.320312 369.722656 171.925781 372.574219 169.339844 374.320312 C 165.203125 377.113281 159.582031 376.03125 156.785156 371.890625 C 149.644531 361.316406 143.8125 348.804688 138.972656 333.652344 C 137.453125 328.890625 140.074219 323.804688 144.832031 322.285156 C 149.589844 320.761719 154.679688 323.390625 156.191406 328.144531 C 160.445312 341.453125 165.6875 352.765625 171.769531 361.765625 C 172.820312 363.316406 173.320312 365.078125 173.320312 366.820312 Z M 240.53125 401.070312 C 240.53125 405.582031 237.152344 409.488281 232.5625 410.035156 C 230.175781 410.316406 227.769531 410.46875 225.414062 410.460938 C 223.0625 410.460938 220.6875 410.316406 218.367188 410.042969 C 207.742188 408.746094 197.890625 405.800781 189.078125 401.285156 C 184.636719 399.007812 182.878906 393.558594 185.160156 389.109375 C 187.4375 384.667969 192.886719 382.910156 197.328125 385.1875 C 204.234375 388.730469 212.046875 391.050781 220.550781 392.089844 C 222.152344 392.285156 223.789062 392.382812 225.414062 392.382812 C 227.054688 392.382812 228.742188 392.277344 230.414062 392.078125 C 235.375 391.488281 239.871094 395.027344 240.464844 399.980469 C 240.507812 400.351562 240.53125 400.714844 240.53125 401.070312 Z M 305.761719 358.304688 C 305.761719 360.492188 304.972656 362.6875 303.371094 364.429688 C 292.375 376.359375 282.382812 385.554688 272.835938 392.539062 C 268.8125 395.488281 263.152344 394.605469 260.203125 390.578125 C 257.261719 386.546875 258.136719 380.886719 262.167969 377.9375 C 270.753906 371.664062 279.878906 363.234375 290.074219 352.171875 C 293.457031 348.496094 299.175781 348.265625 302.847656 351.648438 C 304.78125 353.433594 305.761719 355.867188 305.761719 358.304688 Z M 356.363281 296.824219 C 356.363281 298.742188 355.757812 300.667969 354.5 302.308594 C 353.238281 303.960938 351.996094 305.59375 350.773438 307.195312 C 342.761719 317.691406 335.839844 326.765625 329.757812 334.035156 C 326.554688 337.867188 320.851562 338.375 317.019531 335.171875 C 313.195312 331.96875 312.679688 326.269531 315.882812 322.4375 C 321.714844 315.472656 328.519531 306.554688 336.398438 296.222656 C 337.625 294.617188 338.871094 292.988281 340.136719 291.328125 C 343.167969 287.359375 348.84375 286.601562 352.808594 289.632812 C 355.140625 291.414062 356.363281 294.105469 356.363281 296.824219 Z M 407.167969 235.515625 C 407.167969 237.75 406.34375 240 404.679688 241.746094 C 396.578125 250.257812 388.152344 259.894531 378.910156 271.203125 C 375.746094 275.070312 370.054688 275.640625 366.191406 272.480469 C 362.324219 269.320312 361.75 263.625 364.910156 259.761719 C 374.441406 248.09375 383.164062 238.125 391.578125 229.28125 C 395.023438 225.664062 400.746094 225.519531 404.363281 228.964844 C 406.230469 230.738281 407.167969 233.125 407.167969 235.515625 Z M 470.558594 188.445312 C 470.558594 192.128906 468.292969 195.589844 464.636719 196.933594 C 454.777344 200.554688 444.109375 206.839844 432.925781 215.621094 C 429.003906 218.703125 423.316406 218.019531 420.234375 214.089844 C 417.152344 210.164062 417.832031 204.480469 421.761719 201.398438 C 434.4375 191.445312 446.757812 184.234375 458.394531 179.957031 C 463.085938 178.234375 468.28125 180.640625 470.003906 185.328125 C 470.378906 186.355469 470.558594 187.410156 470.558594 188.445312 Z M 541.546875 209.15625 C 541.546875 211.691406 540.484375 214.214844 538.410156 216.003906 C 534.632812 219.269531 528.921875 218.855469 525.664062 215.074219 C 525.222656 214.566406 524.785156 214.066406 524.335938 213.570312 C 515.972656 204.226562 507.03125 198.019531 497.761719 195.117188 C 492.992188 193.625 490.339844 188.554688 491.832031 183.789062 C 493.320312 179.019531 498.394531 176.371094 503.160156 177.863281 C 515.582031 181.75 527.234375 189.703125 537.808594 201.5 C 538.320312 202.078125 538.839844 202.664062 539.34375 203.253906 C 540.820312 204.964844 541.546875 207.066406 541.546875 209.15625 Z M 574.0625 636.539062 C 574.0625 636.988281 574.03125 637.445312 573.964844 637.898438 C 572.003906 650.863281 569.832031 664.148438 567.5 677.382812 C 566.628906 682.304688 561.941406 685.582031 557.027344 684.71875 C 552.105469 683.847656 548.820312 679.15625 549.691406 674.242188 C 551.996094 661.152344 554.152344 648.015625 556.082031 635.203125 C 556.824219 630.265625 561.433594 626.867188 566.371094 627.617188 C 570.847656 628.289062 574.0625 632.144531 574.0625 636.539062 Z M 575.871094 280.148438 C 575.871094 284.183594 573.15625 287.859375 569.070312 288.902344 C 564.234375 290.140625 559.308594 287.226562 558.066406 282.386719 C 554.679688 269.152344 550.464844 257.058594 545.53125 246.441406 C 543.429688 241.910156 545.398438 236.535156 549.929688 234.433594 C 554.457031 232.332031 559.832031 234.292969 561.933594 238.824219 C 567.332031 250.445312 571.921875 263.589844 575.585938 277.902344 C 575.777344 278.652344 575.871094 279.40625 575.871094 280.148438 Z M 583.769531 557.578125 C 583.769531 557.863281 583.75 558.148438 583.726562 558.4375 C 582.5 571.5 581.042969 584.894531 579.402344 598.25 C 578.785156 603.203125 574.273438 606.726562 569.320312 606.113281 C 564.363281 605.503906 560.84375 600.992188 561.449219 596.039062 C 563.082031 582.855469 564.515625 569.636719 565.726562 556.75 C 566.191406 551.777344 570.597656 548.125 575.570312 548.59375 C 580.253906 549.03125 583.769531 552.96875 583.769531 557.578125 Z M 587 358.851562 C 587 363.597656 583.300781 367.578125 578.496094 367.867188 C 573.515625 368.167969 569.234375 364.371094 568.933594 359.386719 C 568.074219 345.109375 566.878906 332.367188 565.28125 320.421875 C 564.617188 315.472656 568.09375 310.921875 573.042969 310.257812 C 577.988281 309.597656 582.535156 313.070312 583.203125 318.019531 C 584.855469 330.402344 586.097656 343.578125 586.984375 358.304688 C 586.996094 358.488281 587 358.671875 587 358.851562 Z M 588.695312 478.1875 C 588.695312 478.273438 588.695312 478.367188 588.6875 478.453125 C 588.308594 491.605469 587.691406 505.074219 586.855469 518.496094 C 586.546875 523.476562 582.253906 527.269531 577.265625 526.957031 C 572.28125 526.648438 568.488281 522.355469 568.808594 517.363281 C 569.628906 504.148438 570.242188 490.878906 570.617188 477.929688 C 570.761719 472.9375 574.925781 469.007812 579.914062 469.152344 C 584.816406 469.296875 588.695312 473.3125 588.695312 478.1875 Z M 589.144531 438.417969 C 589.144531 443.382812 585.132812 447.421875 580.167969 447.457031 C 575.171875 447.492188 571.09375 443.46875 571.058594 438.472656 C 571.035156 434.527344 570.984375 430.535156 570.914062 426.605469 C 570.863281 423.550781 570.8125 420.441406 570.761719 417.273438 C 570.660156 411.296875 570.558594 405.113281 570.425781 398.8125 C 570.316406 393.816406 574.28125 389.6875 579.269531 389.578125 C 584.265625 389.472656 588.394531 393.429688 588.503906 398.425781 C 588.636719 404.773438 588.742188 410.972656 588.839844 416.972656 C 588.890625 420.136719 588.941406 423.234375 588.992188 426.28125 C 589.070312 430.273438 589.113281 434.335938 589.144531 438.351562 C 589.144531 438.375 589.144531 438.394531 589.144531 438.417969 " fill-opacity="1" fill-rule="nonzero"/></g></g></g></g></g><g fill="#ffffff" fill-opacity="1"><g transform="translate(30.729058, 94.290422)"><g><path d="M 31.085938 0.980469 C 43.914062 0.980469 54.328125 -6.789062 57.496094 -18.5625 L 50.476562 -18.5625 C 47.761719 -10.640625 40.292969 -5.660156 31.3125 -5.660156 C 19.542969 -5.660156 11.167969 -14.183594 11.167969 -26.410156 C 11.167969 -38.632812 19.542969 -47.160156 31.3125 -47.160156 C 40.066406 -47.160156 47.234375 -42.480469 49.949219 -34.859375 L 57.042969 -34.859375 C 53.570312 -46.480469 43.535156 -53.796875 31.085938 -53.796875 C 15.542969 -53.796875 4.375 -42.328125 4.375 -26.410156 C 4.375 -10.488281 15.542969 0.980469 31.085938 0.980469 Z M 31.085938 0.980469 "/></g></g></g><g fill="#ffffff" fill-opacity="1"><g transform="translate(102.109038, 94.290422)"><g><path d="M 24.671875 0.980469 C 36.820312 0.980469 45.421875 -7.621094 45.421875 -19.617188 C 45.421875 -31.613281 36.820312 -40.140625 24.671875 -40.140625 C 12.523438 -40.140625 3.921875 -31.613281 3.921875 -19.617188 C 3.921875 -7.621094 12.523438 0.980469 24.671875 0.980469 Z M 10.261719 -19.617188 C 10.261719 -28.144531 16.222656 -34.105469 24.671875 -34.105469 C 33.125 -34.105469 39.085938 -28.144531 39.085938 -19.617188 C 39.085938 -11.015625 33.125 -5.128906 24.671875 -5.128906 C 16.222656 -5.128906 10.261719 -11.015625 10.261719 -19.617188 Z M 10.261719 -19.617188 "/></g></g></g><g fill="#ffffff" fill-opacity="1"><g transform="translate(161.265542, 94.290422)"><g><path d="M 7.015625 0 L 13.355469 0 L 13.355469 -20.824219 C 13.355469 -28.898438 17.882812 -34.105469 24.671875 -34.105469 C 31.238281 -34.105469 35.386719 -29.125 35.386719 -21.351562 L 35.386719 0 L 41.726562 0 L 41.726562 -20.824219 C 41.726562 -28.898438 46.253906 -34.105469 53.042969 -34.105469 C 59.609375 -34.105469 63.757812 -29.125 63.757812 -21.351562 L 63.757812 0 L 70.097656 0 L 70.097656 -22.410156 C 70.097656 -33.351562 63.757812 -40.140625 53.875 -40.140625 C 47.535156 -40.140625 42.40625 -37.425781 39.3125 -32.445312 C 36.671875 -37.5 31.839844 -40.140625 25.578125 -40.140625 C 20.144531 -40.140625 15.769531 -38.105469 12.828125 -34.257812 L 12.222656 -39.160156 L 7.015625 -39.160156 Z M 7.015625 0 "/></g></g></g><g fill="#ffffff" fill-opacity="1"><g transform="translate(247.434433, 94.290422)"><g><path d="M 28.371094 0.980469 C 39.914062 0.980469 48.289062 -7.695312 48.289062 -19.617188 C 48.289062 -31.464844 39.914062 -40.140625 28.371094 -40.140625 C 21.957031 -40.140625 16.523438 -37.5 12.976562 -33.125 L 12.222656 -39.160156 L 7.015625 -39.160156 L 7.015625 15.089844 L 13.355469 15.089844 L 13.355469 -5.582031 C 16.902344 -1.507812 22.183594 0.980469 28.371094 0.980469 Z M 13.128906 -19.617188 C 13.128906 -28.070312 19.089844 -34.105469 27.539062 -34.105469 C 36.066406 -34.105469 41.953125 -28.070312 41.953125 -19.617188 C 41.953125 -11.089844 36.066406 -5.128906 27.539062 -5.128906 C 19.089844 -5.128906 13.128906 -11.089844 13.128906 -19.617188 Z M 13.128906 -19.617188 "/></g></g></g><g fill="#ffffff" fill-opacity="1"><g transform="translate(309.458173, 94.290422)"><g><path d="M 19.84375 0.605469 C 26.183594 0.605469 31.164062 -1.433594 34.707031 -5.433594 L 35.386719 0 L 40.59375 0 L 40.59375 -24.898438 C 40.59375 -33.953125 33.726562 -40.140625 23.464844 -40.140625 C 14.941406 -40.140625 8.527344 -35.539062 6.789062 -27.992188 L 13.203125 -27.992188 C 14.488281 -31.839844 18.484375 -34.257812 23.542969 -34.257812 C 30.179688 -34.257812 34.257812 -30.558594 34.257812 -24.445312 L 34.257812 -23.011719 L 18.261719 -23.011719 C 10.109375 -23.011719 4.753906 -18.410156 4.753906 -11.316406 C 4.753906 -3.921875 10.414062 0.605469 19.84375 0.605469 Z M 11.089844 -11.394531 C 11.089844 -15.089844 14.109375 -17.429688 18.484375 -17.429688 L 34.332031 -17.429688 C 34.105469 -10.1875 28.21875 -5.054688 20.070312 -5.054688 C 14.5625 -5.054688 11.089844 -7.546875 11.089844 -11.394531 Z M 11.089844 -11.394531 "/></g></g></g><g fill="#ffffff" fill-opacity="1"><g transform="translate(366.049255, 94.290422)"><g><path d="M 7.015625 0 L 13.355469 0 L 13.355469 -19.769531 C 13.355469 -28.371094 18.5625 -34.105469 25.878906 -34.105469 C 32.746094 -34.105469 36.972656 -29.125 36.972656 -21.203125 L 36.972656 0 L 43.308594 0 L 43.308594 -21.804688 C 43.308594 -32.972656 37.125 -40.140625 26.710938 -40.140625 C 21.429688 -40.140625 16.296875 -38.105469 12.902344 -33.425781 L 12.222656 -39.160156 L 7.015625 -39.160156 Z M 7.015625 0 "/></g></g></g><g fill="#ffffff" fill-opacity="1"><g transform="translate(425.432099, 94.290422)"><g><path d="M 5.660156 15.089844 L 10.109375 15.089844 C 17.429688 15.089844 20.976562 13.28125 23.691406 6.113281 L 41.652344 -39.160156 L 34.933594 -39.160156 L 27.617188 -20.675781 L 22.863281 -8.527344 L 17.128906 -20.675781 L 8.300781 -39.160156 L 1.207031 -39.160156 L 19.769531 -0.90625 L 17.957031 3.695312 C 16.296875 8.074219 14.5625 9.128906 9.507812 9.128906 L 5.660156 9.128906 Z M 5.660156 15.089844 "/></g></g></g><g fill="#ffffff" fill-opacity="1"><g transform="translate(372.289668, 429.108798)"><g><path d="M 6.785156 -10.753906 C 9.441406 -15.277344 8.859375 -20.554688 5.367188 -24.109375 L 3.910156 -21.636719 C 6.140625 -19.039062 6.351562 -15.375 4.492188 -12.210938 C 2.054688 -8.0625 -2.6875 -6.875 -6.996094 -9.40625 C -11.304688 -11.9375 -12.574219 -16.65625 -10.136719 -20.804688 C -8.324219 -23.890625 -5.191406 -25.449219 -1.941406 -24.828125 L -0.472656 -27.328125 C -5.289062 -28.511719 -9.945312 -26.488281 -12.523438 -22.101562 C -15.742188 -16.621094 -14.015625 -10.308594 -8.402344 -7.011719 C -2.789062 -3.714844 3.566406 -5.277344 6.785156 -10.753906 Z M 6.785156 -10.753906 "/></g></g></g><g fill="#ffffff" fill-opacity="1"><g transform="translate(388.167047, 402.087122)"><g><path d="M 1.453125 -2.472656 L 2.765625 -4.707031 L -3.644531 -8.472656 C -7.578125 -10.785156 -7.804688 -13.566406 -6.335938 -16.066406 L -5.539062 -17.425781 L -7.613281 -18.644531 L -8.347656 -17.394531 C -9.726562 -15.050781 -9.792969 -13.230469 -8.722656 -11.277344 L -11.273438 -12.417969 L -12.351562 -10.585938 Z M 1.453125 -2.472656 "/></g></g></g><g fill="#ffffff" fill-opacity="1"><g transform="translate(398.106299, 385.17153)"><g><path d="M 5.316406 -8.253906 C 7.144531 -11.367188 6.96875 -14.902344 4.9375 -17.597656 L 3.453125 -15.074219 C 4.417969 -13.363281 4.292969 -11.324219 3.230469 -9.515625 C 1.683594 -6.882812 -1.058594 -5.988281 -3.871094 -7.175781 L 3.148438 -19.117188 C -1.574219 -22.105469 -6.570312 -21.214844 -9.164062 -16.796875 C -11.617188 -12.621094 -10.359375 -7.945312 -6.101562 -5.445312 C -1.820312 -2.929688 2.863281 -4.078125 5.316406 -8.253906 Z M -5.824219 -8.359375 C -8.035156 -10.195312 -8.5625 -13.011719 -7.0625 -15.5625 C -5.578125 -18.089844 -2.941406 -19.046875 -0.132812 -18.039062 Z M -5.824219 -8.359375 "/></g></g></g><g fill="#ffffff" fill-opacity="1"><g transform="translate(411.170878, 362.93695)"><g><path d="M 4.324219 -6.871094 C 5.636719 -9.105469 5.949219 -11.28125 5.273438 -13.359375 L 7.328125 -12.472656 L 8.40625 -14.308594 L -0.371094 -19.464844 C -3.5625 -21.339844 -7.164062 -20.203125 -9.289062 -16.585938 C -11.054688 -13.578125 -10.761719 -10.367188 -8.460938 -8.191406 L -7.132812 -10.453125 C -8.222656 -11.703125 -8.246094 -13.609375 -7.199219 -15.394531 C -5.824219 -17.734375 -3.675781 -18.402344 -1.523438 -17.136719 L -1.015625 -16.839844 L -4.328125 -11.203125 C -6.019531 -8.332031 -5.503906 -5.488281 -3.003906 -4.019531 C -0.398438 -2.488281 2.371094 -3.546875 4.324219 -6.871094 Z M -1.71875 -6.269531 C -3.023438 -7.035156 -3.222656 -8.582031 -2.316406 -10.125 L 0.964844 -15.710938 C 3.472656 -14.132812 4.0625 -10.996094 2.375 -8.121094 C 1.234375 -6.179688 -0.363281 -5.472656 -1.71875 -6.269531 Z M -1.71875 -6.269531 "/></g></g></g><g fill="#ffffff" fill-opacity="1"><g transform="translate(423.985436, 341.127883)"><g><path d="M 4.953125 -8.429688 L 6.171875 -10.503906 L 4.019531 -11.769531 L 2.863281 -9.804688 C 1.785156 -7.96875 0.351562 -7.664062 -1.640625 -8.835938 L -8.316406 -12.757812 L -5.691406 -17.226562 L -7.738281 -18.429688 L -10.367188 -13.960938 L -13.796875 -15.976562 L -14.8125 -14.25 L -13.074219 -12.941406 C -11.917969 -12.046875 -11.820312 -11.488281 -12.570312 -10.210938 L -13.382812 -8.828125 L -11.332031 -7.625 L -9.628906 -10.523438 L -2.847656 -6.539062 C 0.316406 -4.679688 3.15625 -5.371094 4.953125 -8.429688 Z M 4.953125 -8.429688 "/></g></g></g><g fill="#ffffff" fill-opacity="1"><g transform="translate(434.049703, 323.999529)"><g><path d="M 5.316406 -8.253906 C 7.144531 -11.367188 6.96875 -14.902344 4.9375 -17.597656 L 3.453125 -15.074219 C 4.417969 -13.363281 4.292969 -11.324219 3.230469 -9.515625 C 1.683594 -6.882812 -1.058594 -5.988281 -3.871094 -7.175781 L 3.148438 -19.117188 C -1.574219 -22.105469 -6.570312 -21.214844 -9.164062 -16.796875 C -11.617188 -12.621094 -10.359375 -7.945312 -6.101562 -5.445312 C -1.820312 -2.929688 2.863281 -4.078125 5.316406 -8.253906 Z M -5.824219 -8.359375 C -8.035156 -10.195312 -8.5625 -13.011719 -7.0625 -15.5625 C -5.578125 -18.089844 -2.941406 -19.046875 -0.132812 -18.039062 Z M -5.824219 -8.359375 "/></g></g></g><g fill="#ffffff" fill-opacity="1"><g transform="translate(447.114285, 301.764945)"><g/></g></g><g fill="#ffffff" fill-opacity="1"><g transform="translate(454.115729, 289.849202)"><g><path d="M 6.492188 1.128906 L 7.414062 -0.4375 C 8.929688 -3.019531 9.027344 -4.644531 7.0625 -7.085938 L -5.175781 -22.792969 L -6.566406 -20.425781 L -1.566406 -14.015625 L 1.730469 -9.824219 L -3.738281 -10.320312 L -12.085938 -11.035156 L -13.554688 -8.535156 L 3.773438 -7.15625 L 5.023438 -5.5625 C 6.222656 -4.074219 6.234375 -3.242188 5.1875 -1.460938 L 4.390625 -0.105469 Z M 6.492188 1.128906 "/></g></g></g><g fill="#ffffff" fill-opacity="1"><g transform="translate(466.1177, 269.423074)"><g><path d="M 5.457031 -8.492188 C 7.972656 -12.777344 6.722656 -17.589844 2.492188 -20.074219 C -1.734375 -22.558594 -6.523438 -21.292969 -9.039062 -17.011719 C -11.554688 -12.730469 -10.332031 -7.929688 -6.101562 -5.445312 C -1.875 -2.960938 2.941406 -4.210938 5.457031 -8.492188 Z M -4.789062 -7.679688 C -7.796875 -9.445312 -8.660156 -12.78125 -6.910156 -15.761719 C -5.160156 -18.738281 -1.824219 -19.605469 1.179688 -17.839844 C 4.210938 -16.058594 5.050781 -12.738281 3.300781 -9.757812 C 1.550781 -6.78125 -1.757812 -5.898438 -4.789062 -7.679688 Z M -4.789062 -7.679688 "/></g></g></g><g fill="#ffffff" fill-opacity="1"><g transform="translate(479.463558, 246.709788)"><g><path d="M 5.035156 -7.777344 C 6.113281 -9.609375 6.414062 -11.832031 5.496094 -13.980469 L 7.65625 -13.03125 L 8.734375 -14.867188 L -5.066406 -22.976562 L -6.378906 -20.742188 L 0.585938 -16.648438 C 3.59375 -14.882812 4.566406 -11.914062 3.050781 -9.335938 C 1.660156 -6.96875 -0.953125 -6.535156 -3.71875 -8.160156 L -11.195312 -12.550781 L -12.507812 -10.316406 L -4.820312 -5.800781 C -0.882812 -3.488281 2.910156 -4.160156 5.035156 -7.777344 Z M 5.035156 -7.777344 "/></g></g></g><g fill="#ffffff" fill-opacity="1"><g transform="translate(492.778165, 224.049686)"><g><path d="M 1.453125 -2.472656 L 2.765625 -4.707031 L -3.644531 -8.472656 C -7.578125 -10.785156 -7.804688 -13.566406 -6.335938 -16.066406 L -5.539062 -17.425781 L -7.613281 -18.644531 L -8.347656 -17.394531 C -9.726562 -15.050781 -9.792969 -13.230469 -8.722656 -11.277344 L -11.273438 -12.417969 L -12.351562 -10.585938 Z M 1.453125 -2.472656 "/></g></g></g><g fill="#ffffff" fill-opacity="1"><g transform="translate(409.094805, 450.734736)"><g><path d="M 5.332031 -8.28125 C 7.363281 -11.738281 6.867188 -15.644531 4.0625 -18.542969 L 2.671875 -16.175781 C 4.257812 -14.3125 4.488281 -11.78125 3.175781 -9.546875 C 1.503906 -6.699219 -1.785156 -5.914062 -4.789062 -7.679688 C -7.769531 -9.429688 -8.707031 -12.703125 -7.035156 -15.546875 C -5.800781 -17.648438 -3.640625 -18.707031 -1.242188 -18.40625 L 0.0859375 -20.664062 C -3.433594 -21.804688 -7.148438 -20.230469 -9.164062 -16.796875 C -11.601562 -12.648438 -10.304688 -7.914062 -6.101562 -5.445312 C -1.875 -2.960938 2.894531 -4.132812 5.332031 -8.28125 Z M 5.332031 -8.28125 "/></g></g></g><g fill="#ffffff" fill-opacity="1"><g transform="translate(422.12813, 428.553349)"><g><path d="M 5.457031 -8.492188 C 7.972656 -12.777344 6.722656 -17.589844 2.492188 -20.074219 C -1.734375 -22.558594 -6.523438 -21.292969 -9.039062 -17.011719 C -11.554688 -12.730469 -10.332031 -7.929688 -6.101562 -5.445312 C -1.875 -2.960938 2.941406 -4.210938 5.457031 -8.492188 Z M -4.789062 -7.679688 C -7.796875 -9.445312 -8.660156 -12.78125 -6.910156 -15.761719 C -5.160156 -18.738281 -1.824219 -19.605469 1.179688 -17.839844 C 4.210938 -16.058594 5.050781 -12.738281 3.300781 -9.757812 C 1.550781 -6.78125 -1.757812 -5.898438 -4.789062 -7.679688 Z M -4.789062 -7.679688 "/></g></g></g><g fill="#ffffff" fill-opacity="1"><g transform="translate(435.473992, 405.840056)"><g><path d="M 1.453125 -2.472656 L 2.765625 -4.707031 L -4.574219 -9.019531 C -7.421875 -10.691406 -8.316406 -13.367188 -6.910156 -15.761719 C -5.550781 -18.074219 -2.9375 -18.507812 -0.199219 -16.894531 L 7.328125 -12.472656 L 8.640625 -14.707031 L 1.300781 -19.019531 C -1.542969 -20.691406 -2.441406 -23.367188 -1.035156 -25.761719 C 0.324219 -28.074219 2.9375 -28.507812 5.679688 -26.898438 L 13.207031 -22.472656 L 14.519531 -24.707031 L 6.617188 -29.347656 C 2.761719 -31.617188 -0.945312 -30.789062 -2.992188 -27.304688 C -4.304688 -25.070312 -4.410156 -22.699219 -3.292969 -20.578125 C -5.625 -20.691406 -7.554688 -19.539062 -8.851562 -17.332031 C -9.976562 -15.414062 -10.164062 -13.449219 -9.417969 -11.617188 L -11.273438 -12.417969 L -12.351562 -10.585938 Z M 1.453125 -2.472656 "/></g></g></g><g fill="#ffffff" fill-opacity="1"><g transform="translate(454.414191, 373.605771)"><g><path d="M 6.222656 -9.796875 C 8.613281 -13.867188 7.289062 -18.617188 3.085938 -21.085938 C -1.089844 -23.539062 -5.882812 -22.382812 -8.273438 -18.3125 C -9.601562 -16.054688 -9.796875 -13.589844 -8.988281 -11.433594 L -11.273438 -12.417969 L -12.351562 -10.585938 L 6.773438 0.652344 L 8.085938 -1.582031 L 0.796875 -5.863281 C 2.96875 -6.269531 4.941406 -7.617188 6.222656 -9.796875 Z M -4.195312 -8.691406 C -7.175781 -10.441406 -8.066406 -13.792969 -6.316406 -16.769531 C -4.550781 -19.777344 -1.203125 -20.601562 1.773438 -18.851562 C 4.777344 -17.085938 5.660156 -13.777344 3.894531 -10.769531 C 2.144531 -7.792969 -1.191406 -6.925781 -4.195312 -8.691406 Z M -4.195312 -8.691406 "/></g></g></g><g fill="#ffffff" fill-opacity="1"><g transform="translate(468.353867, 349.881868)"><g><path d="M 4.324219 -6.871094 C 5.636719 -9.105469 5.949219 -11.28125 5.273438 -13.359375 L 7.328125 -12.472656 L 8.40625 -14.308594 L -0.371094 -19.464844 C -3.5625 -21.339844 -7.164062 -20.203125 -9.289062 -16.585938 C -11.054688 -13.578125 -10.761719 -10.367188 -8.460938 -8.191406 L -7.132812 -10.453125 C -8.222656 -11.703125 -8.246094 -13.609375 -7.199219 -15.394531 C -5.824219 -17.734375 -3.675781 -18.402344 -1.523438 -17.136719 L -1.015625 -16.839844 L -4.328125 -11.203125 C -6.019531 -8.332031 -5.503906 -5.488281 -3.003906 -4.019531 C -0.398438 -2.488281 2.371094 -3.546875 4.324219 -6.871094 Z M -1.71875 -6.269531 C -3.023438 -7.035156 -3.222656 -8.582031 -2.316406 -10.125 L 0.964844 -15.710938 C 3.472656 -14.132812 4.0625 -10.996094 2.375 -8.121094 C 1.234375 -6.179688 -0.363281 -5.472656 -1.71875 -6.269531 Z M -1.71875 -6.269531 "/></g></g></g><g fill="#ffffff" fill-opacity="1"><g transform="translate(481.168424, 328.0728)"><g><path d="M 1.453125 -2.472656 L 2.765625 -4.707031 L -4.203125 -8.800781 C -7.234375 -10.582031 -8.175781 -13.605469 -6.660156 -16.1875 C -5.238281 -18.605469 -2.609375 -19.066406 0.183594 -17.421875 L 7.65625 -13.03125 L 8.96875 -15.265625 L 1.285156 -19.78125 C -2.652344 -22.09375 -6.460938 -21.398438 -8.617188 -17.730469 C -9.710938 -15.867188 -10.054688 -13.636719 -9.109375 -11.472656 L -11.273438 -12.417969 L -12.351562 -10.585938 Z M 1.453125 -2.472656 "/></g></g></g><g fill="#ffffff" fill-opacity="1"><g transform="translate(494.561169, 305.279717)"><g><path d="M 6.492188 1.128906 L 7.414062 -0.4375 C 8.929688 -3.019531 9.027344 -4.644531 7.0625 -7.085938 L -5.175781 -22.792969 L -6.566406 -20.425781 L -1.566406 -14.015625 L 1.730469 -9.824219 L -3.738281 -10.320312 L -12.085938 -11.035156 L -13.554688 -8.535156 L 3.773438 -7.15625 L 5.023438 -5.5625 C 6.222656 -4.074219 6.234375 -3.242188 5.1875 -1.460938 L 4.390625 -0.105469 Z M 6.492188 1.128906 "/></g></g></g><g fill="#ffffff" fill-opacity="1"><g transform="translate(506.563134, 284.853598)"><g/></g></g><g fill="#ffffff" fill-opacity="1"><g transform="translate(513.564572, 272.937866)"><g><path d="M 4.324219 -6.871094 C 5.636719 -9.105469 5.949219 -11.28125 5.273438 -13.359375 L 7.328125 -12.472656 L 8.40625 -14.308594 L -0.371094 -19.464844 C -3.5625 -21.339844 -7.164062 -20.203125 -9.289062 -16.585938 C -11.054688 -13.578125 -10.761719 -10.367188 -8.460938 -8.191406 L -7.132812 -10.453125 C -8.222656 -11.703125 -8.246094 -13.609375 -7.199219 -15.394531 C -5.824219 -17.734375 -3.675781 -18.402344 -1.523438 -17.136719 L -1.015625 -16.839844 L -4.328125 -11.203125 C -6.019531 -8.332031 -5.503906 -5.488281 -3.003906 -4.019531 C -0.398438 -2.488281 2.371094 -3.546875 4.324219 -6.871094 Z M -1.71875 -6.269531 C -3.023438 -7.035156 -3.222656 -8.582031 -2.316406 -10.125 L 0.964844 -15.710938 C 3.472656 -14.132812 4.0625 -10.996094 2.375 -8.121094 C 1.234375 -6.179688 -0.363281 -5.472656 -1.71875 -6.269531 Z M -1.71875 -6.269531 "/></g></g></g><g fill="#ffffff" fill-opacity="1"><g transform="translate(526.37913, 251.128798)"><g><path d="M 1.453125 -2.472656 L 2.765625 -4.707031 L -4.203125 -8.800781 C -7.234375 -10.582031 -8.175781 -13.605469 -6.660156 -16.1875 C -5.238281 -18.605469 -2.609375 -19.066406 0.183594 -17.421875 L 7.65625 -13.03125 L 8.96875 -15.265625 L 1.285156 -19.78125 C -2.652344 -22.09375 -6.460938 -21.398438 -8.617188 -17.730469 C -9.710938 -15.867188 -10.054688 -13.636719 -9.109375 -11.472656 L -11.273438 -12.417969 L -12.351562 -10.585938 Z M 1.453125 -2.472656 "/></g></g></g><g fill="#ffffff" fill-opacity="1"><g transform="translate(539.771868, 228.335725)"><g><path d="M 5.300781 -8.226562 C 6.613281 -10.460938 6.808594 -12.925781 6 -15.082031 L 8.28125 -14.097656 L 9.359375 -15.929688 L -10.320312 -27.496094 L -11.632812 -25.261719 L -3.8125 -20.667969 C -5.984375 -20.261719 -7.929688 -18.898438 -9.195312 -16.746094 C -11.601562 -12.648438 -10.277344 -7.898438 -6.101562 -5.445312 C -1.898438 -2.976562 2.894531 -4.132812 5.300781 -8.226562 Z M -4.789062 -7.679688 C -7.769531 -9.429688 -8.660156 -12.78125 -6.910156 -15.761719 C -5.144531 -18.765625 -1.800781 -19.589844 1.179688 -17.839844 C 4.183594 -16.074219 5.066406 -12.765625 3.300781 -9.757812 C 1.550781 -6.78125 -1.785156 -5.914062 -4.789062 -7.679688 Z M -4.789062 -7.679688 "/></g></g></g><g fill="#ffffff" fill-opacity="1"><g transform="translate(445.899942, 472.360674)"><g><path d="M 6.492188 1.128906 L 7.414062 -0.4375 C 8.929688 -3.019531 9.027344 -4.644531 7.0625 -7.085938 L -5.175781 -22.792969 L -6.566406 -20.425781 L -1.566406 -14.015625 L 1.730469 -9.824219 L -3.738281 -10.320312 L -12.085938 -11.035156 L -13.554688 -8.535156 L 3.773438 -7.15625 L 5.023438 -5.5625 C 6.222656 -4.074219 6.234375 -3.242188 5.1875 -1.460938 L 4.390625 -0.105469 Z M 6.492188 1.128906 "/></g></g></g><g fill="#ffffff" fill-opacity="1"><g transform="translate(457.901912, 451.934548)"><g><path d="M 5.457031 -8.492188 C 7.972656 -12.777344 6.722656 -17.589844 2.492188 -20.074219 C -1.734375 -22.558594 -6.523438 -21.292969 -9.039062 -17.011719 C -11.554688 -12.730469 -10.332031 -7.929688 -6.101562 -5.445312 C -1.875 -2.960938 2.941406 -4.210938 5.457031 -8.492188 Z M -4.789062 -7.679688 C -7.796875 -9.445312 -8.660156 -12.78125 -6.910156 -15.761719 C -5.160156 -18.738281 -1.824219 -19.605469 1.179688 -17.839844 C 4.210938 -16.058594 5.050781 -12.738281 3.300781 -9.757812 C 1.550781 -6.78125 -1.757812 -5.898438 -4.789062 -7.679688 Z M -4.789062 -7.679688 "/></g></g></g><g fill="#ffffff" fill-opacity="1"><g transform="translate(471.247773, 429.221255)"><g><path d="M 5.035156 -7.777344 C 6.113281 -9.609375 6.414062 -11.832031 5.496094 -13.980469 L 7.65625 -13.03125 L 8.734375 -14.867188 L -5.066406 -22.976562 L -6.378906 -20.742188 L 0.585938 -16.648438 C 3.59375 -14.882812 4.566406 -11.914062 3.050781 -9.335938 C 1.660156 -6.96875 -0.953125 -6.535156 -3.71875 -8.160156 L -11.195312 -12.550781 L -12.507812 -10.316406 L -4.820312 -5.800781 C -0.882812 -3.488281 2.910156 -4.160156 5.035156 -7.777344 Z M 5.035156 -7.777344 "/></g></g></g><g fill="#ffffff" fill-opacity="1"><g transform="translate(484.562378, 406.561159)"><g><path d="M 1.453125 -2.472656 L 2.765625 -4.707031 L -3.644531 -8.472656 C -7.578125 -10.785156 -7.804688 -13.566406 -6.335938 -16.066406 L -5.539062 -17.425781 L -7.613281 -18.644531 L -8.347656 -17.394531 C -9.726562 -15.050781 -9.792969 -13.230469 -8.722656 -11.277344 L -11.273438 -12.417969 L -12.351562 -10.585938 Z M 1.453125 -2.472656 "/></g></g></g><g fill="#ffffff" fill-opacity="1"><g transform="translate(494.501631, 389.645564)"><g/></g></g><g fill="#ffffff" fill-opacity="1"><g transform="translate(501.503076, 377.729822)"><g><path d="M -12.976562 -12.742188 L -11.570312 -11.914062 L -13.335938 -8.910156 L -11.285156 -7.707031 L -9.519531 -10.710938 L 2.234375 -3.804688 L 3.546875 -6.039062 L -8.207031 -12.945312 L -5.378906 -17.757812 L -7.425781 -18.960938 L -10.257812 -14.148438 L -11.53125 -14.898438 C -13.527344 -16.070312 -13.878906 -17.421875 -12.738281 -19.363281 L -11.472656 -21.515625 L -13.574219 -22.75 L -14.964844 -20.386719 C -16.792969 -17.273438 -16.117188 -14.585938 -12.976562 -12.742188 Z M -12.976562 -12.742188 "/></g></g></g><g fill="#ffffff" fill-opacity="1"><g transform="translate(511.23918, 361.159967)"><g><path d="M 5.316406 -8.253906 C 7.144531 -11.367188 6.96875 -14.902344 4.9375 -17.597656 L 3.453125 -15.074219 C 4.417969 -13.363281 4.292969 -11.324219 3.230469 -9.515625 C 1.683594 -6.882812 -1.058594 -5.988281 -3.871094 -7.175781 L 3.148438 -19.117188 C -1.574219 -22.105469 -6.570312 -21.214844 -9.164062 -16.796875 C -11.617188 -12.621094 -10.359375 -7.945312 -6.101562 -5.445312 C -1.820312 -2.929688 2.863281 -4.078125 5.316406 -8.253906 Z M -5.824219 -8.359375 C -8.035156 -10.195312 -8.5625 -13.011719 -7.0625 -15.5625 C -5.578125 -18.089844 -2.941406 -19.046875 -0.132812 -18.039062 Z M -5.824219 -8.359375 "/></g></g></g><g fill="#ffffff" fill-opacity="1"><g transform="translate(524.303762, 338.925383)"><g><path d="M 5.316406 -8.253906 C 7.144531 -11.367188 6.96875 -14.902344 4.9375 -17.597656 L 3.453125 -15.074219 C 4.417969 -13.363281 4.292969 -11.324219 3.230469 -9.515625 C 1.683594 -6.882812 -1.058594 -5.988281 -3.871094 -7.175781 L 3.148438 -19.117188 C -1.574219 -22.105469 -6.570312 -21.214844 -9.164062 -16.796875 C -11.617188 -12.621094 -10.359375 -7.945312 -6.101562 -5.445312 C -1.820312 -2.929688 2.863281 -4.078125 5.316406 -8.253906 Z M -5.824219 -8.359375 C -8.035156 -10.195312 -8.5625 -13.011719 -7.0625 -15.5625 C -5.578125 -18.089844 -2.941406 -19.046875 -0.132812 -18.039062 Z M -5.824219 -8.359375 "/></g></g></g><g fill="#ffffff" fill-opacity="1"><g transform="translate(537.368344, 316.690798)"><g><path d="M 5.300781 -8.226562 C 6.613281 -10.460938 6.808594 -12.925781 6 -15.082031 L 8.28125 -14.097656 L 9.359375 -15.929688 L -10.320312 -27.496094 L -11.632812 -25.261719 L -3.8125 -20.667969 C -5.984375 -20.261719 -7.929688 -18.898438 -9.195312 -16.746094 C -11.601562 -12.648438 -10.277344 -7.898438 -6.101562 -5.445312 C -1.898438 -2.976562 2.894531 -4.132812 5.300781 -8.226562 Z M -4.789062 -7.679688 C -7.769531 -9.429688 -8.660156 -12.78125 -6.910156 -15.761719 C -5.144531 -18.765625 -1.800781 -19.589844 1.179688 -17.839844 C 4.183594 -16.074219 5.066406 -12.765625 3.300781 -9.757812 C 1.550781 -6.78125 -1.785156 -5.914062 -4.789062 -7.679688 Z M -4.789062 -7.679688 "/></g></g></g><g fill="#ffffff" fill-opacity="1"><g transform="translate(127.144487, 453.027516)"><g><path d="M 5.582031 -8.707031 C 7.972656 -12.777344 7.523438 -16.582031 4.28125 -18.488281 C 1.539062 -20.097656 -1.1875 -19.230469 -5.15625 -15.15625 C -8.15625 -12.054688 -9.820312 -11.421875 -11.359375 -12.328125 C -13.144531 -13.375 -13.324219 -15.628906 -11.757812 -18.289062 C -10.148438 -21.027344 -7.765625 -21.917969 -5.5 -20.65625 L -4.140625 -22.972656 C -7.773438 -25.070312 -11.539062 -23.777344 -13.992188 -19.601562 C -16.386719 -15.53125 -15.90625 -11.777344 -12.765625 -9.933594 C -9.894531 -8.246094 -7.097656 -9.355469 -3.316406 -13.292969 C -0.550781 -16.171875 1.207031 -17.035156 2.9375 -16.019531 C 4.773438 -14.941406 4.894531 -12.652344 3.347656 -10.019531 C 1.644531 -7.121094 -0.980469 -5.941406 -3.40625 -7.296875 L -4.78125 -4.957031 C -1.121094 -2.839844 2.972656 -4.265625 5.582031 -8.707031 Z M 5.582031 -8.707031 "/></g></g></g><g fill="#ffffff" fill-opacity="1"><g transform="translate(140.380969, 430.500376)"><g><path d="M 5.035156 -7.777344 C 6.113281 -9.609375 6.414062 -11.832031 5.496094 -13.980469 L 7.65625 -13.03125 L 8.734375 -14.867188 L -5.066406 -22.976562 L -6.378906 -20.742188 L 0.585938 -16.648438 C 3.59375 -14.882812 4.566406 -11.914062 3.050781 -9.335938 C 1.660156 -6.96875 -0.953125 -6.535156 -3.71875 -8.160156 L -11.195312 -12.550781 L -12.507812 -10.316406 L -4.820312 -5.800781 C -0.882812 -3.488281 2.910156 -4.160156 5.035156 -7.777344 Z M 5.035156 -7.777344 "/></g></g></g><g fill="#ffffff" fill-opacity="1"><g transform="translate(153.695582, 407.840265)"><g><path d="M 6.222656 -9.796875 C 8.613281 -13.867188 7.289062 -18.617188 3.085938 -21.085938 C -1.089844 -23.539062 -5.882812 -22.382812 -8.273438 -18.3125 C -9.554688 -16.132812 -9.769531 -13.753906 -9.070312 -11.660156 L -16.914062 -16.273438 L -18.226562 -14.039062 L 1.453125 -2.472656 L 2.53125 -4.308594 L 0.558594 -5.824219 C 2.835938 -6.167969 4.894531 -7.535156 6.222656 -9.796875 Z M -4.195312 -8.691406 C -7.175781 -10.441406 -8.066406 -13.792969 -6.316406 -16.769531 C -4.550781 -19.777344 -1.203125 -20.601562 1.773438 -18.851562 C 4.777344 -17.085938 5.660156 -13.777344 3.894531 -10.769531 C 2.144531 -7.792969 -1.191406 -6.925781 -4.195312 -8.691406 Z M -4.195312 -8.691406 "/></g></g></g><g fill="#ffffff" fill-opacity="1"><g transform="translate(167.635263, 384.116351)"><g><path d="M 4.738281 -7.269531 C 6.738281 -10.675781 6.464844 -13.804688 4.070312 -15.210938 C 1.917969 -16.476562 -0.609375 -15.527344 -3.347656 -12.449219 C -5.59375 -9.90625 -6.730469 -9.25 -7.898438 -9.9375 C -9.125 -10.65625 -9.179688 -12.265625 -8.007812 -14.257812 C -6.773438 -16.359375 -5.214844 -17.125 -3.605469 -16.394531 L -2.308594 -18.601562 C -5.128906 -20.007812 -7.992188 -18.792969 -9.992188 -15.386719 C -11.945312 -12.0625 -11.671875 -9.183594 -9.199219 -7.730469 C -7.015625 -6.449219 -4.703125 -7.34375 -2.023438 -10.5625 C 0.0078125 -12.984375 1.472656 -13.769531 2.722656 -13.035156 C 3.972656 -12.300781 3.992188 -10.570312 2.757812 -8.46875 C 1.367188 -6.101562 -0.472656 -5.285156 -2.195312 -6.191406 L -3.492188 -3.984375 C -0.640625 -2.378906 2.613281 -3.652344 4.738281 -7.269531 Z M 4.738281 -7.269531 "/></g></g></g><g fill="#ffffff" fill-opacity="1"><g transform="translate(179.293453, 364.275304)"><g><path d="M 5.332031 -8.28125 C 7.363281 -11.738281 6.867188 -15.644531 4.0625 -18.542969 L 2.671875 -16.175781 C 4.257812 -14.3125 4.488281 -11.78125 3.175781 -9.546875 C 1.503906 -6.699219 -1.785156 -5.914062 -4.789062 -7.679688 C -7.769531 -9.429688 -8.707031 -12.703125 -7.035156 -15.546875 C -5.800781 -17.648438 -3.640625 -18.707031 -1.242188 -18.40625 L 0.0859375 -20.664062 C -3.433594 -21.804688 -7.148438 -20.230469 -9.164062 -16.796875 C -11.601562 -12.648438 -10.304688 -7.914062 -6.101562 -5.445312 C -1.875 -2.960938 2.894531 -4.132812 5.332031 -8.28125 Z M 5.332031 -8.28125 "/></g></g></g><g fill="#ffffff" fill-opacity="1"><g transform="translate(192.326785, 342.093904)"><g><path d="M 1.453125 -2.472656 L 2.765625 -4.707031 L -3.644531 -8.472656 C -7.578125 -10.785156 -7.804688 -13.566406 -6.335938 -16.066406 L -5.539062 -17.425781 L -7.613281 -18.644531 L -8.347656 -17.394531 C -9.726562 -15.050781 -9.792969 -13.230469 -8.722656 -11.277344 L -11.273438 -12.417969 L -12.351562 -10.585938 Z M 1.453125 -2.472656 "/></g></g></g><g fill="#ffffff" fill-opacity="1"><g transform="translate(202.266045, 325.178299)"><g><path d="M 1.453125 -2.472656 L 2.765625 -4.707031 L -11.039062 -12.816406 L -12.351562 -10.585938 Z M -16.773438 -12.253906 C -15.789062 -11.675781 -14.621094 -11.953125 -13.980469 -13.046875 C -13.339844 -14.136719 -13.679688 -15.265625 -14.664062 -15.84375 C -15.671875 -16.4375 -16.824219 -16.183594 -17.464844 -15.09375 C -18.105469 -14.003906 -17.785156 -12.847656 -16.773438 -12.253906 Z M -16.773438 -12.253906 "/></g></g></g><g fill="#ffffff" fill-opacity="1"><g transform="translate(209.611282, 312.677456)"><g><path d="M 6.222656 -9.796875 C 8.613281 -13.867188 7.289062 -18.617188 3.085938 -21.085938 C -1.089844 -23.539062 -5.882812 -22.382812 -8.273438 -18.3125 C -9.554688 -16.132812 -9.769531 -13.753906 -9.070312 -11.660156 L -16.914062 -16.273438 L -18.226562 -14.039062 L 1.453125 -2.472656 L 2.53125 -4.308594 L 0.558594 -5.824219 C 2.835938 -6.167969 4.894531 -7.535156 6.222656 -9.796875 Z M -4.195312 -8.691406 C -7.175781 -10.441406 -8.066406 -13.792969 -6.316406 -16.769531 C -4.550781 -19.777344 -1.203125 -20.601562 1.773438 -18.851562 C 4.777344 -17.085938 5.660156 -13.777344 3.894531 -10.769531 C 2.144531 -7.792969 -1.191406 -6.925781 -4.195312 -8.691406 Z M -4.195312 -8.691406 "/></g></g></g><g fill="#ffffff" fill-opacity="1"><g transform="translate(223.550963, 288.953543)"><g><path d="M 5.316406 -8.253906 C 7.144531 -11.367188 6.96875 -14.902344 4.9375 -17.597656 L 3.453125 -15.074219 C 4.417969 -13.363281 4.292969 -11.324219 3.230469 -9.515625 C 1.683594 -6.882812 -1.058594 -5.988281 -3.871094 -7.175781 L 3.148438 -19.117188 C -1.574219 -22.105469 -6.570312 -21.214844 -9.164062 -16.796875 C -11.617188 -12.621094 -10.359375 -7.945312 -6.101562 -5.445312 C -1.820312 -2.929688 2.863281 -4.078125 5.316406 -8.253906 Z M -5.824219 -8.359375 C -8.035156 -10.195312 -8.5625 -13.011719 -7.0625 -15.5625 C -5.578125 -18.089844 -2.941406 -19.046875 -0.132812 -18.039062 Z M -5.824219 -8.359375 "/></g></g></g><g fill="#ffffff" fill-opacity="1"><g transform="translate(1025.090889, 446.71214)"><g><path d="M 3.84375 -6.542969 L 5.125 -8.722656 L -6.671875 -23.167969 L 3.4375 -21.378906 L 11.703125 -19.921875 L 12.988281 -22.101562 L -2.066406 -39.105469 L -3.503906 -36.65625 L 8.574219 -23.121094 L -9.554688 -26.367188 L -10.851562 -24.15625 L 0.78125 -9.917969 L -7.335938 -11.75 L -16.882812 -13.890625 L -18.320312 -11.445312 Z M 3.84375 -6.542969 "/></g></g></g><g fill="#ffffff" fill-opacity="1"><g transform="translate(1045.062453, 412.722579)"><g><path d="M 4.324219 -6.871094 C 5.636719 -9.105469 5.949219 -11.28125 5.273438 -13.359375 L 7.328125 -12.472656 L 8.40625 -14.308594 L -0.371094 -19.464844 C -3.5625 -21.339844 -7.164062 -20.203125 -9.289062 -16.585938 C -11.054688 -13.578125 -10.761719 -10.367188 -8.460938 -8.191406 L -7.132812 -10.453125 C -8.222656 -11.703125 -8.246094 -13.609375 -7.199219 -15.394531 C -5.824219 -17.734375 -3.675781 -18.402344 -1.523438 -17.136719 L -1.015625 -16.839844 L -4.328125 -11.203125 C -6.019531 -8.332031 -5.503906 -5.488281 -3.003906 -4.019531 C -0.398438 -2.488281 2.371094 -3.546875 4.324219 -6.871094 Z M -1.71875 -6.269531 C -3.023438 -7.035156 -3.222656 -8.582031 -2.316406 -10.125 L 0.964844 -15.710938 C 3.472656 -14.132812 4.0625 -10.996094 2.375 -8.121094 C 1.234375 -6.179688 -0.363281 -5.472656 -1.71875 -6.269531 Z M -1.71875 -6.269531 "/></g></g></g><g fill="#ffffff" fill-opacity="1"><g transform="translate(1057.877016, 390.913502)"><g><path d="M 1.453125 -2.472656 L 2.765625 -4.707031 L -11.039062 -12.816406 L -12.351562 -10.585938 Z M -16.773438 -12.253906 C -15.789062 -11.675781 -14.621094 -11.953125 -13.980469 -13.046875 C -13.339844 -14.136719 -13.679688 -15.265625 -14.664062 -15.84375 C -15.671875 -16.4375 -16.824219 -16.183594 -17.464844 -15.09375 C -18.105469 -14.003906 -17.785156 -12.847656 -16.773438 -12.253906 Z M -16.773438 -12.253906 "/></g></g></g><g fill="#ffffff" fill-opacity="1"><g transform="translate(1065.222253, 378.412659)"><g><path d="M 4.953125 -8.429688 L 6.171875 -10.503906 L 4.019531 -11.769531 L 2.863281 -9.804688 C 1.785156 -7.96875 0.351562 -7.664062 -1.640625 -8.835938 L -8.316406 -12.757812 L -5.691406 -17.226562 L -7.738281 -18.429688 L -10.367188 -13.960938 L -13.796875 -15.976562 L -14.8125 -14.25 L -13.074219 -12.941406 C -11.917969 -12.046875 -11.820312 -11.488281 -12.570312 -10.210938 L -13.382812 -8.828125 L -11.332031 -7.625 L -9.628906 -10.523438 L -2.847656 -6.539062 C 0.316406 -4.679688 3.15625 -5.371094 4.953125 -8.429688 Z M 4.953125 -8.429688 "/></g></g></g><g fill="#ffffff" fill-opacity="1"><g transform="translate(1075.286525, 361.284296)"><g/></g></g><g fill="#ffffff" fill-opacity="1"><g transform="translate(1082.287975, 349.368544)"><g><path d="M -12.976562 -12.742188 L -11.570312 -11.914062 L -13.335938 -8.910156 L -11.285156 -7.707031 L -9.519531 -10.710938 L 2.234375 -3.804688 L 3.546875 -6.039062 L -8.207031 -12.945312 L -5.378906 -17.757812 L -7.425781 -18.960938 L -10.257812 -14.148438 L -11.53125 -14.898438 C -13.527344 -16.070312 -13.878906 -17.421875 -12.738281 -19.363281 L -11.472656 -21.515625 L -13.574219 -22.75 L -14.964844 -20.386719 C -16.792969 -17.273438 -16.117188 -14.585938 -12.976562 -12.742188 Z M -12.976562 -12.742188 "/></g></g></g><g fill="#ffffff" fill-opacity="1"><g transform="translate(1092.024085, 332.798679)"><g><path d="M 5.457031 -8.492188 C 7.972656 -12.777344 6.722656 -17.589844 2.492188 -20.074219 C -1.734375 -22.558594 -6.523438 -21.292969 -9.039062 -17.011719 C -11.554688 -12.730469 -10.332031 -7.929688 -6.101562 -5.445312 C -1.875 -2.960938 2.941406 -4.210938 5.457031 -8.492188 Z M -4.789062 -7.679688 C -7.796875 -9.445312 -8.660156 -12.78125 -6.910156 -15.761719 C -5.160156 -18.738281 -1.824219 -19.605469 1.179688 -17.839844 C 4.210938 -16.058594 5.050781 -12.738281 3.300781 -9.757812 C 1.550781 -6.78125 -1.757812 -5.898438 -4.789062 -7.679688 Z M -4.789062 -7.679688 "/></g></g></g><g fill="#ffffff" fill-opacity="1"><g transform="translate(1105.369954, 310.085374)"><g><path d="M 1.453125 -2.472656 L 2.765625 -4.707031 L -3.644531 -8.472656 C -7.578125 -10.785156 -7.804688 -13.566406 -6.335938 -16.066406 L -5.539062 -17.425781 L -7.613281 -18.644531 L -8.347656 -17.394531 C -9.726562 -15.050781 -9.792969 -13.230469 -8.722656 -11.277344 L -11.273438 -12.417969 L -12.351562 -10.585938 Z M 1.453125 -2.472656 "/></g></g></g><g fill="#ffffff" fill-opacity="1"><g transform="translate(1061.896026, 468.338078)"><g><path d="M 4.324219 -6.871094 C 5.636719 -9.105469 5.949219 -11.28125 5.273438 -13.359375 L 7.328125 -12.472656 L 8.40625 -14.308594 L -0.371094 -19.464844 C -3.5625 -21.339844 -7.164062 -20.203125 -9.289062 -16.585938 C -11.054688 -13.578125 -10.761719 -10.367188 -8.460938 -8.191406 L -7.132812 -10.453125 C -8.222656 -11.703125 -8.246094 -13.609375 -7.199219 -15.394531 C -5.824219 -17.734375 -3.675781 -18.402344 -1.523438 -17.136719 L -1.015625 -16.839844 L -4.328125 -11.203125 C -6.019531 -8.332031 -5.503906 -5.488281 -3.003906 -4.019531 C -0.398438 -2.488281 2.371094 -3.546875 4.324219 -6.871094 Z M -1.71875 -6.269531 C -3.023438 -7.035156 -3.222656 -8.582031 -2.316406 -10.125 L 0.964844 -15.710938 C 3.472656 -14.132812 4.0625 -10.996094 2.375 -8.121094 C 1.234375 -6.179688 -0.363281 -5.472656 -1.71875 -6.269531 Z M -1.71875 -6.269531 "/></g></g></g><g fill="#ffffff" fill-opacity="1"><g transform="translate(1074.71059, 446.529)"><g><path d="M 6.222656 -9.796875 C 8.613281 -13.867188 7.289062 -18.617188 3.085938 -21.085938 C -1.089844 -23.539062 -5.882812 -22.382812 -8.273438 -18.3125 C -9.601562 -16.054688 -9.796875 -13.589844 -8.988281 -11.433594 L -11.273438 -12.417969 L -12.351562 -10.585938 L 6.773438 0.652344 L 8.085938 -1.582031 L 0.796875 -5.863281 C 2.96875 -6.269531 4.941406 -7.617188 6.222656 -9.796875 Z M -4.195312 -8.691406 C -7.175781 -10.441406 -8.066406 -13.792969 -6.316406 -16.769531 C -4.550781 -19.777344 -1.203125 -20.601562 1.773438 -18.851562 C 4.777344 -17.085938 5.660156 -13.777344 3.894531 -10.769531 C 2.144531 -7.792969 -1.191406 -6.925781 -4.195312 -8.691406 Z M -4.195312 -8.691406 "/></g></g></g><g fill="#ffffff" fill-opacity="1"><g transform="translate(1088.650271, 422.805087)"><g><path d="M 6.222656 -9.796875 C 8.613281 -13.867188 7.289062 -18.617188 3.085938 -21.085938 C -1.089844 -23.539062 -5.882812 -22.382812 -8.273438 -18.3125 C -9.601562 -16.054688 -9.796875 -13.589844 -8.988281 -11.433594 L -11.273438 -12.417969 L -12.351562 -10.585938 L 6.773438 0.652344 L 8.085938 -1.582031 L 0.796875 -5.863281 C 2.96875 -6.269531 4.941406 -7.617188 6.222656 -9.796875 Z M -4.195312 -8.691406 C -7.175781 -10.441406 -8.066406 -13.792969 -6.316406 -16.769531 C -4.550781 -19.777344 -1.203125 -20.601562 1.773438 -18.851562 C 4.777344 -17.085938 5.660156 -13.777344 3.894531 -10.769531 C 2.144531 -7.792969 -1.191406 -6.925781 -4.195312 -8.691406 Z M -4.195312 -8.691406 "/></g></g></g><g fill="#ffffff" fill-opacity="1"><g transform="translate(1102.589952, 399.081174)"><g><path d="M 1.453125 -2.472656 L 2.765625 -4.707031 L -16.914062 -16.273438 L -18.226562 -14.039062 Z M 1.453125 -2.472656 "/></g></g></g><g fill="#ffffff" fill-opacity="1"><g transform="translate(1109.935189, 386.580331)"><g><path d="M 1.453125 -2.472656 L 2.765625 -4.707031 L -11.039062 -12.816406 L -12.351562 -10.585938 Z M -16.773438 -12.253906 C -15.789062 -11.675781 -14.621094 -11.953125 -13.980469 -13.046875 C -13.339844 -14.136719 -13.679688 -15.265625 -14.664062 -15.84375 C -15.671875 -16.4375 -16.824219 -16.183594 -17.464844 -15.09375 C -18.105469 -14.003906 -17.785156 -12.847656 -16.773438 -12.253906 Z M -16.773438 -12.253906 "/></g></g></g><g fill="#ffffff" fill-opacity="1"><g transform="translate(1117.280426, 374.079488)"><g><path d="M 5.332031 -8.28125 C 7.363281 -11.738281 6.867188 -15.644531 4.0625 -18.542969 L 2.671875 -16.175781 C 4.257812 -14.3125 4.488281 -11.78125 3.175781 -9.546875 C 1.503906 -6.699219 -1.785156 -5.914062 -4.789062 -7.679688 C -7.769531 -9.429688 -8.707031 -12.703125 -7.035156 -15.546875 C -5.800781 -17.648438 -3.640625 -18.707031 -1.242188 -18.40625 L 0.0859375 -20.664062 C -3.433594 -21.804688 -7.148438 -20.230469 -9.164062 -16.796875 C -11.601562 -12.648438 -10.304688 -7.914062 -6.101562 -5.445312 C -1.875 -2.960938 2.894531 -4.132812 5.332031 -8.28125 Z M 5.332031 -8.28125 "/></g></g></g><g fill="#ffffff" fill-opacity="1"><g transform="translate(1130.313758, 351.898088)"><g><path d="M 4.324219 -6.871094 C 5.636719 -9.105469 5.949219 -11.28125 5.273438 -13.359375 L 7.328125 -12.472656 L 8.40625 -14.308594 L -0.371094 -19.464844 C -3.5625 -21.339844 -7.164062 -20.203125 -9.289062 -16.585938 C -11.054688 -13.578125 -10.761719 -10.367188 -8.460938 -8.191406 L -7.132812 -10.453125 C -8.222656 -11.703125 -8.246094 -13.609375 -7.199219 -15.394531 C -5.824219 -17.734375 -3.675781 -18.402344 -1.523438 -17.136719 L -1.015625 -16.839844 L -4.328125 -11.203125 C -6.019531 -8.332031 -5.503906 -5.488281 -3.003906 -4.019531 C -0.398438 -2.488281 2.371094 -3.546875 4.324219 -6.871094 Z M -1.71875 -6.269531 C -3.023438 -7.035156 -3.222656 -8.582031 -2.316406 -10.125 L 0.964844 -15.710938 C 3.472656 -14.132812 4.0625 -10.996094 2.375 -8.121094 C 1.234375 -6.179688 -0.363281 -5.472656 -1.71875 -6.269531 Z M -1.71875 -6.269531 "/></g></g></g><g fill="#ffffff" fill-opacity="1"><g transform="translate(1143.128322, 330.089011)"><g><path d="M 4.953125 -8.429688 L 6.171875 -10.503906 L 4.019531 -11.769531 L 2.863281 -9.804688 C 1.785156 -7.96875 0.351562 -7.664062 -1.640625 -8.835938 L -8.316406 -12.757812 L -5.691406 -17.226562 L -7.738281 -18.429688 L -10.367188 -13.960938 L -13.796875 -15.976562 L -14.8125 -14.25 L -13.074219 -12.941406 C -11.917969 -12.046875 -11.820312 -11.488281 -12.570312 -10.210938 L -13.382812 -8.828125 L -11.332031 -7.625 L -9.628906 -10.523438 L -2.847656 -6.539062 C 0.316406 -4.679688 3.15625 -5.371094 4.953125 -8.429688 Z M 4.953125 -8.429688 "/></g></g></g><g fill="#ffffff" fill-opacity="1"><g transform="translate(1153.192594, 312.960648)"><g><path d="M 1.453125 -2.472656 L 2.765625 -4.707031 L -11.039062 -12.816406 L -12.351562 -10.585938 Z M -16.773438 -12.253906 C -15.789062 -11.675781 -14.621094 -11.953125 -13.980469 -13.046875 C -13.339844 -14.136719 -13.679688 -15.265625 -14.664062 -15.84375 C -15.671875 -16.4375 -16.824219 -16.183594 -17.464844 -15.09375 C -18.105469 -14.003906 -17.785156 -12.847656 -16.773438 -12.253906 Z M -16.773438 -12.253906 "/></g></g></g><g fill="#ffffff" fill-opacity="1"><g transform="translate(1160.537831, 300.459805)"><g><path d="M 5.457031 -8.492188 C 7.972656 -12.777344 6.722656 -17.589844 2.492188 -20.074219 C -1.734375 -22.558594 -6.523438 -21.292969 -9.039062 -17.011719 C -11.554688 -12.730469 -10.332031 -7.929688 -6.101562 -5.445312 C -1.875 -2.960938 2.941406 -4.210938 5.457031 -8.492188 Z M -4.789062 -7.679688 C -7.796875 -9.445312 -8.660156 -12.78125 -6.910156 -15.761719 C -5.160156 -18.738281 -1.824219 -19.605469 1.179688 -17.839844 C 4.210938 -16.058594 5.050781 -12.738281 3.300781 -9.757812 C 1.550781 -6.78125 -1.757812 -5.898438 -4.789062 -7.679688 Z M -4.789062 -7.679688 "/></g></g></g><g fill="#ffffff" fill-opacity="1"><g transform="translate(1173.8837, 277.746499)"><g><path d="M 1.453125 -2.472656 L 2.765625 -4.707031 L -4.203125 -8.800781 C -7.234375 -10.582031 -8.175781 -13.605469 -6.660156 -16.1875 C -5.238281 -18.605469 -2.609375 -19.066406 0.183594 -17.421875 L 7.65625 -13.03125 L 8.96875 -15.265625 L 1.285156 -19.78125 C -2.652344 -22.09375 -6.460938 -21.398438 -8.617188 -17.730469 C -9.710938 -15.867188 -10.054688 -13.636719 -9.109375 -11.472656 L -11.273438 -12.417969 L -12.351562 -10.585938 Z M 1.453125 -2.472656 "/></g></g></g><g fill="#ffffff" fill-opacity="1"><g transform="translate(1187.27645, 254.953407)"><g><path d="M 4.738281 -7.269531 C 6.738281 -10.675781 6.464844 -13.804688 4.070312 -15.210938 C 1.917969 -16.476562 -0.609375 -15.527344 -3.347656 -12.449219 C -5.59375 -9.90625 -6.730469 -9.25 -7.898438 -9.9375 C -9.125 -10.65625 -9.179688 -12.265625 -8.007812 -14.257812 C -6.773438 -16.359375 -5.214844 -17.125 -3.605469 -16.394531 L -2.308594 -18.601562 C -5.128906 -20.007812 -7.992188 -18.792969 -9.992188 -15.386719 C -11.945312 -12.0625 -11.671875 -9.183594 -9.199219 -7.730469 C -7.015625 -6.449219 -4.703125 -7.34375 -2.023438 -10.5625 C 0.0078125 -12.984375 1.472656 -13.769531 2.722656 -13.035156 C 3.972656 -12.300781 3.992188 -10.570312 2.757812 -8.46875 C 1.367188 -6.101562 -0.472656 -5.285156 -2.195312 -6.191406 L -3.492188 -3.984375 C -0.640625 -2.378906 2.613281 -3.652344 4.738281 -7.269531 Z M 4.738281 -7.269531 "/></g></g></g><g fill="#ffffff" fill-opacity="1"><g transform="translate(729.539902, 450.7344)"><g><path d="M 0.265625 -0.453125 L 1.734375 -2.953125 L -1.492188 -7.140625 L 3.835938 -16.207031 L 9.09375 -15.480469 L 10.546875 -17.953125 L -12.570312 -21.230469 L -13.851562 -19.050781 Z M -3.144531 -9.324219 L -9.9375 -18.21875 L 1.136719 -16.613281 Z M -3.144531 -9.324219 "/></g></g></g><g fill="#ffffff" fill-opacity="1"><g transform="translate(743.479583, 427.010487)"><g><path d="M 1.453125 -2.472656 L 2.765625 -4.707031 L -4.203125 -8.800781 C -7.234375 -10.582031 -8.175781 -13.605469 -6.660156 -16.1875 C -5.238281 -18.605469 -2.609375 -19.066406 0.183594 -17.421875 L 7.65625 -13.03125 L 8.96875 -15.265625 L 1.285156 -19.78125 C -2.652344 -22.09375 -6.460938 -21.398438 -8.617188 -17.730469 C -9.710938 -15.867188 -10.054688 -13.636719 -9.109375 -11.472656 L -11.273438 -12.417969 L -12.351562 -10.585938 Z M 1.453125 -2.472656 "/></g></g></g><g fill="#ffffff" fill-opacity="1"><g transform="translate(756.872333, 404.217394)"><g><path d="M 1.453125 -2.472656 L 2.765625 -4.707031 L -4.203125 -8.800781 C -7.234375 -10.582031 -8.175781 -13.605469 -6.660156 -16.1875 C -5.238281 -18.605469 -2.609375 -19.066406 0.183594 -17.421875 L 7.65625 -13.03125 L 8.96875 -15.265625 L 1.285156 -19.78125 C -2.652344 -22.09375 -6.460938 -21.398438 -8.617188 -17.730469 C -9.710938 -15.867188 -10.054688 -13.636719 -9.109375 -11.472656 L -11.273438 -12.417969 L -12.351562 -10.585938 Z M 1.453125 -2.472656 "/></g></g></g><g fill="#ffffff" fill-opacity="1"><g transform="translate(770.265084, 381.424301)"><g><path d="M 5.457031 -8.492188 C 7.972656 -12.777344 6.722656 -17.589844 2.492188 -20.074219 C -1.734375 -22.558594 -6.523438 -21.292969 -9.039062 -17.011719 C -11.554688 -12.730469 -10.332031 -7.929688 -6.101562 -5.445312 C -1.875 -2.960938 2.941406 -4.210938 5.457031 -8.492188 Z M -4.789062 -7.679688 C -7.796875 -9.445312 -8.660156 -12.78125 -6.910156 -15.761719 C -5.160156 -18.738281 -1.824219 -19.605469 1.179688 -17.839844 C 4.210938 -16.058594 5.050781 -12.738281 3.300781 -9.757812 C 1.550781 -6.78125 -1.757812 -5.898438 -4.789062 -7.679688 Z M -4.789062 -7.679688 "/></g></g></g><g fill="#ffffff" fill-opacity="1"><g transform="translate(783.610953, 358.710996)"><g><path d="M 5.035156 -7.777344 C 6.113281 -9.609375 6.414062 -11.832031 5.496094 -13.980469 L 7.65625 -13.03125 L 8.734375 -14.867188 L -5.066406 -22.976562 L -6.378906 -20.742188 L 0.585938 -16.648438 C 3.59375 -14.882812 4.566406 -11.914062 3.050781 -9.335938 C 1.660156 -6.96875 -0.953125 -6.535156 -3.71875 -8.160156 L -11.195312 -12.550781 L -12.507812 -10.316406 L -4.820312 -5.800781 C -0.882812 -3.488281 2.910156 -4.160156 5.035156 -7.777344 Z M 5.035156 -7.777344 "/></g></g></g><g fill="#ffffff" fill-opacity="1"><g transform="translate(796.925566, 336.050884)"><g><path d="M 1.453125 -2.472656 L 2.765625 -4.707031 L -4.203125 -8.800781 C -7.234375 -10.582031 -8.175781 -13.605469 -6.660156 -16.1875 C -5.238281 -18.605469 -2.609375 -19.066406 0.183594 -17.421875 L 7.65625 -13.03125 L 8.96875 -15.265625 L 1.285156 -19.78125 C -2.652344 -22.09375 -6.460938 -21.398438 -8.617188 -17.730469 C -9.710938 -15.867188 -10.054688 -13.636719 -9.109375 -11.472656 L -11.273438 -12.417969 L -12.351562 -10.585938 Z M 1.453125 -2.472656 "/></g></g></g><g fill="#ffffff" fill-opacity="1"><g transform="translate(810.318316, 313.257792)"><g><path d="M 5.332031 -8.28125 C 7.363281 -11.738281 6.867188 -15.644531 4.0625 -18.542969 L 2.671875 -16.175781 C 4.257812 -14.3125 4.488281 -11.78125 3.175781 -9.546875 C 1.503906 -6.699219 -1.785156 -5.914062 -4.789062 -7.679688 C -7.769531 -9.429688 -8.707031 -12.703125 -7.035156 -15.546875 C -5.800781 -17.648438 -3.640625 -18.707031 -1.242188 -18.40625 L 0.0859375 -20.664062 C -3.433594 -21.804688 -7.148438 -20.230469 -9.164062 -16.796875 C -11.601562 -12.648438 -10.304688 -7.914062 -6.101562 -5.445312 C -1.875 -2.960938 2.894531 -4.132812 5.332031 -8.28125 Z M 5.332031 -8.28125 "/></g></g></g><g fill="#ffffff" fill-opacity="1"><g transform="translate(823.351648, 291.076392)"><g><path d="M 5.316406 -8.253906 C 7.144531 -11.367188 6.96875 -14.902344 4.9375 -17.597656 L 3.453125 -15.074219 C 4.417969 -13.363281 4.292969 -11.324219 3.230469 -9.515625 C 1.683594 -6.882812 -1.058594 -5.988281 -3.871094 -7.175781 L 3.148438 -19.117188 C -1.574219 -22.105469 -6.570312 -21.214844 -9.164062 -16.796875 C -11.617188 -12.621094 -10.359375 -7.945312 -6.101562 -5.445312 C -1.820312 -2.929688 2.863281 -4.078125 5.316406 -8.253906 Z M -5.824219 -8.359375 C -8.035156 -10.195312 -8.5625 -13.011719 -7.0625 -15.5625 C -5.578125 -18.089844 -2.941406 -19.046875 -0.132812 -18.039062 Z M -5.824219 -8.359375 "/></g></g></g><g fill="#ffffff" fill-opacity="1"><g transform="translate(836.416236, 268.841797)"><g/></g></g><g fill="#ffffff" fill-opacity="1"><g transform="translate(843.417686, 256.926045)"><g><path d="M 4.953125 -8.429688 L 6.171875 -10.503906 L 4.019531 -11.769531 L 2.863281 -9.804688 C 1.785156 -7.96875 0.351562 -7.664062 -1.640625 -8.835938 L -8.316406 -12.757812 L -5.691406 -17.226562 L -7.738281 -18.429688 L -10.367188 -13.960938 L -13.796875 -15.976562 L -14.8125 -14.25 L -13.074219 -12.941406 C -11.917969 -12.046875 -11.820312 -11.488281 -12.570312 -10.210938 L -13.382812 -8.828125 L -11.332031 -7.625 L -9.628906 -10.523438 L -2.847656 -6.539062 C 0.316406 -4.679688 3.15625 -5.371094 4.953125 -8.429688 Z M 4.953125 -8.429688 "/></g></g></g><g fill="#ffffff" fill-opacity="1"><g transform="translate(853.481958, 239.797682)"><g><path d="M 1.453125 -2.472656 L 2.765625 -4.707031 L -4.28125 -8.847656 C -7.3125 -10.628906 -8.175781 -13.605469 -6.644531 -16.210938 C -5.238281 -18.605469 -2.660156 -19.097656 0.105469 -17.46875 L 7.65625 -13.03125 L 8.96875 -15.265625 L 1.203125 -19.828125 C -2.730469 -22.140625 -6.460938 -21.398438 -8.601562 -17.753906 C -9.648438 -15.972656 -10.015625 -13.828125 -9.230469 -11.753906 L -16.914062 -16.273438 L -18.226562 -14.039062 Z M 1.453125 -2.472656 "/></g></g></g><g fill="#ffffff" fill-opacity="1"><g transform="translate(866.874709, 217.004589)"><g><path d="M 5.316406 -8.253906 C 7.144531 -11.367188 6.96875 -14.902344 4.9375 -17.597656 L 3.453125 -15.074219 C 4.417969 -13.363281 4.292969 -11.324219 3.230469 -9.515625 C 1.683594 -6.882812 -1.058594 -5.988281 -3.871094 -7.175781 L 3.148438 -19.117188 C -1.574219 -22.105469 -6.570312 -21.214844 -9.164062 -16.796875 C -11.617188 -12.621094 -10.359375 -7.945312 -6.101562 -5.445312 C -1.820312 -2.929688 2.863281 -4.078125 5.316406 -8.253906 Z M -5.824219 -8.359375 C -8.035156 -10.195312 -8.5625 -13.011719 -7.0625 -15.5625 C -5.578125 -18.089844 -2.941406 -19.046875 -0.132812 -18.039062 Z M -5.824219 -8.359375 "/></g></g></g><g fill="#ffffff" fill-opacity="1"><g transform="translate(879.937392, 194.773236)"><g/></g></g><g fill="#ffffff" fill-opacity="1"><g transform="translate(766.345039, 472.360338)"><g><path d="M 5.457031 -8.492188 C 7.972656 -12.777344 6.722656 -17.589844 2.492188 -20.074219 C -1.734375 -22.558594 -6.523438 -21.292969 -9.039062 -17.011719 C -11.554688 -12.730469 -10.332031 -7.929688 -6.101562 -5.445312 C -1.875 -2.960938 2.941406 -4.210938 5.457031 -8.492188 Z M -4.789062 -7.679688 C -7.796875 -9.445312 -8.660156 -12.78125 -6.910156 -15.761719 C -5.160156 -18.738281 -1.824219 -19.605469 1.179688 -17.839844 C 4.210938 -16.058594 5.050781 -12.738281 3.300781 -9.757812 C 1.550781 -6.78125 -1.757812 -5.898438 -4.789062 -7.679688 Z M -4.789062 -7.679688 "/></g></g></g><g fill="#ffffff" fill-opacity="1"><g transform="translate(779.690908, 449.647032)"><g><path d="M 6.222656 -9.796875 C 8.613281 -13.867188 7.289062 -18.617188 3.085938 -21.085938 C -1.089844 -23.539062 -5.882812 -22.382812 -8.273438 -18.3125 C -9.601562 -16.054688 -9.796875 -13.589844 -8.988281 -11.433594 L -11.273438 -12.417969 L -12.351562 -10.585938 L 6.773438 0.652344 L 8.085938 -1.582031 L 0.796875 -5.863281 C 2.96875 -6.269531 4.941406 -7.617188 6.222656 -9.796875 Z M -4.195312 -8.691406 C -7.175781 -10.441406 -8.066406 -13.792969 -6.316406 -16.769531 C -4.550781 -19.777344 -1.203125 -20.601562 1.773438 -18.851562 C 4.777344 -17.085938 5.660156 -13.777344 3.894531 -10.769531 C 2.144531 -7.792969 -1.191406 -6.925781 -4.195312 -8.691406 Z M -4.195312 -8.691406 "/></g></g></g><g fill="#ffffff" fill-opacity="1"><g transform="translate(793.630589, 425.923119)"><g><path d="M 5.316406 -8.253906 C 7.144531 -11.367188 6.96875 -14.902344 4.9375 -17.597656 L 3.453125 -15.074219 C 4.417969 -13.363281 4.292969 -11.324219 3.230469 -9.515625 C 1.683594 -6.882812 -1.058594 -5.988281 -3.871094 -7.175781 L 3.148438 -19.117188 C -1.574219 -22.105469 -6.570312 -21.214844 -9.164062 -16.796875 C -11.617188 -12.621094 -10.359375 -7.945312 -6.101562 -5.445312 C -1.820312 -2.929688 2.863281 -4.078125 5.316406 -8.253906 Z M -5.824219 -8.359375 C -8.035156 -10.195312 -8.5625 -13.011719 -7.0625 -15.5625 C -5.578125 -18.089844 -2.941406 -19.046875 -0.132812 -18.039062 Z M -5.824219 -8.359375 "/></g></g></g><g fill="#ffffff" fill-opacity="1"><g transform="translate(806.695177, 403.688524)"><g><path d="M 1.453125 -2.472656 L 2.765625 -4.707031 L -4.203125 -8.800781 C -7.234375 -10.582031 -8.175781 -13.605469 -6.660156 -16.1875 C -5.238281 -18.605469 -2.609375 -19.066406 0.183594 -17.421875 L 7.65625 -13.03125 L 8.96875 -15.265625 L 1.285156 -19.78125 C -2.652344 -22.09375 -6.460938 -21.398438 -8.617188 -17.730469 C -9.710938 -15.867188 -10.054688 -13.636719 -9.109375 -11.472656 L -11.273438 -12.417969 L -12.351562 -10.585938 Z M 1.453125 -2.472656 "/></g></g></g><g fill="#ffffff" fill-opacity="1"><g transform="translate(820.087928, 380.895431)"><g/></g></g><g fill="#ffffff" fill-opacity="1"><g transform="translate(827.089377, 368.979679)"><g><path d="M 6.222656 -9.796875 C 8.613281 -13.867188 7.289062 -18.617188 3.085938 -21.085938 C -1.089844 -23.539062 -5.882812 -22.382812 -8.273438 -18.3125 C -9.601562 -16.054688 -9.796875 -13.589844 -8.988281 -11.433594 L -11.273438 -12.417969 L -12.351562 -10.585938 L 6.773438 0.652344 L 8.085938 -1.582031 L 0.796875 -5.863281 C 2.96875 -6.269531 4.941406 -7.617188 6.222656 -9.796875 Z M -4.195312 -8.691406 C -7.175781 -10.441406 -8.066406 -13.792969 -6.316406 -16.769531 C -4.550781 -19.777344 -1.203125 -20.601562 1.773438 -18.851562 C 4.777344 -17.085938 5.660156 -13.777344 3.894531 -10.769531 C 2.144531 -7.792969 -1.191406 -6.925781 -4.195312 -8.691406 Z M -4.195312 -8.691406 "/></g></g></g><g fill="#ffffff" fill-opacity="1"><g transform="translate(841.029059, 345.255766)"><g><path d="M 5.457031 -8.492188 C 7.972656 -12.777344 6.722656 -17.589844 2.492188 -20.074219 C -1.734375 -22.558594 -6.523438 -21.292969 -9.039062 -17.011719 C -11.554688 -12.730469 -10.332031 -7.929688 -6.101562 -5.445312 C -1.875 -2.960938 2.941406 -4.210938 5.457031 -8.492188 Z M -4.789062 -7.679688 C -7.796875 -9.445312 -8.660156 -12.78125 -6.910156 -15.761719 C -5.160156 -18.738281 -1.824219 -19.605469 1.179688 -17.839844 C 4.210938 -16.058594 5.050781 -12.738281 3.300781 -9.757812 C 1.550781 -6.78125 -1.757812 -5.898438 -4.789062 -7.679688 Z M -4.789062 -7.679688 "/></g></g></g><g fill="#ffffff" fill-opacity="1"><g transform="translate(854.374928, 322.54246)"><g><path d="M 4.738281 -7.269531 C 6.738281 -10.675781 6.464844 -13.804688 4.070312 -15.210938 C 1.917969 -16.476562 -0.609375 -15.527344 -3.347656 -12.449219 C -5.59375 -9.90625 -6.730469 -9.25 -7.898438 -9.9375 C -9.125 -10.65625 -9.179688 -12.265625 -8.007812 -14.257812 C -6.773438 -16.359375 -5.214844 -17.125 -3.605469 -16.394531 L -2.308594 -18.601562 C -5.128906 -20.007812 -7.992188 -18.792969 -9.992188 -15.386719 C -11.945312 -12.0625 -11.671875 -9.183594 -9.199219 -7.730469 C -7.015625 -6.449219 -4.703125 -7.34375 -2.023438 -10.5625 C 0.0078125 -12.984375 1.472656 -13.769531 2.722656 -13.035156 C 3.972656 -12.300781 3.992188 -10.570312 2.757812 -8.46875 C 1.367188 -6.101562 -0.472656 -5.285156 -2.195312 -6.191406 L -3.492188 -3.984375 C -0.640625 -2.378906 2.613281 -3.652344 4.738281 -7.269531 Z M 4.738281 -7.269531 "/></g></g></g><g fill="#ffffff" fill-opacity="1"><g transform="translate(866.033117, 302.701413)"><g><path d="M 1.453125 -2.472656 L 2.765625 -4.707031 L -11.039062 -12.816406 L -12.351562 -10.585938 Z M -16.773438 -12.253906 C -15.789062 -11.675781 -14.621094 -11.953125 -13.980469 -13.046875 C -13.339844 -14.136719 -13.679688 -15.265625 -14.664062 -15.84375 C -15.671875 -16.4375 -16.824219 -16.183594 -17.464844 -15.09375 C -18.105469 -14.003906 -17.785156 -12.847656 -16.773438 -12.253906 Z M -16.773438 -12.253906 "/></g></g></g><g fill="#ffffff" fill-opacity="1"><g transform="translate(873.378354, 290.20057)"><g><path d="M 4.953125 -8.429688 L 6.171875 -10.503906 L 4.019531 -11.769531 L 2.863281 -9.804688 C 1.785156 -7.96875 0.351562 -7.664062 -1.640625 -8.835938 L -8.316406 -12.757812 L -5.691406 -17.226562 L -7.738281 -18.429688 L -10.367188 -13.960938 L -13.796875 -15.976562 L -14.8125 -14.25 L -13.074219 -12.941406 C -11.917969 -12.046875 -11.820312 -11.488281 -12.570312 -10.210938 L -13.382812 -8.828125 L -11.332031 -7.625 L -9.628906 -10.523438 L -2.847656 -6.539062 C 0.316406 -4.679688 3.15625 -5.371094 4.953125 -8.429688 Z M 4.953125 -8.429688 "/></g></g></g><g fill="#ffffff" fill-opacity="1"><g transform="translate(883.442626, 273.072207)"><g><path d="M 1.453125 -2.472656 L 2.765625 -4.707031 L -11.039062 -12.816406 L -12.351562 -10.585938 Z M -16.773438 -12.253906 C -15.789062 -11.675781 -14.621094 -11.953125 -13.980469 -13.046875 C -13.339844 -14.136719 -13.679688 -15.265625 -14.664062 -15.84375 C -15.671875 -16.4375 -16.824219 -16.183594 -17.464844 -15.09375 C -18.105469 -14.003906 -17.785156 -12.847656 -16.773438 -12.253906 Z M -16.773438 -12.253906 "/></g></g></g><g fill="#ffffff" fill-opacity="1"><g transform="translate(890.787863, 260.571364)"><g><path d="M 5.457031 -8.492188 C 7.972656 -12.777344 6.722656 -17.589844 2.492188 -20.074219 C -1.734375 -22.558594 -6.523438 -21.292969 -9.039062 -17.011719 C -11.554688 -12.730469 -10.332031 -7.929688 -6.101562 -5.445312 C -1.875 -2.960938 2.941406 -4.210938 5.457031 -8.492188 Z M -4.789062 -7.679688 C -7.796875 -9.445312 -8.660156 -12.78125 -6.910156 -15.761719 C -5.160156 -18.738281 -1.824219 -19.605469 1.179688 -17.839844 C 4.210938 -16.058594 5.050781 -12.738281 3.300781 -9.757812 C 1.550781 -6.78125 -1.757812 -5.898438 -4.789062 -7.679688 Z M -4.789062 -7.679688 "/></g></g></g><g fill="#ffffff" fill-opacity="1"><g transform="translate(904.133732, 237.858058)"><g><path d="M 1.453125 -2.472656 L 2.765625 -4.707031 L -4.203125 -8.800781 C -7.234375 -10.582031 -8.175781 -13.605469 -6.660156 -16.1875 C -5.238281 -18.605469 -2.609375 -19.066406 0.183594 -17.421875 L 7.65625 -13.03125 L 8.96875 -15.265625 L 1.285156 -19.78125 C -2.652344 -22.09375 -6.460938 -21.398438 -8.617188 -17.730469 C -9.710938 -15.867188 -10.054688 -13.636719 -9.109375 -11.472656 L -11.273438 -12.417969 L -12.351562 -10.585938 Z M 1.453125 -2.472656 "/></g></g></g><g fill="#ffffff" fill-opacity="1"><g transform="translate(917.526483, 215.064966)"><g><path d="M 4.738281 -7.269531 C 6.738281 -10.675781 6.464844 -13.804688 4.070312 -15.210938 C 1.917969 -16.476562 -0.609375 -15.527344 -3.347656 -12.449219 C -5.59375 -9.90625 -6.730469 -9.25 -7.898438 -9.9375 C -9.125 -10.65625 -9.179688 -12.265625 -8.007812 -14.257812 C -6.773438 -16.359375 -5.214844 -17.125 -3.605469 -16.394531 L -2.308594 -18.601562 C -5.128906 -20.007812 -7.992188 -18.792969 -9.992188 -15.386719 C -11.945312 -12.0625 -11.671875 -9.183594 -9.199219 -7.730469 C -7.015625 -6.449219 -4.703125 -7.34375 -2.023438 -10.5625 C 0.0078125 -12.984375 1.472656 -13.769531 2.722656 -13.035156 C 3.972656 -12.300781 3.992188 -10.570312 2.757812 -8.46875 C 1.367188 -6.101562 -0.472656 -5.285156 -2.195312 -6.191406 L -3.492188 -3.984375 C -0.640625 -2.378906 2.613281 -3.652344 4.738281 -7.269531 Z M 4.738281 -7.269531 "/></g></g></g><g mask="url(#07b2b903b9)"><g transform="matrix(1, 0, 0, 1, 94, 490)"><g clip-path="url(#069ad54605)"><g clip-path="url(#1e5a228fb7)"><g clip-path="url(#88ec3921c2)"><path fill="#c20400" d="M 11.507812 0.148438 L 11.507812 46.023438 L 20.078125 46.023438 L 20.078125 0.148438 Z M 11.507812 0.148438 " fill-opacity="1" fill-rule="nonzero"/></g></g><g clip-path="url(#6c7c338bf4)"><g clip-path="url(#434446fb0e)"><path fill="#c20400" d="M 0.113281 0.09375 L 0.113281 17.3125 L 20.242188 17.3125 L 20.242188 0.09375 Z M 0.113281 0.09375 " fill-opacity="1" fill-rule="nonzero"/></g></g></g></g></g><g mask="url(#8f9cc0ae80)"><g transform="matrix(1, 0, 0, 1, 384, 489)"><g clip-path="url(#dfdc247efe)"><g clip-path="url(#6a513a2643)"><g clip-path="url(#beb207a299)"><path fill="#c20400" d="M 0.09375 0.613281 L 0.09375 47 L 31.101562 47 L 31.101562 0.613281 Z M 0.09375 0.613281 " fill-opacity="1" fill-rule="nonzero"/></g></g><g clip-path="url(#e8709a4d42)"><g clip-path="url(#a7d432b5bf)"><path fill="#c20400" d="M 0.304688 38.21875 L 0.304688 47 L 31.347656 47 L 31.347656 38.21875 Z M 0.304688 38.21875 " fill-opacity="1" fill-rule="nonzero"/></g></g></g></g></g><g mask="url(#95bf5b98a8)"><g transform="matrix(1, 0, 0, 1, 717, 489)"><g clip-path="url(#1d564cb7cd)"><g clip-path="url(#3105b7cbf5)"><g clip-path="url(#6f847e963d)"><path fill="#c20400" d="M 0.210938 0.632812 L 0.210938 28.160156 L 25.855469 28.160156 L 25.855469 0.632812 Z M 0.210938 0.632812 " fill-opacity="1" fill-rule="nonzero"/></g></g><g clip-path="url(#2ae9f929bb)"><g clip-path="url(#5f1a5af2b6)"><path fill="#c20400" d="M 0.210938 19.457031 L 0.210938 46.976562 L 25.855469 46.976562 L 25.855469 19.457031 Z M 0.210938 19.457031 " fill-opacity="1" fill-rule="nonzero"/></g></g></g></g></g><g mask="url(#2511a2e8d1)"><g transform="matrix(1, 0, 0, 1, 1004, 493)"><g clip-path="url(#5ac86b2976)"><g clip-path="url(#06f70116d3)"><g clip-path="url(#6b94828b1e)"><path fill="#c20400" d="M 18.625 0.714844 L 18.625 46.585938 L 27.230469 46.585938 L 27.230469 0.714844 Z M 18.625 0.714844 " fill-opacity="1" fill-rule="nonzero"/></g></g><g clip-path="url(#b768148ee3)"><g clip-path="url(#06c0c0f849)"><path fill="#c20400" d="M 0.503906 19.320312 L 0.503906 27.945312 L 33.632812 27.945312 L 33.632812 19.320312 Z M 0.503906 19.320312 " fill-opacity="1" fill-rule="nonzero"/></g></g><g clip-path="url(#24be6055d0)"><g clip-path="url(#c24bd7a732)"><path fill="#c20400" d="M 0.316406 0.6875 L 0.316406 27.945312 L 16.648438 27.945312 L 16.648438 0.6875 Z M 0.316406 0.6875 " fill-opacity="1" fill-rule="nonzero"/></g></g></g></g></g></svg>