<svg xmlns="http://www.w3.org/2000/svg" xmlns:xlink="http://www.w3.org/1999/xlink" width="500" zoomAndPan="magnify" viewBox="0 0 375 374.999991" height="500" preserveAspectRatio="xMidYMid meet" version="1.0"><defs><g/><clipPath id="78b546f236"><path d="M 0.210938 0 L 358 0 L 358 374.925781 L 0.210938 374.925781 Z M 0.210938 0 " clip-rule="nonzero"/></clipPath><clipPath id="65a2460c00"><path d="M 169.90625 -3.085938 L 357.332031 -4.328125 L 187.636719 185.179688 L 357.332031 374.683594 L 169.90625 373.441406 L 0.210938 185.179688 Z M 169.90625 -3.085938 " clip-rule="nonzero"/></clipPath><linearGradient x1="171.82585" gradientTransform="matrix(-1.224, 0, 0, 1.224195, 612.21093, -4.32812)" y1="38.854347" x2="466.242471" gradientUnits="userSpaceOnUse" y2="342.349246" id="aa05f8aaef"><stop stop-opacity="1" stop-color="rgb(74.899292%, 44.299316%, 100%)" offset="0"/><stop stop-opacity="1" stop-color="rgb(74.899292%, 44.299316%, 100%)" offset="0.0625"/><stop stop-opacity="1" stop-color="rgb(74.899292%, 44.299316%, 100%)" offset="0.078125"/><stop stop-opacity="1" stop-color="rgb(74.899292%, 44.299316%, 100%)" offset="0.0859375"/><stop stop-opacity="1" stop-color="rgb(74.539185%, 44.499207%, 99.885559%)" offset="0.0898438"/><stop stop-opacity="1" stop-color="rgb(74.179077%, 44.699097%, 99.772644%)" offset="0.09375"/><stop stop-opacity="1" stop-color="rgb(73.735046%, 44.944763%, 99.633789%)" offset="0.0976562"/><stop stop-opacity="1" stop-color="rgb(73.292542%, 45.191956%, 99.494934%)" offset="0.101562"/><stop stop-opacity="1" stop-color="rgb(72.848511%, 45.437622%, 99.356079%)" offset="0.105469"/><stop stop-opacity="1" stop-color="rgb(72.40448%, 45.684814%, 99.217224%)" offset="0.109375"/><stop stop-opacity="1" stop-color="rgb(71.960449%, 45.930481%, 99.076843%)" offset="0.113281"/><stop stop-opacity="1" stop-color="rgb(71.517944%, 46.177673%, 98.937988%)" offset="0.117187"/><stop stop-opacity="1" stop-color="rgb(71.073914%, 46.42334%, 98.799133%)" offset="0.121094"/><stop stop-opacity="1" stop-color="rgb(70.629883%, 46.670532%, 98.660278%)" offset="0.125"/><stop stop-opacity="1" stop-color="rgb(70.185852%, 46.916199%, 98.519897%)" offset="0.128906"/><stop stop-opacity="1" stop-color="rgb(69.743347%, 47.163391%, 98.381042%)" offset="0.132812"/><stop stop-opacity="1" stop-color="rgb(69.299316%, 47.409058%, 98.242188%)" offset="0.136719"/><stop stop-opacity="1" stop-color="rgb(68.856812%, 47.65625%, 98.103333%)" offset="0.140625"/><stop stop-opacity="1" stop-color="rgb(68.412781%, 47.901917%, 97.962952%)" offset="0.144531"/><stop stop-opacity="1" stop-color="rgb(67.96875%, 48.149109%, 97.824097%)" offset="0.148438"/><stop stop-opacity="1" stop-color="rgb(67.524719%, 48.394775%, 97.685242%)" offset="0.152344"/><stop stop-opacity="1" stop-color="rgb(67.082214%, 48.640442%, 97.546387%)" offset="0.15625"/><stop stop-opacity="1" stop-color="rgb(66.638184%, 48.886108%, 97.407532%)" offset="0.160156"/><stop stop-opacity="1" stop-color="rgb(66.194153%, 49.133301%, 97.268677%)" offset="0.164062"/><stop stop-opacity="1" stop-color="rgb(65.750122%, 49.378967%, 97.128296%)" offset="0.167969"/><stop stop-opacity="1" stop-color="rgb(65.307617%, 49.62616%, 96.989441%)" offset="0.171875"/><stop stop-opacity="1" stop-color="rgb(64.863586%, 49.871826%, 96.850586%)" offset="0.175781"/><stop stop-opacity="1" stop-color="rgb(64.421082%, 50.119019%, 96.711731%)" offset="0.179687"/><stop stop-opacity="1" stop-color="rgb(63.977051%, 50.364685%, 96.57135%)" offset="0.183594"/><stop stop-opacity="1" stop-color="rgb(63.53302%, 50.611877%, 96.432495%)" offset="0.1875"/><stop stop-opacity="1" stop-color="rgb(63.088989%, 50.857544%, 96.29364%)" offset="0.191406"/><stop stop-opacity="1" stop-color="rgb(62.646484%, 51.104736%, 96.154785%)" offset="0.195312"/><stop stop-opacity="1" stop-color="rgb(62.202454%, 51.350403%, 96.01593%)" offset="0.199219"/><stop stop-opacity="1" stop-color="rgb(61.758423%, 51.597595%, 95.877075%)" offset="0.203125"/><stop stop-opacity="1" stop-color="rgb(61.314392%, 51.843262%, 95.736694%)" offset="0.207031"/><stop stop-opacity="1" stop-color="rgb(60.871887%, 52.090454%, 95.597839%)" offset="0.210938"/><stop stop-opacity="1" stop-color="rgb(60.427856%, 52.336121%, 95.458984%)" offset="0.214844"/><stop stop-opacity="1" stop-color="rgb(59.985352%, 52.583313%, 95.320129%)" offset="0.21875"/><stop stop-opacity="1" stop-color="rgb(59.541321%, 52.828979%, 95.179749%)" offset="0.222656"/><stop stop-opacity="1" stop-color="rgb(59.09729%, 53.076172%, 95.040894%)" offset="0.226562"/><stop stop-opacity="1" stop-color="rgb(58.653259%, 53.321838%, 94.902039%)" offset="0.230469"/><stop stop-opacity="1" stop-color="rgb(58.210754%, 53.569031%, 94.763184%)" offset="0.234375"/><stop stop-opacity="1" stop-color="rgb(57.766724%, 53.814697%, 94.624329%)" offset="0.238281"/><stop stop-opacity="1" stop-color="rgb(57.322693%, 54.060364%, 94.485474%)" offset="0.242187"/><stop stop-opacity="1" stop-color="rgb(56.878662%, 54.30603%, 94.345093%)" offset="0.246094"/><stop stop-opacity="1" stop-color="rgb(56.436157%, 54.553223%, 94.206238%)" offset="0.25"/><stop stop-opacity="1" stop-color="rgb(55.992126%, 54.798889%, 94.067383%)" offset="0.253906"/><stop stop-opacity="1" stop-color="rgb(55.549622%, 55.046082%, 93.928528%)" offset="0.257812"/><stop stop-opacity="1" stop-color="rgb(55.105591%, 55.291748%, 93.788147%)" offset="0.261719"/><stop stop-opacity="1" stop-color="rgb(54.66156%, 55.53894%, 93.649292%)" offset="0.265625"/><stop stop-opacity="1" stop-color="rgb(54.217529%, 55.784607%, 93.510437%)" offset="0.269531"/><stop stop-opacity="1" stop-color="rgb(53.775024%, 56.031799%, 93.371582%)" offset="0.273438"/><stop stop-opacity="1" stop-color="rgb(53.330994%, 56.277466%, 93.231201%)" offset="0.277344"/><stop stop-opacity="1" stop-color="rgb(52.886963%, 56.524658%, 93.092346%)" offset="0.28125"/><stop stop-opacity="1" stop-color="rgb(52.442932%, 56.770325%, 92.953491%)" offset="0.285156"/><stop stop-opacity="1" stop-color="rgb(52.000427%, 57.017517%, 92.814636%)" offset="0.289062"/><stop stop-opacity="1" stop-color="rgb(51.556396%, 57.263184%, 92.675781%)" offset="0.292969"/><stop stop-opacity="1" stop-color="rgb(51.113892%, 57.510376%, 92.536926%)" offset="0.296875"/><stop stop-opacity="1" stop-color="rgb(50.669861%, 57.756042%, 92.396545%)" offset="0.300781"/><stop stop-opacity="1" stop-color="rgb(50.22583%, 58.003235%, 92.25769%)" offset="0.304687"/><stop stop-opacity="1" stop-color="rgb(49.781799%, 58.248901%, 92.118835%)" offset="0.308594"/><stop stop-opacity="1" stop-color="rgb(49.339294%, 58.496094%, 91.97998%)" offset="0.3125"/><stop stop-opacity="1" stop-color="rgb(48.895264%, 58.74176%, 91.8396%)" offset="0.316406"/><stop stop-opacity="1" stop-color="rgb(48.451233%, 58.988953%, 91.700745%)" offset="0.320312"/><stop stop-opacity="1" stop-color="rgb(48.007202%, 59.234619%, 91.56189%)" offset="0.324219"/><stop stop-opacity="1" stop-color="rgb(47.564697%, 59.480286%, 91.423035%)" offset="0.328125"/><stop stop-opacity="1" stop-color="rgb(47.120667%, 59.725952%, 91.28418%)" offset="0.332031"/><stop stop-opacity="1" stop-color="rgb(46.678162%, 59.973145%, 91.145325%)" offset="0.335938"/><stop stop-opacity="1" stop-color="rgb(46.234131%, 60.218811%, 91.004944%)" offset="0.339844"/><stop stop-opacity="1" stop-color="rgb(45.7901%, 60.466003%, 90.866089%)" offset="0.34375"/><stop stop-opacity="1" stop-color="rgb(45.346069%, 60.71167%, 90.727234%)" offset="0.347656"/><stop stop-opacity="1" stop-color="rgb(44.903564%, 60.958862%, 90.588379%)" offset="0.351562"/><stop stop-opacity="1" stop-color="rgb(44.459534%, 61.204529%, 90.447998%)" offset="0.355469"/><stop stop-opacity="1" stop-color="rgb(44.015503%, 61.451721%, 90.309143%)" offset="0.359375"/><stop stop-opacity="1" stop-color="rgb(43.571472%, 61.697388%, 90.170288%)" offset="0.363281"/><stop stop-opacity="1" stop-color="rgb(43.128967%, 61.94458%, 90.031433%)" offset="0.367188"/><stop stop-opacity="1" stop-color="rgb(42.684937%, 62.190247%, 89.891052%)" offset="0.371094"/><stop stop-opacity="1" stop-color="rgb(42.242432%, 62.437439%, 89.752197%)" offset="0.375"/><stop stop-opacity="1" stop-color="rgb(41.798401%, 62.683105%, 89.613342%)" offset="0.378906"/><stop stop-opacity="1" stop-color="rgb(41.35437%, 62.930298%, 89.474487%)" offset="0.382812"/><stop stop-opacity="1" stop-color="rgb(40.910339%, 63.175964%, 89.335632%)" offset="0.386719"/><stop stop-opacity="1" stop-color="rgb(40.467834%, 63.423157%, 89.196777%)" offset="0.390625"/><stop stop-opacity="1" stop-color="rgb(40.023804%, 63.668823%, 89.056396%)" offset="0.394531"/><stop stop-opacity="1" stop-color="rgb(39.579773%, 63.916016%, 88.917542%)" offset="0.398438"/><stop stop-opacity="1" stop-color="rgb(39.135742%, 64.161682%, 88.778687%)" offset="0.402344"/><stop stop-opacity="1" stop-color="rgb(38.693237%, 64.408875%, 88.639832%)" offset="0.40625"/><stop stop-opacity="1" stop-color="rgb(38.249207%, 64.654541%, 88.499451%)" offset="0.410156"/><stop stop-opacity="1" stop-color="rgb(37.806702%, 64.901733%, 88.360596%)" offset="0.414062"/><stop stop-opacity="1" stop-color="rgb(37.362671%, 65.1474%, 88.221741%)" offset="0.417969"/><stop stop-opacity="1" stop-color="rgb(36.91864%, 65.393066%, 88.082886%)" offset="0.421875"/><stop stop-opacity="1" stop-color="rgb(36.474609%, 65.638733%, 87.944031%)" offset="0.425781"/><stop stop-opacity="1" stop-color="rgb(36.032104%, 65.885925%, 87.805176%)" offset="0.429687"/><stop stop-opacity="1" stop-color="rgb(35.588074%, 66.131592%, 87.664795%)" offset="0.433594"/><stop stop-opacity="1" stop-color="rgb(35.144043%, 66.378784%, 87.52594%)" offset="0.4375"/><stop stop-opacity="1" stop-color="rgb(34.700012%, 66.624451%, 87.387085%)" offset="0.441406"/><stop stop-opacity="1" stop-color="rgb(34.257507%, 66.871643%, 87.24823%)" offset="0.445312"/><stop stop-opacity="1" stop-color="rgb(33.813477%, 67.11731%, 87.107849%)" offset="0.449219"/><stop stop-opacity="1" stop-color="rgb(33.370972%, 67.364502%, 86.968994%)" offset="0.453125"/><stop stop-opacity="1" stop-color="rgb(32.926941%, 67.610168%, 86.830139%)" offset="0.457031"/><stop stop-opacity="1" stop-color="rgb(32.48291%, 67.857361%, 86.691284%)" offset="0.460937"/><stop stop-opacity="1" stop-color="rgb(32.038879%, 68.103027%, 86.550903%)" offset="0.464844"/><stop stop-opacity="1" stop-color="rgb(31.596375%, 68.35022%, 86.412048%)" offset="0.46875"/><stop stop-opacity="1" stop-color="rgb(31.152344%, 68.595886%, 86.273193%)" offset="0.472656"/><stop stop-opacity="1" stop-color="rgb(30.708313%, 68.843079%, 86.134338%)" offset="0.476562"/><stop stop-opacity="1" stop-color="rgb(30.264282%, 69.088745%, 85.995483%)" offset="0.480469"/><stop stop-opacity="1" stop-color="rgb(29.821777%, 69.335938%, 85.856628%)" offset="0.484375"/><stop stop-opacity="1" stop-color="rgb(29.377747%, 69.581604%, 85.716248%)" offset="0.488281"/><stop stop-opacity="1" stop-color="rgb(28.935242%, 69.828796%, 85.577393%)" offset="0.492187"/><stop stop-opacity="1" stop-color="rgb(28.491211%, 70.074463%, 85.438538%)" offset="0.496094"/><stop stop-opacity="1" stop-color="rgb(28.04718%, 70.321655%, 85.299683%)" offset="0.5"/><stop stop-opacity="1" stop-color="rgb(27.603149%, 70.567322%, 85.159302%)" offset="0.503906"/><stop stop-opacity="1" stop-color="rgb(27.160645%, 70.812988%, 85.020447%)" offset="0.507812"/><stop stop-opacity="1" stop-color="rgb(26.716614%, 71.058655%, 84.881592%)" offset="0.511719"/><stop stop-opacity="1" stop-color="rgb(26.272583%, 71.305847%, 84.742737%)" offset="0.515625"/><stop stop-opacity="1" stop-color="rgb(25.828552%, 71.551514%, 84.603882%)" offset="0.519531"/><stop stop-opacity="1" stop-color="rgb(25.386047%, 71.798706%, 84.465027%)" offset="0.523437"/><stop stop-opacity="1" stop-color="rgb(24.942017%, 72.044373%, 84.324646%)" offset="0.527344"/><stop stop-opacity="1" stop-color="rgb(24.499512%, 72.291565%, 84.185791%)" offset="0.53125"/><stop stop-opacity="1" stop-color="rgb(24.055481%, 72.537231%, 84.046936%)" offset="0.535156"/><stop stop-opacity="1" stop-color="rgb(23.61145%, 72.784424%, 83.908081%)" offset="0.539062"/><stop stop-opacity="1" stop-color="rgb(23.167419%, 73.03009%, 83.7677%)" offset="0.542969"/><stop stop-opacity="1" stop-color="rgb(22.724915%, 73.277283%, 83.628845%)" offset="0.546875"/><stop stop-opacity="1" stop-color="rgb(22.280884%, 73.522949%, 83.48999%)" offset="0.550781"/><stop stop-opacity="1" stop-color="rgb(21.836853%, 73.770142%, 83.351135%)" offset="0.554687"/><stop stop-opacity="1" stop-color="rgb(21.392822%, 74.015808%, 83.21228%)" offset="0.558594"/><stop stop-opacity="1" stop-color="rgb(20.950317%, 74.263%, 83.073425%)" offset="0.5625"/><stop stop-opacity="1" stop-color="rgb(20.506287%, 74.508667%, 82.933044%)" offset="0.566406"/><stop stop-opacity="1" stop-color="rgb(20.063782%, 74.755859%, 82.794189%)" offset="0.570312"/><stop stop-opacity="1" stop-color="rgb(19.619751%, 75.001526%, 82.655334%)" offset="0.574219"/><stop stop-opacity="1" stop-color="rgb(19.17572%, 75.248718%, 82.516479%)" offset="0.578125"/><stop stop-opacity="1" stop-color="rgb(18.731689%, 75.494385%, 82.376099%)" offset="0.582031"/><stop stop-opacity="1" stop-color="rgb(18.289185%, 75.741577%, 82.237244%)" offset="0.585937"/><stop stop-opacity="1" stop-color="rgb(17.845154%, 75.987244%, 82.098389%)" offset="0.589844"/><stop stop-opacity="1" stop-color="rgb(17.401123%, 76.234436%, 81.959534%)" offset="0.59375"/><stop stop-opacity="1" stop-color="rgb(16.957092%, 76.480103%, 81.819153%)" offset="0.597656"/><stop stop-opacity="1" stop-color="rgb(16.514587%, 76.725769%, 81.680298%)" offset="0.601562"/><stop stop-opacity="1" stop-color="rgb(16.070557%, 76.971436%, 81.541443%)" offset="0.605469"/><stop stop-opacity="1" stop-color="rgb(15.628052%, 77.218628%, 81.402588%)" offset="0.609375"/><stop stop-opacity="1" stop-color="rgb(15.184021%, 77.464294%, 81.263733%)" offset="0.613281"/><stop stop-opacity="1" stop-color="rgb(14.73999%, 77.711487%, 81.124878%)" offset="0.617188"/><stop stop-opacity="1" stop-color="rgb(14.295959%, 77.957153%, 80.984497%)" offset="0.621094"/><stop stop-opacity="1" stop-color="rgb(13.853455%, 78.204346%, 80.845642%)" offset="0.625"/><stop stop-opacity="1" stop-color="rgb(13.409424%, 78.450012%, 80.706787%)" offset="0.628906"/><stop stop-opacity="1" stop-color="rgb(12.965393%, 78.697205%, 80.567932%)" offset="0.632812"/><stop stop-opacity="1" stop-color="rgb(12.521362%, 78.942871%, 80.427551%)" offset="0.636719"/><stop stop-opacity="1" stop-color="rgb(12.078857%, 79.190063%, 80.288696%)" offset="0.640625"/><stop stop-opacity="1" stop-color="rgb(11.634827%, 79.43573%, 80.149841%)" offset="0.644531"/><stop stop-opacity="1" stop-color="rgb(11.192322%, 79.682922%, 80.010986%)" offset="0.648438"/><stop stop-opacity="1" stop-color="rgb(10.748291%, 79.928589%, 79.872131%)" offset="0.652344"/><stop stop-opacity="1" stop-color="rgb(10.30426%, 80.175781%, 79.733276%)" offset="0.65625"/><stop stop-opacity="1" stop-color="rgb(9.860229%, 80.421448%, 79.592896%)" offset="0.660156"/><stop stop-opacity="1" stop-color="rgb(9.417725%, 80.66864%, 79.454041%)" offset="0.664062"/><stop stop-opacity="1" stop-color="rgb(8.973694%, 80.914307%, 79.315186%)" offset="0.667969"/><stop stop-opacity="1" stop-color="rgb(8.529663%, 81.161499%, 79.176331%)" offset="0.671875"/><stop stop-opacity="1" stop-color="rgb(8.085632%, 81.407166%, 79.03595%)" offset="0.675781"/><stop stop-opacity="1" stop-color="rgb(7.643127%, 81.654358%, 78.897095%)" offset="0.679688"/><stop stop-opacity="1" stop-color="rgb(7.199097%, 81.900024%, 78.75824%)" offset="0.683594"/><stop stop-opacity="1" stop-color="rgb(6.756592%, 82.145691%, 78.619385%)" offset="0.6875"/><stop stop-opacity="1" stop-color="rgb(6.312561%, 82.391357%, 78.479004%)" offset="0.691406"/><stop stop-opacity="1" stop-color="rgb(5.86853%, 82.63855%, 78.340149%)" offset="0.695312"/><stop stop-opacity="1" stop-color="rgb(5.4245%, 82.884216%, 78.201294%)" offset="0.699219"/><stop stop-opacity="1" stop-color="rgb(4.981995%, 83.131409%, 78.062439%)" offset="0.703125"/><stop stop-opacity="1" stop-color="rgb(4.537964%, 83.377075%, 77.923584%)" offset="0.707031"/><stop stop-opacity="1" stop-color="rgb(4.093933%, 83.624268%, 77.784729%)" offset="0.710938"/><stop stop-opacity="1" stop-color="rgb(3.649902%, 83.869934%, 77.644348%)" offset="0.714844"/><stop stop-opacity="1" stop-color="rgb(3.207397%, 84.117126%, 77.505493%)" offset="0.71875"/><stop stop-opacity="1" stop-color="rgb(2.763367%, 84.362793%, 77.366638%)" offset="0.722656"/><stop stop-opacity="1" stop-color="rgb(2.320862%, 84.609985%, 77.227783%)" offset="0.726562"/><stop stop-opacity="1" stop-color="rgb(1.876831%, 84.855652%, 77.087402%)" offset="0.730469"/><stop stop-opacity="1" stop-color="rgb(1.4328%, 85.102844%, 76.948547%)" offset="0.734375"/><stop stop-opacity="1" stop-color="rgb(0.98877%, 85.348511%, 76.809692%)" offset="0.738281"/><stop stop-opacity="1" stop-color="rgb(0.546265%, 85.595703%, 76.670837%)" offset="0.742187"/><stop stop-opacity="1" stop-color="rgb(0.273132%, 85.746765%, 76.585388%)" offset="0.746094"/><stop stop-opacity="1" stop-color="rgb(0%, 85.899353%, 76.499939%)" offset="0.75"/><stop stop-opacity="1" stop-color="rgb(0%, 85.899353%, 76.499939%)" offset="1"/></linearGradient><clipPath id="4447caa29e"><path d="M 255 0 L 375 0 L 375 374.925781 L 255 374.925781 Z M 255 0 " clip-rule="nonzero"/></clipPath><clipPath id="4f6b741701"><path d="M 424.785156 -3.085938 L 612.210938 -4.328125 L 442.515625 185.179688 L 612.210938 374.683594 L 424.785156 373.441406 L 255.089844 185.179688 Z M 424.785156 -3.085938 " clip-rule="nonzero"/></clipPath><linearGradient x1="57.550016" gradientTransform="matrix(-1.224, 0, 0, 1.224195, 612.21093, -4.32812)" y1="135.709697" x2="258.008584" gradientUnits="userSpaceOnUse" y2="342.349377" id="6f889fe9a9"><stop stop-opacity="1" stop-color="rgb(48.58551%, 58.914185%, 91.743469%)" offset="0"/><stop stop-opacity="1" stop-color="rgb(48.283386%, 59.082031%, 91.648865%)" offset="0.00390625"/><stop stop-opacity="1" stop-color="rgb(47.981262%, 59.249878%, 91.55426%)" offset="0.0078125"/><stop stop-opacity="1" stop-color="rgb(47.679138%, 59.417725%, 91.459656%)" offset="0.0117187"/><stop stop-opacity="1" stop-color="rgb(47.377014%, 59.585571%, 91.365051%)" offset="0.015625"/><stop stop-opacity="1" stop-color="rgb(47.07489%, 59.751892%, 91.268921%)" offset="0.0195313"/><stop stop-opacity="1" stop-color="rgb(46.774292%, 59.919739%, 91.174316%)" offset="0.0234375"/><stop stop-opacity="1" stop-color="rgb(46.472168%, 60.087585%, 91.079712%)" offset="0.0273437"/><stop stop-opacity="1" stop-color="rgb(46.170044%, 60.255432%, 90.985107%)" offset="0.03125"/><stop stop-opacity="1" stop-color="rgb(45.86792%, 60.423279%, 90.890503%)" offset="0.0351562"/><stop stop-opacity="1" stop-color="rgb(45.565796%, 60.591125%, 90.795898%)" offset="0.0390625"/><stop stop-opacity="1" stop-color="rgb(45.263672%, 60.758972%, 90.701294%)" offset="0.0429688"/><stop stop-opacity="1" stop-color="rgb(44.961548%, 60.926819%, 90.606689%)" offset="0.046875"/><stop stop-opacity="1" stop-color="rgb(44.659424%, 61.094666%, 90.512085%)" offset="0.0507812"/><stop stop-opacity="1" stop-color="rgb(44.3573%, 61.262512%, 90.41748%)" offset="0.0546875"/><stop stop-opacity="1" stop-color="rgb(44.055176%, 61.430359%, 90.32135%)" offset="0.0585937"/><stop stop-opacity="1" stop-color="rgb(43.753052%, 61.598206%, 90.226746%)" offset="0.0625"/><stop stop-opacity="1" stop-color="rgb(43.450928%, 61.766052%, 90.132141%)" offset="0.0664062"/><stop stop-opacity="1" stop-color="rgb(43.148804%, 61.933899%, 90.037537%)" offset="0.0703125"/><stop stop-opacity="1" stop-color="rgb(42.84668%, 62.10022%, 89.942932%)" offset="0.0742187"/><stop stop-opacity="1" stop-color="rgb(42.546082%, 62.268066%, 89.848328%)" offset="0.078125"/><stop stop-opacity="1" stop-color="rgb(42.243958%, 62.435913%, 89.753723%)" offset="0.0820312"/><stop stop-opacity="1" stop-color="rgb(41.941833%, 62.60376%, 89.659119%)" offset="0.0859375"/><stop stop-opacity="1" stop-color="rgb(41.639709%, 62.771606%, 89.564514%)" offset="0.0898437"/><stop stop-opacity="1" stop-color="rgb(41.337585%, 62.939453%, 89.46991%)" offset="0.09375"/><stop stop-opacity="1" stop-color="rgb(41.035461%, 63.1073%, 89.373779%)" offset="0.0976562"/><stop stop-opacity="1" stop-color="rgb(40.733337%, 63.275146%, 89.279175%)" offset="0.101562"/><stop stop-opacity="1" stop-color="rgb(40.431213%, 63.442993%, 89.18457%)" offset="0.105469"/><stop stop-opacity="1" stop-color="rgb(40.129089%, 63.61084%, 89.089966%)" offset="0.109375"/><stop stop-opacity="1" stop-color="rgb(39.826965%, 63.778687%, 88.995361%)" offset="0.113281"/><stop stop-opacity="1" stop-color="rgb(39.524841%, 63.946533%, 88.900757%)" offset="0.117187"/><stop stop-opacity="1" stop-color="rgb(39.222717%, 64.11438%, 88.806152%)" offset="0.121094"/><stop stop-opacity="1" stop-color="rgb(38.920593%, 64.282227%, 88.711548%)" offset="0.125"/><stop stop-opacity="1" stop-color="rgb(38.618469%, 64.448547%, 88.616943%)" offset="0.128906"/><stop stop-opacity="1" stop-color="rgb(38.317871%, 64.616394%, 88.522339%)" offset="0.132812"/><stop stop-opacity="1" stop-color="rgb(38.015747%, 64.784241%, 88.426208%)" offset="0.136719"/><stop stop-opacity="1" stop-color="rgb(37.713623%, 64.952087%, 88.331604%)" offset="0.140625"/><stop stop-opacity="1" stop-color="rgb(37.411499%, 65.119934%, 88.237%)" offset="0.144531"/><stop stop-opacity="1" stop-color="rgb(37.109375%, 65.287781%, 88.142395%)" offset="0.148437"/><stop stop-opacity="1" stop-color="rgb(36.807251%, 65.455627%, 88.047791%)" offset="0.152344"/><stop stop-opacity="1" stop-color="rgb(36.505127%, 65.623474%, 87.953186%)" offset="0.15625"/><stop stop-opacity="1" stop-color="rgb(36.203003%, 65.791321%, 87.858582%)" offset="0.160156"/><stop stop-opacity="1" stop-color="rgb(35.900879%, 65.959167%, 87.763977%)" offset="0.164062"/><stop stop-opacity="1" stop-color="rgb(35.598755%, 66.127014%, 87.669373%)" offset="0.167969"/><stop stop-opacity="1" stop-color="rgb(35.296631%, 66.294861%, 87.574768%)" offset="0.171875"/><stop stop-opacity="1" stop-color="rgb(34.994507%, 66.462708%, 87.478638%)" offset="0.175781"/><stop stop-opacity="1" stop-color="rgb(34.692383%, 66.630554%, 87.384033%)" offset="0.179687"/><stop stop-opacity="1" stop-color="rgb(34.390259%, 66.798401%, 87.289429%)" offset="0.183594"/><stop stop-opacity="1" stop-color="rgb(34.089661%, 66.966248%, 87.194824%)" offset="0.1875"/><stop stop-opacity="1" stop-color="rgb(33.787537%, 67.132568%, 87.10022%)" offset="0.191406"/><stop stop-opacity="1" stop-color="rgb(33.485413%, 67.300415%, 87.005615%)" offset="0.195313"/><stop stop-opacity="1" stop-color="rgb(33.183289%, 67.468262%, 86.911011%)" offset="0.199219"/><stop stop-opacity="1" stop-color="rgb(32.881165%, 67.636108%, 86.816406%)" offset="0.203125"/><stop stop-opacity="1" stop-color="rgb(32.579041%, 67.803955%, 86.721802%)" offset="0.207031"/><stop stop-opacity="1" stop-color="rgb(32.276917%, 67.971802%, 86.627197%)" offset="0.210937"/><stop stop-opacity="1" stop-color="rgb(31.974792%, 68.139648%, 86.531067%)" offset="0.214844"/><stop stop-opacity="1" stop-color="rgb(31.672668%, 68.307495%, 86.436462%)" offset="0.21875"/><stop stop-opacity="1" stop-color="rgb(31.370544%, 68.475342%, 86.341858%)" offset="0.222656"/><stop stop-opacity="1" stop-color="rgb(31.06842%, 68.643188%, 86.247253%)" offset="0.226562"/><stop stop-opacity="1" stop-color="rgb(30.766296%, 68.811035%, 86.152649%)" offset="0.230469"/><stop stop-opacity="1" stop-color="rgb(30.464172%, 68.978882%, 86.058044%)" offset="0.234375"/><stop stop-opacity="1" stop-color="rgb(30.162048%, 69.146729%, 85.96344%)" offset="0.238281"/><stop stop-opacity="1" stop-color="rgb(29.86145%, 69.314575%, 85.868835%)" offset="0.242188"/><stop stop-opacity="1" stop-color="rgb(29.559326%, 69.480896%, 85.774231%)" offset="0.246094"/><stop stop-opacity="1" stop-color="rgb(29.257202%, 69.648743%, 85.679626%)" offset="0.25"/><stop stop-opacity="1" stop-color="rgb(28.955078%, 69.816589%, 85.583496%)" offset="0.253906"/><stop stop-opacity="1" stop-color="rgb(28.652954%, 69.984436%, 85.488892%)" offset="0.257812"/><stop stop-opacity="1" stop-color="rgb(28.35083%, 70.152283%, 85.394287%)" offset="0.261719"/><stop stop-opacity="1" stop-color="rgb(28.048706%, 70.320129%, 85.299683%)" offset="0.265625"/><stop stop-opacity="1" stop-color="rgb(27.746582%, 70.487976%, 85.205078%)" offset="0.269531"/><stop stop-opacity="1" stop-color="rgb(27.444458%, 70.655823%, 85.110474%)" offset="0.273438"/><stop stop-opacity="1" stop-color="rgb(27.142334%, 70.823669%, 85.015869%)" offset="0.277344"/><stop stop-opacity="1" stop-color="rgb(26.84021%, 70.991516%, 84.921265%)" offset="0.28125"/><stop stop-opacity="1" stop-color="rgb(26.538086%, 71.159363%, 84.82666%)" offset="0.285156"/><stop stop-opacity="1" stop-color="rgb(26.237488%, 71.327209%, 84.732056%)" offset="0.289062"/><stop stop-opacity="1" stop-color="rgb(25.935364%, 71.495056%, 84.635925%)" offset="0.292969"/><stop stop-opacity="1" stop-color="rgb(25.63324%, 71.662903%, 84.541321%)" offset="0.296875"/><stop stop-opacity="1" stop-color="rgb(25.331116%, 71.829224%, 84.446716%)" offset="0.300781"/><stop stop-opacity="1" stop-color="rgb(25.028992%, 71.99707%, 84.352112%)" offset="0.304687"/><stop stop-opacity="1" stop-color="rgb(24.726868%, 72.164917%, 84.257507%)" offset="0.308594"/><stop stop-opacity="1" stop-color="rgb(24.424744%, 72.332764%, 84.162903%)" offset="0.3125"/><stop stop-opacity="1" stop-color="rgb(24.12262%, 72.50061%, 84.068298%)" offset="0.316406"/><stop stop-opacity="1" stop-color="rgb(23.820496%, 72.668457%, 83.973694%)" offset="0.320313"/><stop stop-opacity="1" stop-color="rgb(23.518372%, 72.836304%, 83.879089%)" offset="0.324219"/><stop stop-opacity="1" stop-color="rgb(23.216248%, 73.00415%, 83.784485%)" offset="0.328125"/><stop stop-opacity="1" stop-color="rgb(22.914124%, 73.171997%, 83.688354%)" offset="0.332031"/><stop stop-opacity="1" stop-color="rgb(22.612%, 73.339844%, 83.59375%)" offset="0.335938"/><stop stop-opacity="1" stop-color="rgb(22.309875%, 73.50769%, 83.499146%)" offset="0.339844"/><stop stop-opacity="1" stop-color="rgb(22.009277%, 73.675537%, 83.404541%)" offset="0.34375"/><stop stop-opacity="1" stop-color="rgb(21.707153%, 73.843384%, 83.309937%)" offset="0.347656"/><stop stop-opacity="1" stop-color="rgb(21.405029%, 74.01123%, 83.215332%)" offset="0.351563"/><stop stop-opacity="1" stop-color="rgb(21.102905%, 74.177551%, 83.120728%)" offset="0.355469"/><stop stop-opacity="1" stop-color="rgb(20.800781%, 74.345398%, 83.026123%)" offset="0.359375"/><stop stop-opacity="1" stop-color="rgb(20.498657%, 74.513245%, 82.931519%)" offset="0.363281"/><stop stop-opacity="1" stop-color="rgb(20.196533%, 74.681091%, 82.836914%)" offset="0.367188"/><stop stop-opacity="1" stop-color="rgb(19.894409%, 74.848938%, 82.740784%)" offset="0.371094"/><stop stop-opacity="1" stop-color="rgb(19.592285%, 75.016785%, 82.646179%)" offset="0.375"/><stop stop-opacity="1" stop-color="rgb(19.290161%, 75.184631%, 82.551575%)" offset="0.378906"/><stop stop-opacity="1" stop-color="rgb(18.988037%, 75.352478%, 82.45697%)" offset="0.382812"/><stop stop-opacity="1" stop-color="rgb(18.685913%, 75.520325%, 82.362366%)" offset="0.386719"/><stop stop-opacity="1" stop-color="rgb(18.383789%, 75.688171%, 82.267761%)" offset="0.390625"/><stop stop-opacity="1" stop-color="rgb(18.081665%, 75.856018%, 82.173157%)" offset="0.394531"/><stop stop-opacity="1" stop-color="rgb(17.781067%, 76.023865%, 82.078552%)" offset="0.398438"/><stop stop-opacity="1" stop-color="rgb(17.478943%, 76.191711%, 81.982422%)" offset="0.402344"/><stop stop-opacity="1" stop-color="rgb(17.176819%, 76.359558%, 81.887817%)" offset="0.40625"/><stop stop-opacity="1" stop-color="rgb(16.874695%, 76.525879%, 81.793213%)" offset="0.410156"/><stop stop-opacity="1" stop-color="rgb(16.572571%, 76.693726%, 81.698608%)" offset="0.414063"/><stop stop-opacity="1" stop-color="rgb(16.270447%, 76.861572%, 81.604004%)" offset="0.417969"/><stop stop-opacity="1" stop-color="rgb(15.968323%, 77.029419%, 81.509399%)" offset="0.421875"/><stop stop-opacity="1" stop-color="rgb(15.666199%, 77.197266%, 81.414795%)" offset="0.425781"/><stop stop-opacity="1" stop-color="rgb(15.364075%, 77.365112%, 81.32019%)" offset="0.429687"/><stop stop-opacity="1" stop-color="rgb(15.061951%, 77.532959%, 81.225586%)" offset="0.433594"/><stop stop-opacity="1" stop-color="rgb(14.759827%, 77.700806%, 81.130981%)" offset="0.4375"/><stop stop-opacity="1" stop-color="rgb(14.457703%, 77.868652%, 81.034851%)" offset="0.441406"/><stop stop-opacity="1" stop-color="rgb(14.155579%, 78.036499%, 80.940247%)" offset="0.445313"/><stop stop-opacity="1" stop-color="rgb(13.853455%, 78.204346%, 80.845642%)" offset="0.449219"/><stop stop-opacity="1" stop-color="rgb(13.552856%, 78.372192%, 80.751038%)" offset="0.453125"/><stop stop-opacity="1" stop-color="rgb(13.250732%, 78.540039%, 80.656433%)" offset="0.457031"/><stop stop-opacity="1" stop-color="rgb(12.948608%, 78.707886%, 80.561829%)" offset="0.460938"/><stop stop-opacity="1" stop-color="rgb(12.646484%, 78.874207%, 80.467224%)" offset="0.464844"/><stop stop-opacity="1" stop-color="rgb(12.34436%, 79.042053%, 80.37262%)" offset="0.46875"/><stop stop-opacity="1" stop-color="rgb(12.042236%, 79.2099%, 80.278015%)" offset="0.472656"/><stop stop-opacity="1" stop-color="rgb(11.740112%, 79.377747%, 80.183411%)" offset="0.476563"/><stop stop-opacity="1" stop-color="rgb(11.437988%, 79.545593%, 80.08728%)" offset="0.480469"/><stop stop-opacity="1" stop-color="rgb(11.135864%, 79.71344%, 79.992676%)" offset="0.484375"/><stop stop-opacity="1" stop-color="rgb(10.83374%, 79.881287%, 79.898071%)" offset="0.488281"/><stop stop-opacity="1" stop-color="rgb(10.531616%, 80.049133%, 79.803467%)" offset="0.492188"/><stop stop-opacity="1" stop-color="rgb(10.229492%, 80.21698%, 79.708862%)" offset="0.496094"/><stop stop-opacity="1" stop-color="rgb(9.927368%, 80.384827%, 79.614258%)" offset="0.5"/><stop stop-opacity="1" stop-color="rgb(9.625244%, 80.552673%, 79.519653%)" offset="0.503906"/><stop stop-opacity="1" stop-color="rgb(9.324646%, 80.72052%, 79.425049%)" offset="0.507812"/><stop stop-opacity="1" stop-color="rgb(9.022522%, 80.888367%, 79.330444%)" offset="0.511719"/><stop stop-opacity="1" stop-color="rgb(8.720398%, 81.056213%, 79.23584%)" offset="0.515625"/><stop stop-opacity="1" stop-color="rgb(8.418274%, 81.22406%, 79.139709%)" offset="0.519531"/><stop stop-opacity="1" stop-color="rgb(8.11615%, 81.391907%, 79.045105%)" offset="0.523438"/><stop stop-opacity="1" stop-color="rgb(7.814026%, 81.558228%, 78.9505%)" offset="0.527344"/><stop stop-opacity="1" stop-color="rgb(7.511902%, 81.726074%, 78.855896%)" offset="0.53125"/><stop stop-opacity="1" stop-color="rgb(7.209778%, 81.893921%, 78.761292%)" offset="0.535156"/><stop stop-opacity="1" stop-color="rgb(6.907654%, 82.061768%, 78.666687%)" offset="0.539062"/><stop stop-opacity="1" stop-color="rgb(6.60553%, 82.229614%, 78.572083%)" offset="0.542969"/><stop stop-opacity="1" stop-color="rgb(6.303406%, 82.397461%, 78.477478%)" offset="0.546875"/><stop stop-opacity="1" stop-color="rgb(6.001282%, 82.565308%, 78.382874%)" offset="0.550781"/><stop stop-opacity="1" stop-color="rgb(5.699158%, 82.733154%, 78.288269%)" offset="0.554688"/><stop stop-opacity="1" stop-color="rgb(5.397034%, 82.901001%, 78.192139%)" offset="0.558594"/><stop stop-opacity="1" stop-color="rgb(5.096436%, 83.068848%, 78.097534%)" offset="0.5625"/><stop stop-opacity="1" stop-color="rgb(4.794312%, 83.236694%, 78.00293%)" offset="0.566406"/><stop stop-opacity="1" stop-color="rgb(4.492188%, 83.404541%, 77.908325%)" offset="0.570313"/><stop stop-opacity="1" stop-color="rgb(4.190063%, 83.572388%, 77.813721%)" offset="0.574219"/><stop stop-opacity="1" stop-color="rgb(3.887939%, 83.740234%, 77.719116%)" offset="0.578125"/><stop stop-opacity="1" stop-color="rgb(3.585815%, 83.906555%, 77.624512%)" offset="0.582031"/><stop stop-opacity="1" stop-color="rgb(3.283691%, 84.074402%, 77.529907%)" offset="0.585938"/><stop stop-opacity="1" stop-color="rgb(2.981567%, 84.242249%, 77.435303%)" offset="0.589844"/><stop stop-opacity="1" stop-color="rgb(2.679443%, 84.410095%, 77.340698%)" offset="0.59375"/><stop stop-opacity="1" stop-color="rgb(2.377319%, 84.577942%, 77.244568%)" offset="0.597656"/><stop stop-opacity="1" stop-color="rgb(2.075195%, 84.745789%, 77.149963%)" offset="0.601562"/><stop stop-opacity="1" stop-color="rgb(1.773071%, 84.913635%, 77.055359%)" offset="0.605469"/><stop stop-opacity="1" stop-color="rgb(1.470947%, 85.081482%, 76.960754%)" offset="0.609375"/><stop stop-opacity="1" stop-color="rgb(1.168823%, 85.249329%, 76.86615%)" offset="0.613281"/><stop stop-opacity="1" stop-color="rgb(0.868225%, 85.417175%, 76.771545%)" offset="0.617188"/><stop stop-opacity="1" stop-color="rgb(0.566101%, 85.585022%, 76.676941%)" offset="0.621094"/><stop stop-opacity="1" stop-color="rgb(0.263977%, 85.752869%, 76.582336%)" offset="0.625"/><stop stop-opacity="1" stop-color="rgb(0.131226%, 85.826111%, 76.541138%)" offset="0.75"/><stop stop-opacity="1" stop-color="rgb(0%, 85.899353%, 76.499939%)" offset="0.763063"/><stop stop-opacity="1" stop-color="rgb(0%, 85.899353%, 76.499939%)" offset="1"/></linearGradient><clipPath id="64b38620a6"><path d="M 13.339844 110.425781 L 310.339844 110.425781 L 310.339844 375 L 13.339844 375 Z M 13.339844 110.425781 " clip-rule="nonzero"/></clipPath></defs><rect x="-37.5" width="450" fill="#ffffff" y="-37.499999" height="449.999989" fill-opacity="1"/><rect x="-37.5" width="450" fill="#efeded" y="-37.499999" height="449.999989" fill-opacity="1"/><g clip-path="url(#78b546f236)"><g clip-path="url(#65a2460c00)"><path fill="url(#aa05f8aaef)" d="M 357.332031 0 L 357.332031 374.683594 L 0.210938 374.683594 L 0.210938 0 Z M 357.332031 0 " fill-rule="nonzero"/></g></g><g clip-path="url(#4447caa29e)"><g clip-path="url(#4f6b741701)"><path fill="url(#6f889fe9a9)" d="M 375 0 L 375 374.683594 L 255.089844 374.683594 L 255.089844 0 Z M 375 0 " fill-rule="nonzero"/></g></g><g clip-path="url(#64b38620a6)"><path fill="#efeded" d="M 287.296875 264.203125 L 275.6875 264.203125 L 275.6875 252.574219 L 287.296875 252.574219 Z M 287.296875 281.359375 L 275.6875 281.359375 L 275.6875 269.726562 L 287.296875 269.726562 Z M 287.296875 299.519531 L 275.6875 299.519531 L 275.6875 287.890625 L 287.296875 287.890625 Z M 287.296875 316.675781 L 275.6875 316.675781 L 275.6875 305.042969 L 287.296875 305.042969 Z M 287.296875 334.839844 L 275.6875 334.839844 L 275.6875 323.210938 L 287.296875 323.210938 Z M 269.351562 264.203125 L 257.738281 264.203125 L 257.738281 252.574219 L 269.351562 252.574219 Z M 269.351562 281.359375 L 257.738281 281.359375 L 257.738281 269.726562 L 269.351562 269.726562 Z M 269.351562 299.519531 L 257.738281 299.519531 L 257.738281 287.890625 L 269.351562 287.890625 Z M 269.351562 316.675781 L 257.738281 316.675781 L 257.738281 305.042969 L 269.351562 305.042969 Z M 269.351562 334.839844 L 257.738281 334.839844 L 257.738281 323.210938 L 269.351562 323.210938 Z M 241.042969 158.25 L 229.429688 158.25 L 229.429688 146.621094 L 241.042969 146.621094 Z M 241.042969 175.40625 L 229.429688 175.40625 L 229.429688 163.773438 L 241.042969 163.773438 Z M 241.042969 193.570312 L 229.429688 193.570312 L 229.429688 181.9375 L 241.042969 181.9375 Z M 241.042969 210.722656 L 229.429688 210.722656 L 229.429688 199.09375 L 241.042969 199.09375 Z M 241.042969 228.886719 L 229.429688 228.886719 L 229.429688 217.253906 L 241.042969 217.253906 Z M 241.042969 246.039062 L 229.429688 246.039062 L 229.429688 234.410156 L 241.042969 234.410156 Z M 241.042969 264.203125 L 229.429688 264.203125 L 229.429688 252.574219 L 241.042969 252.574219 Z M 241.042969 281.359375 L 229.429688 281.359375 L 229.429688 269.726562 L 241.042969 269.726562 Z M 241.042969 299.519531 L 229.429688 299.519531 L 229.429688 287.890625 L 241.042969 287.890625 Z M 241.042969 316.675781 L 229.429688 316.675781 L 229.429688 305.042969 L 241.042969 305.042969 Z M 241.042969 334.839844 L 229.429688 334.839844 L 229.429688 323.210938 L 241.042969 323.210938 Z M 241.042969 351.996094 L 229.429688 351.996094 L 229.429688 340.363281 L 241.042969 340.363281 Z M 223.09375 158.25 L 211.484375 158.25 L 211.484375 146.621094 L 223.09375 146.621094 Z M 223.09375 175.40625 L 211.484375 175.40625 L 211.484375 163.773438 L 223.09375 163.773438 Z M 223.09375 193.570312 L 211.484375 193.570312 L 211.484375 181.9375 L 223.09375 181.9375 Z M 223.09375 210.722656 L 211.484375 210.722656 L 211.484375 199.09375 L 223.09375 199.09375 Z M 223.09375 228.886719 L 211.484375 228.886719 L 211.484375 217.253906 L 223.09375 217.253906 Z M 223.09375 246.039062 L 211.484375 246.039062 L 211.484375 234.410156 L 223.09375 234.410156 Z M 223.09375 264.203125 L 211.484375 264.203125 L 211.484375 252.574219 L 223.09375 252.574219 Z M 223.09375 281.359375 L 211.484375 281.359375 L 211.484375 269.726562 L 223.09375 269.726562 Z M 223.09375 299.519531 L 211.484375 299.519531 L 211.484375 287.890625 L 223.09375 287.890625 Z M 223.09375 316.675781 L 211.484375 316.675781 L 211.484375 305.042969 L 223.09375 305.042969 Z M 223.09375 334.839844 L 211.484375 334.839844 L 211.484375 323.210938 L 223.09375 323.210938 Z M 223.09375 351.996094 L 211.484375 351.996094 L 211.484375 340.363281 L 223.09375 340.363281 Z M 203.902344 158.25 L 192.292969 158.25 L 192.292969 146.621094 L 203.902344 146.621094 Z M 203.902344 175.40625 L 192.292969 175.40625 L 192.292969 163.773438 L 203.902344 163.773438 Z M 203.902344 193.570312 L 192.292969 193.570312 L 192.292969 181.9375 L 203.902344 181.9375 Z M 203.902344 210.722656 L 192.292969 210.722656 L 192.292969 199.09375 L 203.902344 199.09375 Z M 203.902344 228.886719 L 192.292969 228.886719 L 192.292969 217.253906 L 203.902344 217.253906 Z M 203.902344 246.039062 L 192.292969 246.039062 L 192.292969 234.410156 L 203.902344 234.410156 Z M 203.902344 264.203125 L 192.292969 264.203125 L 192.292969 252.574219 L 203.902344 252.574219 Z M 203.902344 281.359375 L 192.292969 281.359375 L 192.292969 269.726562 L 203.902344 269.726562 Z M 203.902344 299.519531 L 192.292969 299.519531 L 192.292969 287.890625 L 203.902344 287.890625 Z M 203.902344 316.675781 L 192.292969 316.675781 L 192.292969 305.042969 L 203.902344 305.042969 Z M 203.902344 334.839844 L 192.292969 334.839844 L 192.292969 323.210938 L 203.902344 323.210938 Z M 203.902344 351.996094 L 192.292969 351.996094 L 192.292969 340.363281 L 203.902344 340.363281 Z M 185.957031 158.25 L 174.34375 158.25 L 174.34375 146.621094 L 185.957031 146.621094 Z M 185.957031 175.40625 L 174.34375 175.40625 L 174.34375 163.773438 L 185.957031 163.773438 Z M 185.957031 193.570312 L 174.34375 193.570312 L 174.34375 181.9375 L 185.957031 181.9375 Z M 185.957031 210.722656 L 174.34375 210.722656 L 174.34375 199.09375 L 185.957031 199.09375 Z M 185.957031 228.886719 L 174.34375 228.886719 L 174.34375 217.253906 L 185.957031 217.253906 Z M 185.957031 246.039062 L 174.34375 246.039062 L 174.34375 234.410156 L 185.957031 234.410156 Z M 185.957031 264.203125 L 174.34375 264.203125 L 174.34375 252.574219 L 185.957031 252.574219 Z M 185.957031 281.359375 L 174.34375 281.359375 L 174.34375 269.726562 L 185.957031 269.726562 Z M 116.328125 341.847656 L 110.972656 294.410156 L 104.664062 294.582031 L 98.34375 294.410156 L 93.265625 341.847656 L 78.140625 268.953125 C 83.953125 271.945312 91.449219 274.855469 99.84375 275.925781 C 97.976562 277.511719 96.761719 279.878906 96.761719 282.570312 C 96.761719 287.355469 100.535156 291.242188 105.1875 291.242188 C 109.847656 291.242188 113.617188 287.355469 113.617188 282.570312 C 113.617188 280.023438 112.535156 277.761719 110.835938 276.175781 C 119.097656 275.453125 126.671875 271.898438 132.894531 268.953125 Z M 304.246094 364.929688 L 299.859375 364.929688 L 299.859375 237.128906 C 299.859375 235.121094 298.234375 233.492188 296.230469 233.492188 L 253.898438 233.492188 L 253.898438 114.378906 C 253.898438 112.375 252.273438 110.746094 250.269531 110.746094 L 169.574219 110.691406 L 169.570312 110.691406 C 168.613281 110.691406 167.6875 111.078125 167.007812 111.757812 C 166.328125 112.4375 165.945312 113.363281 165.945312 114.328125 L 165.945312 280.863281 C 157.550781 275.191406 145.1875 268.386719 135.925781 263.492188 C 151.894531 252.363281 161.585938 233.378906 161.585938 212.515625 C 161.585938 179.019531 136.4375 151.773438 105.523438 151.773438 C 74.605469 151.773438 49.457031 179.019531 49.457031 212.515625 C 49.457031 233.378906 59.148438 252.363281 75.113281 263.492188 C 64.546875 269.074219 49.941406 277.148438 41.796875 283.1875 C 26.734375 294.355469 23.980469 304.734375 23.980469 321.15625 L 23.980469 364.929688 L 19.433594 364.929688 C 16.066406 364.929688 13.332031 367.667969 13.332031 371.042969 C 13.332031 374.417969 16.066406 377.15625 19.433594 377.15625 L 304.246094 377.15625 C 307.617188 377.15625 310.351562 374.417969 310.351562 371.042969 C 310.351562 367.667969 307.617188 364.929688 304.246094 364.929688 " fill-opacity="1" fill-rule="nonzero"/></g><g fill="#5564e8" fill-opacity="1"><g transform="translate(206.138752, 186.780505)"><g><path d="M 9.367188 10.972656 C 13.367188 15.371094 19.285156 16.519531 24.3125 13.933594 L 22.121094 11.527344 C 18.554688 13.066406 14.515625 12.058594 11.714844 8.976562 C 8.039062 4.9375 8.351562 -0.597656 12.546875 -4.410156 C 16.738281 -8.226562 22.277344 -8.011719 25.953125 -3.972656 C 28.683594 -0.972656 29.316406 2.949219 27.546875 6.257812 L 29.761719 8.691406 C 32.664062 3.875 32.042969 -1.851562 28.160156 -6.125 C 23.308594 -11.457031 15.886719 -11.710938 10.425781 -6.742188 C 4.964844 -1.773438 4.515625 5.640625 9.367188 10.972656 Z M 9.367188 10.972656 "/></g></g></g><g fill="#5564e8" fill-opacity="1"><g transform="translate(227.236579, 209.973764)"><g><path d="M 7.363281 8.769531 C 11.15625 12.9375 16.789062 13.207031 20.90625 9.460938 C 25.023438 5.71875 25.261719 0.105469 21.472656 -4.0625 C 17.679688 -8.230469 12.070312 -8.519531 7.957031 -4.777344 C 3.839844 -1.03125 3.574219 4.601562 7.363281 8.769531 Z M 9.933594 -2.601562 C 12.859375 -5.261719 16.765625 -5.078125 19.402344 -2.179688 C 22.039062 0.71875 21.855469 4.625 18.929688 7.285156 C 15.976562 9.972656 12.097656 9.761719 9.460938 6.863281 C 6.824219 3.964844 6.980469 0.0820312 9.933594 -2.601562 Z M 9.933594 -2.601562 "/></g></g></g><g fill="#5564e8" fill-opacity="1"><g transform="translate(244.519917, 228.973679)"><g><path d="M 2.191406 2.40625 L 4.167969 4.582031 L 11.3125 -1.917969 C 14.082031 -4.4375 17.28125 -4.507812 19.402344 -2.179688 C 21.449219 0.0742188 21.035156 3.050781 18.371094 5.476562 L 11.042969 12.140625 L 13.023438 14.316406 L 20.167969 7.816406 C 22.9375 5.296875 26.136719 5.226562 28.253906 7.554688 C 30.304688 9.808594 29.890625 12.785156 27.222656 15.210938 L 19.898438 21.875 L 21.875 24.050781 L 29.566406 17.054688 C 33.316406 13.640625 33.671875 9.347656 30.585938 5.957031 C 28.605469 3.78125 26.074219 2.867188 23.398438 3.363281 C 24.308594 0.878906 23.710938 -1.601562 21.753906 -3.75 C 20.058594 -5.617188 17.996094 -6.480469 15.757812 -6.289062 L 17.25 -8.027344 L 15.625 -9.8125 Z M 2.191406 2.40625 "/></g></g></g><g fill="#5564e8" fill-opacity="1"><g transform="translate(270.232794, 257.240355)"><g><path d="M 8.515625 10.039062 C 12.121094 14 17.710938 14.164062 21.800781 10.445312 C 25.867188 6.75 26.230469 1.167969 22.625 -2.792969 C 20.625 -4.996094 18.023438 -6.035156 15.414062 -5.886719 L 17.25 -8.027344 L 15.625 -9.8125 L -2.988281 7.117188 L -1.007812 9.292969 L 6.082031 2.839844 C 5.792969 5.328125 6.585938 7.917969 8.515625 10.039062 Z M 10.828125 -1.617188 C 13.726562 -4.253906 17.660156 -4.09375 20.296875 -1.195312 C 22.957031 1.730469 22.722656 5.632812 19.824219 8.269531 C 16.898438 10.929688 13.015625 10.773438 10.355469 7.847656 C 7.71875 4.949219 7.902344 1.042969 10.828125 -1.617188 Z M 10.828125 -1.617188 "/></g></g></g><g fill="#5564e8" fill-opacity="1"><g transform="translate(288.410888, 277.223893)"><g><path d="M 5.984375 6.996094 C 7.964844 9.171875 10.21875 10.242188 12.695312 10.210938 L 11.042969 12.140625 L 12.667969 13.925781 L 21.210938 6.15625 C 24.316406 3.332031 24.296875 -0.957031 21.09375 -4.476562 C 18.433594 -7.402344 14.855469 -8.164062 11.722656 -6.40625 L 13.726562 -4.207031 C 15.445312 -4.96875 17.523438 -4.347656 19.101562 -2.613281 C 21.171875 -0.335938 21.175781 2.214844 19.078125 4.125 L 18.585938 4.570312 L 13.59375 -0.917969 C 11.050781 -3.714844 7.800781 -4.113281 5.367188 -1.902344 C 2.828125 0.40625 3.042969 3.761719 5.984375 6.996094 Z M 7.371094 0.25 C 8.640625 -0.902344 10.382812 -0.597656 11.75 0.902344 L 16.695312 6.339844 C 14.136719 8.523438 10.542969 8.105469 8 5.308594 C 6.277344 3.417969 6.050781 1.449219 7.371094 0.25 Z M 7.371094 0.25 "/></g></g></g><g fill="#5564e8" fill-opacity="1"><g transform="translate(304.893657, 295.343728)"><g><path d="M 2.191406 2.40625 L 4.167969 4.582031 L 10.949219 -1.585938 C 13.902344 -4.273438 17.492188 -4.277344 19.777344 -1.765625 C 21.921875 0.589844 21.53125 3.59375 18.8125 6.066406 L 11.539062 12.683594 L 13.515625 14.859375 L 20.996094 8.054688 C 24.828125 4.570312 25.359375 0.207031 22.109375 -3.363281 C 20.460938 -5.175781 18.160156 -6.300781 15.496094 -6.003906 L 17.25 -8.027344 L 15.625 -9.8125 Z M 2.191406 2.40625 "/></g></g></g><g fill="#5564e8" fill-opacity="1"><g transform="translate(322.247633, 314.421298)"><g><path d="M 2.191406 2.40625 L 4.167969 4.582031 L 17.601562 -7.640625 L 15.625 -9.8125 Z M 18.921875 -14.042969 C 17.964844 -13.171875 17.875 -11.8125 18.839844 -10.75 C 19.804688 -9.691406 21.144531 -9.675781 22.101562 -10.546875 C 23.085938 -11.441406 23.199219 -12.773438 22.230469 -13.835938 C 21.265625 -14.898438 19.90625 -14.9375 18.921875 -14.042969 Z M 18.921875 -14.042969 "/></g></g></g><g fill="#5564e8" fill-opacity="1"><g transform="translate(330.489229, 323.481448)"><g><path d="M 7.152344 8.539062 C 9.90625 11.566406 13.796875 12.570312 17.402344 11.277344 L 15.164062 8.816406 C 12.988281 9.285156 10.820312 8.464844 9.21875 6.703125 C 6.890625 4.140625 6.847656 0.867188 9.078125 -1.773438 L 19.648438 9.847656 C 24.476562 5.742188 25.191406 0.0273438 21.285156 -4.269531 C 17.585938 -8.332031 12.097656 -8.542969 7.957031 -4.777344 C 3.789062 -0.984375 3.453125 4.472656 7.152344 8.539062 Z M 11.015625 -3.492188 C 13.75 -5.269531 16.976562 -4.894531 19.238281 -2.410156 C 21.476562 0.0507812 21.621094 3.226562 19.585938 5.929688 Z M 11.015625 -3.492188 "/></g></g></g><g fill="#5564e8" fill-opacity="1"><g transform="translate(347.348733, 342.015434)"><g><path d="M 6.28125 7.582031 C 9.292969 10.894531 12.777344 11.652344 15.105469 9.535156 C 17.203125 7.625 17.027344 4.570312 14.613281 0.566406 C 12.613281 -2.722656 12.285156 -4.175781 13.425781 -5.210938 C 14.617188 -6.292969 16.378906 -5.816406 18.144531 -3.875 C 20.003906 -1.828125 20.308594 0.117188 18.972656 1.617188 L 20.929688 3.765625 C 23.402344 1.179688 23.050781 -2.328125 20.035156 -5.640625 C 17.09375 -8.878906 13.878906 -9.550781 11.472656 -7.359375 C 9.347656 -5.429688 9.539062 -2.621094 12.125 1.367188 C 14.0625 4.382812 14.421875 6.230469 13.203125 7.339844 C 11.988281 8.445312 10.105469 7.886719 8.246094 5.839844 C 6.148438 3.535156 5.886719 1.269531 7.445312 -0.292969 L 5.492188 -2.441406 C 2.792969 0.109375 3.078125 4.058594 6.28125 7.582031 Z M 6.28125 7.582031 "/></g></g></g></svg>