<svg xmlns="http://www.w3.org/2000/svg" xmlns:xlink="http://www.w3.org/1999/xlink" width="1640" zoomAndPan="magnify" viewBox="0 0 1230 693.000001" height="924" preserveAspectRatio="xMidYMid meet" version="1.0"><defs><filter x="0%" y="0%" width="100%" height="100%" id="0cf8f4b2cb"><feColorMatrix values="0 0 0 0 1 0 0 0 0 1 0 0 0 0 1 0 0 0 1 0" color-interpolation-filters="sRGB"/></filter><g/><mask id="ef98543b0a"><g filter="url(#0cf8f4b2cb)"><rect x="-123" width="1476" fill="#000000" y="-69.3" height="831.600001" fill-opacity="0.1098"/></g></mask><clipPath id="2f085806e8"><path d="M 1.953125 0 L 590.558594 0 L 590.558594 520.125 L 1.953125 520.125 Z M 1.953125 0 " clip-rule="nonzero"/></clipPath><clipPath id="3371b010cc"><rect x="0" width="592" y="0" height="521"/></clipPath><clipPath id="c3f384c275"><path d="M 336.933594 476.484375 L 409.578125 476.484375 L 409.578125 549.128906 L 336.933594 549.128906 Z M 336.933594 476.484375 " clip-rule="nonzero"/></clipPath><clipPath id="1ee5b2cfcf"><path d="M 631.683594 476.484375 L 704.328125 476.484375 L 704.328125 549.128906 L 631.683594 549.128906 Z M 631.683594 476.484375 " clip-rule="nonzero"/></clipPath><mask id="3acb22be19"><g filter="url(#0cf8f4b2cb)"><rect x="-123" width="1476" fill="#000000" y="-69.3" height="831.600001" fill-opacity="0.1098"/></g></mask><clipPath id="6472538a61"><path d="M 2.085938 0.914062 L 586.199219 0.914062 L 586.199219 157 L 2.085938 157 Z M 2.085938 0.914062 " clip-rule="nonzero"/></clipPath><clipPath id="d8df93a034"><rect x="0" width="587" y="0" height="157"/></clipPath><mask id="650e6e460b"><g filter="url(#0cf8f4b2cb)"><rect x="-123" width="1476" fill="#000000" y="-69.3" height="831.600001" fill-opacity="0.7176"/></g></mask><clipPath id="e552762460"><path d="M 11 0.09375 L 20 0.09375 L 20 46.019531 L 11 46.019531 Z M 11 0.09375 " clip-rule="nonzero"/></clipPath><clipPath id="50f467c4fd"><path d="M 15.710938 46.019531 C 13.339844 46.019531 11.425781 44.09375 11.425781 41.710938 L 11.425781 4.460938 C 11.425781 2.074219 13.339844 0.148438 15.710938 0.148438 C 18.082031 0.148438 19.996094 2.074219 19.996094 4.460938 L 19.996094 41.710938 C 19.996094 44.09375 18.082031 46.019531 15.710938 46.019531 Z M 15.710938 46.019531 " clip-rule="nonzero"/></clipPath><clipPath id="097e708ece"><path d="M 0.00390625 0.09375 L 20 0.09375 L 20 18 L 0.00390625 18 Z M 0.00390625 0.09375 " clip-rule="nonzero"/></clipPath><clipPath id="61a9a1b7e6"><path d="M 4.472656 17.3125 C 3.175781 17.3125 1.890625 16.726562 1.054688 15.597656 C -0.367188 13.699219 0.00390625 10.992188 1.890625 9.5625 L 13.132812 1.019531 C 15.019531 -0.410156 17.707031 -0.0351562 19.128906 1.863281 C 20.550781 3.761719 20.175781 6.46875 18.289062 7.902344 L 7.050781 16.441406 C 6.277344 17.03125 5.375 17.3125 4.472656 17.3125 Z M 4.472656 17.3125 " clip-rule="nonzero"/></clipPath><clipPath id="f1b64ad3f6"><rect x="0" width="21" y="0" height="47"/></clipPath><mask id="587daea81c"><g filter="url(#0cf8f4b2cb)"><rect x="-123" width="1476" fill="#000000" y="-69.3" height="831.600001" fill-opacity="0.7176"/></g></mask><clipPath id="06121fea09"><path d="M 1 0.613281 L 32 0.613281 L 32 47 L 1 47 Z M 1 0.613281 " clip-rule="nonzero"/></clipPath><clipPath id="1bd1036f40"><path d="M 5.355469 47 C 4.253906 47 3.152344 46.574219 2.316406 45.734375 C 0.628906 44.042969 0.617188 41.289062 2.296875 39.589844 L 20.082031 21.578125 C 20.328125 21.328125 20.585938 21.089844 20.835938 20.847656 L 21.054688 20.636719 C 22.367188 19.398438 23.113281 17.6875 23.140625 15.839844 C 23.167969 14.054688 22.523438 12.429688 21.339844 11.246094 C 20.136719 10.046875 18.402344 9.398438 16.613281 9.492188 C 14.71875 9.582031 13.023438 10.414062 11.828125 11.855469 C 10.296875 13.695312 7.566406 13.9375 5.742188 12.394531 C 3.914062 10.847656 3.675781 8.105469 5.207031 6.265625 C 7.925781 3.003906 11.9375 1.007812 16.207031 0.8125 C 20.414062 0.609375 24.5 2.171875 27.410156 5.074219 C 30.238281 7.890625 31.824219 11.855469 31.769531 15.96875 C 31.714844 20.144531 29.960938 24.164062 26.957031 26.992188 L 26.691406 27.242188 C 26.527344 27.398438 26.363281 27.546875 26.195312 27.714844 L 8.421875 45.714844 C 7.578125 46.574219 6.464844 47 5.355469 47 Z M 5.355469 47 " clip-rule="nonzero"/></clipPath><clipPath id="b735391410"><path d="M 1 38 L 32.074219 38 L 32.074219 47 L 1 47 Z M 1 38 " clip-rule="nonzero"/></clipPath><clipPath id="31e68b71ad"><path d="M 5.355469 47 C 2.976562 47 1.050781 45.066406 1.039062 42.675781 C 1.03125 40.273438 2.960938 38.320312 5.335938 38.3125 L 27.730469 38.21875 C 27.738281 38.21875 27.738281 38.21875 27.75 38.21875 C 30.125 38.21875 32.054688 40.152344 32.0625 42.546875 C 32.074219 44.949219 30.144531 46.898438 27.765625 46.90625 L 5.375 47 C 5.375 47 5.363281 47 5.355469 47 Z M 5.355469 47 " clip-rule="nonzero"/></clipPath><clipPath id="9bcc985361"><rect x="0" width="33" y="0" height="48"/></clipPath></defs><g mask="url(#ef98543b0a)"><g transform="matrix(1, 0, 0, 1, 427, -0.000000000000066872)"><g clip-path="url(#3371b010cc)"><g clip-path="url(#2f085806e8)"><path fill="#ffffff" d="M 40.941406 -149.332031 C 40.941406 -148.257812 40.75 -147.167969 40.347656 -146.113281 C 38.570312 -141.441406 33.339844 -139.09375 28.664062 -140.867188 C 22.136719 -143.355469 15.421875 -145.511719 8.703125 -147.277344 C 3.867188 -148.546875 0.976562 -153.496094 2.246094 -158.328125 C 3.515625 -163.160156 8.464844 -166.054688 13.296875 -164.78125 C 20.640625 -162.855469 27.980469 -160.503906 35.109375 -157.785156 C 38.71875 -156.414062 40.941406 -152.976562 40.941406 -149.332031 Z M 106.464844 -105.476562 C 106.464844 -102.90625 105.367188 -100.351562 103.253906 -98.558594 C 99.425781 -95.332031 93.714844 -95.816406 90.492188 -99.640625 C 83.027344 -108.484375 73.601562 -116.632812 62.476562 -123.871094 C 58.28125 -126.59375 57.09375 -132.199219 59.820312 -136.394531 C 62.542969 -140.585938 68.152344 -141.769531 72.34375 -139.046875 C 84.960938 -130.84375 95.71875 -121.511719 104.332031 -111.316406 C 105.761719 -109.613281 106.464844 -107.542969 106.464844 -105.476562 Z M 133.457031 -31.796875 C 133.457031 -27.324219 130.148438 -23.4375 125.597656 -22.832031 C 120.644531 -22.175781 116.09375 -25.660156 115.429688 -30.613281 C 113.398438 -45.867188 110.890625 -58.136719 107.761719 -68.109375 C 106.269531 -72.878906 108.917969 -77.960938 113.6875 -79.453125 C 118.464844 -80.953125 123.539062 -78.292969 125.039062 -73.523438 C 128.476562 -62.550781 131.207031 -49.292969 133.375 -33 C 133.433594 -32.597656 133.457031 -32.195312 133.457031 -31.796875 Z M 140.117188 47.695312 C 140.117188 52.414062 136.460938 56.394531 131.679688 56.714844 C 126.695312 57.054688 122.375 53.289062 122.035156 48.300781 C 121.746094 44.148438 121.472656 40.007812 121.199219 35.882812 C 120.570312 26.425781 119.976562 17.484375 119.300781 8.574219 C 118.917969 3.589844 122.65625 -0.757812 127.640625 -1.132812 C 132.628906 -1.515625 136.972656 2.222656 137.355469 7.207031 C 138.035156 16.203125 138.660156 25.59375 139.265625 34.683594 C 139.535156 38.796875 139.8125 42.925781 140.09375 47.074219 C 140.113281 47.28125 140.117188 47.488281 140.117188 47.695312 Z M 148.382812 127.011719 C 148.382812 131.34375 145.257812 135.175781 140.839844 135.925781 C 135.914062 136.761719 131.242188 133.4375 130.402344 128.511719 C 128.390625 116.648438 126.695312 103.503906 125.222656 88.328125 C 124.738281 83.351562 128.378906 78.925781 133.359375 78.441406 C 138.328125 77.957031 142.761719 81.597656 143.246094 86.574219 C 144.675781 101.316406 146.3125 114.046875 148.25 125.484375 C 148.339844 125.996094 148.382812 126.511719 148.382812 127.011719 Z M 174.203125 201.738281 C 174.203125 204.648438 172.808594 207.5 170.21875 209.25 C 166.078125 212.046875 160.445312 210.960938 157.648438 206.816406 C 150.496094 196.230469 144.65625 183.703125 139.8125 168.535156 C 138.289062 163.769531 140.914062 158.679688 145.679688 157.15625 C 150.445312 155.632812 155.539062 158.261719 157.054688 163.019531 C 161.3125 176.34375 166.5625 187.671875 172.652344 196.679688 C 173.703125 198.234375 174.203125 199.996094 174.203125 201.738281 Z M 241.5 236.027344 C 241.5 240.546875 238.117188 244.457031 233.519531 245.003906 C 231.132812 245.285156 228.722656 245.4375 226.363281 245.429688 C 224.007812 245.429688 221.632812 245.285156 219.308594 245.007812 C 208.671875 243.710938 198.804688 240.765625 189.980469 236.242188 C 185.535156 233.964844 183.773438 228.507812 186.058594 224.054688 C 188.335938 219.609375 193.792969 217.847656 198.242188 220.128906 C 205.15625 223.675781 212.980469 226 221.492188 227.035156 C 223.097656 227.234375 224.734375 227.332031 226.363281 227.332031 C 228.007812 227.332031 229.695312 227.226562 231.371094 227.027344 C 236.335938 226.4375 240.839844 229.980469 241.433594 234.9375 C 241.476562 235.308594 241.5 235.671875 241.5 236.027344 Z M 306.816406 193.214844 C 306.816406 195.40625 306.023438 197.605469 304.421875 199.347656 C 293.410156 211.292969 283.40625 220.496094 273.847656 227.488281 C 269.816406 230.441406 264.152344 229.558594 261.199219 225.527344 C 258.25 221.488281 259.128906 215.824219 263.164062 212.871094 C 271.761719 206.589844 280.898438 198.152344 291.109375 187.078125 C 294.492188 183.398438 300.222656 183.167969 303.894531 186.554688 C 305.835938 188.339844 306.816406 190.773438 306.816406 193.214844 Z M 357.480469 131.667969 C 357.480469 133.589844 356.875 135.515625 355.617188 137.160156 C 354.351562 138.8125 353.105469 140.445312 351.882812 142.050781 C 343.859375 152.558594 336.933594 161.640625 330.839844 168.921875 C 327.632812 172.757812 321.921875 173.265625 318.085938 170.058594 C 314.257812 166.851562 313.742188 161.148438 316.949219 157.3125 C 322.789062 150.335938 329.601562 141.410156 337.492188 131.066406 C 338.71875 129.457031 339.964844 127.828125 341.234375 126.164062 C 344.269531 122.191406 349.953125 121.4375 353.921875 124.46875 C 356.257812 126.25 357.480469 128.945312 357.480469 131.667969 Z M 408.351562 70.292969 C 408.351562 72.53125 407.527344 74.78125 405.859375 76.527344 C 397.75 85.054688 389.308594 94.695312 380.058594 106.019531 C 376.890625 109.890625 371.191406 110.460938 367.320312 107.300781 C 363.449219 104.132812 362.871094 98.433594 366.039062 94.5625 C 375.582031 82.882812 384.3125 72.90625 392.742188 64.050781 C 396.191406 60.429688 401.917969 60.285156 405.542969 63.734375 C 407.410156 65.511719 408.351562 67.898438 408.351562 70.292969 Z M 471.820312 23.171875 C 471.820312 26.855469 469.554688 30.324219 465.890625 31.667969 C 456.023438 35.292969 445.339844 41.585938 434.140625 50.378906 C 430.214844 53.464844 424.519531 52.777344 421.433594 48.84375 C 418.347656 44.914062 419.027344 39.222656 422.960938 36.136719 C 435.652344 26.175781 447.992188 18.953125 459.644531 14.675781 C 464.339844 12.949219 469.542969 15.355469 471.269531 20.050781 C 471.644531 21.078125 471.820312 22.132812 471.820312 23.171875 Z M 542.902344 43.90625 C 542.902344 46.445312 541.839844 48.96875 539.761719 50.757812 C 535.976562 54.027344 530.261719 53.613281 526.996094 49.828125 C 526.558594 49.320312 526.121094 48.820312 525.671875 48.324219 C 517.292969 38.96875 508.339844 32.757812 499.058594 29.851562 C 494.285156 28.355469 491.628906 23.28125 493.125 18.511719 C 494.613281 13.734375 499.695312 11.082031 504.464844 12.574219 C 516.902344 16.46875 528.570312 24.429688 539.15625 36.242188 C 539.671875 36.816406 540.1875 37.40625 540.695312 37.992188 C 542.171875 39.707031 542.902344 41.8125 542.902344 43.90625 Z M 575.457031 471.753906 C 575.457031 472.207031 575.429688 472.660156 575.359375 473.117188 C 573.398438 486.09375 571.222656 499.394531 568.886719 512.644531 C 568.015625 517.570312 563.320312 520.851562 558.402344 519.984375 C 553.472656 519.113281 550.1875 514.417969 551.058594 509.5 C 553.363281 496.394531 555.523438 483.246094 557.453125 470.417969 C 558.199219 465.476562 562.8125 462.070312 567.757812 462.820312 C 572.238281 463.496094 575.457031 467.355469 575.457031 471.753906 Z M 577.269531 114.976562 C 577.269531 119.011719 574.550781 122.691406 570.460938 123.738281 C 565.617188 124.976562 560.683594 122.058594 559.445312 117.214844 C 556.050781 103.964844 551.832031 91.859375 546.890625 81.230469 C 544.785156 76.695312 546.757812 71.3125 551.292969 69.207031 C 555.828125 67.105469 561.210938 69.070312 563.316406 73.605469 C 568.71875 85.238281 573.316406 98.398438 576.988281 112.726562 C 577.175781 113.476562 577.269531 114.230469 577.269531 114.976562 Z M 585.175781 392.710938 C 585.175781 392.992188 585.160156 393.28125 585.136719 393.570312 C 583.910156 406.644531 582.449219 420.054688 580.804688 433.421875 C 580.1875 438.382812 575.671875 441.90625 570.710938 441.296875 C 565.75 440.683594 562.226562 436.167969 562.832031 431.207031 C 564.464844 418.011719 565.898438 404.78125 567.109375 391.878906 C 567.578125 386.902344 571.992188 383.246094 576.96875 383.710938 C 581.660156 384.148438 585.175781 388.09375 585.175781 392.710938 Z M 588.414062 193.761719 C 588.414062 198.515625 584.710938 202.5 579.898438 202.789062 C 574.910156 203.089844 570.625 199.289062 570.324219 194.300781 C 569.464844 180.007812 568.265625 167.25 566.667969 155.292969 C 566.003906 150.335938 569.480469 145.78125 574.4375 145.117188 C 579.390625 144.453125 583.941406 147.933594 584.613281 152.886719 C 586.269531 165.28125 587.507812 178.472656 588.394531 193.214844 C 588.40625 193.398438 588.414062 193.585938 588.414062 193.761719 Z M 590.109375 313.230469 C 590.109375 313.316406 590.109375 313.410156 590.105469 313.496094 C 589.722656 326.664062 589.105469 340.148438 588.269531 353.582031 C 587.957031 358.570312 583.660156 362.363281 578.664062 362.054688 C 573.675781 361.742188 569.878906 357.445312 570.195312 352.449219 C 571.023438 339.21875 571.632812 325.9375 572.007812 312.96875 C 572.152344 307.976562 576.324219 304.042969 581.320312 304.1875 C 586.226562 304.332031 590.109375 308.351562 590.109375 313.230469 Z M 590.558594 273.414062 C 590.558594 278.386719 586.542969 282.429688 581.574219 282.464844 C 576.570312 282.5 572.488281 278.472656 572.453125 273.472656 C 572.429688 269.523438 572.378906 265.523438 572.308594 261.589844 C 572.257812 258.535156 572.203125 255.421875 572.152344 252.246094 C 572.054688 246.265625 571.949219 240.078125 571.816406 233.769531 C 571.707031 228.765625 575.675781 224.632812 580.671875 224.523438 C 585.671875 224.417969 589.808594 228.382812 589.917969 233.382812 C 590.050781 239.738281 590.15625 245.945312 590.253906 251.949219 C 590.304688 255.113281 590.359375 258.21875 590.410156 261.269531 C 590.484375 265.265625 590.53125 269.332031 590.558594 273.351562 C 590.558594 273.375 590.558594 273.390625 590.558594 273.414062 " fill-opacity="1" fill-rule="nonzero"/></g></g></g></g><path stroke-linecap="round" transform="matrix(0.748171, 0, 0, 0.748919, 341.140498, 638.951035)" fill="none" stroke-linejoin="miter" d="M 1.999839 2.000461 L 482.484369 2.000461 " stroke="#c20400" stroke-width="4" stroke-opacity="1" stroke-miterlimit="4"/><path stroke-linecap="round" transform="matrix(0.000000000000000046, 0.750018, -0.748919, 0.000000000000000046, 374.577373, 546.375362)" fill="none" stroke-linejoin="miter" d="M 1.99947 2.001883 L 125.814219 2.001883 " stroke="#c20400" stroke-width="4" stroke-opacity="1" stroke-miterlimit="4"/><path stroke-linecap="round" transform="matrix(0.000000000000000046, 0.750018, -0.748919, 0.000000000000000046, 669.328688, 546.375362)" fill="none" stroke-linejoin="miter" d="M 1.99947 1.998422 L 125.814219 1.998422 " stroke="#c20400" stroke-width="4" stroke-opacity="1" stroke-miterlimit="4"/><g clip-path="url(#c3f384c275)"><path fill="#c20400" d="M 373.253906 549.128906 C 353.1875 549.128906 336.933594 532.761719 336.933594 512.808594 C 336.933594 492.851562 353.1875 476.484375 373.253906 476.484375 C 393.324219 476.484375 409.578125 492.742188 409.578125 512.808594 C 409.578125 532.875 393.210938 549.128906 373.253906 549.128906 Z M 373.253906 478.726562 C 354.421875 478.726562 339.175781 493.972656 339.175781 512.808594 C 339.175781 531.640625 354.421875 546.886719 373.253906 546.886719 C 392.089844 546.886719 407.335938 531.640625 407.335938 512.808594 C 407.335938 493.972656 391.976562 478.726562 373.253906 478.726562 Z M 373.253906 478.726562 " fill-opacity="1" fill-rule="nonzero"/></g><g fill="#ffffff" fill-opacity="1"><g transform="translate(627.64101, 407.486653)"><g><path d="M 6.007812 -9.492188 C 8.648438 -13.988281 7.289062 -18.4375 2.34375 -21.34375 L -8.695312 -27.828125 L -10.070312 -25.488281 L 0.808594 -19.097656 C 4.613281 -16.859375 5.59375 -14.027344 3.71875 -10.835938 C 1.859375 -7.671875 -1.109375 -7.125 -4.910156 -9.363281 L -15.789062 -15.753906 L -17.148438 -13.4375 L -6.109375 -6.953125 C -1.164062 -4.046875 3.367188 -5 6.007812 -9.492188 Z M 6.007812 -9.492188 "/></g></g></g><g fill="#ffffff" fill-opacity="1"><g transform="translate(642.158871, 382.778737)"><g><path d="M 6.222656 -9.796875 C 8.613281 -13.867188 7.289062 -18.617188 3.085938 -21.085938 C -1.089844 -23.539062 -5.882812 -22.382812 -8.273438 -18.3125 C -9.601562 -16.054688 -9.796875 -13.589844 -8.988281 -11.433594 L -11.273438 -12.417969 L -12.351562 -10.585938 L 6.773438 0.652344 L 8.085938 -1.582031 L 0.796875 -5.863281 C 2.96875 -6.269531 4.941406 -7.617188 6.222656 -9.796875 Z M -4.195312 -8.691406 C -7.175781 -10.441406 -8.066406 -13.792969 -6.316406 -16.769531 C -4.550781 -19.777344 -1.203125 -20.601562 1.773438 -18.851562 C 4.777344 -17.085938 5.660156 -13.777344 3.894531 -10.769531 C 2.144531 -7.792969 -1.191406 -6.925781 -4.195312 -8.691406 Z M -4.195312 -8.691406 "/></g></g></g><g fill="#ffffff" fill-opacity="1"><g transform="translate(656.098545, 359.054836)"><g><path d="M 1.453125 -2.472656 L 2.765625 -4.707031 L -16.914062 -16.273438 L -18.226562 -14.039062 Z M 1.453125 -2.472656 "/></g></g></g><g fill="#ffffff" fill-opacity="1"><g transform="translate(663.443773, 346.554008)"><g><path d="M 5.457031 -8.492188 C 7.972656 -12.777344 6.722656 -17.589844 2.492188 -20.074219 C -1.734375 -22.558594 -6.523438 -21.292969 -9.039062 -17.011719 C -11.554688 -12.730469 -10.332031 -7.929688 -6.101562 -5.445312 C -1.875 -2.960938 2.941406 -4.210938 5.457031 -8.492188 Z M -4.789062 -7.679688 C -7.796875 -9.445312 -8.660156 -12.78125 -6.910156 -15.761719 C -5.160156 -18.738281 -1.824219 -19.605469 1.179688 -17.839844 C 4.210938 -16.058594 5.050781 -12.738281 3.300781 -9.757812 C 1.550781 -6.78125 -1.757812 -5.898438 -4.789062 -7.679688 Z M -4.789062 -7.679688 "/></g></g></g><g fill="#ffffff" fill-opacity="1"><g transform="translate(676.789637, 323.840712)"><g><path d="M 4.324219 -6.871094 C 5.636719 -9.105469 5.949219 -11.28125 5.273438 -13.359375 L 7.328125 -12.472656 L 8.40625 -14.308594 L -0.371094 -19.464844 C -3.5625 -21.339844 -7.164062 -20.203125 -9.289062 -16.585938 C -11.054688 -13.578125 -10.761719 -10.367188 -8.460938 -8.191406 L -7.132812 -10.453125 C -8.222656 -11.703125 -8.246094 -13.609375 -7.199219 -15.394531 C -5.824219 -17.734375 -3.675781 -18.402344 -1.523438 -17.136719 L -1.015625 -16.839844 L -4.328125 -11.203125 C -6.019531 -8.332031 -5.503906 -5.488281 -3.003906 -4.019531 C -0.398438 -2.488281 2.371094 -3.546875 4.324219 -6.871094 Z M -1.71875 -6.269531 C -3.023438 -7.035156 -3.222656 -8.582031 -2.316406 -10.125 L 0.964844 -15.710938 C 3.472656 -14.132812 4.0625 -10.996094 2.375 -8.121094 C 1.234375 -6.179688 -0.363281 -5.472656 -1.71875 -6.269531 Z M -1.71875 -6.269531 "/></g></g></g><g fill="#ffffff" fill-opacity="1"><g transform="translate(689.604194, 302.031644)"><g><path d="M 5.300781 -8.226562 C 6.613281 -10.460938 6.808594 -12.925781 6 -15.082031 L 8.28125 -14.097656 L 9.359375 -15.929688 L -10.320312 -27.496094 L -11.632812 -25.261719 L -3.8125 -20.667969 C -5.984375 -20.261719 -7.929688 -18.898438 -9.195312 -16.746094 C -11.601562 -12.648438 -10.277344 -7.898438 -6.101562 -5.445312 C -1.898438 -2.976562 2.894531 -4.132812 5.300781 -8.226562 Z M -4.789062 -7.679688 C -7.769531 -9.429688 -8.660156 -12.78125 -6.910156 -15.761719 C -5.144531 -18.765625 -1.800781 -19.589844 1.179688 -17.839844 C 4.183594 -16.074219 5.066406 -12.765625 3.300781 -9.757812 C 1.550781 -6.78125 -1.785156 -5.914062 -4.789062 -7.679688 Z M -4.789062 -7.679688 "/></g></g></g><g fill="#ffffff" fill-opacity="1"><g transform="translate(703.54387, 278.30774)"><g/></g></g><g fill="#ffffff" fill-opacity="1"><g transform="translate(710.545314, 266.391998)"><g><path d="M 6.492188 1.128906 L 7.414062 -0.4375 C 8.929688 -3.019531 9.027344 -4.644531 7.0625 -7.085938 L -5.175781 -22.792969 L -6.566406 -20.425781 L -1.566406 -14.015625 L 1.730469 -9.824219 L -3.738281 -10.320312 L -12.085938 -11.035156 L -13.554688 -8.535156 L 3.773438 -7.15625 L 5.023438 -5.5625 C 6.222656 -4.074219 6.234375 -3.242188 5.1875 -1.460938 L 4.390625 -0.105469 Z M 6.492188 1.128906 "/></g></g></g><g fill="#ffffff" fill-opacity="1"><g transform="translate(722.547285, 245.965869)"><g><path d="M 5.457031 -8.492188 C 7.972656 -12.777344 6.722656 -17.589844 2.492188 -20.074219 C -1.734375 -22.558594 -6.523438 -21.292969 -9.039062 -17.011719 C -11.554688 -12.730469 -10.332031 -7.929688 -6.101562 -5.445312 C -1.875 -2.960938 2.941406 -4.210938 5.457031 -8.492188 Z M -4.789062 -7.679688 C -7.796875 -9.445312 -8.660156 -12.78125 -6.910156 -15.761719 C -5.160156 -18.738281 -1.824219 -19.605469 1.179688 -17.839844 C 4.210938 -16.058594 5.050781 -12.738281 3.300781 -9.757812 C 1.550781 -6.78125 -1.757812 -5.898438 -4.789062 -7.679688 Z M -4.789062 -7.679688 "/></g></g></g><g fill="#ffffff" fill-opacity="1"><g transform="translate(735.893143, 223.252583)"><g><path d="M 5.035156 -7.777344 C 6.113281 -9.609375 6.414062 -11.832031 5.496094 -13.980469 L 7.65625 -13.03125 L 8.734375 -14.867188 L -5.066406 -22.976562 L -6.378906 -20.742188 L 0.585938 -16.648438 C 3.59375 -14.882812 4.566406 -11.914062 3.050781 -9.335938 C 1.660156 -6.96875 -0.953125 -6.535156 -3.71875 -8.160156 L -11.195312 -12.550781 L -12.507812 -10.316406 L -4.820312 -5.800781 C -0.882812 -3.488281 2.910156 -4.160156 5.035156 -7.777344 Z M 5.035156 -7.777344 "/></g></g></g><g fill="#ffffff" fill-opacity="1"><g transform="translate(749.20775, 200.592482)"><g><path d="M 1.453125 -2.472656 L 2.765625 -4.707031 L -3.644531 -8.472656 C -7.578125 -10.785156 -7.804688 -13.566406 -6.335938 -16.066406 L -5.539062 -17.425781 L -7.613281 -18.644531 L -8.347656 -17.394531 C -9.726562 -15.050781 -9.792969 -13.230469 -8.722656 -11.277344 L -11.273438 -12.417969 L -12.351562 -10.585938 Z M 1.453125 -2.472656 "/></g></g></g><g fill="#ffffff" fill-opacity="1"><g transform="translate(664.446147, 429.112591)"><g><path d="M 1.453125 -2.472656 L 2.765625 -4.707031 L -4.203125 -8.800781 C -7.234375 -10.582031 -8.175781 -13.605469 -6.660156 -16.1875 C -5.238281 -18.605469 -2.609375 -19.066406 0.183594 -17.421875 L 7.65625 -13.03125 L 8.96875 -15.265625 L 1.285156 -19.78125 C -2.652344 -22.09375 -6.460938 -21.398438 -8.617188 -17.730469 C -9.710938 -15.867188 -10.054688 -13.636719 -9.109375 -11.472656 L -11.273438 -12.417969 L -12.351562 -10.585938 Z M 1.453125 -2.472656 "/></g></g></g><g fill="#ffffff" fill-opacity="1"><g transform="translate(677.83889, 406.31951)"><g><path d="M 5.316406 -8.253906 C 7.144531 -11.367188 6.96875 -14.902344 4.9375 -17.597656 L 3.453125 -15.074219 C 4.417969 -13.363281 4.292969 -11.324219 3.230469 -9.515625 C 1.683594 -6.882812 -1.058594 -5.988281 -3.871094 -7.175781 L 3.148438 -19.117188 C -1.574219 -22.105469 -6.570312 -21.214844 -9.164062 -16.796875 C -11.617188 -12.621094 -10.359375 -7.945312 -6.101562 -5.445312 C -1.820312 -2.929688 2.863281 -4.078125 5.316406 -8.253906 Z M -5.824219 -8.359375 C -8.035156 -10.195312 -8.5625 -13.011719 -7.0625 -15.5625 C -5.578125 -18.089844 -2.941406 -19.046875 -0.132812 -18.039062 Z M -5.824219 -8.359375 "/></g></g></g><g fill="#ffffff" fill-opacity="1"><g transform="translate(690.903471, 384.084928)"><g><path d="M 5.332031 -8.28125 C 7.363281 -11.738281 6.867188 -15.644531 4.0625 -18.542969 L 2.671875 -16.175781 C 4.257812 -14.3125 4.488281 -11.78125 3.175781 -9.546875 C 1.503906 -6.699219 -1.785156 -5.914062 -4.789062 -7.679688 C -7.769531 -9.429688 -8.707031 -12.703125 -7.035156 -15.546875 C -5.800781 -17.648438 -3.640625 -18.707031 -1.242188 -18.40625 L 0.0859375 -20.664062 C -3.433594 -21.804688 -7.148438 -20.230469 -9.164062 -16.796875 C -11.601562 -12.648438 -10.304688 -7.914062 -6.101562 -5.445312 C -1.875 -2.960938 2.894531 -4.132812 5.332031 -8.28125 Z M 5.332031 -8.28125 "/></g></g></g><g fill="#ffffff" fill-opacity="1"><g transform="translate(703.936795, 361.903542)"><g><path d="M 5.316406 -8.253906 C 7.144531 -11.367188 6.96875 -14.902344 4.9375 -17.597656 L 3.453125 -15.074219 C 4.417969 -13.363281 4.292969 -11.324219 3.230469 -9.515625 C 1.683594 -6.882812 -1.058594 -5.988281 -3.871094 -7.175781 L 3.148438 -19.117188 C -1.574219 -22.105469 -6.570312 -21.214844 -9.164062 -16.796875 C -11.617188 -12.621094 -10.359375 -7.945312 -6.101562 -5.445312 C -1.820312 -2.929688 2.863281 -4.078125 5.316406 -8.253906 Z M -5.824219 -8.359375 C -8.035156 -10.195312 -8.5625 -13.011719 -7.0625 -15.5625 C -5.578125 -18.089844 -2.941406 -19.046875 -0.132812 -18.039062 Z M -5.824219 -8.359375 "/></g></g></g><g fill="#ffffff" fill-opacity="1"><g transform="translate(717.001378, 339.668958)"><g><path d="M 4.738281 -7.269531 C 6.738281 -10.675781 6.464844 -13.804688 4.070312 -15.210938 C 1.917969 -16.476562 -0.609375 -15.527344 -3.347656 -12.449219 C -5.59375 -9.90625 -6.730469 -9.25 -7.898438 -9.9375 C -9.125 -10.65625 -9.179688 -12.265625 -8.007812 -14.257812 C -6.773438 -16.359375 -5.214844 -17.125 -3.605469 -16.394531 L -2.308594 -18.601562 C -5.128906 -20.007812 -7.992188 -18.792969 -9.992188 -15.386719 C -11.945312 -12.0625 -11.671875 -9.183594 -9.199219 -7.730469 C -7.015625 -6.449219 -4.703125 -7.34375 -2.023438 -10.5625 C 0.0078125 -12.984375 1.472656 -13.769531 2.722656 -13.035156 C 3.972656 -12.300781 3.992188 -10.570312 2.757812 -8.46875 C 1.367188 -6.101562 -0.472656 -5.285156 -2.195312 -6.191406 L -3.492188 -3.984375 C -0.640625 -2.378906 2.613281 -3.652344 4.738281 -7.269531 Z M 4.738281 -7.269531 "/></g></g></g><g fill="#ffffff" fill-opacity="1"><g transform="translate(728.659561, 319.82792)"><g><path d="M 4.738281 -7.269531 C 6.738281 -10.675781 6.464844 -13.804688 4.070312 -15.210938 C 1.917969 -16.476562 -0.609375 -15.527344 -3.347656 -12.449219 C -5.59375 -9.90625 -6.730469 -9.25 -7.898438 -9.9375 C -9.125 -10.65625 -9.179688 -12.265625 -8.007812 -14.257812 C -6.773438 -16.359375 -5.214844 -17.125 -3.605469 -16.394531 L -2.308594 -18.601562 C -5.128906 -20.007812 -7.992188 -18.792969 -9.992188 -15.386719 C -11.945312 -12.0625 -11.671875 -9.183594 -9.199219 -7.730469 C -7.015625 -6.449219 -4.703125 -7.34375 -2.023438 -10.5625 C 0.0078125 -12.984375 1.472656 -13.769531 2.722656 -13.035156 C 3.972656 -12.300781 3.992188 -10.570312 2.757812 -8.46875 C 1.367188 -6.101562 -0.472656 -5.285156 -2.195312 -6.191406 L -3.492188 -3.984375 C -0.640625 -2.378906 2.613281 -3.652344 4.738281 -7.269531 Z M 4.738281 -7.269531 "/></g></g></g><g fill="#ffffff" fill-opacity="1"><g transform="translate(740.317745, 299.986882)"><g><path d="M 4.324219 -6.871094 C 5.636719 -9.105469 5.949219 -11.28125 5.273438 -13.359375 L 7.328125 -12.472656 L 8.40625 -14.308594 L -0.371094 -19.464844 C -3.5625 -21.339844 -7.164062 -20.203125 -9.289062 -16.585938 C -11.054688 -13.578125 -10.761719 -10.367188 -8.460938 -8.191406 L -7.132812 -10.453125 C -8.222656 -11.703125 -8.246094 -13.609375 -7.199219 -15.394531 C -5.824219 -17.734375 -3.675781 -18.402344 -1.523438 -17.136719 L -1.015625 -16.839844 L -4.328125 -11.203125 C -6.019531 -8.332031 -5.503906 -5.488281 -3.003906 -4.019531 C -0.398438 -2.488281 2.371094 -3.546875 4.324219 -6.871094 Z M -1.71875 -6.269531 C -3.023438 -7.035156 -3.222656 -8.582031 -2.316406 -10.125 L 0.964844 -15.710938 C 3.472656 -14.132812 4.0625 -10.996094 2.375 -8.121094 C 1.234375 -6.179688 -0.363281 -5.472656 -1.71875 -6.269531 Z M -1.71875 -6.269531 "/></g></g></g><g fill="#ffffff" fill-opacity="1"><g transform="translate(753.132303, 278.177814)"><g><path d="M 1.453125 -2.472656 L 2.765625 -4.707031 L -3.644531 -8.472656 C -7.578125 -10.785156 -7.804688 -13.566406 -6.335938 -16.066406 L -5.539062 -17.425781 L -7.613281 -18.644531 L -8.347656 -17.394531 C -9.726562 -15.050781 -9.792969 -13.230469 -8.722656 -11.277344 L -11.273438 -12.417969 L -12.351562 -10.585938 Z M 1.453125 -2.472656 "/></g></g></g><g fill="#ffffff" fill-opacity="1"><g transform="translate(763.071557, 261.26222)"><g><path d="M 6.492188 1.128906 L 7.414062 -0.4375 C 8.929688 -3.019531 9.027344 -4.644531 7.0625 -7.085938 L -5.175781 -22.792969 L -6.566406 -20.425781 L -1.566406 -14.015625 L 1.730469 -9.824219 L -3.738281 -10.320312 L -12.085938 -11.035156 L -13.554688 -8.535156 L 3.773438 -7.15625 L 5.023438 -5.5625 C 6.222656 -4.074219 6.234375 -3.242188 5.1875 -1.460938 L 4.390625 -0.105469 Z M 6.492188 1.128906 "/></g></g></g><g fill="#ffffff" fill-opacity="1"><g transform="translate(775.073528, 240.836091)"><g/></g></g><g fill="#ffffff" fill-opacity="1"><g transform="translate(782.074966, 228.920359)"><g><path d="M 1.59375 -2.710938 L 2.96875 -5.054688 L -3.148438 -8.648438 L -0.820312 -12.609375 C 1.648438 -16.8125 0.824219 -20.949219 -3.007812 -23.199219 C -6.808594 -25.433594 -10.851562 -24.15625 -13.320312 -19.957031 L -17.023438 -13.652344 Z M -5.328125 -9.929688 L -13.414062 -14.679688 L -11.117188 -18.589844 C -9.351562 -21.59375 -7.046875 -22.351562 -4.386719 -20.789062 C -1.726562 -19.226562 -1.265625 -16.84375 -3.03125 -13.839844 Z M -5.328125 -9.929688 "/></g></g></g><g fill="#ffffff" fill-opacity="1"><g transform="translate(795.186429, 206.605988)"><g><path d="M 1.59375 -2.710938 L 5.375 -9.148438 C 8.734375 -14.867188 7.183594 -20.933594 1.675781 -24.167969 C -3.828125 -27.402344 -9.882812 -25.808594 -13.242188 -20.089844 L -17.023438 -13.652344 Z M 0.734375 -6.367188 L -13.414062 -14.679688 L -11.070312 -18.667969 C -8.523438 -23.003906 -3.957031 -24.257812 0.269531 -21.773438 C 4.5 -19.289062 5.640625 -14.71875 3.140625 -10.460938 Z M 0.734375 -6.367188 "/></g></g></g><g fill="#ffffff" fill-opacity="1"><g transform="translate(810.204341, 181.047035)"><g><path d="M 1.59375 -2.710938 L 2.96875 -5.054688 L -4.875 -9.664062 L -0.390625 -17.296875 L -2.546875 -18.5625 L -7.03125 -10.929688 L -13.46875 -14.710938 L -8.574219 -23.035156 L -10.757812 -24.316406 L -17.023438 -13.652344 Z M 1.59375 -2.710938 "/></g></g></g><g fill="#ffffff" fill-opacity="1"><g transform="translate(701.251284, 450.738529)"><g><path d="M 5.300781 -8.226562 C 6.613281 -10.460938 6.808594 -12.925781 6 -15.082031 L 8.28125 -14.097656 L 9.359375 -15.929688 L -10.320312 -27.496094 L -11.632812 -25.261719 L -3.8125 -20.667969 C -5.984375 -20.261719 -7.929688 -18.898438 -9.195312 -16.746094 C -11.601562 -12.648438 -10.277344 -7.898438 -6.101562 -5.445312 C -1.898438 -2.976562 2.894531 -4.132812 5.300781 -8.226562 Z M -4.789062 -7.679688 C -7.769531 -9.429688 -8.660156 -12.78125 -6.910156 -15.761719 C -5.144531 -18.765625 -1.800781 -19.589844 1.179688 -17.839844 C 4.183594 -16.074219 5.066406 -12.765625 3.300781 -9.757812 C 1.550781 -6.78125 -1.785156 -5.914062 -4.789062 -7.679688 Z M -4.789062 -7.679688 "/></g></g></g><g fill="#ffffff" fill-opacity="1"><g transform="translate(715.190958, 427.014628)"><g><path d="M 5.457031 -8.492188 C 7.972656 -12.777344 6.722656 -17.589844 2.492188 -20.074219 C -1.734375 -22.558594 -6.523438 -21.292969 -9.039062 -17.011719 C -11.554688 -12.730469 -10.332031 -7.929688 -6.101562 -5.445312 C -1.875 -2.960938 2.941406 -4.210938 5.457031 -8.492188 Z M -4.789062 -7.679688 C -7.796875 -9.445312 -8.660156 -12.78125 -6.910156 -15.761719 C -5.160156 -18.738281 -1.824219 -19.605469 1.179688 -17.839844 C 4.210938 -16.058594 5.050781 -12.738281 3.300781 -9.757812 C 1.550781 -6.78125 -1.757812 -5.898438 -4.789062 -7.679688 Z M -4.789062 -7.679688 "/></g></g></g><g fill="#ffffff" fill-opacity="1"><g transform="translate(728.53682, 404.301334)"><g><path d="M 5.332031 -8.28125 C 7.363281 -11.738281 6.867188 -15.644531 4.0625 -18.542969 L 2.671875 -16.175781 C 4.257812 -14.3125 4.488281 -11.78125 3.175781 -9.546875 C 1.503906 -6.699219 -1.785156 -5.914062 -4.789062 -7.679688 C -7.769531 -9.429688 -8.707031 -12.703125 -7.035156 -15.546875 C -5.800781 -17.648438 -3.640625 -18.707031 -1.242188 -18.40625 L 0.0859375 -20.664062 C -3.433594 -21.804688 -7.148438 -20.230469 -9.164062 -16.796875 C -11.601562 -12.648438 -10.304688 -7.914062 -6.101562 -5.445312 C -1.875 -2.960938 2.894531 -4.132812 5.332031 -8.28125 Z M 5.332031 -8.28125 "/></g></g></g><g fill="#ffffff" fill-opacity="1"><g transform="translate(741.570144, 382.119949)"><g><path d="M 5.035156 -7.777344 C 6.113281 -9.609375 6.414062 -11.832031 5.496094 -13.980469 L 7.65625 -13.03125 L 8.734375 -14.867188 L -5.066406 -22.976562 L -6.378906 -20.742188 L 0.585938 -16.648438 C 3.59375 -14.882812 4.566406 -11.914062 3.050781 -9.335938 C 1.660156 -6.96875 -0.953125 -6.535156 -3.71875 -8.160156 L -11.195312 -12.550781 L -12.507812 -10.316406 L -4.820312 -5.800781 C -0.882812 -3.488281 2.910156 -4.160156 5.035156 -7.777344 Z M 5.035156 -7.777344 "/></g></g></g><g fill="#ffffff" fill-opacity="1"><g transform="translate(754.884751, 359.459847)"><g><path d="M 1.453125 -2.472656 L 2.765625 -4.707031 L -4.574219 -9.019531 C -7.421875 -10.691406 -8.316406 -13.367188 -6.910156 -15.761719 C -5.550781 -18.074219 -2.9375 -18.507812 -0.199219 -16.894531 L 7.328125 -12.472656 L 8.640625 -14.707031 L 1.300781 -19.019531 C -1.542969 -20.691406 -2.441406 -23.367188 -1.035156 -25.761719 C 0.324219 -28.074219 2.9375 -28.507812 5.679688 -26.898438 L 13.207031 -22.472656 L 14.519531 -24.707031 L 6.617188 -29.347656 C 2.761719 -31.617188 -0.945312 -30.789062 -2.992188 -27.304688 C -4.304688 -25.070312 -4.410156 -22.699219 -3.292969 -20.578125 C -5.625 -20.691406 -7.554688 -19.539062 -8.851562 -17.332031 C -9.976562 -15.414062 -10.164062 -13.449219 -9.417969 -11.617188 L -11.273438 -12.417969 L -12.351562 -10.585938 Z M 1.453125 -2.472656 "/></g></g></g><g fill="#ffffff" fill-opacity="1"><g transform="translate(773.824954, 327.225558)"><g><path d="M 5.316406 -8.253906 C 7.144531 -11.367188 6.96875 -14.902344 4.9375 -17.597656 L 3.453125 -15.074219 C 4.417969 -13.363281 4.292969 -11.324219 3.230469 -9.515625 C 1.683594 -6.882812 -1.058594 -5.988281 -3.871094 -7.175781 L 3.148438 -19.117188 C -1.574219 -22.105469 -6.570312 -21.214844 -9.164062 -16.796875 C -11.617188 -12.621094 -10.359375 -7.945312 -6.101562 -5.445312 C -1.820312 -2.929688 2.863281 -4.078125 5.316406 -8.253906 Z M -5.824219 -8.359375 C -8.035156 -10.195312 -8.5625 -13.011719 -7.0625 -15.5625 C -5.578125 -18.089844 -2.941406 -19.046875 -0.132812 -18.039062 Z M -5.824219 -8.359375 "/></g></g></g><g fill="#ffffff" fill-opacity="1"><g transform="translate(786.889536, 304.990973)"><g><path d="M 1.453125 -2.472656 L 2.765625 -4.707031 L -4.203125 -8.800781 C -7.234375 -10.582031 -8.175781 -13.605469 -6.660156 -16.1875 C -5.238281 -18.605469 -2.609375 -19.066406 0.183594 -17.421875 L 7.65625 -13.03125 L 8.96875 -15.265625 L 1.285156 -19.78125 C -2.652344 -22.09375 -6.460938 -21.398438 -8.617188 -17.730469 C -9.710938 -15.867188 -10.054688 -13.636719 -9.109375 -11.472656 L -11.273438 -12.417969 L -12.351562 -10.585938 Z M 1.453125 -2.472656 "/></g></g></g><g fill="#ffffff" fill-opacity="1"><g transform="translate(800.282275, 282.1979)"><g><path d="M 4.953125 -8.429688 L 6.171875 -10.503906 L 4.019531 -11.769531 L 2.863281 -9.804688 C 1.785156 -7.96875 0.351562 -7.664062 -1.640625 -8.835938 L -8.316406 -12.757812 L -5.691406 -17.226562 L -7.738281 -18.429688 L -10.367188 -13.960938 L -13.796875 -15.976562 L -14.8125 -14.25 L -13.074219 -12.941406 C -11.917969 -12.046875 -11.820312 -11.488281 -12.570312 -10.210938 L -13.382812 -8.828125 L -11.332031 -7.625 L -9.628906 -10.523438 L -2.847656 -6.539062 C 0.316406 -4.679688 3.15625 -5.371094 4.953125 -8.429688 Z M 4.953125 -8.429688 "/></g></g></g><g fill="#ffffff" fill-opacity="1"><g transform="translate(810.346535, 265.069557)"><g><path d="M 4.738281 -7.269531 C 6.738281 -10.675781 6.464844 -13.804688 4.070312 -15.210938 C 1.917969 -16.476562 -0.609375 -15.527344 -3.347656 -12.449219 C -5.59375 -9.90625 -6.730469 -9.25 -7.898438 -9.9375 C -9.125 -10.65625 -9.179688 -12.265625 -8.007812 -14.257812 C -6.773438 -16.359375 -5.214844 -17.125 -3.605469 -16.394531 L -2.308594 -18.601562 C -5.128906 -20.007812 -7.992188 -18.792969 -9.992188 -15.386719 C -11.945312 -12.0625 -11.671875 -9.183594 -9.199219 -7.730469 C -7.015625 -6.449219 -4.703125 -7.34375 -2.023438 -10.5625 C 0.0078125 -12.984375 1.472656 -13.769531 2.722656 -13.035156 C 3.972656 -12.300781 3.992188 -10.570312 2.757812 -8.46875 C 1.367188 -6.101562 -0.472656 -5.285156 -2.195312 -6.191406 L -3.492188 -3.984375 C -0.640625 -2.378906 2.613281 -3.652344 4.738281 -7.269531 Z M 4.738281 -7.269531 "/></g></g></g><g fill="#ffffff" fill-opacity="1"><g transform="translate(822.004719, 245.228519)"><g/></g></g><g fill="#ffffff" fill-opacity="1"><g transform="translate(829.006157, 233.312787)"><g><path d="M -12.976562 -12.742188 L -11.570312 -11.914062 L -13.335938 -8.910156 L -11.285156 -7.707031 L -9.519531 -10.710938 L 2.234375 -3.804688 L 3.546875 -6.039062 L -8.207031 -12.945312 L -5.378906 -17.757812 L -7.425781 -18.960938 L -10.257812 -14.148438 L -11.53125 -14.898438 C -13.527344 -16.070312 -13.878906 -17.421875 -12.738281 -19.363281 L -11.472656 -21.515625 L -13.574219 -22.75 L -14.964844 -20.386719 C -16.792969 -17.273438 -16.117188 -14.585938 -12.976562 -12.742188 Z M -12.976562 -12.742188 "/></g></g></g><g fill="#ffffff" fill-opacity="1"><g transform="translate(838.742261, 216.742932)"><g><path d="M 5.457031 -8.492188 C 7.972656 -12.777344 6.722656 -17.589844 2.492188 -20.074219 C -1.734375 -22.558594 -6.523438 -21.292969 -9.039062 -17.011719 C -11.554688 -12.730469 -10.332031 -7.929688 -6.101562 -5.445312 C -1.875 -2.960938 2.941406 -4.210938 5.457031 -8.492188 Z M -4.789062 -7.679688 C -7.796875 -9.445312 -8.660156 -12.78125 -6.910156 -15.761719 C -5.160156 -18.738281 -1.824219 -19.605469 1.179688 -17.839844 C 4.210938 -16.058594 5.050781 -12.738281 3.300781 -9.757812 C 1.550781 -6.78125 -1.757812 -5.898438 -4.789062 -7.679688 Z M -4.789062 -7.679688 "/></g></g></g><g fill="#ffffff" fill-opacity="1"><g transform="translate(852.088119, 194.029646)"><g><path d="M 1.453125 -2.472656 L 2.765625 -4.707031 L -3.644531 -8.472656 C -7.578125 -10.785156 -7.804688 -13.566406 -6.335938 -16.066406 L -5.539062 -17.425781 L -7.613281 -18.644531 L -8.347656 -17.394531 C -9.726562 -15.050781 -9.792969 -13.230469 -8.722656 -11.277344 L -11.273438 -12.417969 L -12.351562 -10.585938 Z M 1.453125 -2.472656 "/></g></g></g><g fill="#ffffff" fill-opacity="1"><g transform="translate(738.056421, 472.364467)"><g><path d="M 1.453125 -2.472656 L 2.765625 -4.707031 L -11.039062 -12.816406 L -12.351562 -10.585938 Z M -16.773438 -12.253906 C -15.789062 -11.675781 -14.621094 -11.953125 -13.980469 -13.046875 C -13.339844 -14.136719 -13.679688 -15.265625 -14.664062 -15.84375 C -15.671875 -16.4375 -16.824219 -16.183594 -17.464844 -15.09375 C -18.105469 -14.003906 -17.785156 -12.847656 -16.773438 -12.253906 Z M -16.773438 -12.253906 "/></g></g></g><g fill="#ffffff" fill-opacity="1"><g transform="translate(745.401651, 459.863636)"><g><path d="M 1.453125 -2.472656 L 2.765625 -4.707031 L -4.203125 -8.800781 C -7.234375 -10.582031 -8.175781 -13.605469 -6.660156 -16.1875 C -5.238281 -18.605469 -2.609375 -19.066406 0.183594 -17.421875 L 7.65625 -13.03125 L 8.96875 -15.265625 L 1.285156 -19.78125 C -2.652344 -22.09375 -6.460938 -21.398438 -8.617188 -17.730469 C -9.710938 -15.867188 -10.054688 -13.636719 -9.109375 -11.472656 L -11.273438 -12.417969 L -12.351562 -10.585938 Z M 1.453125 -2.472656 "/></g></g></g><g fill="#ffffff" fill-opacity="1"><g transform="translate(758.794394, 437.070556)"><g><path d="M 4.953125 -8.429688 L 6.171875 -10.503906 L 4.019531 -11.769531 L 2.863281 -9.804688 C 1.785156 -7.96875 0.351562 -7.664062 -1.640625 -8.835938 L -8.316406 -12.757812 L -5.691406 -17.226562 L -7.738281 -18.429688 L -10.367188 -13.960938 L -13.796875 -15.976562 L -14.8125 -14.25 L -13.074219 -12.941406 C -11.917969 -12.046875 -11.820312 -11.488281 -12.570312 -10.210938 L -13.382812 -8.828125 L -11.332031 -7.625 L -9.628906 -10.523438 L -2.847656 -6.539062 C 0.316406 -4.679688 3.15625 -5.371094 4.953125 -8.429688 Z M 4.953125 -8.429688 "/></g></g></g><g fill="#ffffff" fill-opacity="1"><g transform="translate(768.858657, 419.942208)"><g><path d="M 5.316406 -8.253906 C 7.144531 -11.367188 6.96875 -14.902344 4.9375 -17.597656 L 3.453125 -15.074219 C 4.417969 -13.363281 4.292969 -11.324219 3.230469 -9.515625 C 1.683594 -6.882812 -1.058594 -5.988281 -3.871094 -7.175781 L 3.148438 -19.117188 C -1.574219 -22.105469 -6.570312 -21.214844 -9.164062 -16.796875 C -11.617188 -12.621094 -10.359375 -7.945312 -6.101562 -5.445312 C -1.820312 -2.929688 2.863281 -4.078125 5.316406 -8.253906 Z M -5.824219 -8.359375 C -8.035156 -10.195312 -8.5625 -13.011719 -7.0625 -15.5625 C -5.578125 -18.089844 -2.941406 -19.046875 -0.132812 -18.039062 Z M -5.824219 -8.359375 "/></g></g></g><g fill="#ffffff" fill-opacity="1"><g transform="translate(781.92324, 397.707623)"><g><path d="M 1.453125 -2.472656 L 2.765625 -4.707031 L -3.644531 -8.472656 C -7.578125 -10.785156 -7.804688 -13.566406 -6.335938 -16.066406 L -5.539062 -17.425781 L -7.613281 -18.644531 L -8.347656 -17.394531 C -9.726562 -15.050781 -9.792969 -13.230469 -8.722656 -11.277344 L -11.273438 -12.417969 L -12.351562 -10.585938 Z M 1.453125 -2.472656 "/></g></g></g><g fill="#ffffff" fill-opacity="1"><g transform="translate(791.862493, 380.792029)"><g><path d="M 1.453125 -2.472656 L 2.765625 -4.707031 L -4.203125 -8.800781 C -7.234375 -10.582031 -8.175781 -13.605469 -6.660156 -16.1875 C -5.238281 -18.605469 -2.609375 -19.066406 0.183594 -17.421875 L 7.65625 -13.03125 L 8.96875 -15.265625 L 1.285156 -19.78125 C -2.652344 -22.09375 -6.460938 -21.398438 -8.617188 -17.730469 C -9.710938 -15.867188 -10.054688 -13.636719 -9.109375 -11.472656 L -11.273438 -12.417969 L -12.351562 -10.585938 Z M 1.453125 -2.472656 "/></g></g></g><g fill="#ffffff" fill-opacity="1"><g transform="translate(805.255238, 357.998946)"><g><path d="M 4.738281 -7.269531 C 6.738281 -10.675781 6.464844 -13.804688 4.070312 -15.210938 C 1.917969 -16.476562 -0.609375 -15.527344 -3.347656 -12.449219 C -5.59375 -9.90625 -6.730469 -9.25 -7.898438 -9.9375 C -9.125 -10.65625 -9.179688 -12.265625 -8.007812 -14.257812 C -6.773438 -16.359375 -5.214844 -17.125 -3.605469 -16.394531 L -2.308594 -18.601562 C -5.128906 -20.007812 -7.992188 -18.792969 -9.992188 -15.386719 C -11.945312 -12.0625 -11.671875 -9.183594 -9.199219 -7.730469 C -7.015625 -6.449219 -4.703125 -7.34375 -2.023438 -10.5625 C 0.0078125 -12.984375 1.472656 -13.769531 2.722656 -13.035156 C 3.972656 -12.300781 3.992188 -10.570312 2.757812 -8.46875 C 1.367188 -6.101562 -0.472656 -5.285156 -2.195312 -6.191406 L -3.492188 -3.984375 C -0.640625 -2.378906 2.613281 -3.652344 4.738281 -7.269531 Z M 4.738281 -7.269531 "/></g></g></g><g fill="#ffffff" fill-opacity="1"><g transform="translate(816.913422, 338.157908)"><g><path d="M 1.453125 -2.472656 L 2.765625 -4.707031 L -4.28125 -8.847656 C -7.3125 -10.628906 -8.175781 -13.605469 -6.644531 -16.210938 C -5.238281 -18.605469 -2.660156 -19.097656 0.105469 -17.46875 L 7.65625 -13.03125 L 8.96875 -15.265625 L 1.203125 -19.828125 C -2.730469 -22.140625 -6.460938 -21.398438 -8.601562 -17.753906 C -9.648438 -15.972656 -10.015625 -13.828125 -9.230469 -11.753906 L -16.914062 -16.273438 L -18.226562 -14.039062 Z M 1.453125 -2.472656 "/></g></g></g><g fill="#ffffff" fill-opacity="1"><g transform="translate(830.306166, 315.364825)"><g><path d="M 1.453125 -2.472656 L 2.765625 -4.707031 L -11.039062 -12.816406 L -12.351562 -10.585938 Z M -16.773438 -12.253906 C -15.789062 -11.675781 -14.621094 -11.953125 -13.980469 -13.046875 C -13.339844 -14.136719 -13.679688 -15.265625 -14.664062 -15.84375 C -15.671875 -16.4375 -16.824219 -16.183594 -17.464844 -15.09375 C -18.105469 -14.003906 -17.785156 -12.847656 -16.773438 -12.253906 Z M -16.773438 -12.253906 "/></g></g></g><g fill="#ffffff" fill-opacity="1"><g transform="translate(837.651398, 302.863992)"><g><path d="M 6.222656 -9.796875 C 8.613281 -13.867188 7.289062 -18.617188 3.085938 -21.085938 C -1.089844 -23.539062 -5.882812 -22.382812 -8.273438 -18.3125 C -9.601562 -16.054688 -9.796875 -13.589844 -8.988281 -11.433594 L -11.273438 -12.417969 L -12.351562 -10.585938 L 6.773438 0.652344 L 8.085938 -1.582031 L 0.796875 -5.863281 C 2.96875 -6.269531 4.941406 -7.617188 6.222656 -9.796875 Z M -4.195312 -8.691406 C -7.175781 -10.441406 -8.066406 -13.792969 -6.316406 -16.769531 C -4.550781 -19.777344 -1.203125 -20.601562 1.773438 -18.851562 C 4.777344 -17.085938 5.660156 -13.777344 3.894531 -10.769531 C 2.144531 -7.792969 -1.191406 -6.925781 -4.195312 -8.691406 Z M -4.195312 -8.691406 "/></g></g></g><g fill="#ffffff" fill-opacity="1"><g transform="translate(851.591067, 279.140098)"><g><path d="M 4.738281 -7.269531 C 6.738281 -10.675781 6.464844 -13.804688 4.070312 -15.210938 C 1.917969 -16.476562 -0.609375 -15.527344 -3.347656 -12.449219 C -5.59375 -9.90625 -6.730469 -9.25 -7.898438 -9.9375 C -9.125 -10.65625 -9.179688 -12.265625 -8.007812 -14.257812 C -6.773438 -16.359375 -5.214844 -17.125 -3.605469 -16.394531 L -2.308594 -18.601562 C -5.128906 -20.007812 -7.992188 -18.792969 -9.992188 -15.386719 C -11.945312 -12.0625 -11.671875 -9.183594 -9.199219 -7.730469 C -7.015625 -6.449219 -4.703125 -7.34375 -2.023438 -10.5625 C 0.0078125 -12.984375 1.472656 -13.769531 2.722656 -13.035156 C 3.972656 -12.300781 3.992188 -10.570312 2.757812 -8.46875 C 1.367188 -6.101562 -0.472656 -5.285156 -2.195312 -6.191406 L -3.492188 -3.984375 C -0.640625 -2.378906 2.613281 -3.652344 4.738281 -7.269531 Z M 4.738281 -7.269531 "/></g></g></g><g fill="#ffffff" fill-opacity="1"><g transform="translate(387.065903, 461.873046)"><g><path d="M 5.582031 -8.707031 C 7.972656 -12.777344 7.523438 -16.582031 4.28125 -18.488281 C 1.539062 -20.097656 -1.1875 -19.230469 -5.15625 -15.15625 C -8.15625 -12.054688 -9.820312 -11.421875 -11.359375 -12.328125 C -13.144531 -13.375 -13.324219 -15.628906 -11.757812 -18.289062 C -10.148438 -21.027344 -7.765625 -21.917969 -5.5 -20.65625 L -4.140625 -22.972656 C -7.773438 -25.070312 -11.539062 -23.777344 -13.992188 -19.601562 C -16.386719 -15.53125 -15.90625 -11.777344 -12.765625 -9.933594 C -9.894531 -8.246094 -7.097656 -9.355469 -3.316406 -13.292969 C -0.550781 -16.171875 1.207031 -17.035156 2.9375 -16.019531 C 4.773438 -14.941406 4.894531 -12.652344 3.347656 -10.019531 C 1.644531 -7.121094 -0.980469 -5.941406 -3.40625 -7.296875 L -4.78125 -4.957031 C -1.121094 -2.839844 2.972656 -4.265625 5.582031 -8.707031 Z M 5.582031 -8.707031 "/></g></g></g><g fill="#ffffff" fill-opacity="1"><g transform="translate(400.302385, 439.345906)"><g><path d="M 5.035156 -7.777344 C 6.113281 -9.609375 6.414062 -11.832031 5.496094 -13.980469 L 7.65625 -13.03125 L 8.734375 -14.867188 L -5.066406 -22.976562 L -6.378906 -20.742188 L 0.585938 -16.648438 C 3.59375 -14.882812 4.566406 -11.914062 3.050781 -9.335938 C 1.660156 -6.96875 -0.953125 -6.535156 -3.71875 -8.160156 L -11.195312 -12.550781 L -12.507812 -10.316406 L -4.820312 -5.800781 C -0.882812 -3.488281 2.910156 -4.160156 5.035156 -7.777344 Z M 5.035156 -7.777344 "/></g></g></g><g fill="#ffffff" fill-opacity="1"><g transform="translate(413.616998, 416.685795)"><g><path d="M 6.222656 -9.796875 C 8.613281 -13.867188 7.289062 -18.617188 3.085938 -21.085938 C -1.089844 -23.539062 -5.882812 -22.382812 -8.273438 -18.3125 C -9.554688 -16.132812 -9.769531 -13.753906 -9.070312 -11.660156 L -16.914062 -16.273438 L -18.226562 -14.039062 L 1.453125 -2.472656 L 2.53125 -4.308594 L 0.558594 -5.824219 C 2.835938 -6.167969 4.894531 -7.535156 6.222656 -9.796875 Z M -4.195312 -8.691406 C -7.175781 -10.441406 -8.066406 -13.792969 -6.316406 -16.769531 C -4.550781 -19.777344 -1.203125 -20.601562 1.773438 -18.851562 C 4.777344 -17.085938 5.660156 -13.777344 3.894531 -10.769531 C 2.144531 -7.792969 -1.191406 -6.925781 -4.195312 -8.691406 Z M -4.195312 -8.691406 "/></g></g></g><g fill="#ffffff" fill-opacity="1"><g transform="translate(427.556679, 392.961882)"><g><path d="M 4.738281 -7.269531 C 6.738281 -10.675781 6.464844 -13.804688 4.070312 -15.210938 C 1.917969 -16.476562 -0.609375 -15.527344 -3.347656 -12.449219 C -5.59375 -9.90625 -6.730469 -9.25 -7.898438 -9.9375 C -9.125 -10.65625 -9.179688 -12.265625 -8.007812 -14.257812 C -6.773438 -16.359375 -5.214844 -17.125 -3.605469 -16.394531 L -2.308594 -18.601562 C -5.128906 -20.007812 -7.992188 -18.792969 -9.992188 -15.386719 C -11.945312 -12.0625 -11.671875 -9.183594 -9.199219 -7.730469 C -7.015625 -6.449219 -4.703125 -7.34375 -2.023438 -10.5625 C 0.0078125 -12.984375 1.472656 -13.769531 2.722656 -13.035156 C 3.972656 -12.300781 3.992188 -10.570312 2.757812 -8.46875 C 1.367188 -6.101562 -0.472656 -5.285156 -2.195312 -6.191406 L -3.492188 -3.984375 C -0.640625 -2.378906 2.613281 -3.652344 4.738281 -7.269531 Z M 4.738281 -7.269531 "/></g></g></g><g fill="#ffffff" fill-opacity="1"><g transform="translate(439.214869, 373.120834)"><g><path d="M 5.332031 -8.28125 C 7.363281 -11.738281 6.867188 -15.644531 4.0625 -18.542969 L 2.671875 -16.175781 C 4.257812 -14.3125 4.488281 -11.78125 3.175781 -9.546875 C 1.503906 -6.699219 -1.785156 -5.914062 -4.789062 -7.679688 C -7.769531 -9.429688 -8.707031 -12.703125 -7.035156 -15.546875 C -5.800781 -17.648438 -3.640625 -18.707031 -1.242188 -18.40625 L 0.0859375 -20.664062 C -3.433594 -21.804688 -7.148438 -20.230469 -9.164062 -16.796875 C -11.601562 -12.648438 -10.304688 -7.914062 -6.101562 -5.445312 C -1.875 -2.960938 2.894531 -4.132812 5.332031 -8.28125 Z M 5.332031 -8.28125 "/></g></g></g><g fill="#ffffff" fill-opacity="1"><g transform="translate(452.248201, 350.939434)"><g><path d="M 1.453125 -2.472656 L 2.765625 -4.707031 L -3.644531 -8.472656 C -7.578125 -10.785156 -7.804688 -13.566406 -6.335938 -16.066406 L -5.539062 -17.425781 L -7.613281 -18.644531 L -8.347656 -17.394531 C -9.726562 -15.050781 -9.792969 -13.230469 -8.722656 -11.277344 L -11.273438 -12.417969 L -12.351562 -10.585938 Z M 1.453125 -2.472656 "/></g></g></g><g fill="#ffffff" fill-opacity="1"><g transform="translate(462.187461, 334.02383)"><g><path d="M 1.453125 -2.472656 L 2.765625 -4.707031 L -11.039062 -12.816406 L -12.351562 -10.585938 Z M -16.773438 -12.253906 C -15.789062 -11.675781 -14.621094 -11.953125 -13.980469 -13.046875 C -13.339844 -14.136719 -13.679688 -15.265625 -14.664062 -15.84375 C -15.671875 -16.4375 -16.824219 -16.183594 -17.464844 -15.09375 C -18.105469 -14.003906 -17.785156 -12.847656 -16.773438 -12.253906 Z M -16.773438 -12.253906 "/></g></g></g><g fill="#ffffff" fill-opacity="1"><g transform="translate(469.532698, 321.522987)"><g><path d="M 6.222656 -9.796875 C 8.613281 -13.867188 7.289062 -18.617188 3.085938 -21.085938 C -1.089844 -23.539062 -5.882812 -22.382812 -8.273438 -18.3125 C -9.554688 -16.132812 -9.769531 -13.753906 -9.070312 -11.660156 L -16.914062 -16.273438 L -18.226562 -14.039062 L 1.453125 -2.472656 L 2.53125 -4.308594 L 0.558594 -5.824219 C 2.835938 -6.167969 4.894531 -7.535156 6.222656 -9.796875 Z M -4.195312 -8.691406 C -7.175781 -10.441406 -8.066406 -13.792969 -6.316406 -16.769531 C -4.550781 -19.777344 -1.203125 -20.601562 1.773438 -18.851562 C 4.777344 -17.085938 5.660156 -13.777344 3.894531 -10.769531 C 2.144531 -7.792969 -1.191406 -6.925781 -4.195312 -8.691406 Z M -4.195312 -8.691406 "/></g></g></g><g fill="#ffffff" fill-opacity="1"><g transform="translate(483.472379, 297.799073)"><g><path d="M 5.316406 -8.253906 C 7.144531 -11.367188 6.96875 -14.902344 4.9375 -17.597656 L 3.453125 -15.074219 C 4.417969 -13.363281 4.292969 -11.324219 3.230469 -9.515625 C 1.683594 -6.882812 -1.058594 -5.988281 -3.871094 -7.175781 L 3.148438 -19.117188 C -1.574219 -22.105469 -6.570312 -21.214844 -9.164062 -16.796875 C -11.617188 -12.621094 -10.359375 -7.945312 -6.101562 -5.445312 C -1.820312 -2.929688 2.863281 -4.078125 5.316406 -8.253906 Z M -5.824219 -8.359375 C -8.035156 -10.195312 -8.5625 -13.011719 -7.0625 -15.5625 C -5.578125 -18.089844 -2.941406 -19.046875 -0.132812 -18.039062 Z M -5.824219 -8.359375 "/></g></g></g><g clip-path="url(#1ee5b2cfcf)"><path fill="#c20400" d="M 668.007812 549.128906 C 647.941406 549.128906 631.683594 532.761719 631.683594 512.808594 C 631.683594 492.851562 647.941406 476.484375 668.007812 476.484375 C 688.074219 476.484375 704.328125 492.742188 704.328125 512.808594 C 704.328125 532.875 687.960938 549.128906 668.007812 549.128906 Z M 668.007812 478.726562 C 649.171875 478.726562 633.925781 493.972656 633.925781 512.808594 C 633.925781 531.640625 649.171875 546.886719 668.007812 546.886719 C 686.839844 546.886719 702.085938 531.640625 702.085938 512.808594 C 702.085938 493.972656 686.730469 478.726562 668.007812 478.726562 Z M 668.007812 478.726562 " fill-opacity="1" fill-rule="nonzero"/></g><g mask="url(#3acb22be19)"><g transform="matrix(1, 0, 0, 1, 431, 535)"><g clip-path="url(#d8df93a034)"><g clip-path="url(#6472538a61)"><path fill="#ffffff" d="M 40.777344 665.011719 C 40.777344 663.949219 40.585938 662.867188 40.1875 661.820312 C 38.425781 657.183594 33.230469 654.855469 28.59375 656.617188 C 22.113281 659.082031 15.453125 661.222656 8.78125 662.976562 C 3.984375 664.234375 1.117188 669.144531 2.378906 673.941406 C 3.636719 678.738281 8.546875 681.613281 13.34375 680.347656 C 20.632812 678.433594 27.914062 676.101562 34.988281 673.402344 C 38.574219 672.042969 40.777344 668.628906 40.777344 665.011719 Z M 105.800781 621.496094 C 105.800781 618.945312 104.710938 616.410156 102.613281 614.628906 C 98.816406 611.429688 93.148438 611.910156 89.949219 615.703125 C 82.542969 624.480469 73.1875 632.566406 62.144531 639.75 C 57.984375 642.449219 56.804688 648.015625 59.511719 652.175781 C 62.214844 656.335938 67.777344 657.511719 71.941406 654.808594 C 84.460938 646.667969 95.136719 637.410156 103.683594 627.289062 C 105.101562 625.601562 105.800781 623.546875 105.800781 621.496094 Z M 132.585938 548.378906 C 132.585938 543.941406 129.304688 540.085938 124.789062 539.484375 C 119.871094 538.832031 115.355469 542.289062 114.695312 547.203125 C 112.679688 562.34375 110.191406 574.515625 107.089844 584.414062 C 105.605469 589.148438 108.234375 594.191406 112.96875 595.671875 C 117.707031 597.160156 122.746094 594.523438 124.234375 589.789062 C 127.644531 578.894531 130.351562 565.742188 132.503906 549.574219 C 132.5625 549.171875 132.585938 548.773438 132.585938 548.378906 Z M 139.195312 469.496094 C 139.195312 464.8125 135.566406 460.863281 130.820312 460.542969 C 125.875 460.207031 121.589844 463.941406 121.25 468.894531 C 120.964844 473.015625 120.695312 477.125 120.421875 481.21875 C 119.796875 490.605469 119.207031 499.476562 118.539062 508.320312 C 118.160156 513.261719 121.867188 517.578125 126.816406 517.953125 C 131.765625 518.328125 136.078125 514.621094 136.453125 509.675781 C 137.128906 500.746094 137.75 491.429688 138.347656 482.40625 C 138.617188 478.328125 138.894531 474.230469 139.175781 470.113281 C 139.191406 469.90625 139.195312 469.703125 139.195312 469.496094 Z M 147.398438 390.785156 C 147.398438 386.484375 144.296875 382.683594 139.914062 381.941406 C 135.023438 381.113281 130.386719 384.40625 129.558594 389.296875 C 127.558594 401.070312 125.875 414.113281 124.417969 429.171875 C 123.933594 434.113281 127.546875 438.5 132.488281 438.984375 C 137.421875 439.464844 141.820312 435.851562 142.300781 430.914062 C 143.71875 416.28125 145.34375 403.652344 147.269531 392.300781 C 147.355469 391.792969 147.398438 391.28125 147.398438 390.785156 Z M 173.023438 316.628906 C 173.023438 313.746094 171.636719 310.910156 169.066406 309.175781 C 164.957031 306.402344 159.371094 307.476562 156.59375 311.59375 C 149.496094 322.09375 143.703125 334.527344 138.894531 349.578125 C 137.382812 354.308594 139.988281 359.363281 144.714844 360.871094 C 149.445312 362.382812 154.5 359.773438 156.003906 355.050781 C 160.226562 341.832031 165.4375 330.589844 171.484375 321.648438 C 172.523438 320.109375 173.023438 318.359375 173.023438 316.628906 Z M 239.804688 282.601562 C 239.804688 278.121094 236.449219 274.242188 231.886719 273.695312 C 229.515625 273.417969 227.125 273.265625 224.78125 273.273438 C 222.445312 273.273438 220.089844 273.417969 217.78125 273.691406 C 207.226562 274.980469 197.4375 277.902344 188.679688 282.390625 C 184.265625 284.652344 182.519531 290.066406 184.785156 294.484375 C 187.046875 298.898438 192.460938 300.644531 196.875 298.382812 C 203.738281 294.863281 211.503906 292.554688 219.953125 291.527344 C 221.542969 291.332031 223.167969 291.234375 224.78125 291.234375 C 226.414062 291.234375 228.089844 291.335938 229.75 291.535156 C 234.679688 292.121094 239.152344 288.605469 239.742188 283.683594 C 239.78125 283.316406 239.804688 282.957031 239.804688 282.601562 Z M 304.621094 325.089844 C 304.621094 322.914062 303.835938 320.734375 302.246094 319.003906 C 291.316406 307.152344 281.390625 298.015625 271.90625 291.078125 C 267.90625 288.148438 262.285156 289.023438 259.351562 293.023438 C 256.425781 297.03125 257.296875 302.652344 261.304688 305.582031 C 269.832031 311.816406 278.902344 320.1875 289.035156 331.179688 C 292.394531 334.832031 298.078125 335.058594 301.726562 331.699219 C 303.648438 329.925781 304.621094 327.511719 304.621094 325.089844 Z M 354.898438 386.164062 C 354.898438 384.257812 354.296875 382.347656 353.050781 380.714844 C 351.796875 379.074219 350.558594 377.453125 349.347656 375.863281 C 341.382812 365.433594 334.507812 356.417969 328.464844 349.195312 C 325.28125 345.390625 319.613281 344.886719 315.808594 348.070312 C 312.003906 351.25 311.496094 356.910156 314.679688 360.71875 C 320.472656 367.636719 327.234375 376.5 335.0625 386.761719 C 336.28125 388.359375 337.519531 389.976562 338.777344 391.625 C 341.789062 395.570312 347.429688 396.320312 351.367188 393.308594 C 353.683594 391.539062 354.898438 388.867188 354.898438 386.164062 Z M 405.382812 447.070312 C 405.382812 444.847656 404.5625 442.617188 402.910156 440.882812 C 394.859375 432.421875 386.484375 422.855469 377.304688 411.617188 C 374.160156 407.777344 368.503906 407.210938 364.664062 410.347656 C 360.824219 413.488281 360.25 419.144531 363.394531 422.984375 C 372.863281 434.574219 381.527344 444.476562 389.890625 453.261719 C 393.316406 456.859375 399 457 402.59375 453.578125 C 404.449219 451.816406 405.382812 449.445312 405.382812 447.070312 Z M 468.367188 493.832031 C 468.367188 490.175781 466.117188 486.734375 462.484375 485.402344 C 452.6875 481.800781 442.085938 475.554688 430.976562 466.832031 C 427.078125 463.773438 421.429688 464.453125 418.367188 468.355469 C 415.304688 472.253906 415.976562 477.902344 419.882812 480.964844 C 432.476562 490.851562 444.722656 498.015625 456.285156 502.261719 C 460.945312 503.972656 466.105469 501.585938 467.820312 496.929688 C 468.191406 495.910156 468.367188 494.863281 468.367188 493.832031 Z M 538.90625 473.253906 C 538.90625 470.738281 537.851562 468.230469 535.789062 466.457031 C 532.035156 463.210938 526.363281 463.621094 523.121094 467.378906 C 522.6875 467.882812 522.253906 468.378906 521.804688 468.871094 C 513.492188 478.15625 504.609375 484.320312 495.398438 487.203125 C 490.660156 488.6875 488.027344 493.722656 489.507812 498.457031 C 490.984375 503.195312 496.027344 505.828125 500.761719 504.347656 C 513.105469 500.484375 524.683594 492.585938 535.191406 480.863281 C 535.699219 480.289062 536.214844 479.707031 536.71875 479.121094 C 538.183594 477.421875 538.90625 475.332031 538.90625 473.253906 Z M 571.214844 48.679688 C 571.214844 48.234375 571.183594 47.78125 571.117188 47.328125 C 569.167969 34.449219 567.011719 21.25 564.691406 8.105469 C 563.828125 3.214844 559.167969 -0.0390625 554.285156 0.816406 C 549.398438 1.683594 546.132812 6.339844 547 11.222656 C 549.289062 24.226562 551.429688 37.277344 553.347656 50.007812 C 554.085938 54.910156 558.664062 58.289062 563.570312 57.542969 C 568.019531 56.875 571.214844 53.046875 571.214844 48.679688 Z M 573.011719 402.730469 C 573.011719 398.722656 570.316406 395.070312 566.257812 394.035156 C 561.449219 392.804688 556.554688 395.699219 555.324219 400.507812 C 551.957031 413.65625 547.765625 425.667969 542.867188 436.21875 C 540.777344 440.71875 542.734375 446.058594 547.234375 448.144531 C 551.734375 450.234375 557.074219 448.285156 559.164062 443.785156 C 564.527344 432.242188 569.089844 419.179688 572.730469 404.960938 C 572.917969 404.21875 573.011719 403.46875 573.011719 402.730469 Z M 580.859375 127.121094 C 580.859375 126.839844 580.84375 126.554688 580.820312 126.269531 C 579.601562 113.292969 578.152344 99.984375 576.519531 86.71875 C 575.90625 81.796875 571.425781 78.296875 566.503906 78.90625 C 561.578125 79.511719 558.082031 83.992188 558.683594 88.914062 C 560.300781 102.011719 561.726562 115.140625 562.929688 127.945312 C 563.394531 132.882812 567.773438 136.511719 572.714844 136.050781 C 577.367188 135.613281 580.859375 131.699219 580.859375 127.121094 Z M 584.070312 324.546875 C 584.070312 319.828125 580.394531 315.875 575.621094 315.585938 C 570.667969 315.289062 566.417969 319.0625 566.117188 324.011719 C 565.265625 338.195312 564.074219 350.855469 562.488281 362.722656 C 561.832031 367.636719 565.28125 372.160156 570.199219 372.816406 C 575.117188 373.476562 579.632812 370.023438 580.296875 365.109375 C 581.941406 352.808594 583.171875 339.71875 584.054688 325.089844 C 584.066406 324.90625 584.070312 324.722656 584.070312 324.546875 Z M 585.753906 205.992188 C 585.753906 205.90625 585.753906 205.816406 585.746094 205.730469 C 585.371094 192.660156 584.757812 179.28125 583.925781 165.949219 C 583.617188 161 579.355469 157.234375 574.394531 157.542969 C 569.445312 157.851562 565.679688 162.113281 565.992188 167.070312 C 566.8125 180.203125 567.417969 193.382812 567.789062 206.25 C 567.933594 211.207031 572.070312 215.109375 577.03125 214.964844 C 581.902344 214.824219 585.753906 210.835938 585.753906 205.992188 Z M 586.199219 245.503906 C 586.199219 240.566406 582.214844 236.554688 577.28125 236.523438 C 572.316406 236.488281 568.265625 240.484375 568.230469 245.445312 C 568.207031 249.367188 568.15625 253.332031 568.085938 257.234375 C 568.035156 260.269531 567.984375 263.359375 567.933594 266.507812 C 567.835938 272.441406 567.734375 278.585938 567.601562 284.847656 C 567.492188 289.808594 571.429688 293.914062 576.386719 294.019531 C 581.351562 294.125 585.457031 290.191406 585.566406 285.230469 C 585.695312 278.921875 585.800781 272.761719 585.898438 266.804688 C 585.949219 263.664062 586 260.582031 586.050781 257.554688 C 586.125 253.589844 586.171875 249.554688 586.199219 245.566406 C 586.199219 245.542969 586.199219 245.523438 586.199219 245.503906 " fill-opacity="1" fill-rule="nonzero"/></g></g></g></g><g mask="url(#650e6e460b)"><g transform="matrix(1, 0, 0, 1, 363, 490)"><g clip-path="url(#f1b64ad3f6)"><g clip-path="url(#e552762460)"><g clip-path="url(#50f467c4fd)"><path fill="#c20400" d="M 11.425781 0.148438 L 11.425781 46.019531 L 19.996094 46.019531 L 19.996094 0.148438 Z M 11.425781 0.148438 " fill-opacity="1" fill-rule="nonzero"/></g></g><g clip-path="url(#097e708ece)"><g clip-path="url(#61a9a1b7e6)"><path fill="#c20400" d="M 0.00390625 0.09375 L 0.00390625 17.3125 L 20.132812 17.3125 L 20.132812 0.09375 Z M 0.00390625 0.09375 " fill-opacity="1" fill-rule="nonzero"/></g></g></g></g></g><g mask="url(#587daea81c)"><g transform="matrix(1, 0, 0, 1, 653, 489)"><g clip-path="url(#9bcc985361)"><g clip-path="url(#06121fea09)"><g clip-path="url(#1bd1036f40)"><path fill="#c20400" d="M 0.945312 0.613281 L 0.945312 47 L 31.824219 47 L 31.824219 0.613281 Z M 0.945312 0.613281 " fill-opacity="1" fill-rule="nonzero"/></g></g><g clip-path="url(#b735391410)"><g clip-path="url(#31e68b71ad)"><path fill="#c20400" d="M 1.03125 38.21875 L 1.03125 47 L 32.074219 47 L 32.074219 38.21875 Z M 1.03125 38.21875 " fill-opacity="1" fill-rule="nonzero"/></g></g></g></g></g><g fill="#ffffff" fill-opacity="1"><g transform="translate(33.695874, 94.29042)"><g><path d="M 27.464844 0.90625 C 40.214844 0.90625 47.914062 -7.46875 47.914062 -21.503906 L 47.914062 -52.816406 L 41.273438 -52.816406 L 41.273438 -21.957031 C 41.273438 -11.167969 36.519531 -5.582031 27.464844 -5.582031 C 18.484375 -5.582031 13.65625 -11.167969 13.65625 -21.957031 L 13.65625 -52.816406 L 7.09375 -52.816406 L 7.09375 -21.503906 C 7.09375 -7.46875 14.714844 0.90625 27.464844 0.90625 Z M 27.464844 0.90625 "/></g></g></g><g fill="#ffffff" fill-opacity="1"><g transform="translate(98.511394, 94.29042)"><g><path d="M 7.015625 0 L 13.355469 0 L 13.355469 -19.769531 C 13.355469 -28.371094 18.5625 -34.105469 25.878906 -34.105469 C 32.746094 -34.105469 36.972656 -29.125 36.972656 -21.203125 L 36.972656 0 L 43.308594 0 L 43.308594 -21.804688 C 43.308594 -32.972656 37.125 -40.140625 26.710938 -40.140625 C 21.429688 -40.140625 16.296875 -38.105469 12.902344 -33.425781 L 12.222656 -39.160156 L 7.015625 -39.160156 Z M 7.015625 0 "/></g></g></g><g fill="#ffffff" fill-opacity="1"><g transform="translate(157.894256, 94.29042)"><g><path d="M 7.015625 0 L 13.355469 0 L 13.355469 -39.160156 L 7.015625 -39.160156 Z M 5.054688 -50.554688 C 5.054688 -47.761719 7.09375 -45.648438 10.1875 -45.648438 C 13.28125 -45.648438 15.242188 -47.761719 15.242188 -50.554688 C 15.242188 -53.421875 13.28125 -55.535156 10.1875 -55.535156 C 7.09375 -55.535156 5.054688 -53.421875 5.054688 -50.554688 Z M 5.054688 -50.554688 "/></g></g></g><g fill="#ffffff" fill-opacity="1"><g transform="translate(188.076574, 94.29042)"><g><path d="M 18.335938 0 L 24.445312 0 L 41.652344 -39.160156 L 34.785156 -39.160156 L 29.351562 -26.785156 L 21.429688 -8.449219 L 13.429688 -26.785156 L 8.074219 -39.160156 L 1.207031 -39.160156 Z M 18.335938 0 "/></g></g></g><g fill="#ffffff" fill-opacity="1"><g transform="translate(240.744057, 94.29042)"><g><path d="M 23.996094 0.980469 C 32.824219 0.980469 40.066406 -3.773438 43.234375 -11.394531 L 36.066406 -11.394531 C 33.652344 -7.242188 29.199219 -4.980469 24.070312 -4.980469 C 16.601562 -4.980469 11.316406 -9.65625 10.335938 -17.050781 L 44.214844 -17.050781 C 44.667969 -30.710938 36.59375 -40.140625 24.070312 -40.140625 C 12.222656 -40.140625 3.921875 -31.691406 3.921875 -19.617188 C 3.921875 -7.46875 12.148438 0.980469 23.996094 0.980469 Z M 10.414062 -22.636719 C 11.542969 -29.578125 16.824219 -34.179688 24.070312 -34.179688 C 31.238281 -34.179688 36.519531 -29.804688 37.878906 -22.636719 Z M 10.414062 -22.636719 "/></g></g></g><g fill="#ffffff" fill-opacity="1"><g transform="translate(298.542396, 94.29042)"><g><path d="M 7.015625 0 L 13.355469 0 L 13.355469 -18.183594 C 13.355469 -29.351562 18.9375 -33.273438 26.03125 -33.273438 L 29.878906 -33.273438 L 29.878906 -39.160156 L 26.332031 -39.160156 C 19.695312 -39.160156 15.769531 -37.046875 12.976562 -32.371094 L 12.222656 -39.160156 L 7.015625 -39.160156 Z M 7.015625 0 "/></g></g></g><g fill="#ffffff" fill-opacity="1"><g transform="translate(341.250016, 94.29042)"><g><path d="M 21.203125 0.980469 C 30.859375 0.980469 37.125 -3.472656 37.125 -10.261719 C 37.125 -16.375 31.992188 -20.523438 22.109375 -22.484375 C 13.957031 -24.070312 11.167969 -25.652344 11.167969 -28.972656 C 11.167969 -32.445312 14.488281 -34.558594 20.144531 -34.558594 C 26.105469 -34.558594 29.652344 -32.21875 30.105469 -27.917969 L 36.367188 -27.917969 C 35.839844 -35.613281 29.730469 -40.140625 20.070312 -40.140625 C 10.640625 -40.140625 4.90625 -35.992188 4.90625 -28.972656 C 4.90625 -22.785156 9.65625 -19.015625 19.769531 -17.355469 C 27.390625 -16.070312 30.859375 -13.957031 30.859375 -10.414062 C 30.859375 -6.867188 27.238281 -4.679688 21.277344 -4.679688 C 14.5625 -4.679688 10.5625 -7.546875 10.335938 -12.300781 L 4.074219 -12.300781 C 4.226562 -4.300781 10.941406 0.980469 21.203125 0.980469 Z M 21.203125 0.980469 "/></g></g></g><g fill="#ffffff" fill-opacity="1"><g transform="translate(392.257525, 94.29042)"><g><path d="M 7.015625 0 L 13.355469 0 L 13.355469 -39.160156 L 7.015625 -39.160156 Z M 5.054688 -50.554688 C 5.054688 -47.761719 7.09375 -45.648438 10.1875 -45.648438 C 13.28125 -45.648438 15.242188 -47.761719 15.242188 -50.554688 C 15.242188 -53.421875 13.28125 -55.535156 10.1875 -55.535156 C 7.09375 -55.535156 5.054688 -53.421875 5.054688 -50.554688 Z M 5.054688 -50.554688 "/></g></g></g><g fill="#ffffff" fill-opacity="1"><g transform="translate(422.439831, 94.29042)"><g><path d="M 23.917969 0 L 29.804688 0 L 29.804688 -6.113281 L 24.21875 -6.113281 C 19.015625 -6.113281 16.601562 -8.753906 16.601562 -14.410156 L 16.601562 -33.351562 L 29.277344 -33.351562 L 29.277344 -39.160156 L 16.601562 -39.160156 L 16.601562 -48.894531 L 11.695312 -48.894531 L 11.089844 -43.613281 C 10.640625 -40.066406 9.582031 -39.160156 5.960938 -39.160156 L 2.039062 -39.160156 L 2.039062 -33.351562 L 10.261719 -33.351562 L 10.261719 -14.109375 C 10.261719 -5.128906 15.242188 0 23.917969 0 Z M 23.917969 0 "/></g></g></g><g fill="#ffffff" fill-opacity="1"><g transform="translate(465.75108, 94.29042)"><g><path d="M 5.660156 15.089844 L 10.109375 15.089844 C 17.429688 15.089844 20.976562 13.28125 23.691406 6.113281 L 41.652344 -39.160156 L 34.933594 -39.160156 L 27.617188 -20.675781 L 22.863281 -8.527344 L 17.128906 -20.675781 L 8.300781 -39.160156 L 1.207031 -39.160156 L 19.769531 -0.90625 L 17.957031 3.695312 C 16.296875 8.074219 14.5625 9.128906 9.507812 9.128906 L 5.660156 9.128906 Z M 5.660156 15.089844 "/></g></g></g></svg>